G04 (created by PCBNEW (2013-07-07 BZR 4022)-stable) date 17-Oct-13 4:43:26 PM*
%MOIN*%
G04 Gerber Fmt 3.4, Leading zero omitted, Abs format*
%FSLAX34Y34*%
G01*
G70*
G90*
G04 APERTURE LIST*
%ADD10C,0.00590551*%
%ADD11C,0.005*%
%ADD12C,0.04*%
%ADD13R,0.06X0.06*%
%ADD14C,0.06*%
%ADD15C,0.45*%
%ADD16C,0.07*%
%ADD17R,0.07X0.07*%
%ADD18C,0.075*%
%ADD19C,0.155*%
%ADD20O,0.1X0.18*%
%ADD21R,0.1X0.2*%
%ADD22O,0.15X0.07*%
%ADD23C,0.045*%
%ADD24R,0.04X0.05*%
%ADD25R,0.06X0.07*%
%ADD26C,0.0354331*%
%ADD27C,0.035*%
%ADD28C,0.01*%
%ADD29C,0.02*%
%ADD30C,0.008*%
G04 APERTURE END LIST*
G54D10*
G54D11*
X19900Y-19000D02*
X17500Y-19000D01*
X20400Y-19500D02*
G75*
G03X19900Y-19000I-500J0D01*
G74*
G01*
X27400Y-19000D02*
G75*
G03X26900Y-19500I0J-500D01*
G74*
G01*
X26400Y-20500D02*
G75*
G03X26900Y-20000I0J500D01*
G74*
G01*
X20400Y-20000D02*
G75*
G03X20900Y-20500I500J0D01*
G74*
G01*
X26900Y-19500D02*
X26900Y-20000D01*
X20400Y-19500D02*
X20400Y-20000D01*
X20900Y-20500D02*
X26400Y-20500D01*
X27400Y-19000D02*
X42500Y-19000D01*
X47500Y-40000D02*
G75*
G03X50000Y-37500I0J2500D01*
G74*
G01*
X42500Y-45000D02*
G75*
G03X45000Y-42500I0J2500D01*
G74*
G01*
X47500Y-40000D02*
G75*
G03X45000Y-42500I0J-2500D01*
G74*
G01*
X15000Y-42500D02*
G75*
G03X17500Y-45000I2500J0D01*
G74*
G01*
X10000Y-37500D02*
G75*
G03X12500Y-40000I2500J0D01*
G74*
G01*
X15000Y-42500D02*
G75*
G03X12500Y-40000I-2500J0D01*
G74*
G01*
X42500Y-19000D02*
G75*
G03X45000Y-16500I0J2500D01*
G74*
G01*
X50000Y-16500D02*
G75*
G03X47500Y-14000I-2500J0D01*
G74*
G01*
X47500Y-14000D02*
G75*
G03X45000Y-16500I0J-2500D01*
G74*
G01*
X15000Y-16500D02*
G75*
G03X17500Y-19000I2500J0D01*
G74*
G01*
X15000Y-16500D02*
G75*
G03X12500Y-14000I-2500J0D01*
G74*
G01*
X12500Y-14000D02*
G75*
G03X10000Y-16500I0J-2500D01*
G74*
G01*
X13850Y-38550D02*
X15350Y-38550D01*
X13850Y-27550D02*
X13850Y-38550D01*
X15350Y-27550D02*
X13850Y-27550D01*
X15350Y-38550D02*
X15350Y-27550D01*
X42500Y-45000D02*
X17500Y-45000D01*
X10000Y-37500D02*
X10000Y-16500D01*
X50000Y-16500D02*
X50000Y-37500D01*
G54D12*
X40610Y-30900D03*
X37400Y-32375D03*
G54D13*
X16500Y-41500D03*
X17500Y-41500D03*
G54D14*
X18500Y-41500D03*
X19500Y-41500D03*
X20500Y-41500D03*
X21500Y-41500D03*
G54D15*
X12500Y-16500D03*
G54D16*
X46500Y-29700D03*
X46500Y-30700D03*
X46500Y-31700D03*
G54D17*
X46500Y-32700D03*
G54D12*
X37400Y-31375D03*
X39800Y-36800D03*
X40800Y-36800D03*
G54D15*
X47500Y-16500D03*
G54D18*
X10600Y-35375D03*
X10600Y-32775D03*
G54D14*
X45575Y-20975D03*
X45575Y-21975D03*
G54D12*
X37675Y-21850D03*
G54D19*
X11100Y-26000D03*
X11100Y-37000D03*
G54D20*
X13125Y-20925D03*
G54D21*
X15487Y-20925D03*
G54D22*
X14306Y-18995D03*
G54D23*
X48363Y-23597D03*
X48363Y-26747D03*
G54D24*
X47615Y-27970D03*
X48415Y-27970D03*
G54D25*
X24890Y-44110D03*
X24890Y-40890D03*
X23110Y-40890D03*
X23110Y-44110D03*
X32890Y-44110D03*
X32890Y-40890D03*
X31110Y-40890D03*
X31110Y-44110D03*
X36890Y-44110D03*
X36890Y-40890D03*
X35110Y-40890D03*
X35110Y-44110D03*
X28890Y-44110D03*
X28890Y-40890D03*
X27110Y-40890D03*
X27110Y-44110D03*
X42740Y-44110D03*
X42740Y-40890D03*
X40960Y-40890D03*
X40960Y-44110D03*
G54D26*
X34290Y-21510D03*
X33109Y-21510D03*
G54D12*
X42900Y-39750D03*
X43900Y-39750D03*
X44900Y-39750D03*
X46400Y-20500D03*
X44400Y-20600D03*
X43400Y-20600D03*
X42400Y-20600D03*
X41400Y-20500D03*
X40000Y-20380D03*
X37800Y-20570D03*
X37300Y-23000D03*
X36300Y-23000D03*
X35300Y-23000D03*
X40900Y-39750D03*
X36900Y-39750D03*
X45900Y-39750D03*
X31300Y-21000D03*
G54D14*
X47900Y-39000D03*
X46900Y-39000D03*
X45900Y-39000D03*
X42900Y-39000D03*
X43900Y-39000D03*
X44900Y-39000D03*
X40900Y-39000D03*
X39900Y-39000D03*
X38900Y-39000D03*
X36900Y-39000D03*
X35900Y-39000D03*
X47900Y-20000D03*
X46900Y-20000D03*
X45900Y-20000D03*
X44900Y-20000D03*
X43900Y-20000D03*
X42900Y-20000D03*
X41900Y-20000D03*
X40900Y-20000D03*
X39300Y-20000D03*
X38300Y-20000D03*
X37300Y-20000D03*
X36300Y-20000D03*
X35300Y-20000D03*
X34300Y-20000D03*
X33300Y-20000D03*
X32300Y-20000D03*
X37900Y-39000D03*
G54D19*
X48900Y-37000D03*
X28900Y-20000D03*
X28400Y-39000D03*
G54D14*
X34900Y-39000D03*
X31300Y-20000D03*
X30300Y-20000D03*
X33900Y-39000D03*
G54D13*
X45500Y-36100D03*
G54D14*
X46500Y-36100D03*
X45500Y-35100D03*
X46500Y-35100D03*
X45500Y-34100D03*
X46500Y-34100D03*
G54D27*
X17740Y-28500D03*
X29675Y-26625D03*
X16800Y-30350D03*
X29075Y-27150D03*
X34400Y-24050D03*
X34500Y-44110D03*
X30500Y-44110D03*
X26500Y-44110D03*
X22500Y-44110D03*
X30825Y-29025D03*
X15250Y-25075D03*
X15250Y-24050D03*
X32375Y-37450D03*
X32825Y-25575D03*
X29225Y-29650D03*
X43750Y-34100D03*
X39650Y-30900D03*
X29875Y-21825D03*
X17425Y-21825D03*
X24000Y-39125D03*
X31625Y-32000D03*
X24475Y-33150D03*
X29625Y-33125D03*
X17350Y-29025D03*
X29525Y-27050D03*
X23925Y-34675D03*
X23925Y-37150D03*
X32550Y-32000D03*
X32890Y-41710D03*
X32400Y-29200D03*
X24890Y-41700D03*
X32100Y-31850D03*
X15225Y-26225D03*
X30000Y-33400D03*
X23900Y-33500D03*
X24975Y-35525D03*
X28225Y-27950D03*
X41650Y-36050D03*
X40960Y-41700D03*
X42150Y-30900D03*
X42310Y-33660D03*
X25520Y-34200D03*
X41650Y-30900D03*
X38275Y-22100D03*
X47900Y-30200D03*
X41150Y-30900D03*
X38250Y-22600D03*
X31975Y-27075D03*
X30275Y-27075D03*
X31475Y-39275D03*
X29275Y-32800D03*
X36890Y-41710D03*
X31650Y-26125D03*
X16560Y-27460D03*
X16800Y-29875D03*
X31100Y-26120D03*
X16800Y-29425D03*
X30780Y-26620D03*
X31975Y-26625D03*
X38150Y-34500D03*
X30475Y-29350D03*
X42690Y-33310D03*
X25900Y-33850D03*
X28890Y-41700D03*
X28900Y-32475D03*
X13000Y-35900D03*
X28200Y-35575D03*
X39150Y-35150D03*
X17050Y-34700D03*
X13775Y-23150D03*
X21200Y-38750D03*
X18700Y-35100D03*
X17400Y-36250D03*
X22775Y-35400D03*
X21550Y-35400D03*
X19275Y-36600D03*
X23100Y-37175D03*
X26875Y-34850D03*
X34600Y-23425D03*
X38275Y-27400D03*
X34600Y-26050D03*
X33800Y-27750D03*
X43225Y-24275D03*
X43225Y-22500D03*
X13125Y-26975D03*
X42150Y-30150D03*
X16625Y-35600D03*
X16625Y-33925D03*
G54D28*
X19935Y-26965D02*
X19935Y-28180D01*
X19615Y-28500D02*
X17740Y-28500D01*
X19935Y-28180D02*
X19615Y-28500D01*
X20387Y-26512D02*
X29562Y-26512D01*
X29562Y-26512D02*
X29675Y-26625D01*
X20387Y-26512D02*
X19935Y-26965D01*
X20510Y-27490D02*
X20510Y-29990D01*
X20150Y-30350D02*
X16800Y-30350D01*
X20510Y-29990D02*
X20150Y-30350D01*
X29075Y-27150D02*
X20850Y-27150D01*
X20850Y-27150D02*
X20510Y-27490D01*
G54D29*
X34400Y-24050D02*
X34400Y-25250D01*
X34075Y-25575D02*
X32825Y-25575D01*
X34400Y-25250D02*
X34075Y-25575D01*
X32375Y-37450D02*
X32375Y-39875D01*
X32750Y-40250D02*
X33780Y-40250D01*
X32375Y-39875D02*
X32750Y-40250D01*
X32825Y-25575D02*
X32825Y-24825D01*
X32825Y-24825D02*
X32550Y-24550D01*
X35110Y-44110D02*
X34500Y-44110D01*
X31110Y-44110D02*
X30500Y-44110D01*
X27110Y-44110D02*
X26500Y-44110D01*
X22500Y-44110D02*
X23110Y-44110D01*
X35110Y-40890D02*
X34420Y-40890D01*
X34420Y-40890D02*
X33780Y-40250D01*
X35110Y-40890D02*
X35110Y-44110D01*
X31110Y-40890D02*
X31110Y-44110D01*
X27110Y-40890D02*
X27110Y-44110D01*
X23110Y-40890D02*
X23110Y-44110D01*
X32940Y-28990D02*
X32940Y-36885D01*
X32940Y-36885D02*
X32375Y-37450D01*
X32675Y-28725D02*
X32095Y-28725D01*
X32940Y-28990D02*
X32675Y-28725D01*
X29225Y-29650D02*
X29800Y-29650D01*
X29950Y-29800D02*
X29800Y-29650D01*
X32095Y-28725D02*
X31850Y-28970D01*
X31850Y-28970D02*
X31850Y-29570D01*
X31850Y-29570D02*
X31620Y-29800D01*
X31620Y-29800D02*
X29950Y-29800D01*
X30825Y-28075D02*
X30825Y-29025D01*
X32315Y-28075D02*
X30825Y-28075D01*
X30825Y-28075D02*
X29735Y-28075D01*
X29225Y-28585D02*
X29225Y-29650D01*
X29735Y-28075D02*
X29225Y-28585D01*
X32550Y-24550D02*
X15250Y-24550D01*
X15250Y-25075D02*
X15250Y-24550D01*
X15250Y-24550D02*
X15250Y-24050D01*
X32825Y-27565D02*
X32825Y-25575D01*
X32315Y-28075D02*
X32825Y-27565D01*
X45500Y-34100D02*
X43750Y-34100D01*
G54D28*
X39650Y-30900D02*
X38065Y-30900D01*
X37855Y-32235D02*
X37715Y-32375D01*
X37855Y-31110D02*
X37855Y-32235D01*
X38065Y-30900D02*
X37855Y-31110D01*
X37400Y-32375D02*
X37715Y-32375D01*
G54D29*
X17425Y-21825D02*
X29875Y-21825D01*
G54D28*
X29625Y-33125D02*
X29625Y-32255D01*
X29880Y-32000D02*
X31625Y-32000D01*
X29625Y-32255D02*
X29880Y-32000D01*
X24475Y-38650D02*
X24475Y-33150D01*
X24000Y-39125D02*
X24475Y-38650D01*
X20225Y-27195D02*
X20225Y-28655D01*
X19855Y-29025D02*
X17350Y-29025D01*
X20225Y-28655D02*
X19855Y-29025D01*
X20225Y-27195D02*
X20620Y-26800D01*
X29275Y-26800D02*
X29525Y-27050D01*
X20620Y-26800D02*
X29275Y-26800D01*
X23925Y-37150D02*
X23925Y-34675D01*
X32890Y-40890D02*
X32130Y-40890D01*
X32130Y-40890D02*
X31925Y-40685D01*
X31925Y-36800D02*
X31925Y-40685D01*
X32550Y-32000D02*
X32550Y-36175D01*
X32550Y-36175D02*
X31925Y-36800D01*
X32890Y-40890D02*
X32890Y-41710D01*
X32890Y-41710D02*
X32890Y-44110D01*
X28560Y-31420D02*
X28560Y-36430D01*
X26850Y-36810D02*
X26850Y-39450D01*
X27030Y-36630D02*
X26850Y-36810D01*
X28360Y-36630D02*
X27030Y-36630D01*
X28560Y-36430D02*
X28360Y-36630D01*
X32400Y-29200D02*
X32400Y-30280D01*
X25410Y-40890D02*
X24890Y-40890D01*
X26850Y-39450D02*
X25410Y-40890D01*
X29430Y-30550D02*
X28560Y-31420D01*
X32130Y-30550D02*
X29430Y-30550D01*
X32400Y-30280D02*
X32130Y-30550D01*
X24890Y-40890D02*
X24890Y-41700D01*
X24890Y-41700D02*
X24890Y-44110D01*
X31900Y-33400D02*
X30000Y-33400D01*
X32100Y-33200D02*
X31900Y-33400D01*
X32100Y-31850D02*
X32100Y-33200D01*
X15975Y-26225D02*
X15225Y-26225D01*
X16200Y-26450D02*
X16200Y-33225D01*
X15975Y-26225D02*
X16200Y-26450D01*
X23900Y-33500D02*
X16475Y-33500D01*
X16475Y-33500D02*
X16200Y-33225D01*
X37300Y-23000D02*
X37300Y-22640D01*
X37300Y-22640D02*
X36300Y-21640D01*
X36300Y-21640D02*
X36300Y-20000D01*
X36300Y-23000D02*
X36300Y-22230D01*
X36300Y-22230D02*
X35300Y-21230D01*
X35300Y-21230D02*
X35300Y-20000D01*
X35300Y-23000D02*
X35300Y-21790D01*
X35300Y-21790D02*
X34300Y-20790D01*
X34300Y-20790D02*
X34300Y-20000D01*
X24975Y-35525D02*
X24975Y-28100D01*
X25125Y-27950D02*
X28225Y-27950D01*
X24975Y-28100D02*
X25125Y-27950D01*
X36225Y-36050D02*
X35900Y-36375D01*
X35900Y-39000D02*
X35900Y-36375D01*
X41650Y-36050D02*
X36225Y-36050D01*
X46000Y-35600D02*
X46500Y-36100D01*
X40960Y-40890D02*
X38640Y-40890D01*
X38400Y-40650D02*
X38400Y-37800D01*
X38640Y-40890D02*
X38400Y-40650D01*
X40960Y-40890D02*
X40960Y-41700D01*
X40960Y-41700D02*
X40960Y-44110D01*
X38400Y-37800D02*
X38740Y-37460D01*
X38740Y-37460D02*
X43910Y-37460D01*
X42150Y-30900D02*
X42150Y-31620D01*
X43910Y-37460D02*
X44160Y-37210D01*
X42150Y-31620D02*
X41935Y-31835D01*
X44160Y-35600D02*
X44160Y-37210D01*
X44160Y-35600D02*
X38860Y-35600D01*
X38860Y-35600D02*
X38650Y-35390D01*
X38650Y-35390D02*
X38650Y-32055D01*
X38650Y-32055D02*
X38870Y-31835D01*
X41935Y-31835D02*
X38870Y-31835D01*
X46000Y-35600D02*
X44160Y-35600D01*
X45635Y-28890D02*
X48290Y-28890D01*
X48840Y-21940D02*
X46900Y-20000D01*
X48840Y-28340D02*
X48840Y-21940D01*
X48290Y-28890D02*
X48840Y-28340D01*
X42310Y-32215D02*
X42310Y-33660D01*
X45635Y-28890D02*
X42310Y-32215D01*
X24760Y-39580D02*
X19830Y-39580D01*
X24760Y-39580D02*
X25524Y-38815D01*
X25520Y-34200D02*
X25524Y-38815D01*
X19830Y-39580D02*
X19500Y-39910D01*
X19500Y-39910D02*
X19500Y-41500D01*
X47900Y-39000D02*
X47900Y-30700D01*
X46500Y-30700D02*
X47900Y-30700D01*
X47900Y-30700D02*
X49015Y-30700D01*
X49015Y-30700D02*
X49640Y-30075D01*
X49640Y-30075D02*
X49640Y-20410D01*
X49640Y-20410D02*
X48410Y-19180D01*
X48410Y-19180D02*
X31120Y-19180D01*
X31120Y-19180D02*
X30300Y-20000D01*
X41650Y-30900D02*
X41650Y-22480D01*
X41270Y-22100D02*
X38275Y-22100D01*
X41650Y-22480D02*
X41270Y-22100D01*
X46900Y-39000D02*
X46900Y-38130D01*
X47050Y-31700D02*
X46500Y-31700D01*
X47330Y-31980D02*
X47050Y-31700D01*
X47330Y-37700D02*
X47330Y-31980D01*
X46900Y-38130D02*
X47330Y-37700D01*
X47900Y-30200D02*
X48555Y-30200D01*
X48555Y-30200D02*
X49405Y-29350D01*
X49405Y-29350D02*
X49405Y-20530D01*
X49405Y-20530D02*
X48270Y-19395D01*
X48270Y-19395D02*
X31905Y-19395D01*
X31905Y-19395D02*
X31300Y-20000D01*
X41150Y-30900D02*
X41150Y-23020D01*
X40730Y-22600D02*
X38250Y-22600D01*
X41150Y-23020D02*
X40730Y-22600D01*
X31975Y-27075D02*
X30275Y-27075D01*
X31475Y-39275D02*
X31475Y-34195D01*
X31475Y-34195D02*
X31180Y-33900D01*
X31180Y-33900D02*
X29550Y-33900D01*
X29275Y-33625D02*
X29550Y-33900D01*
X29275Y-32800D02*
X29275Y-33625D01*
X36890Y-40890D02*
X36890Y-41710D01*
X36890Y-41710D02*
X36890Y-44110D01*
X31300Y-25775D02*
X31650Y-26125D01*
X16750Y-25775D02*
X31300Y-25775D01*
X16750Y-25775D02*
X16560Y-25965D01*
X16560Y-25965D02*
X16560Y-27460D01*
X16800Y-29875D02*
X16775Y-29900D01*
X16775Y-29900D02*
X16575Y-29900D01*
X16575Y-29900D02*
X16450Y-29775D01*
X19350Y-26505D02*
X19830Y-26025D01*
X19350Y-27625D02*
X19087Y-27887D01*
X19350Y-26505D02*
X19350Y-27625D01*
X16450Y-28275D02*
X16837Y-27887D01*
X16837Y-27887D02*
X19087Y-27887D01*
X16450Y-29775D02*
X16450Y-28275D01*
X31005Y-26025D02*
X31100Y-26120D01*
X19830Y-26025D02*
X31005Y-26025D01*
X20105Y-26275D02*
X30435Y-26275D01*
X30435Y-26275D02*
X30780Y-26620D01*
X16800Y-28370D02*
X17035Y-28135D01*
X17035Y-28135D02*
X19340Y-28135D01*
X19340Y-28135D02*
X19650Y-27825D01*
X19650Y-27825D02*
X19650Y-26730D01*
X16800Y-29425D02*
X16800Y-28370D01*
X30785Y-26625D02*
X30780Y-26620D01*
X31975Y-26625D02*
X30785Y-26625D01*
X19650Y-26730D02*
X20105Y-26275D01*
X37300Y-26350D02*
X37300Y-24820D01*
X37920Y-22775D02*
X37300Y-22155D01*
X37920Y-24200D02*
X37920Y-22775D01*
X37300Y-24820D02*
X37920Y-24200D01*
X38150Y-31655D02*
X38405Y-31400D01*
X37475Y-26525D02*
X37300Y-26350D01*
X37300Y-22155D02*
X37300Y-20000D01*
X37475Y-26525D02*
X39850Y-26525D01*
X40150Y-26825D02*
X39850Y-26525D01*
X40150Y-26825D02*
X40150Y-31105D01*
X38150Y-34500D02*
X38150Y-31655D01*
X39855Y-31400D02*
X40150Y-31105D01*
X38405Y-31400D02*
X39855Y-31400D01*
X31900Y-28450D02*
X37145Y-28450D01*
X37400Y-28705D02*
X37400Y-31375D01*
X37145Y-28450D02*
X37400Y-28705D01*
X30475Y-29350D02*
X31375Y-29350D01*
X31375Y-29350D02*
X31500Y-29225D01*
X31500Y-28850D02*
X31900Y-28450D01*
X31500Y-29225D02*
X31500Y-28850D01*
X45900Y-29100D02*
X48370Y-29100D01*
X49055Y-21155D02*
X47900Y-20000D01*
X49055Y-28415D02*
X49055Y-21155D01*
X48370Y-29100D02*
X49055Y-28415D01*
X42690Y-33310D02*
X42690Y-32310D01*
X42690Y-32310D02*
X45900Y-29100D01*
X25900Y-33850D02*
X25900Y-38980D01*
X25900Y-38980D02*
X25020Y-39860D01*
X20800Y-39860D02*
X20500Y-40160D01*
X20500Y-40160D02*
X20500Y-41500D01*
X25020Y-39860D02*
X20800Y-39860D01*
X28890Y-40890D02*
X28890Y-40310D01*
X29165Y-40035D02*
X30820Y-40035D01*
X28890Y-40310D02*
X29165Y-40035D01*
X28890Y-40890D02*
X28890Y-41700D01*
X28890Y-41700D02*
X28890Y-44110D01*
X28900Y-32475D02*
X28900Y-33960D01*
X30820Y-40035D02*
X31075Y-39780D01*
X31075Y-39780D02*
X31075Y-34500D01*
X31075Y-34500D02*
X30775Y-34200D01*
X30775Y-34200D02*
X29140Y-34200D01*
X29140Y-34200D02*
X28900Y-33960D01*
G54D29*
X37900Y-39000D02*
X37900Y-40000D01*
X34900Y-40000D02*
X34900Y-39000D01*
X35175Y-40275D02*
X34900Y-40000D01*
X37625Y-40275D02*
X35175Y-40275D01*
X37900Y-40000D02*
X37625Y-40275D01*
X25260Y-40230D02*
X22620Y-40230D01*
X22250Y-42050D02*
X21800Y-42500D01*
X22250Y-40600D02*
X22250Y-42050D01*
X22620Y-40230D02*
X22250Y-40600D01*
X25260Y-40230D02*
X26410Y-39080D01*
X43250Y-34500D02*
X43250Y-32375D01*
X43250Y-32375D02*
X45925Y-29700D01*
X39150Y-35150D02*
X42600Y-35150D01*
X42600Y-35150D02*
X43250Y-34500D01*
X13400Y-39450D02*
X18000Y-39450D01*
X13000Y-39050D02*
X13400Y-39450D01*
X13000Y-35900D02*
X13000Y-39050D01*
X26410Y-35990D02*
X26410Y-39080D01*
X26825Y-35575D02*
X26410Y-35990D01*
X28200Y-35575D02*
X26825Y-35575D01*
X45925Y-29700D02*
X46500Y-29700D01*
X21800Y-42500D02*
X18875Y-42500D01*
X18500Y-41500D02*
X18500Y-42125D01*
X18875Y-42500D02*
X18500Y-42125D01*
X18000Y-39450D02*
X18500Y-39950D01*
X18500Y-39950D02*
X18500Y-41500D01*
G54D28*
X13375Y-38775D02*
X13625Y-39025D01*
X13775Y-23150D02*
X13775Y-27000D01*
X13375Y-27400D02*
X13375Y-38775D01*
X13775Y-27000D02*
X13375Y-27400D01*
X16775Y-39025D02*
X13625Y-39025D01*
X16775Y-39025D02*
X17050Y-38750D01*
X17050Y-34700D02*
X17050Y-38750D01*
X21200Y-38750D02*
X17050Y-38750D01*
G54D30*
X17400Y-36250D02*
X18400Y-36250D01*
X18400Y-36250D02*
X18700Y-35950D01*
X18700Y-35950D02*
X18700Y-35100D01*
X21550Y-35400D02*
X22775Y-35400D01*
X22850Y-36600D02*
X19275Y-36600D01*
X23100Y-37175D02*
X23100Y-36850D01*
X23100Y-36850D02*
X22850Y-36600D01*
G54D29*
X14450Y-25325D02*
X14450Y-23425D01*
X15487Y-22387D02*
X15487Y-20925D01*
X14450Y-23425D02*
X15487Y-22387D01*
X32045Y-25370D02*
X16430Y-25370D01*
X32045Y-25370D02*
X32425Y-25750D01*
X32425Y-27300D02*
X32425Y-25750D01*
X32000Y-27725D02*
X32425Y-27300D01*
X29335Y-27725D02*
X32000Y-27725D01*
X28410Y-28650D02*
X29335Y-27725D01*
X26875Y-28925D02*
X27150Y-28650D01*
X27150Y-28650D02*
X28410Y-28650D01*
X26875Y-34850D02*
X26875Y-28925D01*
X16430Y-25370D02*
X16150Y-25650D01*
X16150Y-25650D02*
X14775Y-25650D01*
X14775Y-25650D02*
X14450Y-25325D01*
X15487Y-20925D02*
X15487Y-18812D01*
X15487Y-18812D02*
X14925Y-18250D01*
X14250Y-18250D02*
X12500Y-16500D01*
X14925Y-18250D02*
X14250Y-18250D01*
X45500Y-37675D02*
X45500Y-36100D01*
X45125Y-38050D02*
X45500Y-37675D01*
X41975Y-38050D02*
X41975Y-40725D01*
X41975Y-40725D02*
X42140Y-40890D01*
X41975Y-38050D02*
X40270Y-38050D01*
X40270Y-38050D02*
X39900Y-38420D01*
X41975Y-38050D02*
X45125Y-38050D01*
X35150Y-25500D02*
X35150Y-23975D01*
X35150Y-23975D02*
X34600Y-23425D01*
X35150Y-25500D02*
X34600Y-26050D01*
X34600Y-23425D02*
X32875Y-23425D01*
X33300Y-20490D02*
X33300Y-20000D01*
X32510Y-21280D02*
X33300Y-20490D01*
X32510Y-23060D02*
X32510Y-21280D01*
X32875Y-23425D02*
X32510Y-23060D01*
X42140Y-40890D02*
X42740Y-40890D01*
X34600Y-26950D02*
X37825Y-26950D01*
X37825Y-26950D02*
X38275Y-27400D01*
X34600Y-26050D02*
X34600Y-26950D01*
X34600Y-26950D02*
X33800Y-27750D01*
X42740Y-40890D02*
X42740Y-44110D01*
X39900Y-38420D02*
X39900Y-39000D01*
X48415Y-27970D02*
X48415Y-27610D01*
X48415Y-27610D02*
X48105Y-27300D01*
X43225Y-26925D02*
X43225Y-24275D01*
X43600Y-27300D02*
X43225Y-26925D01*
X48105Y-27300D02*
X43600Y-27300D01*
X43225Y-24275D02*
X43225Y-22500D01*
X13125Y-20925D02*
X13125Y-26975D01*
G54D28*
X47615Y-27970D02*
X42330Y-27970D01*
X42330Y-27970D02*
X42150Y-28150D01*
X42150Y-30150D02*
X42150Y-28150D01*
X16625Y-33925D02*
X16625Y-35600D01*
M02*
