G04 (created by PCBNEW (2013-07-07 BZR 4022)-stable) date 17-Oct-13 4:43:27 PM*
%MOIN*%
G04 Gerber Fmt 3.4, Leading zero omitted, Abs format*
%FSLAX34Y34*%
G01*
G70*
G90*
G04 APERTURE LIST*
%ADD10C,0.00590551*%
%ADD11C,0.005*%
%ADD12C,0.006*%
G04 APERTURE END LIST*
G54D10*
G54D11*
X37946Y-45621D02*
X37975Y-45621D01*
X38003Y-45635D01*
X38017Y-45650D01*
X38032Y-45678D01*
X38046Y-45735D01*
X38046Y-45807D01*
X38032Y-45864D01*
X38017Y-45892D01*
X38003Y-45907D01*
X37975Y-45921D01*
X37946Y-45921D01*
X37917Y-45907D01*
X37903Y-45892D01*
X37889Y-45864D01*
X37875Y-45807D01*
X37875Y-45735D01*
X37889Y-45678D01*
X37903Y-45650D01*
X37917Y-45635D01*
X37946Y-45621D01*
X38175Y-45892D02*
X38189Y-45907D01*
X38175Y-45921D01*
X38160Y-45907D01*
X38175Y-45892D01*
X38175Y-45921D01*
X38460Y-45621D02*
X38317Y-45621D01*
X38303Y-45764D01*
X38317Y-45750D01*
X38346Y-45735D01*
X38417Y-45735D01*
X38446Y-45750D01*
X38460Y-45764D01*
X38475Y-45792D01*
X38475Y-45864D01*
X38460Y-45892D01*
X38446Y-45907D01*
X38417Y-45921D01*
X38346Y-45921D01*
X38317Y-45907D01*
X38303Y-45892D01*
X38646Y-45750D02*
X38617Y-45735D01*
X38603Y-45721D01*
X38589Y-45692D01*
X38589Y-45678D01*
X38603Y-45650D01*
X38617Y-45635D01*
X38646Y-45621D01*
X38703Y-45621D01*
X38732Y-45635D01*
X38746Y-45650D01*
X38760Y-45678D01*
X38760Y-45692D01*
X38746Y-45721D01*
X38732Y-45735D01*
X38703Y-45750D01*
X38646Y-45750D01*
X38617Y-45764D01*
X38603Y-45778D01*
X38589Y-45807D01*
X38589Y-45864D01*
X38603Y-45892D01*
X38617Y-45907D01*
X38646Y-45921D01*
X38703Y-45921D01*
X38732Y-45907D01*
X38746Y-45892D01*
X38760Y-45864D01*
X38760Y-45807D01*
X38746Y-45778D01*
X38732Y-45764D01*
X38703Y-45750D01*
X39032Y-45621D02*
X38889Y-45621D01*
X38875Y-45764D01*
X38889Y-45750D01*
X38917Y-45735D01*
X38989Y-45735D01*
X39017Y-45750D01*
X39032Y-45764D01*
X39046Y-45792D01*
X39046Y-45864D01*
X39032Y-45892D01*
X39017Y-45907D01*
X38989Y-45921D01*
X38917Y-45921D01*
X38889Y-45907D01*
X38875Y-45892D01*
X39232Y-45621D02*
X39260Y-45621D01*
X39289Y-45635D01*
X39303Y-45650D01*
X39317Y-45678D01*
X39332Y-45735D01*
X39332Y-45807D01*
X39317Y-45864D01*
X39303Y-45892D01*
X39289Y-45907D01*
X39260Y-45921D01*
X39232Y-45921D01*
X39203Y-45907D01*
X39189Y-45892D01*
X39175Y-45864D01*
X39160Y-45807D01*
X39160Y-45735D01*
X39175Y-45678D01*
X39189Y-45650D01*
X39203Y-45635D01*
X39232Y-45621D01*
X39689Y-45921D02*
X39689Y-45721D01*
X39689Y-45621D02*
X39674Y-45635D01*
X39689Y-45650D01*
X39703Y-45635D01*
X39689Y-45621D01*
X39689Y-45650D01*
X39832Y-45721D02*
X39832Y-45921D01*
X39832Y-45750D02*
X39846Y-45735D01*
X39874Y-45721D01*
X39917Y-45721D01*
X39946Y-45735D01*
X39960Y-45764D01*
X39960Y-45921D01*
X36000Y-45550D02*
X41850Y-45550D01*
X36000Y-42500D02*
X36000Y-46050D01*
X41850Y-42500D02*
X41850Y-46050D01*
X41850Y-45550D02*
X41406Y-45780D01*
X41850Y-45550D02*
X41406Y-45319D01*
X36000Y-45550D02*
X36443Y-45780D01*
X36000Y-45550D02*
X36443Y-45319D01*
X33021Y-45621D02*
X33050Y-45621D01*
X33078Y-45635D01*
X33092Y-45650D01*
X33107Y-45678D01*
X33121Y-45735D01*
X33121Y-45807D01*
X33107Y-45864D01*
X33092Y-45892D01*
X33078Y-45907D01*
X33050Y-45921D01*
X33021Y-45921D01*
X32992Y-45907D01*
X32978Y-45892D01*
X32964Y-45864D01*
X32950Y-45807D01*
X32950Y-45735D01*
X32964Y-45678D01*
X32978Y-45650D01*
X32992Y-45635D01*
X33021Y-45621D01*
X33250Y-45892D02*
X33264Y-45907D01*
X33250Y-45921D01*
X33235Y-45907D01*
X33250Y-45892D01*
X33250Y-45921D01*
X33521Y-45721D02*
X33521Y-45921D01*
X33450Y-45607D02*
X33378Y-45821D01*
X33564Y-45821D01*
X33735Y-45621D02*
X33764Y-45621D01*
X33792Y-45635D01*
X33807Y-45650D01*
X33821Y-45678D01*
X33835Y-45735D01*
X33835Y-45807D01*
X33821Y-45864D01*
X33807Y-45892D01*
X33792Y-45907D01*
X33764Y-45921D01*
X33735Y-45921D01*
X33707Y-45907D01*
X33692Y-45892D01*
X33678Y-45864D01*
X33664Y-45807D01*
X33664Y-45735D01*
X33678Y-45678D01*
X33692Y-45650D01*
X33707Y-45635D01*
X33735Y-45621D01*
X34021Y-45621D02*
X34050Y-45621D01*
X34078Y-45635D01*
X34092Y-45650D01*
X34107Y-45678D01*
X34121Y-45735D01*
X34121Y-45807D01*
X34107Y-45864D01*
X34092Y-45892D01*
X34078Y-45907D01*
X34050Y-45921D01*
X34021Y-45921D01*
X33992Y-45907D01*
X33978Y-45892D01*
X33964Y-45864D01*
X33950Y-45807D01*
X33950Y-45735D01*
X33964Y-45678D01*
X33978Y-45650D01*
X33992Y-45635D01*
X34021Y-45621D01*
X34307Y-45621D02*
X34335Y-45621D01*
X34364Y-45635D01*
X34378Y-45650D01*
X34392Y-45678D01*
X34407Y-45735D01*
X34407Y-45807D01*
X34392Y-45864D01*
X34378Y-45892D01*
X34364Y-45907D01*
X34335Y-45921D01*
X34307Y-45921D01*
X34278Y-45907D01*
X34264Y-45892D01*
X34250Y-45864D01*
X34235Y-45807D01*
X34235Y-45735D01*
X34250Y-45678D01*
X34264Y-45650D01*
X34278Y-45635D01*
X34307Y-45621D01*
X34764Y-45921D02*
X34764Y-45721D01*
X34764Y-45621D02*
X34749Y-45635D01*
X34764Y-45650D01*
X34778Y-45635D01*
X34764Y-45621D01*
X34764Y-45650D01*
X34907Y-45721D02*
X34907Y-45921D01*
X34907Y-45750D02*
X34921Y-45735D01*
X34949Y-45721D01*
X34992Y-45721D01*
X35021Y-45735D01*
X35035Y-45764D01*
X35035Y-45921D01*
X32000Y-45550D02*
X36000Y-45550D01*
X32000Y-42500D02*
X32000Y-46050D01*
X36000Y-42500D02*
X36000Y-46050D01*
X36000Y-45550D02*
X35556Y-45780D01*
X36000Y-45550D02*
X35556Y-45319D01*
X32000Y-45550D02*
X32443Y-45780D01*
X32000Y-45550D02*
X32443Y-45319D01*
X29021Y-45621D02*
X29050Y-45621D01*
X29078Y-45635D01*
X29092Y-45650D01*
X29107Y-45678D01*
X29121Y-45735D01*
X29121Y-45807D01*
X29107Y-45864D01*
X29092Y-45892D01*
X29078Y-45907D01*
X29050Y-45921D01*
X29021Y-45921D01*
X28992Y-45907D01*
X28978Y-45892D01*
X28964Y-45864D01*
X28950Y-45807D01*
X28950Y-45735D01*
X28964Y-45678D01*
X28978Y-45650D01*
X28992Y-45635D01*
X29021Y-45621D01*
X29250Y-45892D02*
X29264Y-45907D01*
X29250Y-45921D01*
X29235Y-45907D01*
X29250Y-45892D01*
X29250Y-45921D01*
X29521Y-45721D02*
X29521Y-45921D01*
X29450Y-45607D02*
X29378Y-45821D01*
X29564Y-45821D01*
X29735Y-45621D02*
X29764Y-45621D01*
X29792Y-45635D01*
X29807Y-45650D01*
X29821Y-45678D01*
X29835Y-45735D01*
X29835Y-45807D01*
X29821Y-45864D01*
X29807Y-45892D01*
X29792Y-45907D01*
X29764Y-45921D01*
X29735Y-45921D01*
X29707Y-45907D01*
X29692Y-45892D01*
X29678Y-45864D01*
X29664Y-45807D01*
X29664Y-45735D01*
X29678Y-45678D01*
X29692Y-45650D01*
X29707Y-45635D01*
X29735Y-45621D01*
X30021Y-45621D02*
X30050Y-45621D01*
X30078Y-45635D01*
X30092Y-45650D01*
X30107Y-45678D01*
X30121Y-45735D01*
X30121Y-45807D01*
X30107Y-45864D01*
X30092Y-45892D01*
X30078Y-45907D01*
X30050Y-45921D01*
X30021Y-45921D01*
X29992Y-45907D01*
X29978Y-45892D01*
X29964Y-45864D01*
X29950Y-45807D01*
X29950Y-45735D01*
X29964Y-45678D01*
X29978Y-45650D01*
X29992Y-45635D01*
X30021Y-45621D01*
X30307Y-45621D02*
X30335Y-45621D01*
X30364Y-45635D01*
X30378Y-45650D01*
X30392Y-45678D01*
X30407Y-45735D01*
X30407Y-45807D01*
X30392Y-45864D01*
X30378Y-45892D01*
X30364Y-45907D01*
X30335Y-45921D01*
X30307Y-45921D01*
X30278Y-45907D01*
X30264Y-45892D01*
X30250Y-45864D01*
X30235Y-45807D01*
X30235Y-45735D01*
X30250Y-45678D01*
X30264Y-45650D01*
X30278Y-45635D01*
X30307Y-45621D01*
X30764Y-45921D02*
X30764Y-45721D01*
X30764Y-45621D02*
X30749Y-45635D01*
X30764Y-45650D01*
X30778Y-45635D01*
X30764Y-45621D01*
X30764Y-45650D01*
X30907Y-45721D02*
X30907Y-45921D01*
X30907Y-45750D02*
X30921Y-45735D01*
X30949Y-45721D01*
X30992Y-45721D01*
X31021Y-45735D01*
X31035Y-45764D01*
X31035Y-45921D01*
X28000Y-45550D02*
X32000Y-45550D01*
X28000Y-42500D02*
X28000Y-46050D01*
X32000Y-42500D02*
X32000Y-46050D01*
X32000Y-45550D02*
X31556Y-45780D01*
X32000Y-45550D02*
X31556Y-45319D01*
X28000Y-45550D02*
X28443Y-45780D01*
X28000Y-45550D02*
X28443Y-45319D01*
X25021Y-45621D02*
X25050Y-45621D01*
X25078Y-45635D01*
X25092Y-45650D01*
X25107Y-45678D01*
X25121Y-45735D01*
X25121Y-45807D01*
X25107Y-45864D01*
X25092Y-45892D01*
X25078Y-45907D01*
X25050Y-45921D01*
X25021Y-45921D01*
X24992Y-45907D01*
X24978Y-45892D01*
X24964Y-45864D01*
X24950Y-45807D01*
X24950Y-45735D01*
X24964Y-45678D01*
X24978Y-45650D01*
X24992Y-45635D01*
X25021Y-45621D01*
X25250Y-45892D02*
X25264Y-45907D01*
X25250Y-45921D01*
X25235Y-45907D01*
X25250Y-45892D01*
X25250Y-45921D01*
X25521Y-45721D02*
X25521Y-45921D01*
X25450Y-45607D02*
X25378Y-45821D01*
X25564Y-45821D01*
X25735Y-45621D02*
X25764Y-45621D01*
X25792Y-45635D01*
X25807Y-45650D01*
X25821Y-45678D01*
X25835Y-45735D01*
X25835Y-45807D01*
X25821Y-45864D01*
X25807Y-45892D01*
X25792Y-45907D01*
X25764Y-45921D01*
X25735Y-45921D01*
X25707Y-45907D01*
X25692Y-45892D01*
X25678Y-45864D01*
X25664Y-45807D01*
X25664Y-45735D01*
X25678Y-45678D01*
X25692Y-45650D01*
X25707Y-45635D01*
X25735Y-45621D01*
X26021Y-45621D02*
X26050Y-45621D01*
X26078Y-45635D01*
X26092Y-45650D01*
X26107Y-45678D01*
X26121Y-45735D01*
X26121Y-45807D01*
X26107Y-45864D01*
X26092Y-45892D01*
X26078Y-45907D01*
X26050Y-45921D01*
X26021Y-45921D01*
X25992Y-45907D01*
X25978Y-45892D01*
X25964Y-45864D01*
X25950Y-45807D01*
X25950Y-45735D01*
X25964Y-45678D01*
X25978Y-45650D01*
X25992Y-45635D01*
X26021Y-45621D01*
X26307Y-45621D02*
X26335Y-45621D01*
X26364Y-45635D01*
X26378Y-45650D01*
X26392Y-45678D01*
X26407Y-45735D01*
X26407Y-45807D01*
X26392Y-45864D01*
X26378Y-45892D01*
X26364Y-45907D01*
X26335Y-45921D01*
X26307Y-45921D01*
X26278Y-45907D01*
X26264Y-45892D01*
X26250Y-45864D01*
X26235Y-45807D01*
X26235Y-45735D01*
X26250Y-45678D01*
X26264Y-45650D01*
X26278Y-45635D01*
X26307Y-45621D01*
X26764Y-45921D02*
X26764Y-45721D01*
X26764Y-45621D02*
X26749Y-45635D01*
X26764Y-45650D01*
X26778Y-45635D01*
X26764Y-45621D01*
X26764Y-45650D01*
X26907Y-45721D02*
X26907Y-45921D01*
X26907Y-45750D02*
X26921Y-45735D01*
X26949Y-45721D01*
X26992Y-45721D01*
X27021Y-45735D01*
X27035Y-45764D01*
X27035Y-45921D01*
X24000Y-45550D02*
X28000Y-45550D01*
X24000Y-42500D02*
X24000Y-46050D01*
X28000Y-42500D02*
X28000Y-46050D01*
X28000Y-45550D02*
X27556Y-45780D01*
X28000Y-45550D02*
X27556Y-45319D01*
X24000Y-45550D02*
X24443Y-45780D01*
X24000Y-45550D02*
X24443Y-45319D01*
X16671Y-45921D02*
X16500Y-45921D01*
X16585Y-45921D02*
X16585Y-45621D01*
X16557Y-45664D01*
X16528Y-45692D01*
X16500Y-45707D01*
X16800Y-45892D02*
X16814Y-45907D01*
X16800Y-45921D01*
X16785Y-45907D01*
X16800Y-45892D01*
X16800Y-45921D01*
X16928Y-45649D02*
X16942Y-45635D01*
X16971Y-45621D01*
X17042Y-45621D01*
X17071Y-45635D01*
X17085Y-45649D01*
X17100Y-45678D01*
X17100Y-45707D01*
X17085Y-45749D01*
X16914Y-45921D01*
X17100Y-45921D01*
X17242Y-45921D02*
X17300Y-45921D01*
X17328Y-45907D01*
X17342Y-45892D01*
X17371Y-45849D01*
X17385Y-45792D01*
X17385Y-45678D01*
X17371Y-45649D01*
X17357Y-45635D01*
X17328Y-45621D01*
X17271Y-45621D01*
X17242Y-45635D01*
X17228Y-45649D01*
X17214Y-45678D01*
X17214Y-45749D01*
X17228Y-45778D01*
X17242Y-45792D01*
X17271Y-45807D01*
X17328Y-45807D01*
X17357Y-45792D01*
X17371Y-45778D01*
X17385Y-45749D01*
X17571Y-45621D02*
X17600Y-45621D01*
X17628Y-45635D01*
X17642Y-45649D01*
X17657Y-45678D01*
X17671Y-45735D01*
X17671Y-45807D01*
X17657Y-45864D01*
X17642Y-45892D01*
X17628Y-45907D01*
X17600Y-45921D01*
X17571Y-45921D01*
X17542Y-45907D01*
X17528Y-45892D01*
X17514Y-45864D01*
X17500Y-45807D01*
X17500Y-45735D01*
X17514Y-45678D01*
X17528Y-45649D01*
X17542Y-45635D01*
X17571Y-45621D01*
X17857Y-45621D02*
X17885Y-45621D01*
X17914Y-45635D01*
X17928Y-45649D01*
X17942Y-45678D01*
X17957Y-45735D01*
X17957Y-45807D01*
X17942Y-45864D01*
X17928Y-45892D01*
X17914Y-45907D01*
X17885Y-45921D01*
X17857Y-45921D01*
X17828Y-45907D01*
X17814Y-45892D01*
X17800Y-45864D01*
X17785Y-45807D01*
X17785Y-45735D01*
X17800Y-45678D01*
X17814Y-45649D01*
X17828Y-45635D01*
X17857Y-45621D01*
X18314Y-45921D02*
X18314Y-45721D01*
X18314Y-45621D02*
X18299Y-45635D01*
X18314Y-45649D01*
X18328Y-45635D01*
X18314Y-45621D01*
X18314Y-45649D01*
X18457Y-45721D02*
X18457Y-45921D01*
X18457Y-45749D02*
X18471Y-45735D01*
X18499Y-45721D01*
X18542Y-45721D01*
X18571Y-45735D01*
X18585Y-45764D01*
X18585Y-45921D01*
X11100Y-45549D02*
X24000Y-45549D01*
X11100Y-42500D02*
X11100Y-46049D01*
X24000Y-42500D02*
X24000Y-46049D01*
X24000Y-45549D02*
X23556Y-45780D01*
X24000Y-45549D02*
X23556Y-45319D01*
X11100Y-45549D02*
X11543Y-45780D01*
X11100Y-45549D02*
X11543Y-45319D01*
X40542Y-15635D02*
X40685Y-15635D01*
X40514Y-15721D02*
X40614Y-15421D01*
X40714Y-15721D01*
X40857Y-15721D02*
X40828Y-15707D01*
X40814Y-15678D01*
X40814Y-15421D01*
X41014Y-15721D02*
X40985Y-15707D01*
X40971Y-15678D01*
X40971Y-15421D01*
X41528Y-15721D02*
X41428Y-15578D01*
X41357Y-15721D02*
X41357Y-15421D01*
X41471Y-15421D01*
X41500Y-15435D01*
X41514Y-15450D01*
X41528Y-15478D01*
X41528Y-15521D01*
X41514Y-15550D01*
X41500Y-15564D01*
X41471Y-15578D01*
X41357Y-15578D01*
X41785Y-15721D02*
X41785Y-15564D01*
X41771Y-15535D01*
X41742Y-15521D01*
X41685Y-15521D01*
X41657Y-15535D01*
X41785Y-15707D02*
X41757Y-15721D01*
X41685Y-15721D01*
X41657Y-15707D01*
X41642Y-15678D01*
X41642Y-15650D01*
X41657Y-15621D01*
X41685Y-15607D01*
X41757Y-15607D01*
X41785Y-15592D01*
X42057Y-15721D02*
X42057Y-15421D01*
X42057Y-15707D02*
X42028Y-15721D01*
X41971Y-15721D01*
X41942Y-15707D01*
X41928Y-15692D01*
X41914Y-15664D01*
X41914Y-15578D01*
X41928Y-15550D01*
X41942Y-15535D01*
X41971Y-15521D01*
X42028Y-15521D01*
X42057Y-15535D01*
X42200Y-15721D02*
X42200Y-15521D01*
X42200Y-15421D02*
X42185Y-15435D01*
X42200Y-15450D01*
X42214Y-15435D01*
X42200Y-15421D01*
X42200Y-15450D01*
X42342Y-15721D02*
X42342Y-15521D01*
X42342Y-15421D02*
X42328Y-15435D01*
X42342Y-15450D01*
X42357Y-15435D01*
X42342Y-15421D01*
X42342Y-15450D01*
X40964Y-15891D02*
X40992Y-15891D01*
X41021Y-15905D01*
X41035Y-15920D01*
X41050Y-15948D01*
X41064Y-16005D01*
X41064Y-16077D01*
X41050Y-16134D01*
X41035Y-16162D01*
X41021Y-16177D01*
X40992Y-16191D01*
X40964Y-16191D01*
X40935Y-16177D01*
X40921Y-16162D01*
X40907Y-16134D01*
X40892Y-16077D01*
X40892Y-16005D01*
X40907Y-15948D01*
X40921Y-15920D01*
X40935Y-15905D01*
X40964Y-15891D01*
X41192Y-16162D02*
X41207Y-16177D01*
X41192Y-16191D01*
X41178Y-16177D01*
X41192Y-16162D01*
X41192Y-16191D01*
X41321Y-15920D02*
X41335Y-15905D01*
X41364Y-15891D01*
X41435Y-15891D01*
X41464Y-15905D01*
X41478Y-15920D01*
X41492Y-15948D01*
X41492Y-15977D01*
X41478Y-16020D01*
X41307Y-16191D01*
X41492Y-16191D01*
X41764Y-15891D02*
X41621Y-15891D01*
X41607Y-16034D01*
X41621Y-16020D01*
X41650Y-16005D01*
X41721Y-16005D01*
X41750Y-16020D01*
X41764Y-16034D01*
X41778Y-16062D01*
X41778Y-16134D01*
X41764Y-16162D01*
X41750Y-16177D01*
X41721Y-16191D01*
X41650Y-16191D01*
X41621Y-16177D01*
X41607Y-16162D01*
X41892Y-15891D02*
X41892Y-15948D01*
X42007Y-15891D02*
X42007Y-15948D01*
G54D12*
X44300Y-18200D02*
X43750Y-18050D01*
X44300Y-18200D02*
X44100Y-17650D01*
X42450Y-16400D02*
X40900Y-16400D01*
X44300Y-18200D02*
X42450Y-16400D01*
G54D11*
X17928Y-39121D02*
X17928Y-39150D01*
X17914Y-39178D01*
X17900Y-39192D01*
X17871Y-39207D01*
X17814Y-39221D01*
X17742Y-39221D01*
X17685Y-39207D01*
X17657Y-39192D01*
X17642Y-39178D01*
X17628Y-39150D01*
X17628Y-39121D01*
X17642Y-39092D01*
X17657Y-39078D01*
X17685Y-39064D01*
X17742Y-39050D01*
X17814Y-39050D01*
X17871Y-39064D01*
X17900Y-39078D01*
X17914Y-39092D01*
X17928Y-39121D01*
X17657Y-39350D02*
X17642Y-39364D01*
X17628Y-39350D01*
X17642Y-39335D01*
X17657Y-39350D01*
X17628Y-39350D01*
X17928Y-39621D02*
X17928Y-39564D01*
X17914Y-39535D01*
X17900Y-39521D01*
X17857Y-39492D01*
X17800Y-39478D01*
X17685Y-39478D01*
X17657Y-39492D01*
X17642Y-39507D01*
X17628Y-39535D01*
X17628Y-39592D01*
X17642Y-39621D01*
X17657Y-39635D01*
X17685Y-39650D01*
X17757Y-39650D01*
X17785Y-39635D01*
X17800Y-39621D01*
X17814Y-39592D01*
X17814Y-39535D01*
X17800Y-39507D01*
X17785Y-39492D01*
X17757Y-39478D01*
X17928Y-39921D02*
X17928Y-39778D01*
X17785Y-39764D01*
X17800Y-39778D01*
X17814Y-39807D01*
X17814Y-39878D01*
X17800Y-39907D01*
X17785Y-39921D01*
X17757Y-39935D01*
X17685Y-39935D01*
X17657Y-39921D01*
X17642Y-39907D01*
X17628Y-39878D01*
X17628Y-39807D01*
X17642Y-39778D01*
X17657Y-39764D01*
X17928Y-40121D02*
X17928Y-40150D01*
X17914Y-40178D01*
X17900Y-40192D01*
X17871Y-40207D01*
X17814Y-40221D01*
X17742Y-40221D01*
X17685Y-40207D01*
X17657Y-40192D01*
X17642Y-40178D01*
X17628Y-40150D01*
X17628Y-40121D01*
X17642Y-40092D01*
X17657Y-40078D01*
X17685Y-40064D01*
X17742Y-40050D01*
X17814Y-40050D01*
X17871Y-40064D01*
X17900Y-40078D01*
X17914Y-40092D01*
X17928Y-40121D01*
X17928Y-40407D02*
X17928Y-40435D01*
X17914Y-40464D01*
X17900Y-40478D01*
X17871Y-40492D01*
X17814Y-40507D01*
X17742Y-40507D01*
X17685Y-40492D01*
X17657Y-40478D01*
X17642Y-40464D01*
X17628Y-40435D01*
X17628Y-40407D01*
X17642Y-40378D01*
X17657Y-40364D01*
X17685Y-40350D01*
X17742Y-40335D01*
X17814Y-40335D01*
X17871Y-40350D01*
X17900Y-40364D01*
X17914Y-40378D01*
X17928Y-40407D01*
X17628Y-40864D02*
X17828Y-40864D01*
X17928Y-40864D02*
X17914Y-40849D01*
X17900Y-40864D01*
X17914Y-40878D01*
X17928Y-40864D01*
X17900Y-40864D01*
X17828Y-41007D02*
X17628Y-41007D01*
X17800Y-41007D02*
X17814Y-41021D01*
X17828Y-41049D01*
X17828Y-41092D01*
X17814Y-41121D01*
X17785Y-41135D01*
X17628Y-41135D01*
X18000Y-38500D02*
X18000Y-45000D01*
X19650Y-38500D02*
X17500Y-38500D01*
X19650Y-45000D02*
X17500Y-45000D01*
X18000Y-45000D02*
X17769Y-44556D01*
X18000Y-45000D02*
X18230Y-44556D01*
X18000Y-38500D02*
X17769Y-38943D01*
X18000Y-38500D02*
X18230Y-38943D01*
X17628Y-28621D02*
X17628Y-28450D01*
X17628Y-28535D02*
X17928Y-28535D01*
X17885Y-28507D01*
X17857Y-28478D01*
X17842Y-28450D01*
X17657Y-28750D02*
X17642Y-28764D01*
X17628Y-28750D01*
X17642Y-28735D01*
X17657Y-28750D01*
X17628Y-28750D01*
X17800Y-28935D02*
X17814Y-28907D01*
X17828Y-28892D01*
X17857Y-28878D01*
X17871Y-28878D01*
X17900Y-28892D01*
X17914Y-28907D01*
X17928Y-28935D01*
X17928Y-28992D01*
X17914Y-29021D01*
X17900Y-29035D01*
X17871Y-29050D01*
X17857Y-29050D01*
X17828Y-29035D01*
X17814Y-29021D01*
X17800Y-28992D01*
X17800Y-28935D01*
X17785Y-28907D01*
X17771Y-28892D01*
X17742Y-28878D01*
X17685Y-28878D01*
X17657Y-28892D01*
X17642Y-28907D01*
X17628Y-28935D01*
X17628Y-28992D01*
X17642Y-29021D01*
X17657Y-29035D01*
X17685Y-29050D01*
X17742Y-29050D01*
X17771Y-29035D01*
X17785Y-29021D01*
X17800Y-28992D01*
X17928Y-29235D02*
X17928Y-29264D01*
X17914Y-29292D01*
X17900Y-29307D01*
X17871Y-29321D01*
X17814Y-29335D01*
X17742Y-29335D01*
X17685Y-29321D01*
X17657Y-29307D01*
X17642Y-29292D01*
X17628Y-29264D01*
X17628Y-29235D01*
X17642Y-29207D01*
X17657Y-29192D01*
X17685Y-29178D01*
X17742Y-29164D01*
X17814Y-29164D01*
X17871Y-29178D01*
X17900Y-29192D01*
X17914Y-29207D01*
X17928Y-29235D01*
X17928Y-29521D02*
X17928Y-29550D01*
X17914Y-29578D01*
X17900Y-29592D01*
X17871Y-29607D01*
X17814Y-29621D01*
X17742Y-29621D01*
X17685Y-29607D01*
X17657Y-29592D01*
X17642Y-29578D01*
X17628Y-29550D01*
X17628Y-29521D01*
X17642Y-29492D01*
X17657Y-29478D01*
X17685Y-29464D01*
X17742Y-29450D01*
X17814Y-29450D01*
X17871Y-29464D01*
X17900Y-29478D01*
X17914Y-29492D01*
X17928Y-29521D01*
X17928Y-29807D02*
X17928Y-29835D01*
X17914Y-29864D01*
X17900Y-29878D01*
X17871Y-29892D01*
X17814Y-29907D01*
X17742Y-29907D01*
X17685Y-29892D01*
X17657Y-29878D01*
X17642Y-29864D01*
X17628Y-29835D01*
X17628Y-29807D01*
X17642Y-29778D01*
X17657Y-29764D01*
X17685Y-29750D01*
X17742Y-29735D01*
X17814Y-29735D01*
X17871Y-29750D01*
X17900Y-29764D01*
X17914Y-29778D01*
X17928Y-29807D01*
X17628Y-30264D02*
X17828Y-30264D01*
X17928Y-30264D02*
X17914Y-30249D01*
X17900Y-30264D01*
X17914Y-30278D01*
X17928Y-30264D01*
X17900Y-30264D01*
X17828Y-30407D02*
X17628Y-30407D01*
X17800Y-30407D02*
X17814Y-30421D01*
X17828Y-30449D01*
X17828Y-30492D01*
X17814Y-30521D01*
X17785Y-30535D01*
X17628Y-30535D01*
X18000Y-20500D02*
X18000Y-38500D01*
X19650Y-20500D02*
X17500Y-20500D01*
X19650Y-38500D02*
X17500Y-38500D01*
X18000Y-38500D02*
X17769Y-38056D01*
X18000Y-38500D02*
X18230Y-38056D01*
X18000Y-20500D02*
X17769Y-20943D01*
X18000Y-20500D02*
X18230Y-20943D01*
X46496Y-22521D02*
X46525Y-22521D01*
X46553Y-22535D01*
X46567Y-22550D01*
X46582Y-22578D01*
X46596Y-22635D01*
X46596Y-22707D01*
X46582Y-22764D01*
X46567Y-22792D01*
X46553Y-22807D01*
X46525Y-22821D01*
X46496Y-22821D01*
X46467Y-22807D01*
X46453Y-22792D01*
X46439Y-22764D01*
X46425Y-22707D01*
X46425Y-22635D01*
X46439Y-22578D01*
X46453Y-22550D01*
X46467Y-22535D01*
X46496Y-22521D01*
X46725Y-22792D02*
X46739Y-22807D01*
X46725Y-22821D01*
X46710Y-22807D01*
X46725Y-22792D01*
X46725Y-22821D01*
X46839Y-22521D02*
X47039Y-22521D01*
X46910Y-22821D01*
X47139Y-22550D02*
X47153Y-22535D01*
X47182Y-22521D01*
X47253Y-22521D01*
X47282Y-22535D01*
X47296Y-22550D01*
X47310Y-22578D01*
X47310Y-22607D01*
X47296Y-22650D01*
X47125Y-22821D01*
X47310Y-22821D01*
X47582Y-22521D02*
X47439Y-22521D01*
X47425Y-22664D01*
X47439Y-22650D01*
X47467Y-22635D01*
X47539Y-22635D01*
X47567Y-22650D01*
X47582Y-22664D01*
X47596Y-22692D01*
X47596Y-22764D01*
X47582Y-22792D01*
X47567Y-22807D01*
X47539Y-22821D01*
X47467Y-22821D01*
X47439Y-22807D01*
X47425Y-22792D01*
X47782Y-22521D02*
X47810Y-22521D01*
X47839Y-22535D01*
X47853Y-22550D01*
X47867Y-22578D01*
X47882Y-22635D01*
X47882Y-22707D01*
X47867Y-22764D01*
X47853Y-22792D01*
X47839Y-22807D01*
X47810Y-22821D01*
X47782Y-22821D01*
X47753Y-22807D01*
X47739Y-22792D01*
X47725Y-22764D01*
X47710Y-22707D01*
X47710Y-22635D01*
X47725Y-22578D01*
X47739Y-22550D01*
X47753Y-22535D01*
X47782Y-22521D01*
X48239Y-22821D02*
X48239Y-22621D01*
X48239Y-22521D02*
X48224Y-22535D01*
X48239Y-22550D01*
X48253Y-22535D01*
X48239Y-22521D01*
X48239Y-22550D01*
X48382Y-22621D02*
X48382Y-22821D01*
X48382Y-22650D02*
X48396Y-22635D01*
X48424Y-22621D01*
X48467Y-22621D01*
X48496Y-22635D01*
X48510Y-22664D01*
X48510Y-22821D01*
X43850Y-22950D02*
X51100Y-22950D01*
X43850Y-23150D02*
X43850Y-22450D01*
X51100Y-23150D02*
X51100Y-22450D01*
X51100Y-22950D02*
X50656Y-23180D01*
X51100Y-22950D02*
X50656Y-22719D01*
X43850Y-22950D02*
X44293Y-23180D01*
X43850Y-22950D02*
X44293Y-22719D01*
X28950Y-22550D02*
X28964Y-22535D01*
X28992Y-22521D01*
X29064Y-22521D01*
X29092Y-22535D01*
X29107Y-22550D01*
X29121Y-22578D01*
X29121Y-22607D01*
X29107Y-22650D01*
X28935Y-22821D01*
X29121Y-22821D01*
X29250Y-22792D02*
X29264Y-22807D01*
X29250Y-22821D01*
X29235Y-22807D01*
X29250Y-22792D01*
X29250Y-22821D01*
X29364Y-22521D02*
X29564Y-22521D01*
X29435Y-22821D01*
X29650Y-22521D02*
X29850Y-22521D01*
X29721Y-22821D01*
X30021Y-22521D02*
X30050Y-22521D01*
X30078Y-22535D01*
X30092Y-22550D01*
X30107Y-22578D01*
X30121Y-22635D01*
X30121Y-22707D01*
X30107Y-22764D01*
X30092Y-22792D01*
X30078Y-22807D01*
X30050Y-22821D01*
X30021Y-22821D01*
X29992Y-22807D01*
X29978Y-22792D01*
X29964Y-22764D01*
X29950Y-22707D01*
X29950Y-22635D01*
X29964Y-22578D01*
X29978Y-22550D01*
X29992Y-22535D01*
X30021Y-22521D01*
X30307Y-22521D02*
X30335Y-22521D01*
X30364Y-22535D01*
X30378Y-22550D01*
X30392Y-22578D01*
X30407Y-22635D01*
X30407Y-22707D01*
X30392Y-22764D01*
X30378Y-22792D01*
X30364Y-22807D01*
X30335Y-22821D01*
X30307Y-22821D01*
X30278Y-22807D01*
X30264Y-22792D01*
X30250Y-22764D01*
X30235Y-22707D01*
X30235Y-22635D01*
X30250Y-22578D01*
X30264Y-22550D01*
X30278Y-22535D01*
X30307Y-22521D01*
X30764Y-22821D02*
X30764Y-22621D01*
X30764Y-22521D02*
X30749Y-22535D01*
X30764Y-22550D01*
X30778Y-22535D01*
X30764Y-22521D01*
X30764Y-22550D01*
X30907Y-22621D02*
X30907Y-22821D01*
X30907Y-22650D02*
X30921Y-22635D01*
X30949Y-22621D01*
X30992Y-22621D01*
X31021Y-22635D01*
X31035Y-22664D01*
X31035Y-22821D01*
X16150Y-22950D02*
X43850Y-22950D01*
X16150Y-23150D02*
X16150Y-22450D01*
X43850Y-23150D02*
X43850Y-22450D01*
X43850Y-22950D02*
X43406Y-23180D01*
X43850Y-22950D02*
X43406Y-22719D01*
X16150Y-22950D02*
X16593Y-23180D01*
X16150Y-22950D02*
X16593Y-22719D01*
X12096Y-22521D02*
X12125Y-22521D01*
X12153Y-22535D01*
X12167Y-22550D01*
X12182Y-22578D01*
X12196Y-22635D01*
X12196Y-22707D01*
X12182Y-22764D01*
X12167Y-22792D01*
X12153Y-22807D01*
X12125Y-22821D01*
X12096Y-22821D01*
X12067Y-22807D01*
X12053Y-22792D01*
X12039Y-22764D01*
X12025Y-22707D01*
X12025Y-22635D01*
X12039Y-22578D01*
X12053Y-22550D01*
X12067Y-22535D01*
X12096Y-22521D01*
X12325Y-22792D02*
X12339Y-22807D01*
X12325Y-22821D01*
X12310Y-22807D01*
X12325Y-22792D01*
X12325Y-22821D01*
X12596Y-22521D02*
X12539Y-22521D01*
X12510Y-22535D01*
X12496Y-22550D01*
X12467Y-22592D01*
X12453Y-22650D01*
X12453Y-22764D01*
X12467Y-22792D01*
X12482Y-22807D01*
X12510Y-22821D01*
X12567Y-22821D01*
X12596Y-22807D01*
X12610Y-22792D01*
X12625Y-22764D01*
X12625Y-22692D01*
X12610Y-22664D01*
X12596Y-22650D01*
X12567Y-22635D01*
X12510Y-22635D01*
X12482Y-22650D01*
X12467Y-22664D01*
X12453Y-22692D01*
X12910Y-22821D02*
X12739Y-22821D01*
X12825Y-22821D02*
X12825Y-22521D01*
X12796Y-22564D01*
X12767Y-22592D01*
X12739Y-22607D01*
X13182Y-22521D02*
X13039Y-22521D01*
X13025Y-22664D01*
X13039Y-22650D01*
X13067Y-22635D01*
X13139Y-22635D01*
X13167Y-22650D01*
X13182Y-22664D01*
X13196Y-22692D01*
X13196Y-22764D01*
X13182Y-22792D01*
X13167Y-22807D01*
X13139Y-22821D01*
X13067Y-22821D01*
X13039Y-22807D01*
X13025Y-22792D01*
X13382Y-22521D02*
X13410Y-22521D01*
X13439Y-22535D01*
X13453Y-22550D01*
X13467Y-22578D01*
X13482Y-22635D01*
X13482Y-22707D01*
X13467Y-22764D01*
X13453Y-22792D01*
X13439Y-22807D01*
X13410Y-22821D01*
X13382Y-22821D01*
X13353Y-22807D01*
X13339Y-22792D01*
X13325Y-22764D01*
X13310Y-22707D01*
X13310Y-22635D01*
X13325Y-22578D01*
X13339Y-22550D01*
X13353Y-22535D01*
X13382Y-22521D01*
X13839Y-22821D02*
X13839Y-22621D01*
X13839Y-22521D02*
X13824Y-22535D01*
X13839Y-22550D01*
X13853Y-22535D01*
X13839Y-22521D01*
X13839Y-22550D01*
X13982Y-22621D02*
X13982Y-22821D01*
X13982Y-22650D02*
X13996Y-22635D01*
X14024Y-22621D01*
X14067Y-22621D01*
X14096Y-22635D01*
X14110Y-22664D01*
X14110Y-22821D01*
X10000Y-22950D02*
X16150Y-22950D01*
X10000Y-23150D02*
X10000Y-22450D01*
X16150Y-23150D02*
X16150Y-22450D01*
X16150Y-22950D02*
X15706Y-23180D01*
X16150Y-22950D02*
X15706Y-22719D01*
X10000Y-22950D02*
X10443Y-23180D01*
X10000Y-22950D02*
X10443Y-22719D01*
G54D12*
X16150Y-38500D02*
X16150Y-20500D01*
X43850Y-38500D02*
X16150Y-38500D01*
X43850Y-20500D02*
X43850Y-38500D01*
X16150Y-20500D02*
X43850Y-20500D01*
G54D11*
X8728Y-30621D02*
X8728Y-30450D01*
X8728Y-30535D02*
X9028Y-30535D01*
X8985Y-30507D01*
X8957Y-30478D01*
X8942Y-30450D01*
X8757Y-30750D02*
X8742Y-30764D01*
X8728Y-30750D01*
X8742Y-30735D01*
X8757Y-30750D01*
X8728Y-30750D01*
X8728Y-31050D02*
X8728Y-30878D01*
X8728Y-30964D02*
X9028Y-30964D01*
X8985Y-30935D01*
X8957Y-30907D01*
X8942Y-30878D01*
X9028Y-31235D02*
X9028Y-31264D01*
X9014Y-31292D01*
X9000Y-31307D01*
X8971Y-31321D01*
X8914Y-31335D01*
X8842Y-31335D01*
X8785Y-31321D01*
X8757Y-31307D01*
X8742Y-31292D01*
X8728Y-31264D01*
X8728Y-31235D01*
X8742Y-31207D01*
X8757Y-31192D01*
X8785Y-31178D01*
X8842Y-31164D01*
X8914Y-31164D01*
X8971Y-31178D01*
X9000Y-31192D01*
X9014Y-31207D01*
X9028Y-31235D01*
X9028Y-31521D02*
X9028Y-31550D01*
X9014Y-31578D01*
X9000Y-31592D01*
X8971Y-31607D01*
X8914Y-31621D01*
X8842Y-31621D01*
X8785Y-31607D01*
X8757Y-31592D01*
X8742Y-31578D01*
X8728Y-31550D01*
X8728Y-31521D01*
X8742Y-31492D01*
X8757Y-31478D01*
X8785Y-31464D01*
X8842Y-31450D01*
X8914Y-31450D01*
X8971Y-31464D01*
X9000Y-31478D01*
X9014Y-31492D01*
X9028Y-31521D01*
X9028Y-31807D02*
X9028Y-31835D01*
X9014Y-31864D01*
X9000Y-31878D01*
X8971Y-31892D01*
X8914Y-31907D01*
X8842Y-31907D01*
X8785Y-31892D01*
X8757Y-31878D01*
X8742Y-31864D01*
X8728Y-31835D01*
X8728Y-31807D01*
X8742Y-31778D01*
X8757Y-31764D01*
X8785Y-31750D01*
X8842Y-31735D01*
X8914Y-31735D01*
X8971Y-31750D01*
X9000Y-31764D01*
X9014Y-31778D01*
X9028Y-31807D01*
X8728Y-32264D02*
X8928Y-32264D01*
X9028Y-32264D02*
X9014Y-32249D01*
X9000Y-32264D01*
X9014Y-32278D01*
X9028Y-32264D01*
X9000Y-32264D01*
X8928Y-32407D02*
X8728Y-32407D01*
X8900Y-32407D02*
X8914Y-32421D01*
X8928Y-32449D01*
X8928Y-32492D01*
X8914Y-32521D01*
X8885Y-32535D01*
X8728Y-32535D01*
X9100Y-26000D02*
X9100Y-37000D01*
X11100Y-26000D02*
X8600Y-26000D01*
X11100Y-37000D02*
X8600Y-37000D01*
X9100Y-37000D02*
X8869Y-36556D01*
X9100Y-37000D02*
X9330Y-36556D01*
X9100Y-26000D02*
X8869Y-26443D01*
X9100Y-26000D02*
X9330Y-26443D01*
X9028Y-40021D02*
X9028Y-40050D01*
X9014Y-40078D01*
X9000Y-40092D01*
X8971Y-40107D01*
X8914Y-40121D01*
X8842Y-40121D01*
X8785Y-40107D01*
X8757Y-40092D01*
X8742Y-40078D01*
X8728Y-40050D01*
X8728Y-40021D01*
X8742Y-39992D01*
X8757Y-39978D01*
X8785Y-39964D01*
X8842Y-39950D01*
X8914Y-39950D01*
X8971Y-39964D01*
X9000Y-39978D01*
X9014Y-39992D01*
X9028Y-40021D01*
X8757Y-40250D02*
X8742Y-40264D01*
X8728Y-40250D01*
X8742Y-40235D01*
X8757Y-40250D01*
X8728Y-40250D01*
X8900Y-40435D02*
X8914Y-40407D01*
X8928Y-40392D01*
X8957Y-40378D01*
X8971Y-40378D01*
X9000Y-40392D01*
X9014Y-40407D01*
X9028Y-40435D01*
X9028Y-40492D01*
X9014Y-40521D01*
X9000Y-40535D01*
X8971Y-40550D01*
X8957Y-40550D01*
X8928Y-40535D01*
X8914Y-40521D01*
X8900Y-40492D01*
X8900Y-40435D01*
X8885Y-40407D01*
X8871Y-40392D01*
X8842Y-40378D01*
X8785Y-40378D01*
X8757Y-40392D01*
X8742Y-40407D01*
X8728Y-40435D01*
X8728Y-40492D01*
X8742Y-40521D01*
X8757Y-40535D01*
X8785Y-40550D01*
X8842Y-40550D01*
X8871Y-40535D01*
X8885Y-40521D01*
X8900Y-40492D01*
X9028Y-40735D02*
X9028Y-40764D01*
X9014Y-40792D01*
X9000Y-40807D01*
X8971Y-40821D01*
X8914Y-40835D01*
X8842Y-40835D01*
X8785Y-40821D01*
X8757Y-40807D01*
X8742Y-40792D01*
X8728Y-40764D01*
X8728Y-40735D01*
X8742Y-40707D01*
X8757Y-40692D01*
X8785Y-40678D01*
X8842Y-40664D01*
X8914Y-40664D01*
X8971Y-40678D01*
X9000Y-40692D01*
X9014Y-40707D01*
X9028Y-40735D01*
X9028Y-41021D02*
X9028Y-41050D01*
X9014Y-41078D01*
X9000Y-41092D01*
X8971Y-41107D01*
X8914Y-41121D01*
X8842Y-41121D01*
X8785Y-41107D01*
X8757Y-41092D01*
X8742Y-41078D01*
X8728Y-41050D01*
X8728Y-41021D01*
X8742Y-40992D01*
X8757Y-40978D01*
X8785Y-40964D01*
X8842Y-40950D01*
X8914Y-40950D01*
X8971Y-40964D01*
X9000Y-40978D01*
X9014Y-40992D01*
X9028Y-41021D01*
X9028Y-41307D02*
X9028Y-41335D01*
X9014Y-41364D01*
X9000Y-41378D01*
X8971Y-41392D01*
X8914Y-41407D01*
X8842Y-41407D01*
X8785Y-41392D01*
X8757Y-41378D01*
X8742Y-41364D01*
X8728Y-41335D01*
X8728Y-41307D01*
X8742Y-41278D01*
X8757Y-41264D01*
X8785Y-41250D01*
X8842Y-41235D01*
X8914Y-41235D01*
X8971Y-41250D01*
X9000Y-41264D01*
X9014Y-41278D01*
X9028Y-41307D01*
X8728Y-41764D02*
X8928Y-41764D01*
X9028Y-41764D02*
X9014Y-41749D01*
X9000Y-41764D01*
X9014Y-41778D01*
X9028Y-41764D01*
X9000Y-41764D01*
X8928Y-41907D02*
X8728Y-41907D01*
X8900Y-41907D02*
X8914Y-41921D01*
X8928Y-41949D01*
X8928Y-41992D01*
X8914Y-42021D01*
X8885Y-42035D01*
X8728Y-42035D01*
X9100Y-37000D02*
X9100Y-45000D01*
X11100Y-37000D02*
X8600Y-37000D01*
X11100Y-45000D02*
X8600Y-45000D01*
X9100Y-45000D02*
X8869Y-44556D01*
X9100Y-45000D02*
X9330Y-44556D01*
X9100Y-37000D02*
X8869Y-37443D01*
X9100Y-37000D02*
X9330Y-37443D01*
X46521Y-10871D02*
X46550Y-10871D01*
X46578Y-10885D01*
X46592Y-10900D01*
X46607Y-10928D01*
X46621Y-10985D01*
X46621Y-11057D01*
X46607Y-11114D01*
X46592Y-11142D01*
X46578Y-11157D01*
X46550Y-11171D01*
X46521Y-11171D01*
X46492Y-11157D01*
X46478Y-11142D01*
X46464Y-11114D01*
X46450Y-11057D01*
X46450Y-10985D01*
X46464Y-10928D01*
X46478Y-10900D01*
X46492Y-10885D01*
X46521Y-10871D01*
X46750Y-11142D02*
X46764Y-11157D01*
X46750Y-11171D01*
X46735Y-11157D01*
X46750Y-11142D01*
X46750Y-11171D01*
X47035Y-10871D02*
X46892Y-10871D01*
X46878Y-11014D01*
X46892Y-11000D01*
X46921Y-10985D01*
X46992Y-10985D01*
X47021Y-11000D01*
X47035Y-11014D01*
X47050Y-11042D01*
X47050Y-11114D01*
X47035Y-11142D01*
X47021Y-11157D01*
X46992Y-11171D01*
X46921Y-11171D01*
X46892Y-11157D01*
X46878Y-11142D01*
X47235Y-10871D02*
X47264Y-10871D01*
X47292Y-10885D01*
X47307Y-10900D01*
X47321Y-10928D01*
X47335Y-10985D01*
X47335Y-11057D01*
X47321Y-11114D01*
X47307Y-11142D01*
X47292Y-11157D01*
X47264Y-11171D01*
X47235Y-11171D01*
X47207Y-11157D01*
X47192Y-11142D01*
X47178Y-11114D01*
X47164Y-11057D01*
X47164Y-10985D01*
X47178Y-10928D01*
X47192Y-10900D01*
X47207Y-10885D01*
X47235Y-10871D01*
X47521Y-10871D02*
X47550Y-10871D01*
X47578Y-10885D01*
X47592Y-10900D01*
X47607Y-10928D01*
X47621Y-10985D01*
X47621Y-11057D01*
X47607Y-11114D01*
X47592Y-11142D01*
X47578Y-11157D01*
X47550Y-11171D01*
X47521Y-11171D01*
X47492Y-11157D01*
X47478Y-11142D01*
X47464Y-11114D01*
X47450Y-11057D01*
X47450Y-10985D01*
X47464Y-10928D01*
X47478Y-10900D01*
X47492Y-10885D01*
X47521Y-10871D01*
X47807Y-10871D02*
X47835Y-10871D01*
X47864Y-10885D01*
X47878Y-10900D01*
X47892Y-10928D01*
X47907Y-10985D01*
X47907Y-11057D01*
X47892Y-11114D01*
X47878Y-11142D01*
X47864Y-11157D01*
X47835Y-11171D01*
X47807Y-11171D01*
X47778Y-11157D01*
X47764Y-11142D01*
X47750Y-11114D01*
X47735Y-11057D01*
X47735Y-10985D01*
X47750Y-10928D01*
X47764Y-10900D01*
X47778Y-10885D01*
X47807Y-10871D01*
X48264Y-11171D02*
X48264Y-10971D01*
X48264Y-10871D02*
X48249Y-10885D01*
X48264Y-10900D01*
X48278Y-10885D01*
X48264Y-10871D01*
X48264Y-10900D01*
X48407Y-10971D02*
X48407Y-11171D01*
X48407Y-11000D02*
X48421Y-10985D01*
X48449Y-10971D01*
X48492Y-10971D01*
X48521Y-10985D01*
X48535Y-11014D01*
X48535Y-11171D01*
X45000Y-11300D02*
X50000Y-11300D01*
X45000Y-14000D02*
X45000Y-10800D01*
X50000Y-14000D02*
X50000Y-10800D01*
X50000Y-11300D02*
X49556Y-11530D01*
X50000Y-11300D02*
X49556Y-11069D01*
X45000Y-11300D02*
X45443Y-11530D01*
X45000Y-11300D02*
X45443Y-11069D01*
X28935Y-10871D02*
X29121Y-10871D01*
X29021Y-10985D01*
X29064Y-10985D01*
X29092Y-11000D01*
X29107Y-11014D01*
X29121Y-11042D01*
X29121Y-11114D01*
X29107Y-11142D01*
X29092Y-11157D01*
X29064Y-11171D01*
X28978Y-11171D01*
X28950Y-11157D01*
X28935Y-11142D01*
X29250Y-11142D02*
X29264Y-11157D01*
X29250Y-11171D01*
X29235Y-11157D01*
X29250Y-11142D01*
X29250Y-11171D01*
X29450Y-10871D02*
X29478Y-10871D01*
X29507Y-10885D01*
X29521Y-10900D01*
X29535Y-10928D01*
X29550Y-10985D01*
X29550Y-11057D01*
X29535Y-11114D01*
X29521Y-11142D01*
X29507Y-11157D01*
X29478Y-11171D01*
X29450Y-11171D01*
X29421Y-11157D01*
X29407Y-11142D01*
X29392Y-11114D01*
X29378Y-11057D01*
X29378Y-10985D01*
X29392Y-10928D01*
X29407Y-10900D01*
X29421Y-10885D01*
X29450Y-10871D01*
X29735Y-10871D02*
X29764Y-10871D01*
X29792Y-10885D01*
X29807Y-10900D01*
X29821Y-10928D01*
X29835Y-10985D01*
X29835Y-11057D01*
X29821Y-11114D01*
X29807Y-11142D01*
X29792Y-11157D01*
X29764Y-11171D01*
X29735Y-11171D01*
X29707Y-11157D01*
X29692Y-11142D01*
X29678Y-11114D01*
X29664Y-11057D01*
X29664Y-10985D01*
X29678Y-10928D01*
X29692Y-10900D01*
X29707Y-10885D01*
X29735Y-10871D01*
X30021Y-10871D02*
X30050Y-10871D01*
X30078Y-10885D01*
X30092Y-10900D01*
X30107Y-10928D01*
X30121Y-10985D01*
X30121Y-11057D01*
X30107Y-11114D01*
X30092Y-11142D01*
X30078Y-11157D01*
X30050Y-11171D01*
X30021Y-11171D01*
X29992Y-11157D01*
X29978Y-11142D01*
X29964Y-11114D01*
X29950Y-11057D01*
X29950Y-10985D01*
X29964Y-10928D01*
X29978Y-10900D01*
X29992Y-10885D01*
X30021Y-10871D01*
X30307Y-10871D02*
X30335Y-10871D01*
X30364Y-10885D01*
X30378Y-10900D01*
X30392Y-10928D01*
X30407Y-10985D01*
X30407Y-11057D01*
X30392Y-11114D01*
X30378Y-11142D01*
X30364Y-11157D01*
X30335Y-11171D01*
X30307Y-11171D01*
X30278Y-11157D01*
X30264Y-11142D01*
X30250Y-11114D01*
X30235Y-11057D01*
X30235Y-10985D01*
X30250Y-10928D01*
X30264Y-10900D01*
X30278Y-10885D01*
X30307Y-10871D01*
X30764Y-11171D02*
X30764Y-10971D01*
X30764Y-10871D02*
X30749Y-10885D01*
X30764Y-10900D01*
X30778Y-10885D01*
X30764Y-10871D01*
X30764Y-10900D01*
X30907Y-10971D02*
X30907Y-11171D01*
X30907Y-11000D02*
X30921Y-10985D01*
X30949Y-10971D01*
X30992Y-10971D01*
X31021Y-10985D01*
X31035Y-11014D01*
X31035Y-11171D01*
X15000Y-11300D02*
X45000Y-11300D01*
X15000Y-14000D02*
X15000Y-10800D01*
X45000Y-14000D02*
X45000Y-10800D01*
X45000Y-11300D02*
X44556Y-11530D01*
X45000Y-11300D02*
X44556Y-11069D01*
X15000Y-11300D02*
X15443Y-11530D01*
X15000Y-11300D02*
X15443Y-11069D01*
X11521Y-10871D02*
X11550Y-10871D01*
X11578Y-10885D01*
X11592Y-10900D01*
X11607Y-10928D01*
X11621Y-10985D01*
X11621Y-11057D01*
X11607Y-11114D01*
X11592Y-11142D01*
X11578Y-11157D01*
X11550Y-11171D01*
X11521Y-11171D01*
X11492Y-11157D01*
X11478Y-11142D01*
X11464Y-11114D01*
X11450Y-11057D01*
X11450Y-10985D01*
X11464Y-10928D01*
X11478Y-10900D01*
X11492Y-10885D01*
X11521Y-10871D01*
X11750Y-11142D02*
X11764Y-11157D01*
X11750Y-11171D01*
X11735Y-11157D01*
X11750Y-11142D01*
X11750Y-11171D01*
X12035Y-10871D02*
X11892Y-10871D01*
X11878Y-11014D01*
X11892Y-11000D01*
X11921Y-10985D01*
X11992Y-10985D01*
X12021Y-11000D01*
X12035Y-11014D01*
X12050Y-11042D01*
X12050Y-11114D01*
X12035Y-11142D01*
X12021Y-11157D01*
X11992Y-11171D01*
X11921Y-11171D01*
X11892Y-11157D01*
X11878Y-11142D01*
X12235Y-10871D02*
X12264Y-10871D01*
X12292Y-10885D01*
X12307Y-10900D01*
X12321Y-10928D01*
X12335Y-10985D01*
X12335Y-11057D01*
X12321Y-11114D01*
X12307Y-11142D01*
X12292Y-11157D01*
X12264Y-11171D01*
X12235Y-11171D01*
X12207Y-11157D01*
X12192Y-11142D01*
X12178Y-11114D01*
X12164Y-11057D01*
X12164Y-10985D01*
X12178Y-10928D01*
X12192Y-10900D01*
X12207Y-10885D01*
X12235Y-10871D01*
X12521Y-10871D02*
X12550Y-10871D01*
X12578Y-10885D01*
X12592Y-10900D01*
X12607Y-10928D01*
X12621Y-10985D01*
X12621Y-11057D01*
X12607Y-11114D01*
X12592Y-11142D01*
X12578Y-11157D01*
X12550Y-11171D01*
X12521Y-11171D01*
X12492Y-11157D01*
X12478Y-11142D01*
X12464Y-11114D01*
X12450Y-11057D01*
X12450Y-10985D01*
X12464Y-10928D01*
X12478Y-10900D01*
X12492Y-10885D01*
X12521Y-10871D01*
X12807Y-10871D02*
X12835Y-10871D01*
X12864Y-10885D01*
X12878Y-10900D01*
X12892Y-10928D01*
X12907Y-10985D01*
X12907Y-11057D01*
X12892Y-11114D01*
X12878Y-11142D01*
X12864Y-11157D01*
X12835Y-11171D01*
X12807Y-11171D01*
X12778Y-11157D01*
X12764Y-11142D01*
X12750Y-11114D01*
X12735Y-11057D01*
X12735Y-10985D01*
X12750Y-10928D01*
X12764Y-10900D01*
X12778Y-10885D01*
X12807Y-10871D01*
X13264Y-11171D02*
X13264Y-10971D01*
X13264Y-10871D02*
X13249Y-10885D01*
X13264Y-10900D01*
X13278Y-10885D01*
X13264Y-10871D01*
X13264Y-10900D01*
X13407Y-10971D02*
X13407Y-11171D01*
X13407Y-11000D02*
X13421Y-10985D01*
X13449Y-10971D01*
X13492Y-10971D01*
X13521Y-10985D01*
X13535Y-11014D01*
X13535Y-11171D01*
X10000Y-11300D02*
X15000Y-11300D01*
X10000Y-14000D02*
X10000Y-10800D01*
X15000Y-14000D02*
X15000Y-10800D01*
X15000Y-11300D02*
X14556Y-11530D01*
X15000Y-11300D02*
X14556Y-11069D01*
X10000Y-11300D02*
X10443Y-11530D01*
X10000Y-11300D02*
X10443Y-11069D01*
X19878Y-16771D02*
X19878Y-16800D01*
X19864Y-16828D01*
X19850Y-16842D01*
X19821Y-16857D01*
X19764Y-16871D01*
X19692Y-16871D01*
X19635Y-16857D01*
X19607Y-16842D01*
X19592Y-16828D01*
X19578Y-16800D01*
X19578Y-16771D01*
X19592Y-16742D01*
X19607Y-16728D01*
X19635Y-16714D01*
X19692Y-16700D01*
X19764Y-16700D01*
X19821Y-16714D01*
X19850Y-16728D01*
X19864Y-16742D01*
X19878Y-16771D01*
X19607Y-17000D02*
X19592Y-17014D01*
X19578Y-17000D01*
X19592Y-16985D01*
X19607Y-17000D01*
X19578Y-17000D01*
X19578Y-17300D02*
X19578Y-17128D01*
X19578Y-17214D02*
X19878Y-17214D01*
X19835Y-17185D01*
X19807Y-17157D01*
X19792Y-17128D01*
X19878Y-17571D02*
X19878Y-17428D01*
X19735Y-17414D01*
X19750Y-17428D01*
X19764Y-17457D01*
X19764Y-17528D01*
X19750Y-17557D01*
X19735Y-17571D01*
X19707Y-17585D01*
X19635Y-17585D01*
X19607Y-17571D01*
X19592Y-17557D01*
X19578Y-17528D01*
X19578Y-17457D01*
X19592Y-17428D01*
X19607Y-17414D01*
X19878Y-17771D02*
X19878Y-17800D01*
X19864Y-17828D01*
X19850Y-17842D01*
X19821Y-17857D01*
X19764Y-17871D01*
X19692Y-17871D01*
X19635Y-17857D01*
X19607Y-17842D01*
X19592Y-17828D01*
X19578Y-17800D01*
X19578Y-17771D01*
X19592Y-17742D01*
X19607Y-17728D01*
X19635Y-17714D01*
X19692Y-17700D01*
X19764Y-17700D01*
X19821Y-17714D01*
X19850Y-17728D01*
X19864Y-17742D01*
X19878Y-17771D01*
X19878Y-18057D02*
X19878Y-18085D01*
X19864Y-18114D01*
X19850Y-18128D01*
X19821Y-18142D01*
X19764Y-18157D01*
X19692Y-18157D01*
X19635Y-18142D01*
X19607Y-18128D01*
X19592Y-18114D01*
X19578Y-18085D01*
X19578Y-18057D01*
X19592Y-18028D01*
X19607Y-18014D01*
X19635Y-18000D01*
X19692Y-17985D01*
X19764Y-17985D01*
X19821Y-18000D01*
X19850Y-18014D01*
X19864Y-18028D01*
X19878Y-18057D01*
X19578Y-18514D02*
X19778Y-18514D01*
X19878Y-18514D02*
X19864Y-18499D01*
X19850Y-18514D01*
X19864Y-18528D01*
X19878Y-18514D01*
X19850Y-18514D01*
X19778Y-18657D02*
X19578Y-18657D01*
X19750Y-18657D02*
X19764Y-18671D01*
X19778Y-18699D01*
X19778Y-18742D01*
X19764Y-18771D01*
X19735Y-18785D01*
X19578Y-18785D01*
X19650Y-19000D02*
X19650Y-20500D01*
X19900Y-19000D02*
X19150Y-19000D01*
X19900Y-20500D02*
X19150Y-20500D01*
X19650Y-20500D02*
X19419Y-20056D01*
X19650Y-20500D02*
X19880Y-20056D01*
X19650Y-19000D02*
X19419Y-19443D01*
X19650Y-19000D02*
X19880Y-19443D01*
X22671Y-17771D02*
X22700Y-17771D01*
X22728Y-17785D01*
X22742Y-17800D01*
X22757Y-17828D01*
X22771Y-17885D01*
X22771Y-17957D01*
X22757Y-18014D01*
X22742Y-18042D01*
X22728Y-18057D01*
X22700Y-18071D01*
X22671Y-18071D01*
X22642Y-18057D01*
X22628Y-18042D01*
X22614Y-18014D01*
X22600Y-17957D01*
X22600Y-17885D01*
X22614Y-17828D01*
X22628Y-17800D01*
X22642Y-17785D01*
X22671Y-17771D01*
X22900Y-18042D02*
X22914Y-18057D01*
X22900Y-18071D01*
X22885Y-18057D01*
X22900Y-18042D01*
X22900Y-18071D01*
X23171Y-17771D02*
X23114Y-17771D01*
X23085Y-17785D01*
X23071Y-17800D01*
X23042Y-17842D01*
X23028Y-17900D01*
X23028Y-18014D01*
X23042Y-18042D01*
X23057Y-18057D01*
X23085Y-18071D01*
X23142Y-18071D01*
X23171Y-18057D01*
X23185Y-18042D01*
X23200Y-18014D01*
X23200Y-17942D01*
X23185Y-17914D01*
X23171Y-17900D01*
X23142Y-17885D01*
X23085Y-17885D01*
X23057Y-17900D01*
X23042Y-17914D01*
X23028Y-17942D01*
X23471Y-17771D02*
X23328Y-17771D01*
X23314Y-17914D01*
X23328Y-17900D01*
X23357Y-17885D01*
X23428Y-17885D01*
X23457Y-17900D01*
X23471Y-17914D01*
X23485Y-17942D01*
X23485Y-18014D01*
X23471Y-18042D01*
X23457Y-18057D01*
X23428Y-18071D01*
X23357Y-18071D01*
X23328Y-18057D01*
X23314Y-18042D01*
X23671Y-17771D02*
X23700Y-17771D01*
X23728Y-17785D01*
X23742Y-17800D01*
X23757Y-17828D01*
X23771Y-17885D01*
X23771Y-17957D01*
X23757Y-18014D01*
X23742Y-18042D01*
X23728Y-18057D01*
X23700Y-18071D01*
X23671Y-18071D01*
X23642Y-18057D01*
X23628Y-18042D01*
X23614Y-18014D01*
X23600Y-17957D01*
X23600Y-17885D01*
X23614Y-17828D01*
X23628Y-17800D01*
X23642Y-17785D01*
X23671Y-17771D01*
X23957Y-17771D02*
X23985Y-17771D01*
X24014Y-17785D01*
X24028Y-17800D01*
X24042Y-17828D01*
X24057Y-17885D01*
X24057Y-17957D01*
X24042Y-18014D01*
X24028Y-18042D01*
X24014Y-18057D01*
X23985Y-18071D01*
X23957Y-18071D01*
X23928Y-18057D01*
X23914Y-18042D01*
X23900Y-18014D01*
X23885Y-17957D01*
X23885Y-17885D01*
X23900Y-17828D01*
X23914Y-17800D01*
X23928Y-17785D01*
X23957Y-17771D01*
X24414Y-18071D02*
X24414Y-17871D01*
X24414Y-17771D02*
X24399Y-17785D01*
X24414Y-17800D01*
X24428Y-17785D01*
X24414Y-17771D01*
X24414Y-17800D01*
X24557Y-17871D02*
X24557Y-18071D01*
X24557Y-17900D02*
X24571Y-17885D01*
X24599Y-17871D01*
X24642Y-17871D01*
X24671Y-17885D01*
X24685Y-17914D01*
X24685Y-18071D01*
X20400Y-18200D02*
X26900Y-18200D01*
X20400Y-18750D02*
X20400Y-17700D01*
X26900Y-18750D02*
X26900Y-17700D01*
X26900Y-18200D02*
X26456Y-18430D01*
X26900Y-18200D02*
X26456Y-17969D01*
X20400Y-18200D02*
X20843Y-18430D01*
X20400Y-18200D02*
X20843Y-17969D01*
X46521Y-49321D02*
X46550Y-49321D01*
X46578Y-49335D01*
X46592Y-49350D01*
X46607Y-49378D01*
X46621Y-49435D01*
X46621Y-49507D01*
X46607Y-49564D01*
X46592Y-49592D01*
X46578Y-49607D01*
X46550Y-49621D01*
X46521Y-49621D01*
X46492Y-49607D01*
X46478Y-49592D01*
X46464Y-49564D01*
X46450Y-49507D01*
X46450Y-49435D01*
X46464Y-49378D01*
X46478Y-49350D01*
X46492Y-49335D01*
X46521Y-49321D01*
X46750Y-49592D02*
X46764Y-49607D01*
X46750Y-49621D01*
X46735Y-49607D01*
X46750Y-49592D01*
X46750Y-49621D01*
X47035Y-49321D02*
X46892Y-49321D01*
X46878Y-49464D01*
X46892Y-49450D01*
X46921Y-49435D01*
X46992Y-49435D01*
X47021Y-49450D01*
X47035Y-49464D01*
X47050Y-49492D01*
X47050Y-49564D01*
X47035Y-49592D01*
X47021Y-49607D01*
X46992Y-49621D01*
X46921Y-49621D01*
X46892Y-49607D01*
X46878Y-49592D01*
X47235Y-49321D02*
X47264Y-49321D01*
X47292Y-49335D01*
X47307Y-49350D01*
X47321Y-49378D01*
X47335Y-49435D01*
X47335Y-49507D01*
X47321Y-49564D01*
X47307Y-49592D01*
X47292Y-49607D01*
X47264Y-49621D01*
X47235Y-49621D01*
X47207Y-49607D01*
X47192Y-49592D01*
X47178Y-49564D01*
X47164Y-49507D01*
X47164Y-49435D01*
X47178Y-49378D01*
X47192Y-49350D01*
X47207Y-49335D01*
X47235Y-49321D01*
X47521Y-49321D02*
X47550Y-49321D01*
X47578Y-49335D01*
X47592Y-49350D01*
X47607Y-49378D01*
X47621Y-49435D01*
X47621Y-49507D01*
X47607Y-49564D01*
X47592Y-49592D01*
X47578Y-49607D01*
X47550Y-49621D01*
X47521Y-49621D01*
X47492Y-49607D01*
X47478Y-49592D01*
X47464Y-49564D01*
X47450Y-49507D01*
X47450Y-49435D01*
X47464Y-49378D01*
X47478Y-49350D01*
X47492Y-49335D01*
X47521Y-49321D01*
X47807Y-49321D02*
X47835Y-49321D01*
X47864Y-49335D01*
X47878Y-49350D01*
X47892Y-49378D01*
X47907Y-49435D01*
X47907Y-49507D01*
X47892Y-49564D01*
X47878Y-49592D01*
X47864Y-49607D01*
X47835Y-49621D01*
X47807Y-49621D01*
X47778Y-49607D01*
X47764Y-49592D01*
X47750Y-49564D01*
X47735Y-49507D01*
X47735Y-49435D01*
X47750Y-49378D01*
X47764Y-49350D01*
X47778Y-49335D01*
X47807Y-49321D01*
X48264Y-49621D02*
X48264Y-49421D01*
X48264Y-49321D02*
X48249Y-49335D01*
X48264Y-49350D01*
X48278Y-49335D01*
X48264Y-49321D01*
X48264Y-49350D01*
X48407Y-49421D02*
X48407Y-49621D01*
X48407Y-49450D02*
X48421Y-49435D01*
X48449Y-49421D01*
X48492Y-49421D01*
X48521Y-49435D01*
X48535Y-49464D01*
X48535Y-49621D01*
X45000Y-49250D02*
X50000Y-49250D01*
X45000Y-45000D02*
X45000Y-49750D01*
X50000Y-45000D02*
X50000Y-49750D01*
X50000Y-49250D02*
X49556Y-49480D01*
X50000Y-49250D02*
X49556Y-49019D01*
X45000Y-49250D02*
X45443Y-49480D01*
X45000Y-49250D02*
X45443Y-49019D01*
X28935Y-49321D02*
X29121Y-49321D01*
X29021Y-49435D01*
X29064Y-49435D01*
X29092Y-49450D01*
X29107Y-49464D01*
X29121Y-49492D01*
X29121Y-49564D01*
X29107Y-49592D01*
X29092Y-49607D01*
X29064Y-49621D01*
X28978Y-49621D01*
X28950Y-49607D01*
X28935Y-49592D01*
X29250Y-49592D02*
X29264Y-49607D01*
X29250Y-49621D01*
X29235Y-49607D01*
X29250Y-49592D01*
X29250Y-49621D01*
X29450Y-49321D02*
X29478Y-49321D01*
X29507Y-49335D01*
X29521Y-49350D01*
X29535Y-49378D01*
X29550Y-49435D01*
X29550Y-49507D01*
X29535Y-49564D01*
X29521Y-49592D01*
X29507Y-49607D01*
X29478Y-49621D01*
X29450Y-49621D01*
X29421Y-49607D01*
X29407Y-49592D01*
X29392Y-49564D01*
X29378Y-49507D01*
X29378Y-49435D01*
X29392Y-49378D01*
X29407Y-49350D01*
X29421Y-49335D01*
X29450Y-49321D01*
X29735Y-49321D02*
X29764Y-49321D01*
X29792Y-49335D01*
X29807Y-49350D01*
X29821Y-49378D01*
X29835Y-49435D01*
X29835Y-49507D01*
X29821Y-49564D01*
X29807Y-49592D01*
X29792Y-49607D01*
X29764Y-49621D01*
X29735Y-49621D01*
X29707Y-49607D01*
X29692Y-49592D01*
X29678Y-49564D01*
X29664Y-49507D01*
X29664Y-49435D01*
X29678Y-49378D01*
X29692Y-49350D01*
X29707Y-49335D01*
X29735Y-49321D01*
X30021Y-49321D02*
X30050Y-49321D01*
X30078Y-49335D01*
X30092Y-49350D01*
X30107Y-49378D01*
X30121Y-49435D01*
X30121Y-49507D01*
X30107Y-49564D01*
X30092Y-49592D01*
X30078Y-49607D01*
X30050Y-49621D01*
X30021Y-49621D01*
X29992Y-49607D01*
X29978Y-49592D01*
X29964Y-49564D01*
X29950Y-49507D01*
X29950Y-49435D01*
X29964Y-49378D01*
X29978Y-49350D01*
X29992Y-49335D01*
X30021Y-49321D01*
X30307Y-49321D02*
X30335Y-49321D01*
X30364Y-49335D01*
X30378Y-49350D01*
X30392Y-49378D01*
X30407Y-49435D01*
X30407Y-49507D01*
X30392Y-49564D01*
X30378Y-49592D01*
X30364Y-49607D01*
X30335Y-49621D01*
X30307Y-49621D01*
X30278Y-49607D01*
X30264Y-49592D01*
X30250Y-49564D01*
X30235Y-49507D01*
X30235Y-49435D01*
X30250Y-49378D01*
X30264Y-49350D01*
X30278Y-49335D01*
X30307Y-49321D01*
X30764Y-49621D02*
X30764Y-49421D01*
X30764Y-49321D02*
X30749Y-49335D01*
X30764Y-49350D01*
X30778Y-49335D01*
X30764Y-49321D01*
X30764Y-49350D01*
X30907Y-49421D02*
X30907Y-49621D01*
X30907Y-49450D02*
X30921Y-49435D01*
X30949Y-49421D01*
X30992Y-49421D01*
X31021Y-49435D01*
X31035Y-49464D01*
X31035Y-49621D01*
X15000Y-49250D02*
X45000Y-49250D01*
X15000Y-45000D02*
X15000Y-49750D01*
X45000Y-45000D02*
X45000Y-49750D01*
X45000Y-49250D02*
X44556Y-49480D01*
X45000Y-49250D02*
X44556Y-49019D01*
X15000Y-49250D02*
X15443Y-49480D01*
X15000Y-49250D02*
X15443Y-49019D01*
X11521Y-49321D02*
X11550Y-49321D01*
X11578Y-49335D01*
X11592Y-49350D01*
X11607Y-49378D01*
X11621Y-49435D01*
X11621Y-49507D01*
X11607Y-49564D01*
X11592Y-49592D01*
X11578Y-49607D01*
X11550Y-49621D01*
X11521Y-49621D01*
X11492Y-49607D01*
X11478Y-49592D01*
X11464Y-49564D01*
X11450Y-49507D01*
X11450Y-49435D01*
X11464Y-49378D01*
X11478Y-49350D01*
X11492Y-49335D01*
X11521Y-49321D01*
X11750Y-49592D02*
X11764Y-49607D01*
X11750Y-49621D01*
X11735Y-49607D01*
X11750Y-49592D01*
X11750Y-49621D01*
X12035Y-49321D02*
X11892Y-49321D01*
X11878Y-49464D01*
X11892Y-49450D01*
X11921Y-49435D01*
X11992Y-49435D01*
X12021Y-49450D01*
X12035Y-49464D01*
X12050Y-49492D01*
X12050Y-49564D01*
X12035Y-49592D01*
X12021Y-49607D01*
X11992Y-49621D01*
X11921Y-49621D01*
X11892Y-49607D01*
X11878Y-49592D01*
X12235Y-49321D02*
X12264Y-49321D01*
X12292Y-49335D01*
X12307Y-49350D01*
X12321Y-49378D01*
X12335Y-49435D01*
X12335Y-49507D01*
X12321Y-49564D01*
X12307Y-49592D01*
X12292Y-49607D01*
X12264Y-49621D01*
X12235Y-49621D01*
X12207Y-49607D01*
X12192Y-49592D01*
X12178Y-49564D01*
X12164Y-49507D01*
X12164Y-49435D01*
X12178Y-49378D01*
X12192Y-49350D01*
X12207Y-49335D01*
X12235Y-49321D01*
X12521Y-49321D02*
X12550Y-49321D01*
X12578Y-49335D01*
X12592Y-49350D01*
X12607Y-49378D01*
X12621Y-49435D01*
X12621Y-49507D01*
X12607Y-49564D01*
X12592Y-49592D01*
X12578Y-49607D01*
X12550Y-49621D01*
X12521Y-49621D01*
X12492Y-49607D01*
X12478Y-49592D01*
X12464Y-49564D01*
X12450Y-49507D01*
X12450Y-49435D01*
X12464Y-49378D01*
X12478Y-49350D01*
X12492Y-49335D01*
X12521Y-49321D01*
X12807Y-49321D02*
X12835Y-49321D01*
X12864Y-49335D01*
X12878Y-49350D01*
X12892Y-49378D01*
X12907Y-49435D01*
X12907Y-49507D01*
X12892Y-49564D01*
X12878Y-49592D01*
X12864Y-49607D01*
X12835Y-49621D01*
X12807Y-49621D01*
X12778Y-49607D01*
X12764Y-49592D01*
X12750Y-49564D01*
X12735Y-49507D01*
X12735Y-49435D01*
X12750Y-49378D01*
X12764Y-49350D01*
X12778Y-49335D01*
X12807Y-49321D01*
X13264Y-49621D02*
X13264Y-49421D01*
X13264Y-49321D02*
X13249Y-49335D01*
X13264Y-49350D01*
X13278Y-49335D01*
X13264Y-49321D01*
X13264Y-49350D01*
X13407Y-49421D02*
X13407Y-49621D01*
X13407Y-49450D02*
X13421Y-49435D01*
X13449Y-49421D01*
X13492Y-49421D01*
X13521Y-49435D01*
X13535Y-49464D01*
X13535Y-49621D01*
X10000Y-49250D02*
X15000Y-49250D01*
X10000Y-45000D02*
X10000Y-49750D01*
X15000Y-45000D02*
X15000Y-49750D01*
X15000Y-49250D02*
X14556Y-49480D01*
X15000Y-49250D02*
X14556Y-49019D01*
X10000Y-49250D02*
X10443Y-49480D01*
X10000Y-49250D02*
X10443Y-49019D01*
X27471Y-18678D02*
X27471Y-18649D01*
X27485Y-18621D01*
X27500Y-18607D01*
X27528Y-18592D01*
X27585Y-18578D01*
X27657Y-18578D01*
X27714Y-18592D01*
X27742Y-18607D01*
X27757Y-18621D01*
X27771Y-18649D01*
X27771Y-18678D01*
X27757Y-18707D01*
X27742Y-18721D01*
X27714Y-18735D01*
X27657Y-18749D01*
X27585Y-18749D01*
X27528Y-18735D01*
X27500Y-18721D01*
X27485Y-18707D01*
X27471Y-18678D01*
X27742Y-18449D02*
X27757Y-18435D01*
X27771Y-18449D01*
X27757Y-18464D01*
X27742Y-18449D01*
X27771Y-18449D01*
X27771Y-18150D02*
X27771Y-18321D01*
X27771Y-18235D02*
X27471Y-18235D01*
X27514Y-18264D01*
X27542Y-18292D01*
X27557Y-18321D01*
X27471Y-17964D02*
X27471Y-17935D01*
X27485Y-17907D01*
X27500Y-17892D01*
X27528Y-17878D01*
X27585Y-17864D01*
X27657Y-17864D01*
X27714Y-17878D01*
X27742Y-17892D01*
X27757Y-17907D01*
X27771Y-17935D01*
X27771Y-17964D01*
X27757Y-17992D01*
X27742Y-18007D01*
X27714Y-18021D01*
X27657Y-18035D01*
X27585Y-18035D01*
X27528Y-18021D01*
X27500Y-18007D01*
X27485Y-17992D01*
X27471Y-17964D01*
X27471Y-17678D02*
X27471Y-17650D01*
X27485Y-17621D01*
X27500Y-17607D01*
X27528Y-17592D01*
X27585Y-17578D01*
X27657Y-17578D01*
X27714Y-17592D01*
X27742Y-17607D01*
X27757Y-17621D01*
X27771Y-17650D01*
X27771Y-17678D01*
X27757Y-17707D01*
X27742Y-17721D01*
X27714Y-17735D01*
X27657Y-17750D01*
X27585Y-17750D01*
X27528Y-17735D01*
X27500Y-17721D01*
X27485Y-17707D01*
X27471Y-17678D01*
X27471Y-17392D02*
X27471Y-17364D01*
X27485Y-17335D01*
X27500Y-17321D01*
X27528Y-17307D01*
X27585Y-17292D01*
X27657Y-17292D01*
X27714Y-17307D01*
X27742Y-17321D01*
X27757Y-17335D01*
X27771Y-17364D01*
X27771Y-17392D01*
X27757Y-17421D01*
X27742Y-17435D01*
X27714Y-17450D01*
X27657Y-17464D01*
X27585Y-17464D01*
X27528Y-17450D01*
X27500Y-17435D01*
X27485Y-17421D01*
X27471Y-17392D01*
X27771Y-16935D02*
X27571Y-16935D01*
X27471Y-16935D02*
X27485Y-16950D01*
X27500Y-16935D01*
X27485Y-16921D01*
X27471Y-16935D01*
X27500Y-16935D01*
X27571Y-16792D02*
X27771Y-16792D01*
X27600Y-16792D02*
X27585Y-16778D01*
X27571Y-16750D01*
X27571Y-16707D01*
X27585Y-16678D01*
X27614Y-16664D01*
X27771Y-16664D01*
X27650Y-20000D02*
X27650Y-19000D01*
X28900Y-20000D02*
X27150Y-20000D01*
X28900Y-19000D02*
X27150Y-19000D01*
X27650Y-19000D02*
X27880Y-19443D01*
X27650Y-19000D02*
X27419Y-19443D01*
X27650Y-20000D02*
X27880Y-19556D01*
X27650Y-20000D02*
X27419Y-19556D01*
X18571Y-11921D02*
X18400Y-11921D01*
X18485Y-11921D02*
X18485Y-11621D01*
X18457Y-11664D01*
X18428Y-11692D01*
X18400Y-11707D01*
X18700Y-11892D02*
X18714Y-11907D01*
X18700Y-11921D01*
X18685Y-11907D01*
X18700Y-11892D01*
X18700Y-11921D01*
X18885Y-11750D02*
X18857Y-11735D01*
X18842Y-11721D01*
X18828Y-11692D01*
X18828Y-11678D01*
X18842Y-11650D01*
X18857Y-11635D01*
X18885Y-11621D01*
X18942Y-11621D01*
X18971Y-11635D01*
X18985Y-11650D01*
X19000Y-11678D01*
X19000Y-11692D01*
X18985Y-11721D01*
X18971Y-11735D01*
X18942Y-11750D01*
X18885Y-11750D01*
X18857Y-11764D01*
X18842Y-11778D01*
X18828Y-11807D01*
X18828Y-11864D01*
X18842Y-11892D01*
X18857Y-11907D01*
X18885Y-11921D01*
X18942Y-11921D01*
X18971Y-11907D01*
X18985Y-11892D01*
X19000Y-11864D01*
X19000Y-11807D01*
X18985Y-11778D01*
X18971Y-11764D01*
X18942Y-11750D01*
X19142Y-11921D02*
X19200Y-11921D01*
X19228Y-11907D01*
X19242Y-11892D01*
X19271Y-11850D01*
X19285Y-11792D01*
X19285Y-11678D01*
X19271Y-11650D01*
X19257Y-11635D01*
X19228Y-11621D01*
X19171Y-11621D01*
X19142Y-11635D01*
X19128Y-11650D01*
X19114Y-11678D01*
X19114Y-11750D01*
X19128Y-11778D01*
X19142Y-11792D01*
X19171Y-11807D01*
X19228Y-11807D01*
X19257Y-11792D01*
X19271Y-11778D01*
X19285Y-11750D01*
X19471Y-11621D02*
X19500Y-11621D01*
X19528Y-11635D01*
X19542Y-11650D01*
X19557Y-11678D01*
X19571Y-11735D01*
X19571Y-11807D01*
X19557Y-11864D01*
X19542Y-11892D01*
X19528Y-11907D01*
X19500Y-11921D01*
X19471Y-11921D01*
X19442Y-11907D01*
X19428Y-11892D01*
X19414Y-11864D01*
X19400Y-11807D01*
X19400Y-11735D01*
X19414Y-11678D01*
X19428Y-11650D01*
X19442Y-11635D01*
X19471Y-11621D01*
X19757Y-11621D02*
X19785Y-11621D01*
X19814Y-11635D01*
X19828Y-11650D01*
X19842Y-11678D01*
X19857Y-11735D01*
X19857Y-11807D01*
X19842Y-11864D01*
X19828Y-11892D01*
X19814Y-11907D01*
X19785Y-11921D01*
X19757Y-11921D01*
X19728Y-11907D01*
X19714Y-11892D01*
X19700Y-11864D01*
X19685Y-11807D01*
X19685Y-11735D01*
X19700Y-11678D01*
X19714Y-11650D01*
X19728Y-11635D01*
X19757Y-11621D01*
X20214Y-11921D02*
X20214Y-11721D01*
X20214Y-11621D02*
X20199Y-11635D01*
X20214Y-11650D01*
X20228Y-11635D01*
X20214Y-11621D01*
X20214Y-11650D01*
X20357Y-11721D02*
X20357Y-11921D01*
X20357Y-11750D02*
X20371Y-11735D01*
X20399Y-11721D01*
X20442Y-11721D01*
X20471Y-11735D01*
X20485Y-11764D01*
X20485Y-11921D01*
X28900Y-12050D02*
X10000Y-12050D01*
X28900Y-20000D02*
X28900Y-11550D01*
X10000Y-20000D02*
X10000Y-11550D01*
X10000Y-12050D02*
X10443Y-11819D01*
X10000Y-12050D02*
X10443Y-12280D01*
X28900Y-12050D02*
X28456Y-11819D01*
X28900Y-12050D02*
X28456Y-12280D01*
X25971Y-42978D02*
X25971Y-42949D01*
X25985Y-42921D01*
X26000Y-42907D01*
X26028Y-42892D01*
X26085Y-42878D01*
X26157Y-42878D01*
X26214Y-42892D01*
X26242Y-42907D01*
X26257Y-42921D01*
X26271Y-42949D01*
X26271Y-42978D01*
X26257Y-43007D01*
X26242Y-43021D01*
X26214Y-43035D01*
X26157Y-43049D01*
X26085Y-43049D01*
X26028Y-43035D01*
X26000Y-43021D01*
X25985Y-43007D01*
X25971Y-42978D01*
X26242Y-42749D02*
X26257Y-42735D01*
X26271Y-42749D01*
X26257Y-42764D01*
X26242Y-42749D01*
X26271Y-42749D01*
X25971Y-42478D02*
X25971Y-42535D01*
X25985Y-42564D01*
X26000Y-42578D01*
X26042Y-42607D01*
X26100Y-42621D01*
X26214Y-42621D01*
X26242Y-42607D01*
X26257Y-42592D01*
X26271Y-42564D01*
X26271Y-42507D01*
X26257Y-42478D01*
X26242Y-42464D01*
X26214Y-42450D01*
X26142Y-42450D01*
X26114Y-42464D01*
X26100Y-42478D01*
X26085Y-42507D01*
X26085Y-42564D01*
X26100Y-42592D01*
X26114Y-42607D01*
X26142Y-42621D01*
X25971Y-42264D02*
X25971Y-42235D01*
X25985Y-42207D01*
X26000Y-42192D01*
X26028Y-42178D01*
X26085Y-42164D01*
X26157Y-42164D01*
X26214Y-42178D01*
X26242Y-42192D01*
X26257Y-42207D01*
X26271Y-42235D01*
X26271Y-42264D01*
X26257Y-42292D01*
X26242Y-42307D01*
X26214Y-42321D01*
X26157Y-42335D01*
X26085Y-42335D01*
X26028Y-42321D01*
X26000Y-42307D01*
X25985Y-42292D01*
X25971Y-42264D01*
X25971Y-41978D02*
X25971Y-41950D01*
X25985Y-41921D01*
X26000Y-41907D01*
X26028Y-41892D01*
X26085Y-41878D01*
X26157Y-41878D01*
X26214Y-41892D01*
X26242Y-41907D01*
X26257Y-41921D01*
X26271Y-41950D01*
X26271Y-41978D01*
X26257Y-42007D01*
X26242Y-42021D01*
X26214Y-42035D01*
X26157Y-42050D01*
X26085Y-42050D01*
X26028Y-42035D01*
X26000Y-42021D01*
X25985Y-42007D01*
X25971Y-41978D01*
X25971Y-41692D02*
X25971Y-41664D01*
X25985Y-41635D01*
X26000Y-41621D01*
X26028Y-41607D01*
X26085Y-41592D01*
X26157Y-41592D01*
X26214Y-41607D01*
X26242Y-41621D01*
X26257Y-41635D01*
X26271Y-41664D01*
X26271Y-41692D01*
X26257Y-41721D01*
X26242Y-41735D01*
X26214Y-41750D01*
X26157Y-41764D01*
X26085Y-41764D01*
X26028Y-41750D01*
X26000Y-41735D01*
X25985Y-41721D01*
X25971Y-41692D01*
X26271Y-41235D02*
X26071Y-41235D01*
X25971Y-41235D02*
X25985Y-41250D01*
X26000Y-41235D01*
X25985Y-41221D01*
X25971Y-41235D01*
X26000Y-41235D01*
X26071Y-41092D02*
X26271Y-41092D01*
X26100Y-41092D02*
X26085Y-41078D01*
X26071Y-41050D01*
X26071Y-41007D01*
X26085Y-40978D01*
X26114Y-40964D01*
X26271Y-40964D01*
X26400Y-45000D02*
X26400Y-39000D01*
X28400Y-45000D02*
X25900Y-45000D01*
X28400Y-39000D02*
X25900Y-39000D01*
X26400Y-39000D02*
X26630Y-39443D01*
X26400Y-39000D02*
X26169Y-39443D01*
X26400Y-45000D02*
X26630Y-44556D01*
X26400Y-45000D02*
X26169Y-44556D01*
X50221Y-46371D02*
X50250Y-46371D01*
X50278Y-46385D01*
X50292Y-46400D01*
X50307Y-46428D01*
X50321Y-46485D01*
X50321Y-46557D01*
X50307Y-46614D01*
X50292Y-46642D01*
X50278Y-46657D01*
X50250Y-46671D01*
X50221Y-46671D01*
X50192Y-46657D01*
X50178Y-46642D01*
X50164Y-46614D01*
X50150Y-46557D01*
X50150Y-46485D01*
X50164Y-46428D01*
X50178Y-46400D01*
X50192Y-46385D01*
X50221Y-46371D01*
X50450Y-46642D02*
X50464Y-46657D01*
X50450Y-46671D01*
X50435Y-46657D01*
X50450Y-46642D01*
X50450Y-46671D01*
X50750Y-46671D02*
X50578Y-46671D01*
X50664Y-46671D02*
X50664Y-46371D01*
X50635Y-46414D01*
X50607Y-46442D01*
X50578Y-46457D01*
X51035Y-46671D02*
X50864Y-46671D01*
X50950Y-46671D02*
X50950Y-46371D01*
X50921Y-46414D01*
X50892Y-46442D01*
X50864Y-46457D01*
X51221Y-46371D02*
X51250Y-46371D01*
X51278Y-46385D01*
X51292Y-46400D01*
X51307Y-46428D01*
X51321Y-46485D01*
X51321Y-46557D01*
X51307Y-46614D01*
X51292Y-46642D01*
X51278Y-46657D01*
X51250Y-46671D01*
X51221Y-46671D01*
X51192Y-46657D01*
X51178Y-46642D01*
X51164Y-46614D01*
X51150Y-46557D01*
X51150Y-46485D01*
X51164Y-46428D01*
X51178Y-46400D01*
X51192Y-46385D01*
X51221Y-46371D01*
X51507Y-46371D02*
X51535Y-46371D01*
X51564Y-46385D01*
X51578Y-46400D01*
X51592Y-46428D01*
X51607Y-46485D01*
X51607Y-46557D01*
X51592Y-46614D01*
X51578Y-46642D01*
X51564Y-46657D01*
X51535Y-46671D01*
X51507Y-46671D01*
X51478Y-46657D01*
X51464Y-46642D01*
X51450Y-46614D01*
X51435Y-46557D01*
X51435Y-46485D01*
X51450Y-46428D01*
X51464Y-46400D01*
X51478Y-46385D01*
X51507Y-46371D01*
X51964Y-46671D02*
X51964Y-46471D01*
X51964Y-46371D02*
X51949Y-46385D01*
X51964Y-46400D01*
X51978Y-46385D01*
X51964Y-46371D01*
X51964Y-46400D01*
X52107Y-46471D02*
X52107Y-46671D01*
X52107Y-46500D02*
X52121Y-46485D01*
X52149Y-46471D01*
X52192Y-46471D01*
X52221Y-46485D01*
X52235Y-46514D01*
X52235Y-46671D01*
X48900Y-46550D02*
X50000Y-46550D01*
X48900Y-37000D02*
X48900Y-47050D01*
X50000Y-37000D02*
X50000Y-47050D01*
X50000Y-46550D02*
X49556Y-46780D01*
X50000Y-46550D02*
X49556Y-46319D01*
X48900Y-46550D02*
X49343Y-46780D01*
X48900Y-46550D02*
X49343Y-46319D01*
X7821Y-46321D02*
X7850Y-46321D01*
X7878Y-46335D01*
X7892Y-46350D01*
X7907Y-46378D01*
X7921Y-46435D01*
X7921Y-46507D01*
X7907Y-46564D01*
X7892Y-46592D01*
X7878Y-46607D01*
X7850Y-46621D01*
X7821Y-46621D01*
X7792Y-46607D01*
X7778Y-46592D01*
X7764Y-46564D01*
X7750Y-46507D01*
X7750Y-46435D01*
X7764Y-46378D01*
X7778Y-46350D01*
X7792Y-46335D01*
X7821Y-46321D01*
X8050Y-46592D02*
X8064Y-46607D01*
X8050Y-46621D01*
X8035Y-46607D01*
X8050Y-46592D01*
X8050Y-46621D01*
X8350Y-46621D02*
X8178Y-46621D01*
X8264Y-46621D02*
X8264Y-46321D01*
X8235Y-46364D01*
X8207Y-46392D01*
X8178Y-46407D01*
X8635Y-46621D02*
X8464Y-46621D01*
X8550Y-46621D02*
X8550Y-46321D01*
X8521Y-46364D01*
X8492Y-46392D01*
X8464Y-46407D01*
X8821Y-46321D02*
X8850Y-46321D01*
X8878Y-46335D01*
X8892Y-46350D01*
X8907Y-46378D01*
X8921Y-46435D01*
X8921Y-46507D01*
X8907Y-46564D01*
X8892Y-46592D01*
X8878Y-46607D01*
X8850Y-46621D01*
X8821Y-46621D01*
X8792Y-46607D01*
X8778Y-46592D01*
X8764Y-46564D01*
X8750Y-46507D01*
X8750Y-46435D01*
X8764Y-46378D01*
X8778Y-46350D01*
X8792Y-46335D01*
X8821Y-46321D01*
X9107Y-46321D02*
X9135Y-46321D01*
X9164Y-46335D01*
X9178Y-46350D01*
X9192Y-46378D01*
X9207Y-46435D01*
X9207Y-46507D01*
X9192Y-46564D01*
X9178Y-46592D01*
X9164Y-46607D01*
X9135Y-46621D01*
X9107Y-46621D01*
X9078Y-46607D01*
X9064Y-46592D01*
X9050Y-46564D01*
X9035Y-46507D01*
X9035Y-46435D01*
X9050Y-46378D01*
X9064Y-46350D01*
X9078Y-46335D01*
X9107Y-46321D01*
X9564Y-46621D02*
X9564Y-46421D01*
X9564Y-46321D02*
X9549Y-46335D01*
X9564Y-46350D01*
X9578Y-46335D01*
X9564Y-46321D01*
X9564Y-46350D01*
X9707Y-46421D02*
X9707Y-46621D01*
X9707Y-46450D02*
X9721Y-46435D01*
X9749Y-46421D01*
X9792Y-46421D01*
X9821Y-46435D01*
X9835Y-46464D01*
X9835Y-46621D01*
X10000Y-46550D02*
X11100Y-46550D01*
X10000Y-37000D02*
X10000Y-47050D01*
X11100Y-37000D02*
X11100Y-47050D01*
X11100Y-46550D02*
X10656Y-46780D01*
X11100Y-46550D02*
X10656Y-46319D01*
X10000Y-46550D02*
X10443Y-46780D01*
X10000Y-46550D02*
X10443Y-46319D01*
X28935Y-46621D02*
X29121Y-46621D01*
X29021Y-46735D01*
X29064Y-46735D01*
X29092Y-46750D01*
X29107Y-46764D01*
X29121Y-46792D01*
X29121Y-46864D01*
X29107Y-46892D01*
X29092Y-46907D01*
X29064Y-46921D01*
X28978Y-46921D01*
X28950Y-46907D01*
X28935Y-46892D01*
X29250Y-46892D02*
X29264Y-46907D01*
X29250Y-46921D01*
X29235Y-46907D01*
X29250Y-46892D01*
X29250Y-46921D01*
X29364Y-46621D02*
X29564Y-46621D01*
X29435Y-46921D01*
X29721Y-46750D02*
X29692Y-46735D01*
X29678Y-46721D01*
X29664Y-46692D01*
X29664Y-46678D01*
X29678Y-46650D01*
X29692Y-46635D01*
X29721Y-46621D01*
X29778Y-46621D01*
X29807Y-46635D01*
X29821Y-46650D01*
X29835Y-46678D01*
X29835Y-46692D01*
X29821Y-46721D01*
X29807Y-46735D01*
X29778Y-46750D01*
X29721Y-46750D01*
X29692Y-46764D01*
X29678Y-46778D01*
X29664Y-46807D01*
X29664Y-46864D01*
X29678Y-46892D01*
X29692Y-46907D01*
X29721Y-46921D01*
X29778Y-46921D01*
X29807Y-46907D01*
X29821Y-46892D01*
X29835Y-46864D01*
X29835Y-46807D01*
X29821Y-46778D01*
X29807Y-46764D01*
X29778Y-46750D01*
X30021Y-46621D02*
X30050Y-46621D01*
X30078Y-46635D01*
X30092Y-46650D01*
X30107Y-46678D01*
X30121Y-46735D01*
X30121Y-46807D01*
X30107Y-46864D01*
X30092Y-46892D01*
X30078Y-46907D01*
X30050Y-46921D01*
X30021Y-46921D01*
X29992Y-46907D01*
X29978Y-46892D01*
X29964Y-46864D01*
X29950Y-46807D01*
X29950Y-46735D01*
X29964Y-46678D01*
X29978Y-46650D01*
X29992Y-46635D01*
X30021Y-46621D01*
X30307Y-46621D02*
X30335Y-46621D01*
X30364Y-46635D01*
X30378Y-46650D01*
X30392Y-46678D01*
X30407Y-46735D01*
X30407Y-46807D01*
X30392Y-46864D01*
X30378Y-46892D01*
X30364Y-46907D01*
X30335Y-46921D01*
X30307Y-46921D01*
X30278Y-46907D01*
X30264Y-46892D01*
X30250Y-46864D01*
X30235Y-46807D01*
X30235Y-46735D01*
X30250Y-46678D01*
X30264Y-46650D01*
X30278Y-46635D01*
X30307Y-46621D01*
X30764Y-46921D02*
X30764Y-46721D01*
X30764Y-46621D02*
X30749Y-46635D01*
X30764Y-46650D01*
X30778Y-46635D01*
X30764Y-46621D01*
X30764Y-46650D01*
X30907Y-46721D02*
X30907Y-46921D01*
X30907Y-46750D02*
X30921Y-46735D01*
X30949Y-46721D01*
X30992Y-46721D01*
X31021Y-46735D01*
X31035Y-46764D01*
X31035Y-46921D01*
X11100Y-46550D02*
X48900Y-46550D01*
X11100Y-37000D02*
X11100Y-47050D01*
X48900Y-37000D02*
X48900Y-47050D01*
X48900Y-46550D02*
X48456Y-46780D01*
X48900Y-46550D02*
X48456Y-46319D01*
X11100Y-46550D02*
X11543Y-46780D01*
X11100Y-46550D02*
X11543Y-46319D01*
X18321Y-48121D02*
X18150Y-48121D01*
X18235Y-48121D02*
X18235Y-47821D01*
X18207Y-47864D01*
X18178Y-47892D01*
X18150Y-47907D01*
X18450Y-48092D02*
X18464Y-48107D01*
X18450Y-48121D01*
X18435Y-48107D01*
X18450Y-48092D01*
X18450Y-48121D01*
X18635Y-47950D02*
X18607Y-47935D01*
X18592Y-47921D01*
X18578Y-47892D01*
X18578Y-47878D01*
X18592Y-47850D01*
X18607Y-47835D01*
X18635Y-47821D01*
X18692Y-47821D01*
X18721Y-47835D01*
X18735Y-47850D01*
X18750Y-47878D01*
X18750Y-47892D01*
X18735Y-47921D01*
X18721Y-47935D01*
X18692Y-47950D01*
X18635Y-47950D01*
X18607Y-47964D01*
X18592Y-47978D01*
X18578Y-48007D01*
X18578Y-48064D01*
X18592Y-48092D01*
X18607Y-48107D01*
X18635Y-48121D01*
X18692Y-48121D01*
X18721Y-48107D01*
X18735Y-48092D01*
X18750Y-48064D01*
X18750Y-48007D01*
X18735Y-47978D01*
X18721Y-47964D01*
X18692Y-47950D01*
X19007Y-47921D02*
X19007Y-48121D01*
X18935Y-47807D02*
X18864Y-48021D01*
X19050Y-48021D01*
X19221Y-47821D02*
X19250Y-47821D01*
X19278Y-47835D01*
X19292Y-47850D01*
X19307Y-47878D01*
X19321Y-47935D01*
X19321Y-48007D01*
X19307Y-48064D01*
X19292Y-48092D01*
X19278Y-48107D01*
X19250Y-48121D01*
X19221Y-48121D01*
X19192Y-48107D01*
X19178Y-48092D01*
X19164Y-48064D01*
X19150Y-48007D01*
X19150Y-47935D01*
X19164Y-47878D01*
X19178Y-47850D01*
X19192Y-47835D01*
X19221Y-47821D01*
X19507Y-47821D02*
X19535Y-47821D01*
X19564Y-47835D01*
X19578Y-47850D01*
X19592Y-47878D01*
X19607Y-47935D01*
X19607Y-48007D01*
X19592Y-48064D01*
X19578Y-48092D01*
X19564Y-48107D01*
X19535Y-48121D01*
X19507Y-48121D01*
X19478Y-48107D01*
X19464Y-48092D01*
X19450Y-48064D01*
X19435Y-48007D01*
X19435Y-47935D01*
X19450Y-47878D01*
X19464Y-47850D01*
X19478Y-47835D01*
X19507Y-47821D01*
X19964Y-48121D02*
X19964Y-47921D01*
X19964Y-47821D02*
X19949Y-47835D01*
X19964Y-47850D01*
X19978Y-47835D01*
X19964Y-47821D01*
X19964Y-47850D01*
X20107Y-47921D02*
X20107Y-48121D01*
X20107Y-47950D02*
X20121Y-47935D01*
X20149Y-47921D01*
X20192Y-47921D01*
X20221Y-47935D01*
X20235Y-47964D01*
X20235Y-48121D01*
X10000Y-47750D02*
X28400Y-47750D01*
X10000Y-40400D02*
X10000Y-48250D01*
X28400Y-40400D02*
X28400Y-48250D01*
X28400Y-47750D02*
X27956Y-47980D01*
X28400Y-47750D02*
X27956Y-47519D01*
X10000Y-47750D02*
X10443Y-47980D01*
X10000Y-47750D02*
X10443Y-47519D01*
X19900Y-19000D02*
X17500Y-19000D01*
X20400Y-19500D02*
G75*
G03X19900Y-19000I-500J0D01*
G74*
G01*
X27400Y-19000D02*
G75*
G03X26900Y-19500I0J-500D01*
G74*
G01*
X26400Y-20500D02*
G75*
G03X26900Y-20000I0J500D01*
G74*
G01*
X20400Y-20000D02*
G75*
G03X20900Y-20500I500J0D01*
G74*
G01*
X26900Y-19500D02*
X26900Y-20000D01*
X20400Y-19500D02*
X20400Y-20000D01*
X20900Y-20500D02*
X26400Y-20500D01*
X51528Y-41521D02*
X51528Y-41550D01*
X51514Y-41578D01*
X51499Y-41592D01*
X51471Y-41607D01*
X51414Y-41621D01*
X51342Y-41621D01*
X51285Y-41607D01*
X51257Y-41592D01*
X51242Y-41578D01*
X51228Y-41550D01*
X51228Y-41521D01*
X51242Y-41492D01*
X51257Y-41478D01*
X51285Y-41464D01*
X51342Y-41450D01*
X51414Y-41450D01*
X51471Y-41464D01*
X51499Y-41478D01*
X51514Y-41492D01*
X51528Y-41521D01*
X51257Y-41750D02*
X51242Y-41764D01*
X51228Y-41750D01*
X51242Y-41735D01*
X51257Y-41750D01*
X51228Y-41750D01*
X51528Y-42035D02*
X51528Y-41892D01*
X51385Y-41878D01*
X51399Y-41892D01*
X51414Y-41921D01*
X51414Y-41992D01*
X51399Y-42021D01*
X51385Y-42035D01*
X51357Y-42050D01*
X51285Y-42050D01*
X51257Y-42035D01*
X51242Y-42021D01*
X51228Y-41992D01*
X51228Y-41921D01*
X51242Y-41892D01*
X51257Y-41878D01*
X51528Y-42235D02*
X51528Y-42264D01*
X51514Y-42292D01*
X51499Y-42307D01*
X51471Y-42321D01*
X51414Y-42335D01*
X51342Y-42335D01*
X51285Y-42321D01*
X51257Y-42307D01*
X51242Y-42292D01*
X51228Y-42264D01*
X51228Y-42235D01*
X51242Y-42207D01*
X51257Y-42192D01*
X51285Y-42178D01*
X51342Y-42164D01*
X51414Y-42164D01*
X51471Y-42178D01*
X51499Y-42192D01*
X51514Y-42207D01*
X51528Y-42235D01*
X51528Y-42521D02*
X51528Y-42550D01*
X51514Y-42578D01*
X51499Y-42592D01*
X51471Y-42607D01*
X51414Y-42621D01*
X51342Y-42621D01*
X51285Y-42607D01*
X51257Y-42592D01*
X51242Y-42578D01*
X51228Y-42550D01*
X51228Y-42521D01*
X51242Y-42492D01*
X51257Y-42478D01*
X51285Y-42464D01*
X51342Y-42450D01*
X51414Y-42450D01*
X51471Y-42464D01*
X51499Y-42478D01*
X51514Y-42492D01*
X51528Y-42521D01*
X51528Y-42807D02*
X51528Y-42835D01*
X51514Y-42864D01*
X51499Y-42878D01*
X51471Y-42892D01*
X51414Y-42907D01*
X51342Y-42907D01*
X51285Y-42892D01*
X51257Y-42878D01*
X51242Y-42864D01*
X51228Y-42835D01*
X51228Y-42807D01*
X51242Y-42778D01*
X51257Y-42764D01*
X51285Y-42750D01*
X51342Y-42735D01*
X51414Y-42735D01*
X51471Y-42750D01*
X51499Y-42764D01*
X51514Y-42778D01*
X51528Y-42807D01*
X51228Y-43264D02*
X51428Y-43264D01*
X51528Y-43264D02*
X51514Y-43249D01*
X51499Y-43264D01*
X51514Y-43278D01*
X51528Y-43264D01*
X51499Y-43264D01*
X51428Y-43407D02*
X51228Y-43407D01*
X51399Y-43407D02*
X51414Y-43421D01*
X51428Y-43449D01*
X51428Y-43492D01*
X51414Y-43521D01*
X51385Y-43535D01*
X51228Y-43535D01*
X51099Y-40000D02*
X51099Y-45000D01*
X50500Y-40000D02*
X51599Y-40000D01*
X50500Y-45000D02*
X51599Y-45000D01*
X51099Y-45000D02*
X50869Y-44556D01*
X51099Y-45000D02*
X51330Y-44556D01*
X51099Y-40000D02*
X50869Y-40443D01*
X51099Y-40000D02*
X51330Y-40443D01*
X51528Y-15521D02*
X51528Y-15550D01*
X51514Y-15578D01*
X51499Y-15592D01*
X51471Y-15607D01*
X51414Y-15621D01*
X51342Y-15621D01*
X51285Y-15607D01*
X51257Y-15592D01*
X51242Y-15578D01*
X51228Y-15550D01*
X51228Y-15521D01*
X51242Y-15492D01*
X51257Y-15478D01*
X51285Y-15464D01*
X51342Y-15450D01*
X51414Y-15450D01*
X51471Y-15464D01*
X51499Y-15478D01*
X51514Y-15492D01*
X51528Y-15521D01*
X51257Y-15750D02*
X51242Y-15764D01*
X51228Y-15750D01*
X51242Y-15735D01*
X51257Y-15750D01*
X51228Y-15750D01*
X51528Y-16035D02*
X51528Y-15892D01*
X51385Y-15878D01*
X51399Y-15892D01*
X51414Y-15921D01*
X51414Y-15992D01*
X51399Y-16021D01*
X51385Y-16035D01*
X51357Y-16050D01*
X51285Y-16050D01*
X51257Y-16035D01*
X51242Y-16021D01*
X51228Y-15992D01*
X51228Y-15921D01*
X51242Y-15892D01*
X51257Y-15878D01*
X51528Y-16235D02*
X51528Y-16264D01*
X51514Y-16292D01*
X51499Y-16307D01*
X51471Y-16321D01*
X51414Y-16335D01*
X51342Y-16335D01*
X51285Y-16321D01*
X51257Y-16307D01*
X51242Y-16292D01*
X51228Y-16264D01*
X51228Y-16235D01*
X51242Y-16207D01*
X51257Y-16192D01*
X51285Y-16178D01*
X51342Y-16164D01*
X51414Y-16164D01*
X51471Y-16178D01*
X51499Y-16192D01*
X51514Y-16207D01*
X51528Y-16235D01*
X51528Y-16521D02*
X51528Y-16550D01*
X51514Y-16578D01*
X51499Y-16592D01*
X51471Y-16607D01*
X51414Y-16621D01*
X51342Y-16621D01*
X51285Y-16607D01*
X51257Y-16592D01*
X51242Y-16578D01*
X51228Y-16550D01*
X51228Y-16521D01*
X51242Y-16492D01*
X51257Y-16478D01*
X51285Y-16464D01*
X51342Y-16450D01*
X51414Y-16450D01*
X51471Y-16464D01*
X51499Y-16478D01*
X51514Y-16492D01*
X51528Y-16521D01*
X51528Y-16807D02*
X51528Y-16835D01*
X51514Y-16864D01*
X51499Y-16878D01*
X51471Y-16892D01*
X51414Y-16907D01*
X51342Y-16907D01*
X51285Y-16892D01*
X51257Y-16878D01*
X51242Y-16864D01*
X51228Y-16835D01*
X51228Y-16807D01*
X51242Y-16778D01*
X51257Y-16764D01*
X51285Y-16750D01*
X51342Y-16735D01*
X51414Y-16735D01*
X51471Y-16750D01*
X51499Y-16764D01*
X51514Y-16778D01*
X51528Y-16807D01*
X51228Y-17264D02*
X51428Y-17264D01*
X51528Y-17264D02*
X51514Y-17249D01*
X51499Y-17264D01*
X51514Y-17278D01*
X51528Y-17264D01*
X51499Y-17264D01*
X51428Y-17407D02*
X51228Y-17407D01*
X51399Y-17407D02*
X51414Y-17421D01*
X51428Y-17449D01*
X51428Y-17492D01*
X51414Y-17521D01*
X51385Y-17535D01*
X51228Y-17535D01*
X51099Y-14000D02*
X51099Y-19000D01*
X50500Y-14000D02*
X51599Y-14000D01*
X50500Y-19000D02*
X51599Y-19000D01*
X51099Y-19000D02*
X50869Y-18556D01*
X51099Y-19000D02*
X51330Y-18556D01*
X51099Y-14000D02*
X50869Y-14443D01*
X51099Y-14000D02*
X51330Y-14443D01*
X51499Y-28450D02*
X51514Y-28464D01*
X51528Y-28492D01*
X51528Y-28564D01*
X51514Y-28592D01*
X51499Y-28607D01*
X51471Y-28621D01*
X51442Y-28621D01*
X51399Y-28607D01*
X51228Y-28435D01*
X51228Y-28621D01*
X51257Y-28750D02*
X51242Y-28764D01*
X51228Y-28750D01*
X51242Y-28735D01*
X51257Y-28750D01*
X51228Y-28750D01*
X51228Y-29050D02*
X51228Y-28878D01*
X51228Y-28964D02*
X51528Y-28964D01*
X51485Y-28935D01*
X51457Y-28907D01*
X51442Y-28878D01*
X51528Y-29235D02*
X51528Y-29264D01*
X51514Y-29292D01*
X51499Y-29307D01*
X51471Y-29321D01*
X51414Y-29335D01*
X51342Y-29335D01*
X51285Y-29321D01*
X51257Y-29307D01*
X51242Y-29292D01*
X51228Y-29264D01*
X51228Y-29235D01*
X51242Y-29207D01*
X51257Y-29192D01*
X51285Y-29178D01*
X51342Y-29164D01*
X51414Y-29164D01*
X51471Y-29178D01*
X51499Y-29192D01*
X51514Y-29207D01*
X51528Y-29235D01*
X51528Y-29521D02*
X51528Y-29550D01*
X51514Y-29578D01*
X51499Y-29592D01*
X51471Y-29607D01*
X51414Y-29621D01*
X51342Y-29621D01*
X51285Y-29607D01*
X51257Y-29592D01*
X51242Y-29578D01*
X51228Y-29550D01*
X51228Y-29521D01*
X51242Y-29492D01*
X51257Y-29478D01*
X51285Y-29464D01*
X51342Y-29450D01*
X51414Y-29450D01*
X51471Y-29464D01*
X51499Y-29478D01*
X51514Y-29492D01*
X51528Y-29521D01*
X51528Y-29807D02*
X51528Y-29835D01*
X51514Y-29864D01*
X51499Y-29878D01*
X51471Y-29892D01*
X51414Y-29907D01*
X51342Y-29907D01*
X51285Y-29892D01*
X51257Y-29878D01*
X51242Y-29864D01*
X51228Y-29835D01*
X51228Y-29807D01*
X51242Y-29778D01*
X51257Y-29764D01*
X51285Y-29750D01*
X51342Y-29735D01*
X51414Y-29735D01*
X51471Y-29750D01*
X51499Y-29764D01*
X51514Y-29778D01*
X51528Y-29807D01*
X51228Y-30264D02*
X51428Y-30264D01*
X51528Y-30264D02*
X51514Y-30249D01*
X51499Y-30264D01*
X51514Y-30278D01*
X51528Y-30264D01*
X51499Y-30264D01*
X51428Y-30407D02*
X51228Y-30407D01*
X51399Y-30407D02*
X51414Y-30421D01*
X51428Y-30449D01*
X51428Y-30492D01*
X51414Y-30521D01*
X51385Y-30535D01*
X51228Y-30535D01*
X51099Y-19000D02*
X51099Y-40000D01*
X50500Y-19000D02*
X51599Y-19000D01*
X50500Y-40000D02*
X51599Y-40000D01*
X51099Y-40000D02*
X50869Y-39556D01*
X51099Y-40000D02*
X51330Y-39556D01*
X51099Y-19000D02*
X50869Y-19443D01*
X51099Y-19000D02*
X51330Y-19443D01*
X27400Y-19000D02*
X42500Y-19000D01*
X10000Y-40000D02*
X10000Y-14000D01*
X15000Y-40000D02*
X10000Y-40000D01*
X15000Y-45000D02*
X15000Y-40000D01*
X45000Y-45000D02*
X15000Y-45000D01*
X45000Y-40000D02*
X45000Y-45000D01*
X50000Y-40000D02*
X45000Y-40000D01*
X50000Y-40000D02*
X50000Y-14000D01*
X45000Y-14000D02*
X50000Y-14000D01*
X45000Y-19000D02*
X45000Y-14000D01*
X15000Y-19000D02*
X45000Y-19000D01*
X15000Y-14000D02*
X15000Y-19000D01*
X10000Y-14000D02*
X15000Y-14000D01*
X47500Y-40000D02*
G75*
G03X50000Y-37500I0J2500D01*
G74*
G01*
X42500Y-45000D02*
G75*
G03X45000Y-42500I0J2500D01*
G74*
G01*
X47500Y-40000D02*
G75*
G03X45000Y-42500I0J-2500D01*
G74*
G01*
X15000Y-42500D02*
G75*
G03X17500Y-45000I2500J0D01*
G74*
G01*
X10000Y-37500D02*
G75*
G03X12500Y-40000I2500J0D01*
G74*
G01*
X15000Y-42500D02*
G75*
G03X12500Y-40000I-2500J0D01*
G74*
G01*
X42500Y-19000D02*
G75*
G03X45000Y-16500I0J2500D01*
G74*
G01*
X50000Y-16500D02*
G75*
G03X47500Y-14000I-2500J0D01*
G74*
G01*
X47500Y-14000D02*
G75*
G03X45000Y-16500I0J-2500D01*
G74*
G01*
X15000Y-16500D02*
G75*
G03X17500Y-19000I2500J0D01*
G74*
G01*
X15000Y-16500D02*
G75*
G03X12500Y-14000I-2500J0D01*
G74*
G01*
X12500Y-14000D02*
G75*
G03X10000Y-16500I0J-2500D01*
G74*
G01*
X13850Y-38550D02*
X15350Y-38550D01*
X13850Y-27550D02*
X13850Y-38550D01*
X15350Y-27550D02*
X13850Y-27550D01*
X15350Y-38550D02*
X15350Y-27550D01*
X42500Y-45000D02*
X17500Y-45000D01*
X10000Y-37500D02*
X10000Y-16500D01*
X50000Y-16500D02*
X50000Y-37500D01*
M02*
