G04 (created by PCBNEW (2013-07-07 BZR 4022)-stable) date 17-Oct-13 4:43:43 PM*
%MOIN*%
G04 Gerber Fmt 3.4, Leading zero omitted, Abs format*
%FSLAX34Y34*%
G01*
G70*
G90*
G04 APERTURE LIST*
%ADD10C,0.005*%
%ADD11C,0.00787402*%
%ADD12C,0.011811*%
G04 APERTURE END LIST*
G54D10*
X19900Y-19000D02*
X17500Y-19000D01*
X20400Y-19500D02*
G75*
G03X19900Y-19000I-500J0D01*
G74*
G01*
X27400Y-19000D02*
G75*
G03X26900Y-19500I0J-500D01*
G74*
G01*
X26400Y-20500D02*
G75*
G03X26900Y-20000I0J500D01*
G74*
G01*
X20400Y-20000D02*
G75*
G03X20900Y-20500I500J0D01*
G74*
G01*
X26900Y-19500D02*
X26900Y-20000D01*
X20400Y-19500D02*
X20400Y-20000D01*
X20900Y-20500D02*
X26400Y-20500D01*
X27400Y-19000D02*
X42500Y-19000D01*
X47500Y-40000D02*
G75*
G03X50000Y-37500I0J2500D01*
G74*
G01*
X42500Y-45000D02*
G75*
G03X45000Y-42500I0J2500D01*
G74*
G01*
X47500Y-40000D02*
G75*
G03X45000Y-42500I0J-2500D01*
G74*
G01*
X15000Y-42500D02*
G75*
G03X17500Y-45000I2500J0D01*
G74*
G01*
X10000Y-37500D02*
G75*
G03X12500Y-40000I2500J0D01*
G74*
G01*
X15000Y-42500D02*
G75*
G03X12500Y-40000I-2500J0D01*
G74*
G01*
X42500Y-19000D02*
G75*
G03X45000Y-16500I0J2500D01*
G74*
G01*
X50000Y-16500D02*
G75*
G03X47500Y-14000I-2500J0D01*
G74*
G01*
X47500Y-14000D02*
G75*
G03X45000Y-16500I0J-2500D01*
G74*
G01*
X15000Y-16500D02*
G75*
G03X17500Y-19000I2500J0D01*
G74*
G01*
X15000Y-16500D02*
G75*
G03X12500Y-14000I-2500J0D01*
G74*
G01*
X12500Y-14000D02*
G75*
G03X10000Y-16500I0J-2500D01*
G74*
G01*
X13850Y-38550D02*
X15350Y-38550D01*
X13850Y-27550D02*
X13850Y-38550D01*
X15350Y-27550D02*
X13850Y-27550D01*
X15350Y-38550D02*
X15350Y-27550D01*
X42500Y-45000D02*
X17500Y-45000D01*
X10000Y-37500D02*
X10000Y-16500D01*
X50000Y-16500D02*
X50000Y-37500D01*
G54D11*
X12875Y-35775D02*
X13125Y-36025D01*
X13125Y-35775D02*
X12875Y-36025D01*
X13000Y-26850D02*
X13250Y-27100D01*
X13250Y-26850D02*
X13000Y-27100D01*
X13650Y-23025D02*
X13900Y-23275D01*
X13900Y-23025D02*
X13650Y-23275D01*
X15100Y-26100D02*
X15350Y-26350D01*
X15350Y-26100D02*
X15100Y-26350D01*
X15125Y-23925D02*
X15375Y-24175D01*
X15375Y-23925D02*
X15125Y-24175D01*
X15125Y-24950D02*
X15375Y-25200D01*
X15375Y-24950D02*
X15125Y-25200D01*
X16435Y-27335D02*
X16685Y-27585D01*
X16685Y-27335D02*
X16435Y-27585D01*
X16500Y-33800D02*
X16750Y-34050D01*
X16750Y-33800D02*
X16500Y-34050D01*
X16500Y-35475D02*
X16750Y-35725D01*
X16750Y-35475D02*
X16500Y-35725D01*
X16675Y-29300D02*
X16925Y-29550D01*
X16925Y-29300D02*
X16675Y-29550D01*
X16675Y-29750D02*
X16925Y-30000D01*
X16925Y-29750D02*
X16675Y-30000D01*
X16675Y-30225D02*
X16925Y-30475D01*
X16925Y-30225D02*
X16675Y-30475D01*
X16925Y-34575D02*
X17175Y-34825D01*
X17175Y-34575D02*
X16925Y-34825D01*
X17225Y-28900D02*
X17475Y-29150D01*
X17475Y-28900D02*
X17225Y-29150D01*
X17275Y-36125D02*
X17525Y-36375D01*
X17525Y-36125D02*
X17275Y-36375D01*
X17300Y-21700D02*
X17550Y-21950D01*
X17550Y-21700D02*
X17300Y-21950D01*
X17615Y-28375D02*
X17865Y-28625D01*
X17865Y-28375D02*
X17615Y-28625D01*
X18575Y-34975D02*
X18825Y-35225D01*
X18825Y-34975D02*
X18575Y-35225D01*
X19150Y-36475D02*
X19400Y-36725D01*
X19400Y-36475D02*
X19150Y-36725D01*
X21075Y-38625D02*
X21325Y-38875D01*
X21325Y-38625D02*
X21075Y-38875D01*
X21425Y-35275D02*
X21675Y-35525D01*
X21675Y-35275D02*
X21425Y-35525D01*
X22375Y-43985D02*
X22625Y-44235D01*
X22625Y-43985D02*
X22375Y-44235D01*
X22650Y-35275D02*
X22900Y-35525D01*
X22900Y-35275D02*
X22650Y-35525D01*
X22975Y-37050D02*
X23225Y-37300D01*
X23225Y-37050D02*
X22975Y-37300D01*
X23775Y-33375D02*
X24025Y-33625D01*
X24025Y-33375D02*
X23775Y-33625D01*
X23800Y-34550D02*
X24050Y-34800D01*
X24050Y-34550D02*
X23800Y-34800D01*
X23800Y-37025D02*
X24050Y-37275D01*
X24050Y-37025D02*
X23800Y-37275D01*
X23875Y-39000D02*
X24125Y-39250D01*
X24125Y-39000D02*
X23875Y-39250D01*
X24350Y-33025D02*
X24600Y-33275D01*
X24600Y-33025D02*
X24350Y-33275D01*
X24765Y-41575D02*
X25015Y-41825D01*
X25015Y-41575D02*
X24765Y-41825D01*
X24850Y-35400D02*
X25100Y-35650D01*
X25100Y-35400D02*
X24850Y-35650D01*
X25395Y-34075D02*
X25645Y-34325D01*
X25645Y-34075D02*
X25395Y-34325D01*
X25775Y-33725D02*
X26025Y-33975D01*
X26025Y-33725D02*
X25775Y-33975D01*
X26375Y-43985D02*
X26625Y-44235D01*
X26625Y-43985D02*
X26375Y-44235D01*
X26750Y-34725D02*
X27000Y-34975D01*
X27000Y-34725D02*
X26750Y-34975D01*
X28075Y-35450D02*
X28325Y-35700D01*
X28325Y-35450D02*
X28075Y-35700D01*
X28100Y-27825D02*
X28350Y-28075D01*
X28350Y-27825D02*
X28100Y-28075D01*
X28765Y-41575D02*
X29015Y-41825D01*
X29015Y-41575D02*
X28765Y-41825D01*
X28775Y-32350D02*
X29025Y-32600D01*
X29025Y-32350D02*
X28775Y-32600D01*
X28950Y-27025D02*
X29200Y-27275D01*
X29200Y-27025D02*
X28950Y-27275D01*
X29100Y-29525D02*
X29350Y-29775D01*
X29350Y-29525D02*
X29100Y-29775D01*
X29150Y-32675D02*
X29400Y-32925D01*
X29400Y-32675D02*
X29150Y-32925D01*
X29400Y-26925D02*
X29650Y-27175D01*
X29650Y-26925D02*
X29400Y-27175D01*
X29500Y-33000D02*
X29750Y-33250D01*
X29750Y-33000D02*
X29500Y-33250D01*
X29550Y-26500D02*
X29800Y-26750D01*
X29800Y-26500D02*
X29550Y-26750D01*
X29750Y-21700D02*
X30000Y-21950D01*
X30000Y-21700D02*
X29750Y-21950D01*
X29875Y-33275D02*
X30125Y-33525D01*
X30125Y-33275D02*
X29875Y-33525D01*
X30150Y-26950D02*
X30400Y-27200D01*
X30400Y-26950D02*
X30150Y-27200D01*
X30350Y-29225D02*
X30600Y-29475D01*
X30600Y-29225D02*
X30350Y-29475D01*
X30375Y-43985D02*
X30625Y-44235D01*
X30625Y-43985D02*
X30375Y-44235D01*
X30655Y-26495D02*
X30905Y-26745D01*
X30905Y-26495D02*
X30655Y-26745D01*
X30700Y-28900D02*
X30950Y-29150D01*
X30950Y-28900D02*
X30700Y-29150D01*
X30975Y-25995D02*
X31225Y-26245D01*
X31225Y-25995D02*
X30975Y-26245D01*
X31175Y-20875D02*
X31425Y-21125D01*
X31425Y-20875D02*
X31175Y-21125D01*
X31350Y-39150D02*
X31600Y-39400D01*
X31600Y-39150D02*
X31350Y-39400D01*
X31500Y-31875D02*
X31750Y-32125D01*
X31750Y-31875D02*
X31500Y-32125D01*
X31525Y-26000D02*
X31775Y-26250D01*
X31775Y-26000D02*
X31525Y-26250D01*
X31850Y-26500D02*
X32100Y-26750D01*
X32100Y-26500D02*
X31850Y-26750D01*
X31850Y-26950D02*
X32100Y-27200D01*
X32100Y-26950D02*
X31850Y-27200D01*
X31975Y-31725D02*
X32225Y-31975D01*
X32225Y-31725D02*
X31975Y-31975D01*
X32250Y-37325D02*
X32500Y-37575D01*
X32500Y-37325D02*
X32250Y-37575D01*
X32275Y-29075D02*
X32525Y-29325D01*
X32525Y-29075D02*
X32275Y-29325D01*
X32425Y-31875D02*
X32675Y-32125D01*
X32675Y-31875D02*
X32425Y-32125D01*
X32700Y-25450D02*
X32950Y-25700D01*
X32950Y-25450D02*
X32700Y-25700D01*
X32765Y-41585D02*
X33015Y-41835D01*
X33015Y-41585D02*
X32765Y-41835D01*
X33675Y-27625D02*
X33925Y-27875D01*
X33925Y-27625D02*
X33675Y-27875D01*
X34275Y-23925D02*
X34525Y-24175D01*
X34525Y-23925D02*
X34275Y-24175D01*
X34375Y-43985D02*
X34625Y-44235D01*
X34625Y-43985D02*
X34375Y-44235D01*
X34475Y-23300D02*
X34725Y-23550D01*
X34725Y-23300D02*
X34475Y-23550D01*
X34475Y-25925D02*
X34725Y-26175D01*
X34725Y-25925D02*
X34475Y-26175D01*
X35175Y-22875D02*
X35425Y-23125D01*
X35425Y-22875D02*
X35175Y-23125D01*
X36175Y-22875D02*
X36425Y-23125D01*
X36425Y-22875D02*
X36175Y-23125D01*
X36765Y-41585D02*
X37015Y-41835D01*
X37015Y-41585D02*
X36765Y-41835D01*
X36775Y-39625D02*
X37025Y-39875D01*
X37025Y-39625D02*
X36775Y-39875D01*
X37175Y-22875D02*
X37425Y-23125D01*
X37425Y-22875D02*
X37175Y-23125D01*
X37275Y-31250D02*
X37525Y-31500D01*
X37525Y-31250D02*
X37275Y-31500D01*
X37275Y-32250D02*
X37525Y-32500D01*
X37525Y-32250D02*
X37275Y-32500D01*
X37550Y-21725D02*
X37800Y-21975D01*
X37800Y-21725D02*
X37550Y-21975D01*
X37675Y-20445D02*
X37925Y-20695D01*
X37925Y-20445D02*
X37675Y-20695D01*
X38025Y-34375D02*
X38275Y-34625D01*
X38275Y-34375D02*
X38025Y-34625D01*
X38125Y-22475D02*
X38375Y-22725D01*
X38375Y-22475D02*
X38125Y-22725D01*
X38150Y-21975D02*
X38400Y-22225D01*
X38400Y-21975D02*
X38150Y-22225D01*
X38150Y-27275D02*
X38400Y-27525D01*
X38400Y-27275D02*
X38150Y-27525D01*
X39025Y-35025D02*
X39275Y-35275D01*
X39275Y-35025D02*
X39025Y-35275D01*
X39525Y-30775D02*
X39775Y-31025D01*
X39775Y-30775D02*
X39525Y-31025D01*
X39675Y-36675D02*
X39925Y-36925D01*
X39925Y-36675D02*
X39675Y-36925D01*
X39875Y-20255D02*
X40125Y-20505D01*
X40125Y-20255D02*
X39875Y-20505D01*
X40485Y-30775D02*
X40735Y-31025D01*
X40735Y-30775D02*
X40485Y-31025D01*
X40675Y-36675D02*
X40925Y-36925D01*
X40925Y-36675D02*
X40675Y-36925D01*
X40775Y-39625D02*
X41025Y-39875D01*
X41025Y-39625D02*
X40775Y-39875D01*
X40835Y-41575D02*
X41085Y-41825D01*
X41085Y-41575D02*
X40835Y-41825D01*
X41025Y-30775D02*
X41275Y-31025D01*
X41275Y-30775D02*
X41025Y-31025D01*
X41275Y-20375D02*
X41525Y-20625D01*
X41525Y-20375D02*
X41275Y-20625D01*
X41525Y-30775D02*
X41775Y-31025D01*
X41775Y-30775D02*
X41525Y-31025D01*
X41525Y-35925D02*
X41775Y-36175D01*
X41775Y-35925D02*
X41525Y-36175D01*
X42025Y-30025D02*
X42275Y-30275D01*
X42275Y-30025D02*
X42025Y-30275D01*
X42025Y-30775D02*
X42275Y-31025D01*
X42275Y-30775D02*
X42025Y-31025D01*
X42185Y-33535D02*
X42435Y-33785D01*
X42435Y-33535D02*
X42185Y-33785D01*
X42275Y-20475D02*
X42525Y-20725D01*
X42525Y-20475D02*
X42275Y-20725D01*
X42565Y-33185D02*
X42815Y-33435D01*
X42815Y-33185D02*
X42565Y-33435D01*
X42775Y-39625D02*
X43025Y-39875D01*
X43025Y-39625D02*
X42775Y-39875D01*
X43100Y-22375D02*
X43350Y-22625D01*
X43350Y-22375D02*
X43100Y-22625D01*
X43100Y-24150D02*
X43350Y-24400D01*
X43350Y-24150D02*
X43100Y-24400D01*
X43275Y-20475D02*
X43525Y-20725D01*
X43525Y-20475D02*
X43275Y-20725D01*
X43625Y-33975D02*
X43875Y-34225D01*
X43875Y-33975D02*
X43625Y-34225D01*
X43775Y-39625D02*
X44025Y-39875D01*
X44025Y-39625D02*
X43775Y-39875D01*
X44275Y-20475D02*
X44525Y-20725D01*
X44525Y-20475D02*
X44275Y-20725D01*
X44775Y-39625D02*
X45025Y-39875D01*
X45025Y-39625D02*
X44775Y-39875D01*
X45775Y-39625D02*
X46025Y-39875D01*
X46025Y-39625D02*
X45775Y-39875D01*
X46275Y-20375D02*
X46525Y-20625D01*
X46525Y-20375D02*
X46275Y-20625D01*
X47775Y-30075D02*
X48025Y-30325D01*
X48025Y-30075D02*
X47775Y-30325D01*
X45750Y-20975D02*
G75*
G03X45750Y-20975I-175J0D01*
G74*
G01*
X45750Y-21975D02*
G75*
G03X45750Y-21975I-175J0D01*
G74*
G01*
X48538Y-23597D02*
G75*
G03X48538Y-23597I-175J0D01*
G74*
G01*
X48538Y-26747D02*
G75*
G03X48538Y-26747I-175J0D01*
G74*
G01*
X33109Y-21333D02*
X33109Y-21687D01*
X32932Y-21510D02*
X33286Y-21510D01*
X34290Y-21333D02*
X34290Y-21687D01*
X34113Y-21510D02*
X34467Y-21510D01*
X14447Y-19137D02*
X14447Y-18854D01*
X14164Y-18854D01*
X14164Y-19137D01*
X14447Y-19137D01*
X13906Y-19156D02*
X14706Y-19156D01*
X13906Y-18835D02*
X14706Y-18835D01*
X14706Y-19156D02*
G75*
G03X14706Y-18835I0J160D01*
G74*
G01*
X13906Y-18835D02*
G75*
G03X13906Y-19156I0J-160D01*
G74*
G01*
X16641Y-41641D02*
X16641Y-41358D01*
X16358Y-41358D01*
X16358Y-41641D01*
X16641Y-41641D01*
X17641Y-41641D02*
X17641Y-41358D01*
X17358Y-41358D01*
X17358Y-41641D01*
X17641Y-41641D01*
X18641Y-41641D02*
X18641Y-41358D01*
X18358Y-41358D01*
X18358Y-41641D01*
X18641Y-41641D01*
X19641Y-41641D02*
X19641Y-41358D01*
X19358Y-41358D01*
X19358Y-41641D01*
X19641Y-41641D01*
X20641Y-41641D02*
X20641Y-41358D01*
X20358Y-41358D01*
X20358Y-41641D01*
X20641Y-41641D01*
X21641Y-41641D02*
X21641Y-41358D01*
X21358Y-41358D01*
X21358Y-41641D01*
X21641Y-41641D01*
X30441Y-20141D02*
X30441Y-19858D01*
X30158Y-19858D01*
X30158Y-20141D01*
X30441Y-20141D01*
X31441Y-20141D02*
X31441Y-19858D01*
X31158Y-19858D01*
X31158Y-20141D01*
X31441Y-20141D01*
X32441Y-20141D02*
X32441Y-19858D01*
X32158Y-19858D01*
X32158Y-20141D01*
X32441Y-20141D01*
X33441Y-20141D02*
X33441Y-19858D01*
X33158Y-19858D01*
X33158Y-20141D01*
X33441Y-20141D01*
X34041Y-39141D02*
X34041Y-38858D01*
X33758Y-38858D01*
X33758Y-39141D01*
X34041Y-39141D01*
X34441Y-20141D02*
X34441Y-19858D01*
X34158Y-19858D01*
X34158Y-20141D01*
X34441Y-20141D01*
X35041Y-39141D02*
X35041Y-38858D01*
X34758Y-38858D01*
X34758Y-39141D01*
X35041Y-39141D01*
X35441Y-20141D02*
X35441Y-19858D01*
X35158Y-19858D01*
X35158Y-20141D01*
X35441Y-20141D01*
X36041Y-39141D02*
X36041Y-38858D01*
X35758Y-38858D01*
X35758Y-39141D01*
X36041Y-39141D01*
X36441Y-20141D02*
X36441Y-19858D01*
X36158Y-19858D01*
X36158Y-20141D01*
X36441Y-20141D01*
X37041Y-39141D02*
X37041Y-38858D01*
X36758Y-38858D01*
X36758Y-39141D01*
X37041Y-39141D01*
X37441Y-20141D02*
X37441Y-19858D01*
X37158Y-19858D01*
X37158Y-20141D01*
X37441Y-20141D01*
X38041Y-39141D02*
X38041Y-38858D01*
X37758Y-38858D01*
X37758Y-39141D01*
X38041Y-39141D01*
X38441Y-20141D02*
X38441Y-19858D01*
X38158Y-19858D01*
X38158Y-20141D01*
X38441Y-20141D01*
X39041Y-39141D02*
X39041Y-38858D01*
X38758Y-38858D01*
X38758Y-39141D01*
X39041Y-39141D01*
X39441Y-20141D02*
X39441Y-19858D01*
X39158Y-19858D01*
X39158Y-20141D01*
X39441Y-20141D01*
X40041Y-39141D02*
X40041Y-38858D01*
X39758Y-38858D01*
X39758Y-39141D01*
X40041Y-39141D01*
X41041Y-20141D02*
X41041Y-19858D01*
X40758Y-19858D01*
X40758Y-20141D01*
X41041Y-20141D01*
X41041Y-39141D02*
X41041Y-38858D01*
X40758Y-38858D01*
X40758Y-39141D01*
X41041Y-39141D01*
X42041Y-20141D02*
X42041Y-19858D01*
X41758Y-19858D01*
X41758Y-20141D01*
X42041Y-20141D01*
X43041Y-20141D02*
X43041Y-19858D01*
X42758Y-19858D01*
X42758Y-20141D01*
X43041Y-20141D01*
X43041Y-39141D02*
X43041Y-38858D01*
X42758Y-38858D01*
X42758Y-39141D01*
X43041Y-39141D01*
X44041Y-20141D02*
X44041Y-19858D01*
X43758Y-19858D01*
X43758Y-20141D01*
X44041Y-20141D01*
X44041Y-39141D02*
X44041Y-38858D01*
X43758Y-38858D01*
X43758Y-39141D01*
X44041Y-39141D01*
X45041Y-20141D02*
X45041Y-19858D01*
X44758Y-19858D01*
X44758Y-20141D01*
X45041Y-20141D01*
X45041Y-39141D02*
X45041Y-38858D01*
X44758Y-38858D01*
X44758Y-39141D01*
X45041Y-39141D01*
X45641Y-34241D02*
X45641Y-33958D01*
X45358Y-33958D01*
X45358Y-34241D01*
X45641Y-34241D01*
X45641Y-35241D02*
X45641Y-34958D01*
X45358Y-34958D01*
X45358Y-35241D01*
X45641Y-35241D01*
X45641Y-36241D02*
X45641Y-35958D01*
X45358Y-35958D01*
X45358Y-36241D01*
X45641Y-36241D01*
X46041Y-20141D02*
X46041Y-19858D01*
X45758Y-19858D01*
X45758Y-20141D01*
X46041Y-20141D01*
X46041Y-39141D02*
X46041Y-38858D01*
X45758Y-38858D01*
X45758Y-39141D01*
X46041Y-39141D01*
X46641Y-29841D02*
X46641Y-29558D01*
X46358Y-29558D01*
X46358Y-29841D01*
X46641Y-29841D01*
X46641Y-30841D02*
X46641Y-30558D01*
X46358Y-30558D01*
X46358Y-30841D01*
X46641Y-30841D01*
X46641Y-31841D02*
X46641Y-31558D01*
X46358Y-31558D01*
X46358Y-31841D01*
X46641Y-31841D01*
X46641Y-32841D02*
X46641Y-32558D01*
X46358Y-32558D01*
X46358Y-32841D01*
X46641Y-32841D01*
X46641Y-34241D02*
X46641Y-33958D01*
X46358Y-33958D01*
X46358Y-34241D01*
X46641Y-34241D01*
X46641Y-35241D02*
X46641Y-34958D01*
X46358Y-34958D01*
X46358Y-35241D01*
X46641Y-35241D01*
X46641Y-36241D02*
X46641Y-35958D01*
X46358Y-35958D01*
X46358Y-36241D01*
X46641Y-36241D01*
X47041Y-20141D02*
X47041Y-19858D01*
X46758Y-19858D01*
X46758Y-20141D01*
X47041Y-20141D01*
X47041Y-39141D02*
X47041Y-38858D01*
X46758Y-38858D01*
X46758Y-39141D01*
X47041Y-39141D01*
X48041Y-20141D02*
X48041Y-19858D01*
X47758Y-19858D01*
X47758Y-20141D01*
X48041Y-20141D01*
X48041Y-39141D02*
X48041Y-38858D01*
X47758Y-38858D01*
X47758Y-39141D01*
X48041Y-39141D01*
X13125Y-21155D02*
X13355Y-20925D01*
X13125Y-20695D01*
X12895Y-20925D01*
X13125Y-21155D01*
X12934Y-20455D02*
X12934Y-21395D01*
X13315Y-20455D02*
X13315Y-21395D01*
X12934Y-21395D02*
G75*
G03X13315Y-21395I190J0D01*
G74*
G01*
X13315Y-20455D02*
G75*
G03X12934Y-20455I-190J0D01*
G74*
G01*
X15487Y-21155D02*
X15717Y-20925D01*
X15487Y-20695D01*
X15257Y-20925D01*
X15487Y-21155D01*
X15296Y-20355D02*
X15296Y-21495D01*
X15677Y-20355D02*
X15677Y-21495D01*
X15296Y-21495D02*
G75*
G03X15677Y-21495I190J0D01*
G74*
G01*
X15677Y-20355D02*
G75*
G03X15296Y-20355I-190J0D01*
G74*
G01*
X10350Y-32525D02*
X10850Y-33025D01*
X10850Y-32525D02*
X10350Y-33025D01*
X10850Y-32775D02*
G75*
G03X10850Y-32775I-250J0D01*
G74*
G01*
X10350Y-35125D02*
X10850Y-35625D01*
X10850Y-35125D02*
X10350Y-35625D01*
X10850Y-35375D02*
G75*
G03X10850Y-35375I-250J0D01*
G74*
G01*
X12000Y-16000D02*
X13000Y-17000D01*
X13000Y-16000D02*
X12000Y-17000D01*
X12500Y-16000D02*
X12500Y-17000D01*
X12000Y-16500D02*
X13000Y-16500D01*
X10950Y-16960D02*
X14049Y-16960D01*
X10950Y-16039D02*
X14049Y-16039D01*
X14049Y-16960D02*
G75*
G03X14049Y-16039I0J460D01*
G74*
G01*
X10950Y-16039D02*
G75*
G03X10950Y-16960I0J-460D01*
G74*
G01*
X47000Y-16000D02*
X48000Y-17000D01*
X48000Y-16000D02*
X47000Y-17000D01*
X47500Y-16000D02*
X47500Y-17000D01*
X47000Y-16500D02*
X48000Y-16500D01*
X45950Y-16960D02*
X49049Y-16960D01*
X45950Y-16039D02*
X49049Y-16039D01*
X49049Y-16960D02*
G75*
G03X49049Y-16039I0J460D01*
G74*
G01*
X45950Y-16039D02*
G75*
G03X45950Y-16960I0J-460D01*
G74*
G01*
X10475Y-25375D02*
X11724Y-26624D01*
X11724Y-25375D02*
X10475Y-26624D01*
X11541Y-26441D02*
X11541Y-25558D01*
X10658Y-25558D01*
X10658Y-26441D01*
X11541Y-26441D01*
X10475Y-36375D02*
X11724Y-37624D01*
X11724Y-36375D02*
X10475Y-37624D01*
X11541Y-37441D02*
X11541Y-36558D01*
X10658Y-36558D01*
X10658Y-37441D01*
X11541Y-37441D01*
X27775Y-38375D02*
X29024Y-39624D01*
X29024Y-38375D02*
X27775Y-39624D01*
X28841Y-39441D02*
X28841Y-38558D01*
X27958Y-38558D01*
X27958Y-39441D01*
X28841Y-39441D01*
X28275Y-19375D02*
X29524Y-20624D01*
X29524Y-19375D02*
X28275Y-20624D01*
X29341Y-20441D02*
X29341Y-19558D01*
X28458Y-19558D01*
X28458Y-20441D01*
X29341Y-20441D01*
X48275Y-36375D02*
X49524Y-37624D01*
X49524Y-36375D02*
X48275Y-37624D01*
X49341Y-37441D02*
X49341Y-36558D01*
X48458Y-36558D01*
X48458Y-37441D01*
X49341Y-37441D01*
G54D12*
X11043Y-46802D02*
X11043Y-45621D01*
X11324Y-45621D01*
X11493Y-45677D01*
X11606Y-45789D01*
X11662Y-45902D01*
X11718Y-46127D01*
X11718Y-46296D01*
X11662Y-46521D01*
X11606Y-46633D01*
X11493Y-46746D01*
X11324Y-46802D01*
X11043Y-46802D01*
X12224Y-46802D02*
X12224Y-46014D01*
X12224Y-46239D02*
X12280Y-46127D01*
X12337Y-46071D01*
X12449Y-46014D01*
X12562Y-46014D01*
X12955Y-46802D02*
X12955Y-46014D01*
X12955Y-45621D02*
X12899Y-45677D01*
X12955Y-45733D01*
X13012Y-45677D01*
X12955Y-45621D01*
X12955Y-45733D01*
X13687Y-46802D02*
X13574Y-46746D01*
X13518Y-46633D01*
X13518Y-45621D01*
X14305Y-46802D02*
X14193Y-46746D01*
X14136Y-46633D01*
X14136Y-45621D01*
X15655Y-46802D02*
X15655Y-45621D01*
X16049Y-46464D01*
X16442Y-45621D01*
X16442Y-46802D01*
X17511Y-46802D02*
X17511Y-46183D01*
X17455Y-46071D01*
X17342Y-46014D01*
X17117Y-46014D01*
X17005Y-46071D01*
X17511Y-46746D02*
X17399Y-46802D01*
X17117Y-46802D01*
X17005Y-46746D01*
X16949Y-46633D01*
X16949Y-46521D01*
X17005Y-46408D01*
X17117Y-46352D01*
X17399Y-46352D01*
X17511Y-46296D01*
X18073Y-46014D02*
X18073Y-47195D01*
X18073Y-46071D02*
X18186Y-46014D01*
X18411Y-46014D01*
X18523Y-46071D01*
X18580Y-46127D01*
X18636Y-46239D01*
X18636Y-46577D01*
X18580Y-46689D01*
X18523Y-46746D01*
X18411Y-46802D01*
X18186Y-46802D01*
X18073Y-46746D01*
X19142Y-46689D02*
X19198Y-46746D01*
X19142Y-46802D01*
X19086Y-46746D01*
X19142Y-46689D01*
X19142Y-46802D01*
X19142Y-46071D02*
X19198Y-46127D01*
X19142Y-46183D01*
X19086Y-46127D01*
X19142Y-46071D01*
X19142Y-46183D01*
X9724Y-48679D02*
X9974Y-48929D01*
X9974Y-48679D02*
X9724Y-48929D01*
X11268Y-48101D02*
X11381Y-48101D01*
X11493Y-48157D01*
X11549Y-48213D01*
X11606Y-48326D01*
X11662Y-48551D01*
X11662Y-48832D01*
X11606Y-49057D01*
X11549Y-49170D01*
X11493Y-49226D01*
X11381Y-49282D01*
X11268Y-49282D01*
X11156Y-49226D01*
X11099Y-49170D01*
X11043Y-49057D01*
X10987Y-48832D01*
X10987Y-48551D01*
X11043Y-48326D01*
X11099Y-48213D01*
X11156Y-48157D01*
X11268Y-48101D01*
X12168Y-49170D02*
X12224Y-49226D01*
X12168Y-49282D01*
X12112Y-49226D01*
X12168Y-49170D01*
X12168Y-49282D01*
X13237Y-48101D02*
X13012Y-48101D01*
X12899Y-48157D01*
X12843Y-48213D01*
X12730Y-48382D01*
X12674Y-48607D01*
X12674Y-49057D01*
X12730Y-49170D01*
X12787Y-49226D01*
X12899Y-49282D01*
X13124Y-49282D01*
X13237Y-49226D01*
X13293Y-49170D01*
X13349Y-49057D01*
X13349Y-48776D01*
X13293Y-48663D01*
X13237Y-48607D01*
X13124Y-48551D01*
X12899Y-48551D01*
X12787Y-48607D01*
X12730Y-48663D01*
X12674Y-48776D01*
X14361Y-48495D02*
X14361Y-49282D01*
X14080Y-48045D02*
X13799Y-48888D01*
X14530Y-48888D01*
X14980Y-49282D02*
X14980Y-48495D01*
X14980Y-48607D02*
X15036Y-48551D01*
X15149Y-48495D01*
X15318Y-48495D01*
X15430Y-48551D01*
X15486Y-48663D01*
X15486Y-49282D01*
X15486Y-48663D02*
X15543Y-48551D01*
X15655Y-48495D01*
X15824Y-48495D01*
X15936Y-48551D01*
X15992Y-48663D01*
X15992Y-49282D01*
X16555Y-49282D02*
X16555Y-48495D01*
X16555Y-48607D02*
X16611Y-48551D01*
X16724Y-48495D01*
X16892Y-48495D01*
X17005Y-48551D01*
X17061Y-48663D01*
X17061Y-49282D01*
X17061Y-48663D02*
X17117Y-48551D01*
X17230Y-48495D01*
X17399Y-48495D01*
X17511Y-48551D01*
X17567Y-48663D01*
X17567Y-49282D01*
X19873Y-48045D02*
X18861Y-49563D01*
X21392Y-48101D02*
X21504Y-48101D01*
X21617Y-48157D01*
X21673Y-48213D01*
X21729Y-48326D01*
X21786Y-48551D01*
X21786Y-48832D01*
X21729Y-49057D01*
X21673Y-49170D01*
X21617Y-49226D01*
X21504Y-49282D01*
X21392Y-49282D01*
X21279Y-49226D01*
X21223Y-49170D01*
X21167Y-49057D01*
X21111Y-48832D01*
X21111Y-48551D01*
X21167Y-48326D01*
X21223Y-48213D01*
X21279Y-48157D01*
X21392Y-48101D01*
X22292Y-49170D02*
X22348Y-49226D01*
X22292Y-49282D01*
X22235Y-49226D01*
X22292Y-49170D01*
X22292Y-49282D01*
X23079Y-48101D02*
X23192Y-48101D01*
X23304Y-48157D01*
X23360Y-48213D01*
X23417Y-48326D01*
X23473Y-48551D01*
X23473Y-48832D01*
X23417Y-49057D01*
X23360Y-49170D01*
X23304Y-49226D01*
X23192Y-49282D01*
X23079Y-49282D01*
X22967Y-49226D01*
X22910Y-49170D01*
X22854Y-49057D01*
X22798Y-48832D01*
X22798Y-48551D01*
X22854Y-48326D01*
X22910Y-48213D01*
X22967Y-48157D01*
X23079Y-48101D01*
X23923Y-48213D02*
X23979Y-48157D01*
X24091Y-48101D01*
X24373Y-48101D01*
X24485Y-48157D01*
X24541Y-48213D01*
X24598Y-48326D01*
X24598Y-48438D01*
X24541Y-48607D01*
X23867Y-49282D01*
X24598Y-49282D01*
X25666Y-48101D02*
X25104Y-48101D01*
X25048Y-48663D01*
X25104Y-48607D01*
X25216Y-48551D01*
X25498Y-48551D01*
X25610Y-48607D01*
X25666Y-48663D01*
X25723Y-48776D01*
X25723Y-49057D01*
X25666Y-49170D01*
X25610Y-49226D01*
X25498Y-49282D01*
X25216Y-49282D01*
X25104Y-49226D01*
X25048Y-49170D01*
X26172Y-48101D02*
X26172Y-48326D01*
X26622Y-48101D02*
X26622Y-48326D01*
X28366Y-49732D02*
X28310Y-49676D01*
X28197Y-49507D01*
X28141Y-49395D01*
X28085Y-49226D01*
X28028Y-48945D01*
X28028Y-48720D01*
X28085Y-48438D01*
X28141Y-48270D01*
X28197Y-48157D01*
X28310Y-47989D01*
X28366Y-47932D01*
X29435Y-49282D02*
X28760Y-49282D01*
X29097Y-49282D02*
X29097Y-48101D01*
X28985Y-48270D01*
X28872Y-48382D01*
X28760Y-48438D01*
X30559Y-49282D02*
X29885Y-49282D01*
X30222Y-49282D02*
X30222Y-48101D01*
X30109Y-48270D01*
X29997Y-48382D01*
X29885Y-48438D01*
X31684Y-49282D02*
X31009Y-49282D01*
X31347Y-49282D02*
X31347Y-48101D01*
X31234Y-48270D01*
X31122Y-48382D01*
X31009Y-48438D01*
X33090Y-49282D02*
X33090Y-48101D01*
X33597Y-49282D02*
X33597Y-48663D01*
X33540Y-48551D01*
X33428Y-48495D01*
X33259Y-48495D01*
X33147Y-48551D01*
X33090Y-48607D01*
X34328Y-49282D02*
X34215Y-49226D01*
X34159Y-49170D01*
X34103Y-49057D01*
X34103Y-48720D01*
X34159Y-48607D01*
X34215Y-48551D01*
X34328Y-48495D01*
X34496Y-48495D01*
X34609Y-48551D01*
X34665Y-48607D01*
X34721Y-48720D01*
X34721Y-49057D01*
X34665Y-49170D01*
X34609Y-49226D01*
X34496Y-49282D01*
X34328Y-49282D01*
X35396Y-49282D02*
X35284Y-49226D01*
X35228Y-49113D01*
X35228Y-48101D01*
X36296Y-49226D02*
X36184Y-49282D01*
X35959Y-49282D01*
X35846Y-49226D01*
X35790Y-49113D01*
X35790Y-48663D01*
X35846Y-48551D01*
X35959Y-48495D01*
X36184Y-48495D01*
X36296Y-48551D01*
X36352Y-48663D01*
X36352Y-48776D01*
X35790Y-48888D01*
X36802Y-49226D02*
X36915Y-49282D01*
X37140Y-49282D01*
X37252Y-49226D01*
X37309Y-49113D01*
X37309Y-49057D01*
X37252Y-48945D01*
X37140Y-48888D01*
X36971Y-48888D01*
X36859Y-48832D01*
X36802Y-48720D01*
X36802Y-48663D01*
X36859Y-48551D01*
X36971Y-48495D01*
X37140Y-48495D01*
X37252Y-48551D01*
X37702Y-49732D02*
X37759Y-49676D01*
X37871Y-49507D01*
X37927Y-49395D01*
X37983Y-49226D01*
X38040Y-48945D01*
X38040Y-48720D01*
X37983Y-48438D01*
X37927Y-48270D01*
X37871Y-48157D01*
X37759Y-47989D01*
X37702Y-47932D01*
G54D11*
X9974Y-50363D02*
G75*
G03X9974Y-50363I-175J0D01*
G74*
G01*
G54D12*
X11268Y-49660D02*
X11381Y-49660D01*
X11493Y-49716D01*
X11549Y-49773D01*
X11606Y-49885D01*
X11662Y-50110D01*
X11662Y-50391D01*
X11606Y-50616D01*
X11549Y-50729D01*
X11493Y-50785D01*
X11381Y-50841D01*
X11268Y-50841D01*
X11156Y-50785D01*
X11099Y-50729D01*
X11043Y-50616D01*
X10987Y-50391D01*
X10987Y-50110D01*
X11043Y-49885D01*
X11099Y-49773D01*
X11156Y-49716D01*
X11268Y-49660D01*
X12168Y-50729D02*
X12224Y-50785D01*
X12168Y-50841D01*
X12112Y-50785D01*
X12168Y-50729D01*
X12168Y-50841D01*
X12899Y-50166D02*
X12787Y-50110D01*
X12730Y-50054D01*
X12674Y-49941D01*
X12674Y-49885D01*
X12730Y-49773D01*
X12787Y-49716D01*
X12899Y-49660D01*
X13124Y-49660D01*
X13237Y-49716D01*
X13293Y-49773D01*
X13349Y-49885D01*
X13349Y-49941D01*
X13293Y-50054D01*
X13237Y-50110D01*
X13124Y-50166D01*
X12899Y-50166D01*
X12787Y-50222D01*
X12730Y-50279D01*
X12674Y-50391D01*
X12674Y-50616D01*
X12730Y-50729D01*
X12787Y-50785D01*
X12899Y-50841D01*
X13124Y-50841D01*
X13237Y-50785D01*
X13293Y-50729D01*
X13349Y-50616D01*
X13349Y-50391D01*
X13293Y-50279D01*
X13237Y-50222D01*
X13124Y-50166D01*
X13912Y-50841D02*
X14136Y-50841D01*
X14249Y-50785D01*
X14305Y-50729D01*
X14418Y-50560D01*
X14474Y-50335D01*
X14474Y-49885D01*
X14418Y-49773D01*
X14361Y-49716D01*
X14249Y-49660D01*
X14024Y-49660D01*
X13912Y-49716D01*
X13855Y-49773D01*
X13799Y-49885D01*
X13799Y-50166D01*
X13855Y-50279D01*
X13912Y-50335D01*
X14024Y-50391D01*
X14249Y-50391D01*
X14361Y-50335D01*
X14418Y-50279D01*
X14474Y-50166D01*
X14980Y-50841D02*
X14980Y-50054D01*
X14980Y-50166D02*
X15036Y-50110D01*
X15149Y-50054D01*
X15318Y-50054D01*
X15430Y-50110D01*
X15486Y-50222D01*
X15486Y-50841D01*
X15486Y-50222D02*
X15543Y-50110D01*
X15655Y-50054D01*
X15824Y-50054D01*
X15936Y-50110D01*
X15992Y-50222D01*
X15992Y-50841D01*
X16555Y-50841D02*
X16555Y-50054D01*
X16555Y-50166D02*
X16611Y-50110D01*
X16724Y-50054D01*
X16892Y-50054D01*
X17005Y-50110D01*
X17061Y-50222D01*
X17061Y-50841D01*
X17061Y-50222D02*
X17117Y-50110D01*
X17230Y-50054D01*
X17399Y-50054D01*
X17511Y-50110D01*
X17567Y-50222D01*
X17567Y-50841D01*
X19873Y-49604D02*
X18861Y-51122D01*
X21392Y-49660D02*
X21504Y-49660D01*
X21617Y-49716D01*
X21673Y-49773D01*
X21729Y-49885D01*
X21786Y-50110D01*
X21786Y-50391D01*
X21729Y-50616D01*
X21673Y-50729D01*
X21617Y-50785D01*
X21504Y-50841D01*
X21392Y-50841D01*
X21279Y-50785D01*
X21223Y-50729D01*
X21167Y-50616D01*
X21111Y-50391D01*
X21111Y-50110D01*
X21167Y-49885D01*
X21223Y-49773D01*
X21279Y-49716D01*
X21392Y-49660D01*
X22292Y-50729D02*
X22348Y-50785D01*
X22292Y-50841D01*
X22235Y-50785D01*
X22292Y-50729D01*
X22292Y-50841D01*
X23079Y-49660D02*
X23192Y-49660D01*
X23304Y-49716D01*
X23360Y-49773D01*
X23417Y-49885D01*
X23473Y-50110D01*
X23473Y-50391D01*
X23417Y-50616D01*
X23360Y-50729D01*
X23304Y-50785D01*
X23192Y-50841D01*
X23079Y-50841D01*
X22967Y-50785D01*
X22910Y-50729D01*
X22854Y-50616D01*
X22798Y-50391D01*
X22798Y-50110D01*
X22854Y-49885D01*
X22910Y-49773D01*
X22967Y-49716D01*
X23079Y-49660D01*
X23867Y-49660D02*
X24598Y-49660D01*
X24204Y-50110D01*
X24373Y-50110D01*
X24485Y-50166D01*
X24541Y-50222D01*
X24598Y-50335D01*
X24598Y-50616D01*
X24541Y-50729D01*
X24485Y-50785D01*
X24373Y-50841D01*
X24035Y-50841D01*
X23923Y-50785D01*
X23867Y-50729D01*
X25666Y-49660D02*
X25104Y-49660D01*
X25048Y-50222D01*
X25104Y-50166D01*
X25216Y-50110D01*
X25498Y-50110D01*
X25610Y-50166D01*
X25666Y-50222D01*
X25723Y-50335D01*
X25723Y-50616D01*
X25666Y-50729D01*
X25610Y-50785D01*
X25498Y-50841D01*
X25216Y-50841D01*
X25104Y-50785D01*
X25048Y-50729D01*
X26172Y-49660D02*
X26172Y-49885D01*
X26622Y-49660D02*
X26622Y-49885D01*
X28366Y-51291D02*
X28310Y-51235D01*
X28197Y-51066D01*
X28141Y-50954D01*
X28085Y-50785D01*
X28028Y-50504D01*
X28028Y-50279D01*
X28085Y-49998D01*
X28141Y-49829D01*
X28197Y-49716D01*
X28310Y-49548D01*
X28366Y-49491D01*
X29322Y-50054D02*
X29322Y-50841D01*
X29041Y-49604D02*
X28760Y-50447D01*
X29491Y-50447D01*
X30841Y-50841D02*
X30841Y-49660D01*
X31347Y-50841D02*
X31347Y-50222D01*
X31291Y-50110D01*
X31178Y-50054D01*
X31009Y-50054D01*
X30897Y-50110D01*
X30841Y-50166D01*
X32078Y-50841D02*
X31966Y-50785D01*
X31909Y-50729D01*
X31853Y-50616D01*
X31853Y-50279D01*
X31909Y-50166D01*
X31966Y-50110D01*
X32078Y-50054D01*
X32247Y-50054D01*
X32359Y-50110D01*
X32415Y-50166D01*
X32472Y-50279D01*
X32472Y-50616D01*
X32415Y-50729D01*
X32359Y-50785D01*
X32247Y-50841D01*
X32078Y-50841D01*
X33147Y-50841D02*
X33034Y-50785D01*
X32978Y-50672D01*
X32978Y-49660D01*
X34046Y-50785D02*
X33934Y-50841D01*
X33709Y-50841D01*
X33597Y-50785D01*
X33540Y-50672D01*
X33540Y-50222D01*
X33597Y-50110D01*
X33709Y-50054D01*
X33934Y-50054D01*
X34046Y-50110D01*
X34103Y-50222D01*
X34103Y-50335D01*
X33540Y-50447D01*
X34553Y-50785D02*
X34665Y-50841D01*
X34890Y-50841D01*
X35003Y-50785D01*
X35059Y-50672D01*
X35059Y-50616D01*
X35003Y-50504D01*
X34890Y-50447D01*
X34721Y-50447D01*
X34609Y-50391D01*
X34553Y-50279D01*
X34553Y-50222D01*
X34609Y-50110D01*
X34721Y-50054D01*
X34890Y-50054D01*
X35003Y-50110D01*
X35453Y-51291D02*
X35509Y-51235D01*
X35621Y-51066D01*
X35678Y-50954D01*
X35734Y-50785D01*
X35790Y-50504D01*
X35790Y-50279D01*
X35734Y-49998D01*
X35678Y-49829D01*
X35621Y-49716D01*
X35509Y-49548D01*
X35453Y-49491D01*
X9797Y-51745D02*
X9797Y-52099D01*
X9620Y-51922D02*
X9974Y-51922D01*
X11268Y-51219D02*
X11381Y-51219D01*
X11493Y-51275D01*
X11549Y-51332D01*
X11606Y-51444D01*
X11662Y-51669D01*
X11662Y-51950D01*
X11606Y-52175D01*
X11549Y-52288D01*
X11493Y-52344D01*
X11381Y-52400D01*
X11268Y-52400D01*
X11156Y-52344D01*
X11099Y-52288D01*
X11043Y-52175D01*
X10987Y-51950D01*
X10987Y-51669D01*
X11043Y-51444D01*
X11099Y-51332D01*
X11156Y-51275D01*
X11268Y-51219D01*
X12168Y-52288D02*
X12224Y-52344D01*
X12168Y-52400D01*
X12112Y-52344D01*
X12168Y-52288D01*
X12168Y-52400D01*
X12787Y-52400D02*
X13012Y-52400D01*
X13124Y-52344D01*
X13180Y-52288D01*
X13293Y-52119D01*
X13349Y-51894D01*
X13349Y-51444D01*
X13293Y-51332D01*
X13237Y-51275D01*
X13124Y-51219D01*
X12899Y-51219D01*
X12787Y-51275D01*
X12730Y-51332D01*
X12674Y-51444D01*
X12674Y-51725D01*
X12730Y-51838D01*
X12787Y-51894D01*
X12899Y-51950D01*
X13124Y-51950D01*
X13237Y-51894D01*
X13293Y-51838D01*
X13349Y-51725D01*
X14080Y-51219D02*
X14193Y-51219D01*
X14305Y-51275D01*
X14361Y-51332D01*
X14418Y-51444D01*
X14474Y-51669D01*
X14474Y-51950D01*
X14418Y-52175D01*
X14361Y-52288D01*
X14305Y-52344D01*
X14193Y-52400D01*
X14080Y-52400D01*
X13968Y-52344D01*
X13912Y-52288D01*
X13855Y-52175D01*
X13799Y-51950D01*
X13799Y-51669D01*
X13855Y-51444D01*
X13912Y-51332D01*
X13968Y-51275D01*
X14080Y-51219D01*
X14980Y-52400D02*
X14980Y-51613D01*
X14980Y-51725D02*
X15036Y-51669D01*
X15149Y-51613D01*
X15318Y-51613D01*
X15430Y-51669D01*
X15486Y-51782D01*
X15486Y-52400D01*
X15486Y-51782D02*
X15543Y-51669D01*
X15655Y-51613D01*
X15824Y-51613D01*
X15936Y-51669D01*
X15992Y-51782D01*
X15992Y-52400D01*
X16555Y-52400D02*
X16555Y-51613D01*
X16555Y-51725D02*
X16611Y-51669D01*
X16724Y-51613D01*
X16892Y-51613D01*
X17005Y-51669D01*
X17061Y-51782D01*
X17061Y-52400D01*
X17061Y-51782D02*
X17117Y-51669D01*
X17230Y-51613D01*
X17399Y-51613D01*
X17511Y-51669D01*
X17567Y-51782D01*
X17567Y-52400D01*
X19873Y-51163D02*
X18861Y-52681D01*
X21392Y-51219D02*
X21504Y-51219D01*
X21617Y-51275D01*
X21673Y-51332D01*
X21729Y-51444D01*
X21786Y-51669D01*
X21786Y-51950D01*
X21729Y-52175D01*
X21673Y-52288D01*
X21617Y-52344D01*
X21504Y-52400D01*
X21392Y-52400D01*
X21279Y-52344D01*
X21223Y-52288D01*
X21167Y-52175D01*
X21111Y-51950D01*
X21111Y-51669D01*
X21167Y-51444D01*
X21223Y-51332D01*
X21279Y-51275D01*
X21392Y-51219D01*
X22292Y-52288D02*
X22348Y-52344D01*
X22292Y-52400D01*
X22235Y-52344D01*
X22292Y-52288D01*
X22292Y-52400D01*
X23079Y-51219D02*
X23192Y-51219D01*
X23304Y-51275D01*
X23360Y-51332D01*
X23417Y-51444D01*
X23473Y-51669D01*
X23473Y-51950D01*
X23417Y-52175D01*
X23360Y-52288D01*
X23304Y-52344D01*
X23192Y-52400D01*
X23079Y-52400D01*
X22967Y-52344D01*
X22910Y-52288D01*
X22854Y-52175D01*
X22798Y-51950D01*
X22798Y-51669D01*
X22854Y-51444D01*
X22910Y-51332D01*
X22967Y-51275D01*
X23079Y-51219D01*
X23867Y-51219D02*
X24598Y-51219D01*
X24204Y-51669D01*
X24373Y-51669D01*
X24485Y-51725D01*
X24541Y-51782D01*
X24598Y-51894D01*
X24598Y-52175D01*
X24541Y-52288D01*
X24485Y-52344D01*
X24373Y-52400D01*
X24035Y-52400D01*
X23923Y-52344D01*
X23867Y-52288D01*
X25666Y-51219D02*
X25104Y-51219D01*
X25048Y-51782D01*
X25104Y-51725D01*
X25216Y-51669D01*
X25498Y-51669D01*
X25610Y-51725D01*
X25666Y-51782D01*
X25723Y-51894D01*
X25723Y-52175D01*
X25666Y-52288D01*
X25610Y-52344D01*
X25498Y-52400D01*
X25216Y-52400D01*
X25104Y-52344D01*
X25048Y-52288D01*
X26172Y-51219D02*
X26172Y-51444D01*
X26622Y-51219D02*
X26622Y-51444D01*
X28366Y-52850D02*
X28310Y-52794D01*
X28197Y-52625D01*
X28141Y-52513D01*
X28085Y-52344D01*
X28028Y-52063D01*
X28028Y-51838D01*
X28085Y-51557D01*
X28141Y-51388D01*
X28197Y-51275D01*
X28310Y-51107D01*
X28366Y-51050D01*
X28760Y-51332D02*
X28816Y-51275D01*
X28928Y-51219D01*
X29210Y-51219D01*
X29322Y-51275D01*
X29378Y-51332D01*
X29435Y-51444D01*
X29435Y-51557D01*
X29378Y-51725D01*
X28703Y-52400D01*
X29435Y-52400D01*
X30841Y-52400D02*
X30841Y-51219D01*
X31347Y-52400D02*
X31347Y-51782D01*
X31291Y-51669D01*
X31178Y-51613D01*
X31009Y-51613D01*
X30897Y-51669D01*
X30841Y-51725D01*
X32078Y-52400D02*
X31966Y-52344D01*
X31909Y-52288D01*
X31853Y-52175D01*
X31853Y-51838D01*
X31909Y-51725D01*
X31966Y-51669D01*
X32078Y-51613D01*
X32247Y-51613D01*
X32359Y-51669D01*
X32415Y-51725D01*
X32472Y-51838D01*
X32472Y-52175D01*
X32415Y-52288D01*
X32359Y-52344D01*
X32247Y-52400D01*
X32078Y-52400D01*
X33147Y-52400D02*
X33034Y-52344D01*
X32978Y-52231D01*
X32978Y-51219D01*
X34046Y-52344D02*
X33934Y-52400D01*
X33709Y-52400D01*
X33597Y-52344D01*
X33540Y-52231D01*
X33540Y-51782D01*
X33597Y-51669D01*
X33709Y-51613D01*
X33934Y-51613D01*
X34046Y-51669D01*
X34103Y-51782D01*
X34103Y-51894D01*
X33540Y-52007D01*
X34553Y-52344D02*
X34665Y-52400D01*
X34890Y-52400D01*
X35003Y-52344D01*
X35059Y-52231D01*
X35059Y-52175D01*
X35003Y-52063D01*
X34890Y-52007D01*
X34721Y-52007D01*
X34609Y-51950D01*
X34553Y-51838D01*
X34553Y-51782D01*
X34609Y-51669D01*
X34721Y-51613D01*
X34890Y-51613D01*
X35003Y-51669D01*
X35453Y-52850D02*
X35509Y-52794D01*
X35621Y-52625D01*
X35678Y-52513D01*
X35734Y-52344D01*
X35790Y-52063D01*
X35790Y-51838D01*
X35734Y-51557D01*
X35678Y-51388D01*
X35621Y-51275D01*
X35509Y-51107D01*
X35453Y-51050D01*
G54D11*
X9916Y-53623D02*
X9916Y-53340D01*
X9633Y-53340D01*
X9633Y-53623D01*
X9916Y-53623D01*
G54D12*
X11662Y-53959D02*
X10987Y-53959D01*
X11324Y-53959D02*
X11324Y-52778D01*
X11212Y-52947D01*
X11099Y-53059D01*
X10987Y-53116D01*
X12168Y-53847D02*
X12224Y-53903D01*
X12168Y-53959D01*
X12112Y-53903D01*
X12168Y-53847D01*
X12168Y-53959D01*
X12955Y-52778D02*
X13068Y-52778D01*
X13180Y-52834D01*
X13237Y-52891D01*
X13293Y-53003D01*
X13349Y-53228D01*
X13349Y-53509D01*
X13293Y-53734D01*
X13237Y-53847D01*
X13180Y-53903D01*
X13068Y-53959D01*
X12955Y-53959D01*
X12843Y-53903D01*
X12787Y-53847D01*
X12730Y-53734D01*
X12674Y-53509D01*
X12674Y-53228D01*
X12730Y-53003D01*
X12787Y-52891D01*
X12843Y-52834D01*
X12955Y-52778D01*
X13799Y-52891D02*
X13855Y-52834D01*
X13968Y-52778D01*
X14249Y-52778D01*
X14361Y-52834D01*
X14418Y-52891D01*
X14474Y-53003D01*
X14474Y-53116D01*
X14418Y-53284D01*
X13743Y-53959D01*
X14474Y-53959D01*
X14980Y-53959D02*
X14980Y-53172D01*
X14980Y-53284D02*
X15036Y-53228D01*
X15149Y-53172D01*
X15318Y-53172D01*
X15430Y-53228D01*
X15486Y-53341D01*
X15486Y-53959D01*
X15486Y-53341D02*
X15543Y-53228D01*
X15655Y-53172D01*
X15824Y-53172D01*
X15936Y-53228D01*
X15992Y-53341D01*
X15992Y-53959D01*
X16555Y-53959D02*
X16555Y-53172D01*
X16555Y-53284D02*
X16611Y-53228D01*
X16724Y-53172D01*
X16892Y-53172D01*
X17005Y-53228D01*
X17061Y-53341D01*
X17061Y-53959D01*
X17061Y-53341D02*
X17117Y-53228D01*
X17230Y-53172D01*
X17399Y-53172D01*
X17511Y-53228D01*
X17567Y-53341D01*
X17567Y-53959D01*
X19873Y-52722D02*
X18861Y-54240D01*
X21392Y-52778D02*
X21504Y-52778D01*
X21617Y-52834D01*
X21673Y-52891D01*
X21729Y-53003D01*
X21786Y-53228D01*
X21786Y-53509D01*
X21729Y-53734D01*
X21673Y-53847D01*
X21617Y-53903D01*
X21504Y-53959D01*
X21392Y-53959D01*
X21279Y-53903D01*
X21223Y-53847D01*
X21167Y-53734D01*
X21111Y-53509D01*
X21111Y-53228D01*
X21167Y-53003D01*
X21223Y-52891D01*
X21279Y-52834D01*
X21392Y-52778D01*
X22292Y-53847D02*
X22348Y-53903D01*
X22292Y-53959D01*
X22235Y-53903D01*
X22292Y-53847D01*
X22292Y-53959D01*
X23079Y-52778D02*
X23192Y-52778D01*
X23304Y-52834D01*
X23360Y-52891D01*
X23417Y-53003D01*
X23473Y-53228D01*
X23473Y-53509D01*
X23417Y-53734D01*
X23360Y-53847D01*
X23304Y-53903D01*
X23192Y-53959D01*
X23079Y-53959D01*
X22967Y-53903D01*
X22910Y-53847D01*
X22854Y-53734D01*
X22798Y-53509D01*
X22798Y-53228D01*
X22854Y-53003D01*
X22910Y-52891D01*
X22967Y-52834D01*
X23079Y-52778D01*
X24485Y-53172D02*
X24485Y-53959D01*
X24204Y-52722D02*
X23923Y-53566D01*
X24654Y-53566D01*
X25329Y-52778D02*
X25441Y-52778D01*
X25554Y-52834D01*
X25610Y-52891D01*
X25666Y-53003D01*
X25723Y-53228D01*
X25723Y-53509D01*
X25666Y-53734D01*
X25610Y-53847D01*
X25554Y-53903D01*
X25441Y-53959D01*
X25329Y-53959D01*
X25216Y-53903D01*
X25160Y-53847D01*
X25104Y-53734D01*
X25048Y-53509D01*
X25048Y-53228D01*
X25104Y-53003D01*
X25160Y-52891D01*
X25216Y-52834D01*
X25329Y-52778D01*
X26172Y-52778D02*
X26172Y-53003D01*
X26622Y-52778D02*
X26622Y-53003D01*
X28366Y-54409D02*
X28310Y-54353D01*
X28197Y-54184D01*
X28141Y-54072D01*
X28085Y-53903D01*
X28028Y-53622D01*
X28028Y-53397D01*
X28085Y-53116D01*
X28141Y-52947D01*
X28197Y-52834D01*
X28310Y-52666D01*
X28366Y-52609D01*
X29322Y-53172D02*
X29322Y-53959D01*
X29041Y-52722D02*
X28760Y-53566D01*
X29491Y-53566D01*
X30109Y-53284D02*
X29997Y-53228D01*
X29941Y-53172D01*
X29885Y-53059D01*
X29885Y-53003D01*
X29941Y-52891D01*
X29997Y-52834D01*
X30109Y-52778D01*
X30334Y-52778D01*
X30447Y-52834D01*
X30503Y-52891D01*
X30559Y-53003D01*
X30559Y-53059D01*
X30503Y-53172D01*
X30447Y-53228D01*
X30334Y-53284D01*
X30109Y-53284D01*
X29997Y-53341D01*
X29941Y-53397D01*
X29885Y-53509D01*
X29885Y-53734D01*
X29941Y-53847D01*
X29997Y-53903D01*
X30109Y-53959D01*
X30334Y-53959D01*
X30447Y-53903D01*
X30503Y-53847D01*
X30559Y-53734D01*
X30559Y-53509D01*
X30503Y-53397D01*
X30447Y-53341D01*
X30334Y-53284D01*
X31966Y-53959D02*
X31966Y-52778D01*
X32472Y-53959D02*
X32472Y-53341D01*
X32415Y-53228D01*
X32303Y-53172D01*
X32134Y-53172D01*
X32022Y-53228D01*
X31966Y-53284D01*
X33203Y-53959D02*
X33090Y-53903D01*
X33034Y-53847D01*
X32978Y-53734D01*
X32978Y-53397D01*
X33034Y-53284D01*
X33090Y-53228D01*
X33203Y-53172D01*
X33372Y-53172D01*
X33484Y-53228D01*
X33540Y-53284D01*
X33597Y-53397D01*
X33597Y-53734D01*
X33540Y-53847D01*
X33484Y-53903D01*
X33372Y-53959D01*
X33203Y-53959D01*
X34271Y-53959D02*
X34159Y-53903D01*
X34103Y-53791D01*
X34103Y-52778D01*
X35171Y-53903D02*
X35059Y-53959D01*
X34834Y-53959D01*
X34721Y-53903D01*
X34665Y-53791D01*
X34665Y-53341D01*
X34721Y-53228D01*
X34834Y-53172D01*
X35059Y-53172D01*
X35171Y-53228D01*
X35228Y-53341D01*
X35228Y-53453D01*
X34665Y-53566D01*
X35678Y-53903D02*
X35790Y-53959D01*
X36015Y-53959D01*
X36127Y-53903D01*
X36184Y-53791D01*
X36184Y-53734D01*
X36127Y-53622D01*
X36015Y-53566D01*
X35846Y-53566D01*
X35734Y-53509D01*
X35678Y-53397D01*
X35678Y-53341D01*
X35734Y-53228D01*
X35846Y-53172D01*
X36015Y-53172D01*
X36127Y-53228D01*
X37590Y-53509D02*
X38490Y-53509D01*
X38040Y-53959D02*
X38040Y-53059D01*
X40571Y-53959D02*
X39896Y-53959D01*
X40233Y-53959D02*
X40233Y-52778D01*
X40121Y-52947D01*
X40008Y-53059D01*
X39896Y-53116D01*
X41921Y-53903D02*
X42033Y-53959D01*
X42258Y-53959D01*
X42370Y-53903D01*
X42427Y-53791D01*
X42427Y-53734D01*
X42370Y-53622D01*
X42258Y-53566D01*
X42089Y-53566D01*
X41977Y-53509D01*
X41921Y-53397D01*
X41921Y-53341D01*
X41977Y-53228D01*
X42089Y-53172D01*
X42258Y-53172D01*
X42370Y-53228D01*
X43102Y-53959D02*
X42989Y-53903D01*
X42933Y-53791D01*
X42933Y-52778D01*
X43720Y-53959D02*
X43608Y-53903D01*
X43552Y-53847D01*
X43495Y-53734D01*
X43495Y-53397D01*
X43552Y-53284D01*
X43608Y-53228D01*
X43720Y-53172D01*
X43889Y-53172D01*
X44001Y-53228D01*
X44058Y-53284D01*
X44114Y-53397D01*
X44114Y-53734D01*
X44058Y-53847D01*
X44001Y-53903D01*
X43889Y-53959D01*
X43720Y-53959D01*
X44451Y-53172D02*
X44901Y-53172D01*
X44620Y-52778D02*
X44620Y-53791D01*
X44676Y-53903D01*
X44789Y-53959D01*
X44901Y-53959D01*
X45183Y-54409D02*
X45239Y-54353D01*
X45351Y-54184D01*
X45408Y-54072D01*
X45464Y-53903D01*
X45520Y-53622D01*
X45520Y-53397D01*
X45464Y-53116D01*
X45408Y-52947D01*
X45351Y-52834D01*
X45239Y-52666D01*
X45183Y-52609D01*
G54D11*
X9744Y-55270D02*
X9974Y-55040D01*
X9744Y-54810D01*
X9514Y-55040D01*
X9744Y-55270D01*
G54D12*
X11662Y-55518D02*
X10987Y-55518D01*
X11324Y-55518D02*
X11324Y-54337D01*
X11212Y-54506D01*
X11099Y-54618D01*
X10987Y-54675D01*
X12168Y-55406D02*
X12224Y-55462D01*
X12168Y-55518D01*
X12112Y-55462D01*
X12168Y-55406D01*
X12168Y-55518D01*
X13349Y-55518D02*
X12674Y-55518D01*
X13012Y-55518D02*
X13012Y-54337D01*
X12899Y-54506D01*
X12787Y-54618D01*
X12674Y-54675D01*
X13743Y-54337D02*
X14530Y-54337D01*
X14024Y-55518D01*
X14980Y-55518D02*
X14980Y-54731D01*
X14980Y-54843D02*
X15036Y-54787D01*
X15149Y-54731D01*
X15318Y-54731D01*
X15430Y-54787D01*
X15486Y-54900D01*
X15486Y-55518D01*
X15486Y-54900D02*
X15543Y-54787D01*
X15655Y-54731D01*
X15824Y-54731D01*
X15936Y-54787D01*
X15992Y-54900D01*
X15992Y-55518D01*
X16555Y-55518D02*
X16555Y-54731D01*
X16555Y-54843D02*
X16611Y-54787D01*
X16724Y-54731D01*
X16892Y-54731D01*
X17005Y-54787D01*
X17061Y-54900D01*
X17061Y-55518D01*
X17061Y-54900D02*
X17117Y-54787D01*
X17230Y-54731D01*
X17399Y-54731D01*
X17511Y-54787D01*
X17567Y-54900D01*
X17567Y-55518D01*
X19873Y-54281D02*
X18861Y-55800D01*
X21392Y-54337D02*
X21504Y-54337D01*
X21617Y-54393D01*
X21673Y-54450D01*
X21729Y-54562D01*
X21786Y-54787D01*
X21786Y-55068D01*
X21729Y-55293D01*
X21673Y-55406D01*
X21617Y-55462D01*
X21504Y-55518D01*
X21392Y-55518D01*
X21279Y-55462D01*
X21223Y-55406D01*
X21167Y-55293D01*
X21111Y-55068D01*
X21111Y-54787D01*
X21167Y-54562D01*
X21223Y-54450D01*
X21279Y-54393D01*
X21392Y-54337D01*
X22292Y-55406D02*
X22348Y-55462D01*
X22292Y-55518D01*
X22235Y-55462D01*
X22292Y-55406D01*
X22292Y-55518D01*
X23079Y-54337D02*
X23192Y-54337D01*
X23304Y-54393D01*
X23360Y-54450D01*
X23417Y-54562D01*
X23473Y-54787D01*
X23473Y-55068D01*
X23417Y-55293D01*
X23360Y-55406D01*
X23304Y-55462D01*
X23192Y-55518D01*
X23079Y-55518D01*
X22967Y-55462D01*
X22910Y-55406D01*
X22854Y-55293D01*
X22798Y-55068D01*
X22798Y-54787D01*
X22854Y-54562D01*
X22910Y-54450D01*
X22967Y-54393D01*
X23079Y-54337D01*
X24485Y-54731D02*
X24485Y-55518D01*
X24204Y-54281D02*
X23923Y-55125D01*
X24654Y-55125D01*
X25610Y-54337D02*
X25385Y-54337D01*
X25273Y-54393D01*
X25216Y-54450D01*
X25104Y-54618D01*
X25048Y-54843D01*
X25048Y-55293D01*
X25104Y-55406D01*
X25160Y-55462D01*
X25273Y-55518D01*
X25498Y-55518D01*
X25610Y-55462D01*
X25666Y-55406D01*
X25723Y-55293D01*
X25723Y-55012D01*
X25666Y-54900D01*
X25610Y-54843D01*
X25498Y-54787D01*
X25273Y-54787D01*
X25160Y-54843D01*
X25104Y-54900D01*
X25048Y-55012D01*
X26172Y-54337D02*
X26172Y-54562D01*
X26622Y-54337D02*
X26622Y-54562D01*
X28366Y-55968D02*
X28310Y-55912D01*
X28197Y-55743D01*
X28141Y-55631D01*
X28085Y-55462D01*
X28028Y-55181D01*
X28028Y-54956D01*
X28085Y-54675D01*
X28141Y-54506D01*
X28197Y-54393D01*
X28310Y-54225D01*
X28366Y-54168D01*
X29041Y-54337D02*
X29153Y-54337D01*
X29266Y-54393D01*
X29322Y-54450D01*
X29378Y-54562D01*
X29435Y-54787D01*
X29435Y-55068D01*
X29378Y-55293D01*
X29322Y-55406D01*
X29266Y-55462D01*
X29153Y-55518D01*
X29041Y-55518D01*
X28928Y-55462D01*
X28872Y-55406D01*
X28816Y-55293D01*
X28760Y-55068D01*
X28760Y-54787D01*
X28816Y-54562D01*
X28872Y-54450D01*
X28928Y-54393D01*
X29041Y-54337D01*
X30841Y-55518D02*
X30841Y-54337D01*
X31347Y-55518D02*
X31347Y-54900D01*
X31291Y-54787D01*
X31178Y-54731D01*
X31009Y-54731D01*
X30897Y-54787D01*
X30841Y-54843D01*
X32078Y-55518D02*
X31966Y-55462D01*
X31909Y-55406D01*
X31853Y-55293D01*
X31853Y-54956D01*
X31909Y-54843D01*
X31966Y-54787D01*
X32078Y-54731D01*
X32247Y-54731D01*
X32359Y-54787D01*
X32415Y-54843D01*
X32472Y-54956D01*
X32472Y-55293D01*
X32415Y-55406D01*
X32359Y-55462D01*
X32247Y-55518D01*
X32078Y-55518D01*
X33147Y-55518D02*
X33034Y-55462D01*
X32978Y-55350D01*
X32978Y-54337D01*
X34046Y-55462D02*
X33934Y-55518D01*
X33709Y-55518D01*
X33597Y-55462D01*
X33540Y-55350D01*
X33540Y-54900D01*
X33597Y-54787D01*
X33709Y-54731D01*
X33934Y-54731D01*
X34046Y-54787D01*
X34103Y-54900D01*
X34103Y-55012D01*
X33540Y-55125D01*
X34553Y-55462D02*
X34665Y-55518D01*
X34890Y-55518D01*
X35003Y-55462D01*
X35059Y-55350D01*
X35059Y-55293D01*
X35003Y-55181D01*
X34890Y-55125D01*
X34721Y-55125D01*
X34609Y-55068D01*
X34553Y-54956D01*
X34553Y-54900D01*
X34609Y-54787D01*
X34721Y-54731D01*
X34890Y-54731D01*
X35003Y-54787D01*
X36465Y-55068D02*
X37365Y-55068D01*
X36915Y-55518D02*
X36915Y-54618D01*
X38771Y-54450D02*
X38827Y-54393D01*
X38940Y-54337D01*
X39221Y-54337D01*
X39333Y-54393D01*
X39390Y-54450D01*
X39446Y-54562D01*
X39446Y-54675D01*
X39390Y-54843D01*
X38715Y-55518D01*
X39446Y-55518D01*
X40796Y-55462D02*
X40908Y-55518D01*
X41133Y-55518D01*
X41246Y-55462D01*
X41302Y-55350D01*
X41302Y-55293D01*
X41246Y-55181D01*
X41133Y-55125D01*
X40964Y-55125D01*
X40852Y-55068D01*
X40796Y-54956D01*
X40796Y-54900D01*
X40852Y-54787D01*
X40964Y-54731D01*
X41133Y-54731D01*
X41246Y-54787D01*
X41977Y-55518D02*
X41864Y-55462D01*
X41808Y-55350D01*
X41808Y-54337D01*
X42595Y-55518D02*
X42483Y-55462D01*
X42427Y-55406D01*
X42370Y-55293D01*
X42370Y-54956D01*
X42427Y-54843D01*
X42483Y-54787D01*
X42595Y-54731D01*
X42764Y-54731D01*
X42877Y-54787D01*
X42933Y-54843D01*
X42989Y-54956D01*
X42989Y-55293D01*
X42933Y-55406D01*
X42877Y-55462D01*
X42764Y-55518D01*
X42595Y-55518D01*
X43327Y-54731D02*
X43777Y-54731D01*
X43495Y-54337D02*
X43495Y-55350D01*
X43552Y-55462D01*
X43664Y-55518D01*
X43777Y-55518D01*
X44114Y-55462D02*
X44226Y-55518D01*
X44451Y-55518D01*
X44564Y-55462D01*
X44620Y-55350D01*
X44620Y-55293D01*
X44564Y-55181D01*
X44451Y-55125D01*
X44283Y-55125D01*
X44170Y-55068D01*
X44114Y-54956D01*
X44114Y-54900D01*
X44170Y-54787D01*
X44283Y-54731D01*
X44451Y-54731D01*
X44564Y-54787D01*
X45014Y-55968D02*
X45070Y-55912D01*
X45183Y-55743D01*
X45239Y-55631D01*
X45295Y-55462D01*
X45351Y-55181D01*
X45351Y-54956D01*
X45295Y-54675D01*
X45239Y-54506D01*
X45183Y-54393D01*
X45070Y-54225D01*
X45014Y-54168D01*
X9474Y-56349D02*
X9974Y-56849D01*
X9974Y-56349D02*
X9474Y-56849D01*
G54D11*
X9974Y-56599D02*
G75*
G03X9974Y-56599I-250J0D01*
G74*
G01*
G54D12*
X11662Y-57077D02*
X10987Y-57077D01*
X11324Y-57077D02*
X11324Y-55896D01*
X11212Y-56065D01*
X11099Y-56177D01*
X10987Y-56234D01*
X12168Y-56965D02*
X12224Y-57021D01*
X12168Y-57077D01*
X12112Y-57021D01*
X12168Y-56965D01*
X12168Y-57077D01*
X12674Y-56009D02*
X12730Y-55953D01*
X12843Y-55896D01*
X13124Y-55896D01*
X13237Y-55953D01*
X13293Y-56009D01*
X13349Y-56121D01*
X13349Y-56234D01*
X13293Y-56402D01*
X12618Y-57077D01*
X13349Y-57077D01*
X13743Y-55896D02*
X14530Y-55896D01*
X14024Y-57077D01*
X14980Y-57077D02*
X14980Y-56290D01*
X14980Y-56402D02*
X15036Y-56346D01*
X15149Y-56290D01*
X15318Y-56290D01*
X15430Y-56346D01*
X15486Y-56459D01*
X15486Y-57077D01*
X15486Y-56459D02*
X15543Y-56346D01*
X15655Y-56290D01*
X15824Y-56290D01*
X15936Y-56346D01*
X15992Y-56459D01*
X15992Y-57077D01*
X16555Y-57077D02*
X16555Y-56290D01*
X16555Y-56402D02*
X16611Y-56346D01*
X16724Y-56290D01*
X16892Y-56290D01*
X17005Y-56346D01*
X17061Y-56459D01*
X17061Y-57077D01*
X17061Y-56459D02*
X17117Y-56346D01*
X17230Y-56290D01*
X17399Y-56290D01*
X17511Y-56346D01*
X17567Y-56459D01*
X17567Y-57077D01*
X19873Y-55840D02*
X18861Y-57359D01*
X21392Y-55896D02*
X21504Y-55896D01*
X21617Y-55953D01*
X21673Y-56009D01*
X21729Y-56121D01*
X21786Y-56346D01*
X21786Y-56627D01*
X21729Y-56852D01*
X21673Y-56965D01*
X21617Y-57021D01*
X21504Y-57077D01*
X21392Y-57077D01*
X21279Y-57021D01*
X21223Y-56965D01*
X21167Y-56852D01*
X21111Y-56627D01*
X21111Y-56346D01*
X21167Y-56121D01*
X21223Y-56009D01*
X21279Y-55953D01*
X21392Y-55896D01*
X22292Y-56965D02*
X22348Y-57021D01*
X22292Y-57077D01*
X22235Y-57021D01*
X22292Y-56965D01*
X22292Y-57077D01*
X23079Y-55896D02*
X23192Y-55896D01*
X23304Y-55953D01*
X23360Y-56009D01*
X23417Y-56121D01*
X23473Y-56346D01*
X23473Y-56627D01*
X23417Y-56852D01*
X23360Y-56965D01*
X23304Y-57021D01*
X23192Y-57077D01*
X23079Y-57077D01*
X22967Y-57021D01*
X22910Y-56965D01*
X22854Y-56852D01*
X22798Y-56627D01*
X22798Y-56346D01*
X22854Y-56121D01*
X22910Y-56009D01*
X22967Y-55953D01*
X23079Y-55896D01*
X24541Y-55896D02*
X23979Y-55896D01*
X23923Y-56459D01*
X23979Y-56402D01*
X24091Y-56346D01*
X24373Y-56346D01*
X24485Y-56402D01*
X24541Y-56459D01*
X24598Y-56571D01*
X24598Y-56852D01*
X24541Y-56965D01*
X24485Y-57021D01*
X24373Y-57077D01*
X24091Y-57077D01*
X23979Y-57021D01*
X23923Y-56965D01*
X25329Y-55896D02*
X25441Y-55896D01*
X25554Y-55953D01*
X25610Y-56009D01*
X25666Y-56121D01*
X25723Y-56346D01*
X25723Y-56627D01*
X25666Y-56852D01*
X25610Y-56965D01*
X25554Y-57021D01*
X25441Y-57077D01*
X25329Y-57077D01*
X25216Y-57021D01*
X25160Y-56965D01*
X25104Y-56852D01*
X25048Y-56627D01*
X25048Y-56346D01*
X25104Y-56121D01*
X25160Y-56009D01*
X25216Y-55953D01*
X25329Y-55896D01*
X26172Y-55896D02*
X26172Y-56121D01*
X26622Y-55896D02*
X26622Y-56121D01*
X28366Y-57527D02*
X28310Y-57471D01*
X28197Y-57302D01*
X28141Y-57190D01*
X28085Y-57021D01*
X28028Y-56740D01*
X28028Y-56515D01*
X28085Y-56234D01*
X28141Y-56065D01*
X28197Y-55953D01*
X28310Y-55784D01*
X28366Y-55728D01*
X28760Y-56009D02*
X28816Y-55953D01*
X28928Y-55896D01*
X29210Y-55896D01*
X29322Y-55953D01*
X29378Y-56009D01*
X29435Y-56121D01*
X29435Y-56234D01*
X29378Y-56402D01*
X28703Y-57077D01*
X29435Y-57077D01*
X30841Y-57077D02*
X30841Y-55896D01*
X31347Y-57077D02*
X31347Y-56459D01*
X31291Y-56346D01*
X31178Y-56290D01*
X31009Y-56290D01*
X30897Y-56346D01*
X30841Y-56402D01*
X32078Y-57077D02*
X31966Y-57021D01*
X31909Y-56965D01*
X31853Y-56852D01*
X31853Y-56515D01*
X31909Y-56402D01*
X31966Y-56346D01*
X32078Y-56290D01*
X32247Y-56290D01*
X32359Y-56346D01*
X32415Y-56402D01*
X32472Y-56515D01*
X32472Y-56852D01*
X32415Y-56965D01*
X32359Y-57021D01*
X32247Y-57077D01*
X32078Y-57077D01*
X33147Y-57077D02*
X33034Y-57021D01*
X32978Y-56909D01*
X32978Y-55896D01*
X34046Y-57021D02*
X33934Y-57077D01*
X33709Y-57077D01*
X33597Y-57021D01*
X33540Y-56909D01*
X33540Y-56459D01*
X33597Y-56346D01*
X33709Y-56290D01*
X33934Y-56290D01*
X34046Y-56346D01*
X34103Y-56459D01*
X34103Y-56571D01*
X33540Y-56684D01*
X34553Y-57021D02*
X34665Y-57077D01*
X34890Y-57077D01*
X35003Y-57021D01*
X35059Y-56909D01*
X35059Y-56852D01*
X35003Y-56740D01*
X34890Y-56684D01*
X34721Y-56684D01*
X34609Y-56627D01*
X34553Y-56515D01*
X34553Y-56459D01*
X34609Y-56346D01*
X34721Y-56290D01*
X34890Y-56290D01*
X35003Y-56346D01*
X35453Y-57527D02*
X35509Y-57471D01*
X35621Y-57302D01*
X35678Y-57190D01*
X35734Y-57021D01*
X35790Y-56740D01*
X35790Y-56515D01*
X35734Y-56234D01*
X35678Y-56065D01*
X35621Y-55953D01*
X35509Y-55784D01*
X35453Y-55728D01*
X8974Y-57658D02*
X9974Y-58658D01*
X9974Y-57658D02*
X8974Y-58658D01*
X9474Y-57658D02*
X9474Y-58658D01*
X8974Y-58158D02*
X9974Y-58158D01*
X10987Y-57568D02*
X11043Y-57512D01*
X11156Y-57455D01*
X11437Y-57455D01*
X11549Y-57512D01*
X11606Y-57568D01*
X11662Y-57680D01*
X11662Y-57793D01*
X11606Y-57962D01*
X10931Y-58636D01*
X11662Y-58636D01*
X12168Y-58524D02*
X12224Y-58580D01*
X12168Y-58636D01*
X12112Y-58580D01*
X12168Y-58524D01*
X12168Y-58636D01*
X13293Y-57455D02*
X12730Y-57455D01*
X12674Y-58018D01*
X12730Y-57962D01*
X12843Y-57905D01*
X13124Y-57905D01*
X13237Y-57962D01*
X13293Y-58018D01*
X13349Y-58130D01*
X13349Y-58411D01*
X13293Y-58524D01*
X13237Y-58580D01*
X13124Y-58636D01*
X12843Y-58636D01*
X12730Y-58580D01*
X12674Y-58524D01*
X14361Y-57849D02*
X14361Y-58636D01*
X14080Y-57399D02*
X13799Y-58243D01*
X14530Y-58243D01*
X14980Y-58636D02*
X14980Y-57849D01*
X14980Y-57962D02*
X15036Y-57905D01*
X15149Y-57849D01*
X15318Y-57849D01*
X15430Y-57905D01*
X15486Y-58018D01*
X15486Y-58636D01*
X15486Y-58018D02*
X15543Y-57905D01*
X15655Y-57849D01*
X15824Y-57849D01*
X15936Y-57905D01*
X15992Y-58018D01*
X15992Y-58636D01*
X16555Y-58636D02*
X16555Y-57849D01*
X16555Y-57962D02*
X16611Y-57905D01*
X16724Y-57849D01*
X16892Y-57849D01*
X17005Y-57905D01*
X17061Y-58018D01*
X17061Y-58636D01*
X17061Y-58018D02*
X17117Y-57905D01*
X17230Y-57849D01*
X17399Y-57849D01*
X17511Y-57905D01*
X17567Y-58018D01*
X17567Y-58636D01*
X19873Y-57399D02*
X18861Y-58918D01*
X21392Y-57455D02*
X21504Y-57455D01*
X21617Y-57512D01*
X21673Y-57568D01*
X21729Y-57680D01*
X21786Y-57905D01*
X21786Y-58186D01*
X21729Y-58411D01*
X21673Y-58524D01*
X21617Y-58580D01*
X21504Y-58636D01*
X21392Y-58636D01*
X21279Y-58580D01*
X21223Y-58524D01*
X21167Y-58411D01*
X21111Y-58186D01*
X21111Y-57905D01*
X21167Y-57680D01*
X21223Y-57568D01*
X21279Y-57512D01*
X21392Y-57455D01*
X22292Y-58524D02*
X22348Y-58580D01*
X22292Y-58636D01*
X22235Y-58580D01*
X22292Y-58524D01*
X22292Y-58636D01*
X23473Y-58636D02*
X22798Y-58636D01*
X23135Y-58636D02*
X23135Y-57455D01*
X23023Y-57624D01*
X22910Y-57737D01*
X22798Y-57793D01*
X24204Y-57455D02*
X24316Y-57455D01*
X24429Y-57512D01*
X24485Y-57568D01*
X24541Y-57680D01*
X24598Y-57905D01*
X24598Y-58186D01*
X24541Y-58411D01*
X24485Y-58524D01*
X24429Y-58580D01*
X24316Y-58636D01*
X24204Y-58636D01*
X24091Y-58580D01*
X24035Y-58524D01*
X23979Y-58411D01*
X23923Y-58186D01*
X23923Y-57905D01*
X23979Y-57680D01*
X24035Y-57568D01*
X24091Y-57512D01*
X24204Y-57455D01*
X25329Y-57455D02*
X25441Y-57455D01*
X25554Y-57512D01*
X25610Y-57568D01*
X25666Y-57680D01*
X25723Y-57905D01*
X25723Y-58186D01*
X25666Y-58411D01*
X25610Y-58524D01*
X25554Y-58580D01*
X25441Y-58636D01*
X25329Y-58636D01*
X25216Y-58580D01*
X25160Y-58524D01*
X25104Y-58411D01*
X25048Y-58186D01*
X25048Y-57905D01*
X25104Y-57680D01*
X25160Y-57568D01*
X25216Y-57512D01*
X25329Y-57455D01*
X26172Y-57455D02*
X26172Y-57680D01*
X26622Y-57455D02*
X26622Y-57680D01*
X28366Y-59086D02*
X28310Y-59030D01*
X28197Y-58861D01*
X28141Y-58749D01*
X28085Y-58580D01*
X28028Y-58299D01*
X28028Y-58074D01*
X28085Y-57793D01*
X28141Y-57624D01*
X28197Y-57512D01*
X28310Y-57343D01*
X28366Y-57287D01*
X29041Y-57455D02*
X29153Y-57455D01*
X29266Y-57512D01*
X29322Y-57568D01*
X29378Y-57680D01*
X29435Y-57905D01*
X29435Y-58186D01*
X29378Y-58411D01*
X29322Y-58524D01*
X29266Y-58580D01*
X29153Y-58636D01*
X29041Y-58636D01*
X28928Y-58580D01*
X28872Y-58524D01*
X28816Y-58411D01*
X28760Y-58186D01*
X28760Y-57905D01*
X28816Y-57680D01*
X28872Y-57568D01*
X28928Y-57512D01*
X29041Y-57455D01*
X30841Y-58636D02*
X30841Y-57455D01*
X31347Y-58636D02*
X31347Y-58018D01*
X31291Y-57905D01*
X31178Y-57849D01*
X31009Y-57849D01*
X30897Y-57905D01*
X30841Y-57962D01*
X32078Y-58636D02*
X31966Y-58580D01*
X31909Y-58524D01*
X31853Y-58411D01*
X31853Y-58074D01*
X31909Y-57962D01*
X31966Y-57905D01*
X32078Y-57849D01*
X32247Y-57849D01*
X32359Y-57905D01*
X32415Y-57962D01*
X32472Y-58074D01*
X32472Y-58411D01*
X32415Y-58524D01*
X32359Y-58580D01*
X32247Y-58636D01*
X32078Y-58636D01*
X33147Y-58636D02*
X33034Y-58580D01*
X32978Y-58468D01*
X32978Y-57455D01*
X34046Y-58580D02*
X33934Y-58636D01*
X33709Y-58636D01*
X33597Y-58580D01*
X33540Y-58468D01*
X33540Y-58018D01*
X33597Y-57905D01*
X33709Y-57849D01*
X33934Y-57849D01*
X34046Y-57905D01*
X34103Y-58018D01*
X34103Y-58130D01*
X33540Y-58243D01*
X34553Y-58580D02*
X34665Y-58636D01*
X34890Y-58636D01*
X35003Y-58580D01*
X35059Y-58468D01*
X35059Y-58411D01*
X35003Y-58299D01*
X34890Y-58243D01*
X34721Y-58243D01*
X34609Y-58186D01*
X34553Y-58074D01*
X34553Y-58018D01*
X34609Y-57905D01*
X34721Y-57849D01*
X34890Y-57849D01*
X35003Y-57905D01*
X36465Y-58186D02*
X37365Y-58186D01*
X36915Y-58636D02*
X36915Y-57737D01*
X38771Y-57568D02*
X38827Y-57512D01*
X38940Y-57455D01*
X39221Y-57455D01*
X39333Y-57512D01*
X39390Y-57568D01*
X39446Y-57680D01*
X39446Y-57793D01*
X39390Y-57962D01*
X38715Y-58636D01*
X39446Y-58636D01*
X40796Y-58580D02*
X40908Y-58636D01*
X41133Y-58636D01*
X41246Y-58580D01*
X41302Y-58468D01*
X41302Y-58411D01*
X41246Y-58299D01*
X41133Y-58243D01*
X40964Y-58243D01*
X40852Y-58186D01*
X40796Y-58074D01*
X40796Y-58018D01*
X40852Y-57905D01*
X40964Y-57849D01*
X41133Y-57849D01*
X41246Y-57905D01*
X41977Y-58636D02*
X41864Y-58580D01*
X41808Y-58468D01*
X41808Y-57455D01*
X42595Y-58636D02*
X42483Y-58580D01*
X42427Y-58524D01*
X42370Y-58411D01*
X42370Y-58074D01*
X42427Y-57962D01*
X42483Y-57905D01*
X42595Y-57849D01*
X42764Y-57849D01*
X42877Y-57905D01*
X42933Y-57962D01*
X42989Y-58074D01*
X42989Y-58411D01*
X42933Y-58524D01*
X42877Y-58580D01*
X42764Y-58636D01*
X42595Y-58636D01*
X43327Y-57849D02*
X43777Y-57849D01*
X43495Y-57455D02*
X43495Y-58468D01*
X43552Y-58580D01*
X43664Y-58636D01*
X43777Y-58636D01*
X44114Y-58580D02*
X44226Y-58636D01*
X44451Y-58636D01*
X44564Y-58580D01*
X44620Y-58468D01*
X44620Y-58411D01*
X44564Y-58299D01*
X44451Y-58243D01*
X44283Y-58243D01*
X44170Y-58186D01*
X44114Y-58074D01*
X44114Y-58018D01*
X44170Y-57905D01*
X44283Y-57849D01*
X44451Y-57849D01*
X44564Y-57905D01*
X45014Y-59086D02*
X45070Y-59030D01*
X45183Y-58861D01*
X45239Y-58749D01*
X45295Y-58580D01*
X45351Y-58299D01*
X45351Y-58074D01*
X45295Y-57793D01*
X45239Y-57624D01*
X45183Y-57512D01*
X45070Y-57343D01*
X45014Y-57287D01*
X8725Y-59092D02*
X9974Y-60342D01*
X9974Y-59092D02*
X8725Y-60342D01*
G54D11*
X9791Y-60159D02*
X9791Y-59275D01*
X8908Y-59275D01*
X8908Y-60159D01*
X9791Y-60159D01*
G54D12*
X10931Y-59014D02*
X11662Y-59014D01*
X11268Y-59464D01*
X11437Y-59464D01*
X11549Y-59521D01*
X11606Y-59577D01*
X11662Y-59689D01*
X11662Y-59971D01*
X11606Y-60083D01*
X11549Y-60139D01*
X11437Y-60195D01*
X11099Y-60195D01*
X10987Y-60139D01*
X10931Y-60083D01*
X12168Y-60083D02*
X12224Y-60139D01*
X12168Y-60195D01*
X12112Y-60139D01*
X12168Y-60083D01*
X12168Y-60195D01*
X13349Y-60195D02*
X12674Y-60195D01*
X13012Y-60195D02*
X13012Y-59014D01*
X12899Y-59183D01*
X12787Y-59296D01*
X12674Y-59352D01*
X13743Y-59014D02*
X14530Y-59014D01*
X14024Y-60195D01*
X14980Y-60195D02*
X14980Y-59408D01*
X14980Y-59521D02*
X15036Y-59464D01*
X15149Y-59408D01*
X15318Y-59408D01*
X15430Y-59464D01*
X15486Y-59577D01*
X15486Y-60195D01*
X15486Y-59577D02*
X15543Y-59464D01*
X15655Y-59408D01*
X15824Y-59408D01*
X15936Y-59464D01*
X15992Y-59577D01*
X15992Y-60195D01*
X16555Y-60195D02*
X16555Y-59408D01*
X16555Y-59521D02*
X16611Y-59464D01*
X16724Y-59408D01*
X16892Y-59408D01*
X17005Y-59464D01*
X17061Y-59577D01*
X17061Y-60195D01*
X17061Y-59577D02*
X17117Y-59464D01*
X17230Y-59408D01*
X17399Y-59408D01*
X17511Y-59464D01*
X17567Y-59577D01*
X17567Y-60195D01*
X19873Y-58958D02*
X18861Y-60477D01*
X21392Y-59014D02*
X21504Y-59014D01*
X21617Y-59071D01*
X21673Y-59127D01*
X21729Y-59239D01*
X21786Y-59464D01*
X21786Y-59746D01*
X21729Y-59971D01*
X21673Y-60083D01*
X21617Y-60139D01*
X21504Y-60195D01*
X21392Y-60195D01*
X21279Y-60139D01*
X21223Y-60083D01*
X21167Y-59971D01*
X21111Y-59746D01*
X21111Y-59464D01*
X21167Y-59239D01*
X21223Y-59127D01*
X21279Y-59071D01*
X21392Y-59014D01*
X22292Y-60083D02*
X22348Y-60139D01*
X22292Y-60195D01*
X22235Y-60139D01*
X22292Y-60083D01*
X22292Y-60195D01*
X23473Y-60195D02*
X22798Y-60195D01*
X23135Y-60195D02*
X23135Y-59014D01*
X23023Y-59183D01*
X22910Y-59296D01*
X22798Y-59352D01*
X23923Y-59127D02*
X23979Y-59071D01*
X24091Y-59014D01*
X24373Y-59014D01*
X24485Y-59071D01*
X24541Y-59127D01*
X24598Y-59239D01*
X24598Y-59352D01*
X24541Y-59521D01*
X23867Y-60195D01*
X24598Y-60195D01*
X25666Y-59014D02*
X25104Y-59014D01*
X25048Y-59577D01*
X25104Y-59521D01*
X25216Y-59464D01*
X25498Y-59464D01*
X25610Y-59521D01*
X25666Y-59577D01*
X25723Y-59689D01*
X25723Y-59971D01*
X25666Y-60083D01*
X25610Y-60139D01*
X25498Y-60195D01*
X25216Y-60195D01*
X25104Y-60139D01*
X25048Y-60083D01*
X26172Y-59014D02*
X26172Y-59239D01*
X26622Y-59014D02*
X26622Y-59239D01*
X28366Y-60645D02*
X28310Y-60589D01*
X28197Y-60420D01*
X28141Y-60308D01*
X28085Y-60139D01*
X28028Y-59858D01*
X28028Y-59633D01*
X28085Y-59352D01*
X28141Y-59183D01*
X28197Y-59071D01*
X28310Y-58902D01*
X28366Y-58846D01*
X29378Y-59014D02*
X28816Y-59014D01*
X28760Y-59577D01*
X28816Y-59521D01*
X28928Y-59464D01*
X29210Y-59464D01*
X29322Y-59521D01*
X29378Y-59577D01*
X29435Y-59689D01*
X29435Y-59971D01*
X29378Y-60083D01*
X29322Y-60139D01*
X29210Y-60195D01*
X28928Y-60195D01*
X28816Y-60139D01*
X28760Y-60083D01*
X30841Y-60195D02*
X30841Y-59014D01*
X31347Y-60195D02*
X31347Y-59577D01*
X31291Y-59464D01*
X31178Y-59408D01*
X31009Y-59408D01*
X30897Y-59464D01*
X30841Y-59521D01*
X32078Y-60195D02*
X31966Y-60139D01*
X31909Y-60083D01*
X31853Y-59971D01*
X31853Y-59633D01*
X31909Y-59521D01*
X31966Y-59464D01*
X32078Y-59408D01*
X32247Y-59408D01*
X32359Y-59464D01*
X32415Y-59521D01*
X32472Y-59633D01*
X32472Y-59971D01*
X32415Y-60083D01*
X32359Y-60139D01*
X32247Y-60195D01*
X32078Y-60195D01*
X33147Y-60195D02*
X33034Y-60139D01*
X32978Y-60027D01*
X32978Y-59014D01*
X34046Y-60139D02*
X33934Y-60195D01*
X33709Y-60195D01*
X33597Y-60139D01*
X33540Y-60027D01*
X33540Y-59577D01*
X33597Y-59464D01*
X33709Y-59408D01*
X33934Y-59408D01*
X34046Y-59464D01*
X34103Y-59577D01*
X34103Y-59689D01*
X33540Y-59802D01*
X34553Y-60139D02*
X34665Y-60195D01*
X34890Y-60195D01*
X35003Y-60139D01*
X35059Y-60027D01*
X35059Y-59971D01*
X35003Y-59858D01*
X34890Y-59802D01*
X34721Y-59802D01*
X34609Y-59746D01*
X34553Y-59633D01*
X34553Y-59577D01*
X34609Y-59464D01*
X34721Y-59408D01*
X34890Y-59408D01*
X35003Y-59464D01*
X35453Y-60645D02*
X35509Y-60589D01*
X35621Y-60420D01*
X35678Y-60308D01*
X35734Y-60139D01*
X35790Y-59858D01*
X35790Y-59633D01*
X35734Y-59352D01*
X35678Y-59183D01*
X35621Y-59071D01*
X35509Y-58902D01*
X35453Y-58846D01*
M02*
