  0
SECTION
  2
HEADER
  9
$ACADVER
  1
AC1009
  9
$INSBASE
 10
0.0
 20
0.0
 30
0.0
  9
$EXTMIN
 10
0.0
 20
0.0
 30
0.0
  9
$EXTMAX
 10
0.0
 20
0.0
 30
0.0
  0
ENDSEC
  0
SECTION
  2
TABLES
  0
TABLE
  2
VPORT
 70
0
  0
ENDTAB
  0
TABLE
  2
LTYPE
 70
1
  0
LTYPE
  2
CONTINUOUS
 70
0
  3
Solid line
 72
65
 73
0
 40
0.0
  0
ENDTAB
  0
TABLE
  2
LAYER
 70
1
  0
LAYER
  2
0
 70
64
 62
7
  6
continuous
  0
ENDTAB
  0
TABLE
  2
STYLE
 70
1
  0
STYLE
  2
STANDARD
 70
0
 40
0
 41
1.0
 50
0.0
 71
0
 42
1
 3
ARIAL.TTF
 4

  0
ENDTAB
  0
TABLE
  2
VIEW
 70
0
  0
ENDTAB
  0
ENDSEC
  0
SECTION
  2
BLOCKS
  0
BLOCK
  8
0
  2
SCALE
 70
0
 10
0.0
 20
0.0
 30
0.0
  3
SCALE
  0
POLYLINE
  8
0
 62
0
 70
1
 66
1
 10
0.0
 20
0.0
 30
0.0
  0
VERTEX
  8
0
 10
45.071538
 20
21.5814656
 30
0.0
  0
VERTEX
  8
0
 10
44.824904
 20
21.6861898
 30
0.0
  0
VERTEX
  8
0
 10
44.721526
 20
21.9314776
 30
0.0
  0
VERTEX
  8
0
 10
44.721526
 20
25.0168918
 30
0.0
  0
VERTEX
  8
0
 10
44.721526
 20
28.102306
 30
0.0
  0
VERTEX
  8
0
 10
44.824904
 20
28.34894
 30
0.0
  0
VERTEX
  8
0
 10
45.071538
 20
28.452318
 30
0.0
  0
VERTEX
  8
0
 10
48.89627
 20
28.452318
 30
0.0
  0
VERTEX
  8
0
 10
52.721002
 20
28.452318
 30
0.0
  0
VERTEX
  8
0
 10
52.966366
 20
28.34894
 30
0.0
  0
VERTEX
  8
0
 10
53.071268
 20
28.102306
 30
0.0
  0
VERTEX
  8
0
 10
53.071268
 20
25.0168918
 30
0.0
  0
VERTEX
  8
0
 10
53.071268
 20
21.9314776
 30
0.0
  0
VERTEX
  8
0
 10
52.966366
 20
21.6861898
 30
0.0
  0
VERTEX
  8
0
 10
52.721002
 20
21.5814656
 30
0.0
  0
VERTEX
  8
0
 10
48.89627
 20
21.5814656
 30
0.0
  0
SEQEND
  8
0
  0
POLYLINE
  8
0
 62
0
 70
1
 66
1
 10
0.0
 20
0.0
 30
0.0
  0
VERTEX
  8
0
 10
45.071538
 20
21.5814656
 30
0.0
  0
VERTEX
  8
0
 10
44.824904
 20
21.6861898
 30
0.0
  0
VERTEX
  8
0
 10
44.721526
 20
21.9314776
 30
0.0
  0
VERTEX
  8
0
 10
44.721526
 20
25.0168918
 30
0.0
  0
VERTEX
  8
0
 10
44.721526
 20
28.102306
 30
0.0
  0
VERTEX
  8
0
 10
44.824904
 20
28.34894
 30
0.0
  0
VERTEX
  8
0
 10
45.071538
 20
28.452318
 30
0.0
  0
VERTEX
  8
0
 10
48.89627
 20
28.452318
 30
0.0
  0
VERTEX
  8
0
 10
52.721002
 20
28.452318
 30
0.0
  0
VERTEX
  8
0
 10
52.966366
 20
28.34894
 30
0.0
  0
VERTEX
  8
0
 10
53.071268
 20
28.102306
 30
0.0
  0
VERTEX
  8
0
 10
53.071268
 20
25.0168918
 30
0.0
  0
VERTEX
  8
0
 10
53.071268
 20
21.9314776
 30
0.0
  0
VERTEX
  8
0
 10
52.966366
 20
21.6861898
 30
0.0
  0
VERTEX
  8
0
 10
52.721002
 20
21.5814656
 30
0.0
  0
VERTEX
  8
0
 10
48.89627
 20
21.5814656
 30
0.0
  0
SEQEND
  8
0
  0
POLYLINE
  8
0
 62
0
 70
1
 66
1
 10
0.0
 20
0.0
 30
0.0
  0
VERTEX
  8
0
 10
25.521412
 20
17.729835
 30
0.0
  0
VERTEX
  8
0
 10
25.0196604
 20
17.9406804
 30
0.0
  0
VERTEX
  8
0
 10
24.8115582
 20
18.4422796
 30
0.0
  0
VERTEX
  8
0
 10
24.8115582
 20
23.03224248
 30
0.0
  0
VERTEX
  8
0
 10
24.8115582
 20
27.62220536
 30
0.0
  0
VERTEX
  8
0
 10
24.8115582
 20
32.21216824
 30
0.0
  0
VERTEX
  8
0
 10
24.8115582
 20
36.80213112
 30
0.0
  0
VERTEX
  8
0
 10
24.8115582
 20
41.392094
 30
0.0
  0
VERTEX
  8
0
 10
25.0196604
 20
41.893744
 30
0.0
  0
VERTEX
  8
0
 10
25.521412
 20
42.102024
 30
0.0
  0
VERTEX
  8
0
 10
29.261308
 20
42.102024
 30
0.0
  0
VERTEX
  8
0
 10
33.001204
 20
42.102024
 30
0.0
  0
VERTEX
  8
0
 10
33.501584
 20
41.893744
 30
0.0
  0
VERTEX
  8
0
 10
33.71088
 20
41.392094
 30
0.0
  0
VERTEX
  8
0
 10
33.71088
 20
40.500554
 30
0.0
  0
VERTEX
  8
0
 10
37.2010093333
 20
40.500554
 30
0.0
  0
VERTEX
  8
0
 10
40.6911386667
 20
40.500554
 30
0.0
  0
VERTEX
  8
0
 10
44.181268
 20
40.500554
 30
0.0
  0
VERTEX
  8
0
 10
44.426632
 20
40.3987
 30
0.0
  0
VERTEX
  8
0
 10
44.531026
 20
40.151812
 30
0.0
  0
VERTEX
  8
0
 10
44.531026
 20
35.840162
 30
0.0
  0
VERTEX
  8
0
 10
45.661326
 20
35.840162
 30
0.0
  0
VERTEX
  8
0
 10
45.90669
 20
35.738054
 30
0.0
  0
VERTEX
  8
0
 10
46.011338
 20
35.491166
 30
0.0
  0
VERTEX
  8
0
 10
46.011338
 20
31.922212
 30
0.0
  0
VERTEX
  8
0
 10
45.90669
 20
31.676848
 30
0.0
  0
VERTEX
  8
0
 10
45.661326
 20
31.5722
 30
0.0
  0
VERTEX
  8
0
 10
43.760898
 20
31.5722
 30
0.0
  0
VERTEX
  8
0
 10
43.514518
 20
31.676848
 30
0.0
  0
VERTEX
  8
0
 10
43.41114
 20
31.922212
 30
0.0
  0
VERTEX
  8
0
 10
43.41114
 20
32.80156
 30
0.0
  0
VERTEX
  8
0
 10
41.401746
 20
32.80156
 30
0.0
  0
VERTEX
  8
0
 10
41.155112
 20
32.904684
 30
0.0
  0
VERTEX
  8
0
 10
41.051734
 20
33.150048
 30
0.0
  0
VERTEX
  8
0
 10
41.051734
 20
36.38169
 30
0.0
  0
VERTEX
  8
0
 10
38.871906
 20
36.38169
 30
0.0
  0
VERTEX
  8
0
 10
38.871906
 20
33.14192
 30
0.0
  0
VERTEX
  8
0
 10
38.767004
 20
32.896556
 30
0.0
  0
VERTEX
  8
0
 10
38.52164
 20
32.791908
 30
0.0
  0
VERTEX
  8
0
 10
37.241226
 20
32.791908
 30
0.0
  0
VERTEX
  8
0
 10
36.994846
 20
32.896556
 30
0.0
  0
VERTEX
  8
0
 10
36.891468
 20
33.14192
 30
0.0
  0
VERTEX
  8
0
 10
36.891468
 20
36.38169
 30
0.0
  0
VERTEX
  8
0
 10
33.71088
 20
36.38169
 30
0.0
  0
VERTEX
  8
0
 10
33.71088
 20
31.697041
 30
0.0
  0
VERTEX
  8
0
 10
33.71088
 20
27.012392
 30
0.0
  0
VERTEX
  8
0
 10
36.691824
 20
27.012392
 30
0.0
  0
VERTEX
  8
0
 10
36.936934
 20
26.909014
 30
0.0
  0
VERTEX
  8
0
 10
37.041582
 20
26.66238
 30
0.0
  0
VERTEX
  8
0
 10
37.041582
 20
25.1615956
 30
0.0
  0
VERTEX
  8
0
 10
40.411527
 20
25.1615956
 30
0.0
  0
VERTEX
  8
0
 10
43.781472
 20
25.1615956
 30
0.0
  0
VERTEX
  8
0
 10
44.02709
 20
25.0582684
 30
0.0
  0
VERTEX
  8
0
 10
44.131738
 20
24.8115582
 30
0.0
  0
VERTEX
  8
0
 10
44.131738
 20
21.2810344
 30
0.0
  0
VERTEX
  8
0
 10
44.02709
 20
21.0357466
 30
0.0
  0
VERTEX
  8
0
 10
43.781472
 20
20.9310224
 30
0.0
  0
VERTEX
  8
0
 10
40.411527
 20
20.9310224
 30
0.0
  0
VERTEX
  8
0
 10
37.041582
 20
20.9310224
 30
0.0
  0
VERTEX
  8
0
 10
37.041582
 20
18.081244
 30
0.0
  0
VERTEX
  8
0
 10
36.936934
 20
17.8345846
 30
0.0
  0
VERTEX
  8
0
 10
36.691824
 20
17.729835
 30
0.0
  0
VERTEX
  8
0
 10
32.9683533333
 20
17.729835
 30
0.0
  0
VERTEX
  8
0
 10
29.2448826667
 20
17.729835
 30
0.0
  0
SEQEND
  8
0
  0
POLYLINE
  8
0
 62
0
 70
1
 66
1
 10
0.0
 20
0.0
 30
0.0
  0
VERTEX
  8
0
 10
40.451024
 20
9.811639
 30
0.0
  0
VERTEX
  8
0
 10
40.277288
 20
9.8888296
 30
0.0
  0
VERTEX
  8
0
 10
40.201596
 20
10.0610416
 30
0.0
  0
VERTEX
  8
0
 10
40.201596
 20
12.10056
 30
0.0
  0
VERTEX
  8
0
 10
40.277288
 20
12.275566
 30
0.0
  0
VERTEX
  8
0
 10
40.451024
 20
12.3499626
 30
0.0
  0
VERTEX
  8
0
 10
44.531026
 20
12.3499626
 30
0.0
  0
VERTEX
  8
0
 10
44.703746
 20
12.275566
 30
0.0
  0
VERTEX
  8
0
 10
44.780962
 20
12.10056
 30
0.0
  0
VERTEX
  8
0
 10
44.780962
 20
10.0610416
 30
0.0
  0
VERTEX
  8
0
 10
44.703746
 20
9.8888296
 30
0.0
  0
VERTEX
  8
0
 10
44.531026
 20
9.811639
 30
0.0
  0
SEQEND
  8
0
  0
POLYLINE
  8
0
 62
0
 70
1
 66
1
 10
0.0
 20
0.0
 30
0.0
  0
VERTEX
  8
0
 10
50.580798
 20
9.8020124
 30
0.0
  0
VERTEX
  8
0
 10
50.407316
 20
9.8791522
 30
0.0
  0
VERTEX
  8
0
 10
50.331624
 20
10.051415
 30
0.0
  0
VERTEX
  8
0
 10
50.331624
 20
12.0922796
 30
0.0
  0
VERTEX
  8
0
 10
50.407316
 20
12.265914
 30
0.0
  0
VERTEX
  8
0
 10
50.580798
 20
12.3417076
 30
0.0
  0
VERTEX
  8
0
 10
54.661054
 20
12.3417076
 30
0.0
  0
VERTEX
  8
0
 10
54.833774
 20
12.265914
 30
0.0
  0
VERTEX
  8
0
 10
54.910482
 20
12.0922796
 30
0.0
  0
VERTEX
  8
0
 10
54.910482
 20
10.051415
 30
0.0
  0
VERTEX
  8
0
 10
54.833774
 20
9.8791522
 30
0.0
  0
VERTEX
  8
0
 10
54.661054
 20
9.8020124
 30
0.0
  0
SEQEND
  8
0
  0
POLYLINE
  8
0
 62
0
 70
1
 66
1
 10
0.0
 20
0.0
 30
0.0
  0
VERTEX
  8
0
 10
60.741306
 20
9.8212656
 30
0.0
  0
VERTEX
  8
0
 10
60.567824
 20
9.8970846
 30
0.0
  0
VERTEX
  8
0
 10
60.491878
 20
10.0720906
 30
0.0
  0
VERTEX
  8
0
 10
60.491878
 20
12.1115582
 30
0.0
  0
VERTEX
  8
0
 10
60.567824
 20
12.2851926
 30
0.0
  0
VERTEX
  8
0
 10
60.741306
 20
12.3610116
 30
0.0
  0
VERTEX
  8
0
 10
64.821562
 20
12.3610116
 30
0.0
  0
VERTEX
  8
0
 10
64.993774
 20
12.2851926
 30
0.0
  0
VERTEX
  8
0
 10
65.07099
 20
12.1115582
 30
0.0
  0
VERTEX
  8
0
 10
65.07099
 20
10.0720906
 30
0.0
  0
VERTEX
  8
0
 10
64.993774
 20
9.8970846
 30
0.0
  0
VERTEX
  8
0
 10
64.821562
 20
9.8212656
 30
0.0
  0
SEQEND
  8
0
  0
POLYLINE
  8
0
 62
0
 70
1
 66
1
 10
0.0
 20
0.0
 30
0.0
  0
VERTEX
  8
0
 10
70.890384
 20
9.8020124
 30
0.0
  0
VERTEX
  8
0
 10
70.716902
 20
9.8791522
 30
0.0
  0
VERTEX
  8
0
 10
70.640956
 20
10.051415
 30
0.0
  0
VERTEX
  8
0
 10
70.640956
 20
12.0922796
 30
0.0
  0
VERTEX
  8
0
 10
70.716902
 20
12.265914
 30
0.0
  0
VERTEX
  8
0
 10
70.890384
 20
12.3417076
 30
0.0
  0
VERTEX
  8
0
 10
74.970894
 20
12.3417076
 30
0.0
  0
VERTEX
  8
0
 10
75.144376
 20
12.265914
 30
0.0
  0
VERTEX
  8
0
 10
75.221846
 20
12.0922796
 30
0.0
  0
VERTEX
  8
0
 10
75.221846
 20
10.051415
 30
0.0
  0
VERTEX
  8
0
 10
75.144376
 20
9.8791522
 30
0.0
  0
VERTEX
  8
0
 10
74.970894
 20
9.8020124
 30
0.0
  0
SEQEND
  8
0
  0
POLYLINE
  8
0
 62
0
 70
1
 66
1
 10
0.0
 20
0.0
 30
0.0
  0
VERTEX
  8
0
 10
78.69174
 20
9.8020124
 30
0.0
  0
VERTEX
  8
0
 10
78.516226
 20
9.8791522
 30
0.0
  0
VERTEX
  8
0
 10
78.440788
 20
10.051415
 30
0.0
  0
VERTEX
  8
0
 10
78.440788
 20
12.0922796
 30
0.0
  0
VERTEX
  8
0
 10
78.516226
 20
12.265914
 30
0.0
  0
VERTEX
  8
0
 10
78.69174
 20
12.3417076
 30
0.0
  0
VERTEX
  8
0
 10
82.770472
 20
12.3417076
 30
0.0
  0
VERTEX
  8
0
 10
82.943954
 20
12.265914
 30
0.0
  0
VERTEX
  8
0
 10
83.021424
 20
12.0922796
 30
0.0
  0
VERTEX
  8
0
 10
83.021424
 20
10.051415
 30
0.0
  0
VERTEX
  8
0
 10
82.943954
 20
9.8791522
 30
0.0
  0
VERTEX
  8
0
 10
82.770472
 20
9.8020124
 30
0.0
  0
SEQEND
  8
0
  0
POLYLINE
  8
0
 62
0
 70
1
 66
1
 10
0.0
 20
0.0
 30
0.0
  0
VERTEX
  8
0
 10
71.011796
 20
21.5222074
 30
0.0
  0
VERTEX
  8
0
 10
70.83679
 20
21.598001
 30
0.0
  0
VERTEX
  8
0
 10
70.760844
 20
21.77161
 30
0.0
  0
VERTEX
  8
0
 10
70.760844
 20
23.8111284
 30
0.0
  0
VERTEX
  8
0
 10
70.83679
 20
23.9861344
 30
0.0
  0
VERTEX
  8
0
 10
71.011796
 20
24.0619026
 30
0.0
  0
VERTEX
  8
0
 10
75.090528
 20
24.0619026
 30
0.0
  0
VERTEX
  8
0
 10
75.264518
 20
23.9861344
 30
0.0
  0
VERTEX
  8
0
 10
75.341226
 20
23.8111284
 30
0.0
  0
VERTEX
  8
0
 10
75.341226
 20
21.77161
 30
0.0
  0
VERTEX
  8
0
 10
75.264518
 20
21.598001
 30
0.0
  0
VERTEX
  8
0
 10
75.090528
 20
21.5222074
 30
0.0
  0
SEQEND
  8
0
  0
POLYLINE
  8
0
 62
0
 70
1
 66
1
 10
0.0
 20
0.0
 30
0.0
  0
VERTEX
  8
0
 10
77.481684
 20
49.652174
 30
0.0
  0
VERTEX
  8
0
 10
77.306678
 20
49.72939
 30
0.0
  0
VERTEX
  8
0
 10
77.230732
 20
49.901602
 30
0.0
  0
VERTEX
  8
0
 10
77.230732
 20
51.940968
 30
0.0
  0
VERTEX
  8
0
 10
77.306678
 20
52.115974
 30
0.0
  0
VERTEX
  8
0
 10
77.481684
 20
52.191666
 30
0.0
  0
VERTEX
  8
0
 10
81.560416
 20
52.191666
 30
0.0
  0
VERTEX
  8
0
 10
81.734406
 20
52.115974
 30
0.0
  0
VERTEX
  8
0
 10
81.811368
 20
51.940968
 30
0.0
  0
VERTEX
  8
0
 10
81.811368
 20
49.901602
 30
0.0
  0
VERTEX
  8
0
 10
81.734406
 20
49.72939
 30
0.0
  0
VERTEX
  8
0
 10
81.560416
 20
49.652174
 30
0.0
  0
SEQEND
  8
0
  0
POLYLINE
  8
0
 62
0
 70
1
 66
1
 10
0.0
 20
0.0
 30
0.0
  0
VERTEX
  8
0
 10
70.420484
 20
58.882026
 30
0.0
  0
VERTEX
  8
0
 10
70.343268
 20
58.708544
 30
0.0
  0
VERTEX
  8
0
 10
70.171056
 20
58.631328
 30
0.0
  0
VERTEX
  8
0
 10
68.13169
 20
58.631328
 30
0.0
  0
VERTEX
  8
0
 10
67.956684
 20
58.708544
 30
0.0
  0
VERTEX
  8
0
 10
67.880738
 20
58.882026
 30
0.0
  0
VERTEX
  8
0
 10
67.880738
 20
62.959996
 30
0.0
  0
VERTEX
  8
0
 10
67.956684
 20
63.134748
 30
0.0
  0
VERTEX
  8
0
 10
68.13169
 20
63.210694
 30
0.0
  0
VERTEX
  8
0
 10
70.171056
 20
63.210694
 30
0.0
  0
VERTEX
  8
0
 10
70.343268
 20
63.134748
 30
0.0
  0
VERTEX
  8
0
 10
70.420484
 20
62.959996
 30
0.0
  0
SEQEND
  8
0
  0
POLYLINE
  8
0
 62
0
 70
1
 66
1
 10
0.0
 20
0.0
 30
0.0
  0
VERTEX
  8
0
 10
92.531184
 20
34.209736
 30
0.0
  0
VERTEX
  8
0
 10
92.453968
 20
34.039048
 30
0.0
  0
VERTEX
  8
0
 10
92.281756
 20
33.961832
 30
0.0
  0
VERTEX
  8
0
 10
90.240866
 20
33.961832
 30
0.0
  0
VERTEX
  8
0
 10
90.067384
 20
34.039048
 30
0.0
  0
VERTEX
  8
0
 10
89.991438
 20
34.209736
 30
0.0
  0
VERTEX
  8
0
 10
89.991438
 20
38.291516
 30
0.0
  0
VERTEX
  8
0
 10
90.067384
 20
38.466522
 30
0.0
  0
VERTEX
  8
0
 10
90.240866
 20
38.542468
 30
0.0
  0
VERTEX
  8
0
 10
92.281756
 20
38.542468
 30
0.0
  0
VERTEX
  8
0
 10
92.453968
 20
38.466522
 30
0.0
  0
VERTEX
  8
0
 10
92.531184
 20
38.291516
 30
0.0
  0
SEQEND
  8
0
  0
POLYLINE
  8
0
 62
0
 70
1
 66
1
 10
0.0
 20
0.0
 30
0.0
  0
VERTEX
  8
0
 10
18.9907418
 20
12.31138
 30
0.0
  0
VERTEX
  8
0
 10
18.7440824
 20
12.4147326
 30
0.0
  0
VERTEX
  8
0
 10
18.6407044
 20
12.6600204
 30
0.0
  0
VERTEX
  8
0
 10
18.6407044
 20
16.3311332
 30
0.0
  0
VERTEX
  8
0
 10
18.7440824
 20
16.5777926
 30
0.0
  0
VERTEX
  8
0
 10
18.9907418
 20
16.6811706
 30
0.0
  0
VERTEX
  8
0
 10
23.52066035
 20
16.6811706
 30
0.0
  0
VERTEX
  8
0
 10
28.0505789
 20
16.6811706
 30
0.0
  0
VERTEX
  8
0
 10
32.58049745
 20
16.6811706
 30
0.0
  0
VERTEX
  8
0
 10
37.110416
 20
16.6811706
 30
0.0
  0
VERTEX
  8
0
 10
37.356034
 20
16.5777926
 30
0.0
  0
VERTEX
  8
0
 10
37.460682
 20
16.3311332
 30
0.0
  0
VERTEX
  8
0
 10
37.460682
 20
12.6600204
 30
0.0
  0
VERTEX
  8
0
 10
37.356034
 20
12.4147326
 30
0.0
  0
VERTEX
  8
0
 10
37.110416
 20
12.31138
 30
0.0
  0
VERTEX
  8
0
 10
32.58049745
 20
12.31138
 30
0.0
  0
VERTEX
  8
0
 10
28.0505789
 20
12.31138
 30
0.0
  0
VERTEX
  8
0
 10
23.52066035
 20
12.31138
 30
0.0
  0
SEQEND
  8
0
  0
POLYLINE
  8
0
 62
0
 70
1
 66
1
 10
0.0
 20
0.0
 30
0.0
  0
VERTEX
  8
0
 10
49.161446
 20
35.07105
 30
0.0
  0
VERTEX
  8
0
 10
48.130968
 20
35.2806
 30
0.0
  0
VERTEX
  8
0
 10
47.288704
 20
35.84956
 30
0.0
  0
VERTEX
  8
0
 10
46.719744
 20
36.691824
 30
0.0
  0
VERTEX
  8
0
 10
46.511718
 20
37.721032
 30
0.0
  0
VERTEX
  8
0
 10
46.511718
 20
40.531542
 30
0.0
  0
VERTEX
  8
0
 10
46.511718
 20
43.342052
 30
0.0
  0
VERTEX
  8
0
 10
46.719744
 20
44.372784
 30
0.0
  0
VERTEX
  8
0
 10
47.288704
 20
45.214794
 30
0.0
  0
VERTEX
  8
0
 10
48.130968
 20
45.783754
 30
0.0
  0
VERTEX
  8
0
 10
49.161446
 20
45.992034
 30
0.0
  0
VERTEX
  8
0
 10
51.971321
 20
45.992034
 30
0.0
  0
VERTEX
  8
0
 10
54.781196
 20
45.992034
 30
0.0
  0
VERTEX
  8
0
 10
55.810404
 20
45.783754
 30
0.0
  0
VERTEX
  8
0
 10
56.652668
 20
45.214794
 30
0.0
  0
VERTEX
  8
0
 10
57.221628
 20
44.372784
 30
0.0
  0
VERTEX
  8
0
 10
57.431178
 20
43.342052
 30
0.0
  0
VERTEX
  8
0
 10
57.431178
 20
40.531542
 30
0.0
  0
VERTEX
  8
0
 10
57.431178
 20
37.721032
 30
0.0
  0
VERTEX
  8
0
 10
57.221628
 20
36.691824
 30
0.0
  0
VERTEX
  8
0
 10
56.652668
 20
35.84956
 30
0.0
  0
VERTEX
  8
0
 10
55.810404
 20
35.2806
 30
0.0
  0
VERTEX
  8
0
 10
54.781196
 20
35.07105
 30
0.0
  0
VERTEX
  8
0
 10
51.971321
 20
35.07105
 30
0.0
  0
SEQEND
  8
0
  0
POLYLINE
  8
0
 62
0
 70
1
 66
1
 10
0.0
 20
0.0
 30
0.0
  0
VERTEX
  8
0
 10
60.84189
 20
35.780726
 30
0.0
  0
VERTEX
  8
0
 10
60.338716
 20
35.990276
 30
0.0
  0
VERTEX
  8
0
 10
60.13069
 20
36.491672
 30
0.0
  0
VERTEX
  8
0
 10
60.13069
 20
40.50665
 30
0.0
  0
VERTEX
  8
0
 10
60.13069
 20
44.521628
 30
0.0
  0
VERTEX
  8
0
 10
60.338716
 20
45.023278
 30
0.0
  0
VERTEX
  8
0
 10
60.84189
 20
45.231304
 30
0.0
  0
VERTEX
  8
0
 10
63.806578
 20
45.231304
 30
0.0
  0
VERTEX
  8
0
 10
66.771266
 20
45.231304
 30
0.0
  0
VERTEX
  8
0
 10
67.271646
 20
45.023278
 30
0.0
  0
VERTEX
  8
0
 10
67.481196
 20
44.521628
 30
0.0
  0
VERTEX
  8
0
 10
67.481196
 20
40.50665
 30
0.0
  0
VERTEX
  8
0
 10
67.481196
 20
36.491672
 30
0.0
  0
VERTEX
  8
0
 10
67.271646
 20
35.990276
 30
0.0
  0
VERTEX
  8
0
 10
66.771266
 20
35.780726
 30
0.0
  0
VERTEX
  8
0
 10
63.806578
 20
35.780726
 30
0.0
  0
SEQEND
  8
0
  0
POLYLINE
  8
0
 62
0
 70
1
 66
1
 10
0.0
 20
0.0
 30
0.0
  0
VERTEX
  8
0
 10
74.69124
 20
37.541962
 30
0.0
  0
VERTEX
  8
0
 10
74.18959
 20
37.751512
 30
0.0
  0
VERTEX
  8
0
 10
73.98131
 20
38.250368
 30
0.0
  0
VERTEX
  8
0
 10
73.98131
 20
41.866312
 30
0.0
  0
VERTEX
  8
0
 10
73.98131
 20
45.482256
 30
0.0
  0
VERTEX
  8
0
 10
74.18959
 20
45.983906
 30
0.0
  0
VERTEX
  8
0
 10
74.69124
 20
46.191932
 30
0.0
  0
VERTEX
  8
0
 10
77.791818
 20
46.191932
 30
0.0
  0
VERTEX
  8
0
 10
78.291944
 20
45.983906
 30
0.0
  0
VERTEX
  8
0
 10
78.50124
 20
45.482256
 30
0.0
  0
VERTEX
  8
0
 10
78.50124
 20
41.866312
 30
0.0
  0
VERTEX
  8
0
 10
78.50124
 20
38.250368
 30
0.0
  0
VERTEX
  8
0
 10
78.291944
 20
37.751512
 30
0.0
  0
VERTEX
  8
0
 10
77.791818
 20
37.541962
 30
0.0
  0
SEQEND
  8
0
  0
POLYLINE
  8
0
 62
0
 70
1
 66
1
 10
0.0
 20
0.0
 30
0.0
  0
VERTEX
  8
0
 10
76.751434
 20
26.902156
 30
0.0
  0
VERTEX
  8
0
 10
76.249784
 20
27.111452
 30
0.0
  0
VERTEX
  8
0
 10
76.041504
 20
27.611832
 30
0.0
  0
VERTEX
  8
0
 10
76.041504
 20
30.666944
 30
0.0
  0
VERTEX
  8
0
 10
76.041504
 20
33.722056
 30
0.0
  0
VERTEX
  8
0
 10
76.249784
 20
34.223452
 30
0.0
  0
VERTEX
  8
0
 10
76.751434
 20
34.430208
 30
0.0
  0
VERTEX
  8
0
 10
79.876015
 20
34.430208
 30
0.0
  0
VERTEX
  8
0
 10
83.000596
 20
34.430208
 30
0.0
  0
VERTEX
  8
0
 10
83.502246
 20
34.223452
 30
0.0
  0
VERTEX
  8
0
 10
83.711796
 20
33.722056
 30
0.0
  0
VERTEX
  8
0
 10
83.711796
 20
30.666944
 30
0.0
  0
VERTEX
  8
0
 10
83.711796
 20
27.611832
 30
0.0
  0
VERTEX
  8
0
 10
83.502246
 20
27.111452
 30
0.0
  0
VERTEX
  8
0
 10
83.000596
 20
26.902156
 30
0.0
  0
VERTEX
  8
0
 10
79.876015
 20
26.902156
 30
0.0
  0
SEQEND
  8
0
  0
POLYLINE
  8
0
 62
0
 70
1
 66
1
 10
0.0
 20
0.0
 30
0.0
  0
VERTEX
  8
0
 10
59.111134
 20
53.281834
 30
0.0
  0
VERTEX
  8
0
 10
58.864246
 20
53.386482
 30
0.0
  0
VERTEX
  8
0
 10
58.760868
 20
53.631846
 30
0.0
  0
VERTEX
  8
0
 10
58.760868
 20
57.351168
 30
0.0
  0
VERTEX
  8
0
 10
57.3913
 20
57.351168
 30
0.0
  0
VERTEX
  8
0
 10
56.88965
 20
57.560718
 30
0.0
  0
VERTEX
  8
0
 10
56.681624
 20
58.062368
 30
0.0
  0
VERTEX
  8
0
 10
56.681624
 20
62.201806
 30
0.0
  0
VERTEX
  8
0
 10
56.88965
 20
62.703456
 30
0.0
  0
VERTEX
  8
0
 10
57.3913
 20
62.911482
 30
0.0
  0
VERTEX
  8
0
 10
61.306202
 20
62.911482
 30
0.0
  0
VERTEX
  8
0
 10
65.221104
 20
62.911482
 30
0.0
  0
VERTEX
  8
0
 10
65.721484
 20
62.703456
 30
0.0
  0
VERTEX
  8
0
 10
65.931034
 20
62.201806
 30
0.0
  0
VERTEX
  8
0
 10
65.931034
 20
58.062368
 30
0.0
  0
VERTEX
  8
0
 10
65.721484
 20
57.560718
 30
0.0
  0
VERTEX
  8
0
 10
65.221104
 20
57.351168
 30
0.0
  0
VERTEX
  8
0
 10
62.69101
 20
57.351168
 30
0.0
  0
VERTEX
  8
0
 10
62.69101
 20
53.631846
 30
0.0
  0
VERTEX
  8
0
 10
62.586362
 20
53.386482
 30
0.0
  0
VERTEX
  8
0
 10
62.340998
 20
53.281834
 30
0.0
  0
SEQEND
  8
0
  0
POLYLINE
  8
0
 62
0
 70
1
 66
1
 10
0.0
 20
0.0
 30
0.0
  0
VERTEX
  8
0
 10
73.140824
 20
54.691534
 30
0.0
  0
VERTEX
  8
0
 10
72.967088
 20
54.76875
 30
0.0
  0
VERTEX
  8
0
 10
72.891396
 20
54.940962
 30
0.0
  0
VERTEX
  8
0
 10
72.891396
 20
56.9722
 30
0.0
  0
VERTEX
  8
0
 10
72.967088
 20
57.145682
 30
0.0
  0
VERTEX
  8
0
 10
73.140824
 20
57.221628
 30
0.0
  0
VERTEX
  8
0
 10
77.666215
 20
57.221628
 30
0.0
  0
VERTEX
  8
0
 10
82.191606
 20
57.221628
 30
0.0
  0
VERTEX
  8
0
 10
82.364072
 20
57.145682
 30
0.0
  0
VERTEX
  8
0
 10
82.441034
 20
56.9722
 30
0.0
  0
VERTEX
  8
0
 10
82.441034
 20
54.940962
 30
0.0
  0
VERTEX
  8
0
 10
82.364072
 20
54.76875
 30
0.0
  0
VERTEX
  8
0
 10
82.191606
 20
54.691534
 30
0.0
  0
VERTEX
  8
0
 10
77.666215
 20
54.691534
 30
0.0
  0
SEQEND
  8
0
  0
POLYLINE
  8
0
 62
0
 70
1
 66
1
 10
0.0
 20
0.0
 30
0.0
  0
VERTEX
  8
0
 10
13.5405876
 20
17.5520604
 30
0.0
  0
VERTEX
  8
0
 10
13.0458972
 20
17.6526952
 30
0.0
  0
VERTEX
  8
0
 10
12.643485
 20
17.924145
 30
0.0
  0
VERTEX
  8
0
 10
12.3706382
 20
18.3279034
 30
0.0
  0
VERTEX
  8
0
 10
12.2714512
 20
18.819876
 30
0.0
  0
VERTEX
  8
0
 10
12.2714512
 20
23.0518123333
 30
0.0
  0
VERTEX
  8
0
 10
12.2714512
 20
27.2837486667
 30
0.0
  0
VERTEX
  8
0
 10
12.2714512
 20
31.515685
 30
0.0
  0
VERTEX
  8
0
 10
12.2714512
 20
35.7476213333
 30
0.0
  0
VERTEX
  8
0
 10
12.2714512
 20
39.9795576667
 30
0.0
  0
VERTEX
  8
0
 10
12.2714512
 20
44.211494
 30
0.0
  0
VERTEX
  8
0
 10
12.3706382
 20
44.705016
 30
0.0
  0
VERTEX
  8
0
 10
12.643485
 20
45.110146
 30
0.0
  0
VERTEX
  8
0
 10
13.0458972
 20
45.383196
 30
0.0
  0
VERTEX
  8
0
 10
13.5405876
 20
45.482256
 30
0.0
  0
VERTEX
  8
0
 10
17.3508797
 20
45.482256
 30
0.0
  0
VERTEX
  8
0
 10
21.1611718
 20
45.482256
 30
0.0
  0
VERTEX
  8
0
 10
21.6544906
 20
45.383196
 30
0.0
  0
VERTEX
  8
0
 10
22.058249
 20
45.110146
 30
0.0
  0
VERTEX
  8
0
 10
22.3311212
 20
44.705016
 30
0.0
  0
VERTEX
  8
0
 10
22.4316798
 20
44.211494
 30
0.0
  0
VERTEX
  8
0
 10
22.4316798
 20
39.9795576667
 30
0.0
  0
VERTEX
  8
0
 10
22.4316798
 20
35.7476213333
 30
0.0
  0
VERTEX
  8
0
 10
22.4316798
 20
31.515685
 30
0.0
  0
VERTEX
  8
0
 10
22.4316798
 20
27.2837486667
 30
0.0
  0
VERTEX
  8
0
 10
22.4316798
 20
23.0518123333
 30
0.0
  0
VERTEX
  8
0
 10
22.4316798
 20
18.819876
 30
0.0
  0
VERTEX
  8
0
 10
22.3311212
 20
18.3279034
 30
0.0
  0
VERTEX
  8
0
 10
22.058249
 20
17.924145
 30
0.0
  0
VERTEX
  8
0
 10
21.6544906
 20
17.6526952
 30
0.0
  0
VERTEX
  8
0
 10
21.1611718
 20
17.5520604
 30
0.0
  0
VERTEX
  8
0
 10
17.3508797
 20
17.5520604
 30
0.0
  0
SEQEND
  8
0
  0
POLYLINE
  8
0
 62
0
 70
1
 66
1
 10
0.0
 20
0.0
 30
0.0
  0
VERTEX
  8
0
 10
1.901698
 20
52.412138
 30
0.0
  0
VERTEX
  8
0
 10
1.6550132
 20
52.51704
 30
0.0
  0
VERTEX
  8
0
 10
1.5516606
 20
52.762404
 30
0.0
  0
VERTEX
  8
0
 10
1.5516606
 20
56.521604
 30
0.0
  0
VERTEX
  8
0
 10
1.6550132
 20
56.768238
 30
0.0
  0
VERTEX
  8
0
 10
1.901698
 20
56.871616
 30
0.0
  0
VERTEX
  8
0
 10
5.7716928
 20
56.871616
 30
0.0
  0
VERTEX
  8
0
 10
9.6416876
 20
56.871616
 30
0.0
  0
VERTEX
  8
0
 10
13.5116824
 20
56.871616
 30
0.0
  0
VERTEX
  8
0
 10
13.7569702
 20
56.768238
 30
0.0
  0
VERTEX
  8
0
 10
13.8616944
 20
56.521604
 30
0.0
  0
VERTEX
  8
0
 10
13.8616944
 20
54.140354
 30
0.0
  0
VERTEX
  8
0
 10
13.871321
 20
54.061868
 30
0.0
  0
VERTEX
  8
0
 10
13.871321
 20
50.701448
 30
0.0
  0
VERTEX
  8
0
 10
13.871321
 20
47.341028
 30
0.0
  0
VERTEX
  8
0
 10
13.7665968
 20
47.095918
 30
0.0
  0
VERTEX
  8
0
 10
13.521309
 20
46.991016
 30
0.0
  0
VERTEX
  8
0
 10
10.5364915
 20
46.991016
 30
0.0
  0
VERTEX
  8
0
 10
7.551674
 20
46.991016
 30
0.0
  0
VERTEX
  8
0
 10
7.3049638
 20
47.095918
 30
0.0
  0
VERTEX
  8
0
 10
7.2016366
 20
47.341028
 30
0.0
  0
VERTEX
  8
0
 10
7.2016366
 20
49.876583
 30
0.0
  0
VERTEX
  8
0
 10
7.2016366
 20
52.412138
 30
0.0
  0
VERTEX
  8
0
 10
4.5516673
 20
52.412138
 30
0.0
  0
SEQEND
  8
0
  0
POLYLINE
  8
0
 62
0
 70
1
 66
1
 10
0.0
 20
0.0
 30
0.0
  0
VERTEX
  8
0
 10
15.9714438
 20
46.302168
 30
0.0
  0
VERTEX
  8
0
 10
15.7247844
 20
46.406816
 30
0.0
  0
VERTEX
  8
0
 10
15.6214572
 20
46.651926
 30
0.0
  0
VERTEX
  8
0
 10
15.6214572
 20
50.341022
 30
0.0
  0
VERTEX
  8
0
 10
15.7247844
 20
50.587656
 30
0.0
  0
VERTEX
  8
0
 10
15.9714438
 20
50.691034
 30
0.0
  0
VERTEX
  8
0
 10
18.8115956
 20
50.691034
 30
0.0
  0
VERTEX
  8
0
 10
21.6517474
 20
50.691034
 30
0.0
  0
VERTEX
  8
0
 10
21.8970352
 20
50.587656
 30
0.0
  0
VERTEX
  8
0
 10
22.0017594
 20
50.341022
 30
0.0
  0
VERTEX
  8
0
 10
22.0017594
 20
46.651926
 30
0.0
  0
VERTEX
  8
0
 10
21.8970352
 20
46.406816
 30
0.0
  0
VERTEX
  8
0
 10
21.6517474
 20
46.302168
 30
0.0
  0
VERTEX
  8
0
 10
18.8115956
 20
46.302168
 30
0.0
  0
SEQEND
  8
0
  0
POLYLINE
  8
0
 62
0
 70
1
 66
1
 10
0.0
 20
0.0
 30
0.0
  0
VERTEX
  8
0
 10
3.9508176
 20
19.6921628
 30
0.0
  0
VERTEX
  8
0
 10
3.0606238
 20
19.9319388
 30
0.0
  0
VERTEX
  8
0
 10
2.4115776
 20
20.580985
 30
0.0
  0
VERTEX
  8
0
 10
2.1717762
 20
21.4712296
 30
0.0
  0
VERTEX
  8
0
 10
2.4115776
 20
22.3614234
 30
0.0
  0
VERTEX
  8
0
 10
3.0606238
 20
23.0118666
 30
0.0
  0
VERTEX
  8
0
 10
3.9508176
 20
23.2516426
 30
0.0
  0
VERTEX
  8
0
 10
4.8410622
 20
23.0118666
 30
0.0
  0
VERTEX
  8
0
 10
5.49148
 20
22.3614234
 30
0.0
  0
VERTEX
  8
0
 10
5.731256
 20
21.4712296
 30
0.0
  0
VERTEX
  8
0
 10
5.49148
 20
20.580985
 30
0.0
  0
VERTEX
  8
0
 10
4.8410622
 20
19.9319388
 30
0.0
  0
SEQEND
  8
0
  0
POLYLINE
  8
0
 62
0
 70
1
 66
1
 10
0.0
 20
0.0
 30
0.0
  0
VERTEX
  8
0
 10
99.971098
 20
19.6921628
 30
0.0
  0
VERTEX
  8
0
 10
99.080828
 20
19.9319388
 30
0.0
  0
VERTEX
  8
0
 10
98.430588
 20
20.580985
 30
0.0
  0
VERTEX
  8
0
 10
98.190812
 20
21.4712296
 30
0.0
  0
VERTEX
  8
0
 10
98.430588
 20
22.3614234
 30
0.0
  0
VERTEX
  8
0
 10
99.080828
 20
23.0118666
 30
0.0
  0
VERTEX
  8
0
 10
99.971098
 20
23.2516426
 30
0.0
  0
VERTEX
  8
0
 10
100.861368
 20
23.0118666
 30
0.0
  0
VERTEX
  8
0
 10
101.510338
 20
22.3614234
 30
0.0
  0
VERTEX
  8
0
 10
101.751638
 20
21.4712296
 30
0.0
  0
VERTEX
  8
0
 10
101.510338
 20
20.580985
 30
0.0
  0
VERTEX
  8
0
 10
100.861368
 20
19.9319388
 30
0.0
  0
SEQEND
  8
0
  0
POLYLINE
  8
0
 62
0
 70
1
 66
1
 10
0.0
 20
0.0
 30
0.0
  0
VERTEX
  8
0
 10
3.9508176
 20
71.691246
 30
0.0
  0
VERTEX
  8
0
 10
3.0606238
 20
71.932038
 30
0.0
  0
VERTEX
  8
0
 10
2.4115776
 20
72.581262
 30
0.0
  0
VERTEX
  8
0
 10
2.1717762
 20
73.470262
 30
0.0
  0
VERTEX
  8
0
 10
2.4115776
 20
74.361802
 30
0.0
  0
VERTEX
  8
0
 10
3.0606238
 20
75.012296
 30
0.0
  0
VERTEX
  8
0
 10
3.9508176
 20
75.252072
 30
0.0
  0
VERTEX
  8
0
 10
4.8410622
 20
75.012296
 30
0.0
  0
VERTEX
  8
0
 10
5.49148
 20
74.361802
 30
0.0
  0
VERTEX
  8
0
 10
5.731256
 20
73.470262
 30
0.0
  0
VERTEX
  8
0
 10
5.49148
 20
72.581262
 30
0.0
  0
VERTEX
  8
0
 10
4.8410622
 20
71.932038
 30
0.0
  0
SEQEND
  8
0
  0
POLYLINE
  8
0
 62
0
 70
1
 66
1
 10
0.0
 20
0.0
 30
0.0
  0
VERTEX
  8
0
 10
99.971098
 20
71.691246
 30
0.0
  0
VERTEX
  8
0
 10
99.080828
 20
71.932038
 30
0.0
  0
VERTEX
  8
0
 10
98.430588
 20
72.581262
 30
0.0
  0
VERTEX
  8
0
 10
98.190812
 20
73.470262
 30
0.0
  0
VERTEX
  8
0
 10
98.430588
 20
74.361802
 30
0.0
  0
VERTEX
  8
0
 10
99.080828
 20
75.012296
 30
0.0
  0
VERTEX
  8
0
 10
99.971098
 20
75.252072
 30
0.0
  0
VERTEX
  8
0
 10
100.861368
 20
75.012296
 30
0.0
  0
VERTEX
  8
0
 10
101.510338
 20
74.361802
 30
0.0
  0
VERTEX
  8
0
 10
101.751638
 20
73.470262
 30
0.0
  0
VERTEX
  8
0
 10
101.510338
 20
72.581262
 30
0.0
  0
VERTEX
  8
0
 10
100.861368
 20
71.932038
 30
0.0
  0
SEQEND
  8
0
  0
POLYLINE
  8
0
 62
0
 70
1
 66
1
 10
0.0
 20
0.0
 30
0.0
  0
VERTEX
  8
0
 10
86.761574
 20
42.130726
 30
0.0
  0
VERTEX
  8
0
 10
91.011375
 20
42.130726
 30
0.0
  0
VERTEX
  8
0
 10
95.261176
 20
42.130726
 30
0.0
  0
VERTEX
  8
0
 10
99.510977
 20
42.130726
 30
0.0
  0
VERTEX
  8
0
 10
103.760778
 20
42.130726
 30
0.0
  0
VERTEX
  8
0
 10
103.760778
 20
37.74278456
 30
0.0
  0
VERTEX
  8
0
 10
103.760778
 20
33.35484312
 30
0.0
  0
VERTEX
  8
0
 10
103.760778
 20
28.96690168
 30
0.0
  0
VERTEX
  8
0
 10
103.760778
 20
24.57896024
 30
0.0
  0
VERTEX
  8
0
 10
103.760778
 20
20.1910188
 30
0.0
  0
VERTEX
  8
0
 10
103.521002
 20
18.2879238
 30
0.0
  0
VERTEX
  8
0
 10
102.7811
 20
16.5102794
 30
0.0
  0
VERTEX
  8
0
 10
101.619304
 20
14.9834346
 30
0.0
  0
VERTEX
  8
0
 10
100.09124
 20
13.8203432
 30
0.0
  0
VERTEX
  8
0
 10
98.315018
 20
13.0817112
 30
0.0
  0
VERTEX
  8
0
 10
96.411796
 20
12.8419352
 30
0.0
  0
VERTEX
  8
0
 10
95.026734
 20
12.6696978
 30
0.0
  0
VERTEX
  8
0
 10
93.74124
 20
12.1212356
 30
0.0
  0
VERTEX
  8
0
 10
92.622116
 20
11.2806226
 30
0.0
  0
VERTEX
  8
0
 10
91.781376
 20
10.1602794
 30
0.0
  0
VERTEX
  8
0
 10
91.23299
 20
8.8759538
 30
0.0
  0
VERTEX
  8
0
 10
91.060778
 20
7.4910188
 30
0.0
  0
VERTEX
  8
0
 10
90.821002
 20
5.5879238
 30
0.0
  0
VERTEX
  8
0
 10
90.0811
 20
3.8102794
 30
0.0
  0
VERTEX
  8
0
 10
88.919304
 20
2.2834092
 30
0.0
  0
VERTEX
  8
0
 10
87.39124
 20
1.1203432
 30
0.0
  0
VERTEX
  8
0
 10
85.615018
 20
0.3817112
 30
0.0
  0
VERTEX
  8
0
 10
83.711796
 20
0.1419352
 30
0.0
  0
VERTEX
  8
0
 10
83.711796
 20
0.1502156
 30
0.0
  0
VERTEX
  8
0
 10
78.8207212
 20
0.1502156
 30
0.0
  0
VERTEX
  8
0
 10
73.9296464
 20
0.1502156
 30
0.0
  0
VERTEX
  8
0
 10
69.0385716
 20
0.1502156
 30
0.0
  0
VERTEX
  8
0
 10
64.1474968
 20
0.1502156
 30
0.0
  0
VERTEX
  8
0
 10
59.256422
 20
0.1502156
 30
0.0
  0
VERTEX
  8
0
 10
54.3653472
 20
0.1502156
 30
0.0
  0
VERTEX
  8
0
 10
49.4742724
 20
0.1502156
 30
0.0
  0
VERTEX
  8
0
 10
44.5831976
 20
0.1502156
 30
0.0
  0
VERTEX
  8
0
 10
39.6921228
 20
0.1502156
 30
0.0
  0
VERTEX
  8
0
 10
34.801048
 20
0.1502156
 30
0.0
  0
VERTEX
  8
0
 10
34.801048
 20
3.6407852
 30
0.0
  0
VERTEX
  8
0
 10
34.801048
 20
7.1313548
 30
0.0
  0
VERTEX
  8
0
 10
34.801048
 20
10.6219244
 30
0.0
  0
VERTEX
  8
0
 10
34.591498
 20
11.123549
 30
0.0
  0
VERTEX
  8
0
 10
34.091372
 20
11.3316004
 30
0.0
  0
VERTEX
  8
0
 10
29.7739562
 20
11.3316004
 30
0.0
  0
VERTEX
  8
0
 10
25.4565404
 20
11.3316004
 30
0.0
  0
VERTEX
  8
0
 10
21.1391246
 20
11.3316004
 30
0.0
  0
VERTEX
  8
0
 10
16.8217088
 20
11.3316004
 30
0.0
  0
VERTEX
  8
0
 10
16.3187126
 20
11.123549
 30
0.0
  0
VERTEX
  8
0
 10
16.1106612
 20
10.6219244
 30
0.0
  0
VERTEX
  8
0
 10
16.1106612
 20
6.0109989
 30
0.0
  0
VERTEX
  8
0
 10
16.1106612
 20
1.4000734
 30
0.0
  0
VERTEX
  8
0
 10
14.8455888
 20
2.4652986
 30
0.0
  0
VERTEX
  8
0
 10
13.8506454
 20
3.8212776
 30
0.0
  0
VERTEX
  8
0
 10
13.1092956
 20
5.5976012
 30
0.0
  0
VERTEX
  8
0
 10
12.8708912
 20
7.5006454
 30
0.0
  0
VERTEX
  8
0
 10
12.6986284
 20
8.8855804
 30
0.0
  0
VERTEX
  8
0
 10
12.1515378
 20
10.1712776
 30
0.0
  0
VERTEX
  8
0
 10
11.3109502
 20
11.2902746
 30
0.0
  0
VERTEX
  8
0
 10
10.2016306
 20
12.1308622
 30
0.0
  0
VERTEX
  8
0
 10
8.906256
 20
12.6779528
 30
0.0
  0
VERTEX
  8
0
 10
7.521321
 20
12.8502156
 30
0.0
  0
VERTEX
  8
0
 10
5.6182768
 20
13.0899916
 30
0.0
  0
VERTEX
  8
0
 10
3.8516306
 20
13.8313668
 30
0.0
  0
VERTEX
  8
0
 10
2.3123398
 20
14.9930612
 30
0.0
  0
VERTEX
  8
0
 10
1.1506708
 20
16.5212776
 30
0.0
  0
VERTEX
  8
0
 10
0.4092702
 20
18.2976012
 30
0.0
  0
VERTEX
  8
0
 10
0.1708658
 20
20.2006454
 30
0.0
  0
VERTEX
  8
0
 10
0.1405636
 20
20.1910188
 30
0.0
  0
VERTEX
  8
0
 10
0.1405636
 20
25.0402205455
 30
0.0
  0
VERTEX
  8
0
 10
0.1405636
 20
29.8894222909
 30
0.0
  0
VERTEX
  8
0
 10
0.1405636
 20
34.7386240364
 30
0.0
  0
VERTEX
  8
0
 10
0.1405636
 20
39.5878257818
 30
0.0
  0
VERTEX
  8
0
 10
0.1405636
 20
44.4370275273
 30
0.0
  0
VERTEX
  8
0
 10
0.1405636
 20
49.2862292727
 30
0.0
  0
VERTEX
  8
0
 10
0.1405636
 20
54.1354310182
 30
0.0
  0
VERTEX
  8
0
 10
0.1405636
 20
58.9846327636
 30
0.0
  0
VERTEX
  8
0
 10
0.1405636
 20
63.8338345091
 30
0.0
  0
VERTEX
  8
0
 10
0.1405636
 20
68.6830362545
 30
0.0
  0
VERTEX
  8
0
 10
0.1405636
 20
73.532238
 30
0.0
  0
VERTEX
  8
0
 10
0.1708658
 20
73.532238
 30
0.0
  0
VERTEX
  8
0
 10
0.4106672
 20
75.439524
 30
0.0
  0
VERTEX
  8
0
 10
1.1616944
 20
77.211428
 30
0.0
  0
VERTEX
  8
0
 10
2.3137368
 20
78.74381
 30
0.0
  0
VERTEX
  8
0
 10
3.8516306
 20
79.901288
 30
0.0
  0
VERTEX
  8
0
 10
5.6196484
 20
80.652366
 30
0.0
  0
VERTEX
  8
0
 10
7.5309984
 20
80.892396
 30
0.0
  0
VERTEX
  8
0
 10
9.432671
 20
80.652366
 30
0.0
  0
VERTEX
  8
0
 10
11.2006888
 20
79.901288
 30
0.0
  0
VERTEX
  8
0
 10
12.737211
 20
78.74381
 30
0.0
  0
VERTEX
  8
0
 10
13.890625
 20
77.211428
 30
0.0
  0
VERTEX
  8
0
 10
14.6402806
 20
75.439524
 30
0.0
  0
VERTEX
  8
0
 10
14.8814282
 20
73.532238
 30
0.0
  0
VERTEX
  8
0
 10
15.0523194
 20
72.1487
 30
0.0
  0
VERTEX
  8
0
 10
15.6007816
 20
70.861428
 30
0.0
  0
VERTEX
  8
0
 10
16.4399976
 20
69.75221
 30
0.0
  0
VERTEX
  8
0
 10
17.5506888
 20
68.911724
 30
0.0
  0
VERTEX
  8
0
 10
18.836386
 20
68.364354
 30
0.0
  0
VERTEX
  8
0
 10
20.221321
 20
68.192396
 30
0.0
  0
VERTEX
  8
0
 10
22.7307394
 20
68.192396
 30
0.0
  0
VERTEX
  8
0
 10
22.6859592
 20
63.402337
 30
0.0
  0
VERTEX
  8
0
 10
22.641179
 20
58.612278
 30
0.0
  0
VERTEX
  8
0
 10
19.6563361
 20
58.612278
 30
0.0
  0
VERTEX
  8
0
 10
16.6714932
 20
58.612278
 30
0.0
  0
VERTEX
  8
0
 10
16.6714932
 20
55.35168
 30
0.0
  0
VERTEX
  8
0
 10
16.6714932
 20
52.091082
 30
0.0
  0
VERTEX
  8
0
 10
19.6459983
 20
52.086383
 30
0.0
  0
VERTEX
  8
0
 10
22.6205034
 20
52.081684
 30
0.0
  0
VERTEX
  8
0
 10
22.641179
 20
48.760634
 30
0.0
  0
VERTEX
  8
0
 10
26.3460865
 20
45.960411
 30
0.0
  0
VERTEX
  8
0
 10
30.050994
 20
43.160188
 30
0.0
  0
VERTEX
  8
0
 10
33.9177206667
 20
43.160188
 30
0.0
  0
VERTEX
  8
0
 10
37.7844473333
 20
43.160188
 30
0.0
  0
VERTEX
  8
0
 10
41.651174
 20
43.160188
 30
0.0
  0
VERTEX
  8
0
 10
45.340778
 20
46.065694
 30
0.0
  0
VERTEX
  8
0
 10
49.030382
 20
48.9712
 30
0.0
  0
VERTEX
  8
0
 10
49.030382
 20
52.071778
 30
0.0
  0
VERTEX
  8
0
 10
52.020978
 20
52.071778
 30
0.0
  0
VERTEX
  8
0
 10
55.011574
 20
52.071778
 30
0.0
  0
VERTEX
  8
0
 10
55.011574
 20
55.331614
 30
0.0
  0
VERTEX
  8
0
 10
55.011574
 20
58.59145
 30
0.0
  0
VERTEX
  8
0
 10
52.031392
 20
58.59145
 30
0.0
  0
VERTEX
  8
0
 10
49.05121
 20
58.59145
 30
0.0
  0
VERTEX
  8
0
 10
49.05121
 20
63.391923
 30
0.0
  0
VERTEX
  8
0
 10
49.05121
 20
68.192396
 30
0.0
  0
VERTEX
  8
0
 10
54.0027222857
 20
68.192396
 30
0.0
  0
VERTEX
  8
0
 10
58.9542345714
 20
68.192396
 30
0.0
  0
VERTEX
  8
0
 10
63.9057468571
 20
68.192396
 30
0.0
  0
VERTEX
  8
0
 10
68.8572591429
 20
68.192396
 30
0.0
  0
VERTEX
  8
0
 10
73.8087714286
 20
68.192396
 30
0.0
  0
VERTEX
  8
0
 10
78.7602837143
 20
68.192396
 30
0.0
  0
VERTEX
  8
0
 10
83.711796
 20
68.192396
 30
0.0
  0
VERTEX
  8
0
 10
85.09381
 20
68.364354
 30
0.0
  0
VERTEX
  8
0
 10
86.380828
 20
68.911724
 30
0.0
  0
VERTEX
  8
0
 10
87.4903
 20
69.75221
 30
0.0
  0
VERTEX
  8
0
 10
88.33104
 20
70.861428
 30
0.0
  0
VERTEX
  8
0
 10
88.878156
 20
72.1487
 30
0.0
  0
VERTEX
  8
0
 10
89.051638
 20
73.532238
 30
0.0
  0
VERTEX
  8
0
 10
89.29116
 20
75.439524
 30
0.0
  0
VERTEX
  8
0
 10
90.040968
 20
77.211428
 30
0.0
  0
VERTEX
  8
0
 10
91.194382
 20
78.74381
 30
0.0
  0
VERTEX
  8
0
 10
92.730828
 20
79.901288
 30
0.0
  0
VERTEX
  8
0
 10
94.498922
 20
80.652366
 30
0.0
  0
VERTEX
  8
0
 10
96.411796
 20
80.892396
 30
0.0
  0
VERTEX
  8
0
 10
98.313494
 20
80.652366
 30
0.0
  0
VERTEX
  8
0
 10
100.081334
 20
79.901288
 30
0.0
  0
VERTEX
  8
0
 10
101.61651
 20
78.74381
 30
0.0
  0
VERTEX
  8
0
 10
102.771194
 20
77.211428
 30
0.0
  0
VERTEX
  8
0
 10
103.519478
 20
75.439524
 30
0.0
  0
VERTEX
  8
0
 10
103.760778
 20
73.532238
 30
0.0
  0
VERTEX
  8
0
 10
103.760778
 20
68.728844
 30
0.0
  0
VERTEX
  8
0
 10
103.760778
 20
63.92545
 30
0.0
  0
VERTEX
  8
0
 10
103.760778
 20
59.122056
 30
0.0
  0
VERTEX
  8
0
 10
99.510977
 20
59.122056
 30
0.0
  0
VERTEX
  8
0
 10
95.261176
 20
59.122056
 30
0.0
  0
VERTEX
  8
0
 10
91.011375
 20
59.122056
 30
0.0
  0
VERTEX
  8
0
 10
86.761574
 20
59.122056
 30
0.0
  0
VERTEX
  8
0
 10
86.259924
 20
58.913776
 30
0.0
  0
VERTEX
  8
0
 10
86.051644
 20
58.412126
 30
0.0
  0
VERTEX
  8
0
 10
86.051644
 20
54.5195125
 30
0.0
  0
VERTEX
  8
0
 10
86.051644
 20
50.626899
 30
0.0
  0
VERTEX
  8
0
 10
86.051644
 20
46.7342855
 30
0.0
  0
VERTEX
  8
0
 10
86.051644
 20
42.841672
 30
0.0
  0
VERTEX
  8
0
 10
86.259924
 20
42.340276
 30
0.0
  0
SEQEND
  8
0
  0
ENDBLK
  0
ENDSEC
  0
SECTION
  2
ENTITIES
  0
INSERT
  2
SCALE
  8
0
 10
0.0
 20
0.0
 30
0.0
  0
ENDSEC
  0
EOF
