  0
SECTION
  2
HEADER
  9
$ACADVER
  1
AC1009
  9
$INSBASE
 10
0.0
 20
0.0
 30
0.0
  9
$EXTMIN
 10
0.0
 20
0.0
 30
0.0
  9
$EXTMAX
 10
0.0
 20
0.0
 30
0.0
  0
ENDSEC
  0
SECTION
  2
TABLES
  0
TABLE
  2
VPORT
 70
0
  0
ENDTAB
  0
TABLE
  2
LTYPE
 70
1
  0
LTYPE
  2
CONTINUOUS
 70
0
  3
Solid line
 72
65
 73
0
 40
0.0
  0
ENDTAB
  0
TABLE
  2
LAYER
 70
1
  0
LAYER
  2
0
 70
64
 62
7
  6
continuous
  0
ENDTAB
  0
TABLE
  2
STYLE
 70
1
  0
STYLE
  2
STANDARD
 70
0
 40
0
 41
1.0
 50
0.0
 71
0
 42
1
 3
ARIAL.TTF
 4

  0
ENDTAB
  0
TABLE
  2
VIEW
 70
0
  0
ENDTAB
  0
ENDSEC
  0
SECTION
  2
BLOCKS
  0
BLOCK
  8
0
  2
SCALE
 70
0
 10
0.0
 20
0.0
 30
0.0
  3
SCALE
  0
POLYLINE
  8
0
 62
0
 70
1
 66
1
 10
0.0
 20
0.0
 30
0.0
  0
VERTEX
  8
0
 10
90.600276
 20
15.6517594
 30
0.0
  0
VERTEX
  8
0
 10
91.587066
 20
15.8515812
 30
0.0
  0
VERTEX
  8
0
 10
92.396056
 20
16.3972748
 30
0.0
  0
VERTEX
  8
0
 10
92.940378
 20
17.20342
 30
0.0
  0
VERTEX
  8
0
 10
93.141546
 20
18.19148
 30
0.0
  0
VERTEX
  8
0
 10
93.141546
 20
22.5947816667
 30
0.0
  0
VERTEX
  8
0
 10
93.141546
 20
26.9980833333
 30
0.0
  0
VERTEX
  8
0
 10
93.141546
 20
31.401385
 30
0.0
  0
VERTEX
  8
0
 10
93.141546
 20
35.8046866667
 30
0.0
  0
VERTEX
  8
0
 10
93.141546
 20
40.2079883333
 30
0.0
  0
VERTEX
  8
0
 10
93.141546
 20
44.61129
 30
0.0
  0
VERTEX
  8
0
 10
92.940378
 20
45.59935
 30
0.0
  0
VERTEX
  8
0
 10
92.396056
 20
46.406816
 30
0.0
  0
VERTEX
  8
0
 10
91.587066
 20
46.952662
 30
0.0
  0
VERTEX
  8
0
 10
90.600276
 20
47.152306
 30
0.0
  0
VERTEX
  8
0
 10
89.03081
 20
47.152306
 30
0.0
  0
VERTEX
  8
0
 10
89.03081
 20
51.087274
 30
0.0
  0
VERTEX
  8
0
 10
89.03081
 20
55.022242
 30
0.0
  0
VERTEX
  8
0
 10
89.03081
 20
58.95721
 30
0.0
  0
VERTEX
  8
0
 10
89.03081
 20
62.892178
 30
0.0
  0
VERTEX
  8
0
 10
88.829896
 20
63.880238
 30
0.0
  0
VERTEX
  8
0
 10
88.285574
 20
64.687704
 30
0.0
  0
VERTEX
  8
0
 10
87.477854
 20
65.232026
 30
0.0
  0
VERTEX
  8
0
 10
86.491318
 20
65.432178
 30
0.0
  0
VERTEX
  8
0
 10
81.5555700429
 20
65.432178
 30
0.0
  0
VERTEX
  8
0
 10
76.6198220857
 20
65.432178
 30
0.0
  0
VERTEX
  8
0
 10
71.6840741286
 20
65.432178
 30
0.0
  0
VERTEX
  8
0
 10
66.7483261714
 20
65.432178
 30
0.0
  0
VERTEX
  8
0
 10
61.8125782143
 20
65.432178
 30
0.0
  0
VERTEX
  8
0
 10
56.8768302571
 20
65.432178
 30
0.0
  0
VERTEX
  8
0
 10
51.9410823
 20
65.432178
 30
0.0
  0
VERTEX
  8
0
 10
47.0053343429
 20
65.432178
 30
0.0
  0
VERTEX
  8
0
 10
42.0695863857
 20
65.432178
 30
0.0
  0
VERTEX
  8
0
 10
37.1338384286
 20
65.432178
 30
0.0
  0
VERTEX
  8
0
 10
32.1980904714
 20
65.432178
 30
0.0
  0
VERTEX
  8
0
 10
27.2623425143
 20
65.432178
 30
0.0
  0
VERTEX
  8
0
 10
22.3265945571
 20
65.432178
 30
0.0
  0
VERTEX
  8
0
 10
17.3908466
 20
65.432178
 30
0.0
  0
VERTEX
  8
0
 10
16.4027866
 20
65.232026
 30
0.0
  0
VERTEX
  8
0
 10
15.5952444
 20
64.687704
 30
0.0
  0
VERTEX
  8
0
 10
15.0509478
 20
63.880238
 30
0.0
  0
VERTEX
  8
0
 10
14.851126
 20
62.892178
 30
0.0
  0
VERTEX
  8
0
 10
14.851126
 20
57.9254337778
 30
0.0
  0
VERTEX
  8
0
 10
14.851126
 20
52.9586895556
 30
0.0
  0
VERTEX
  8
0
 10
14.851126
 20
47.9919453333
 30
0.0
  0
VERTEX
  8
0
 10
14.851126
 20
43.0252011111
 30
0.0
  0
VERTEX
  8
0
 10
14.851126
 20
38.0584568889
 30
0.0
  0
VERTEX
  8
0
 10
14.851126
 20
33.0917126667
 30
0.0
  0
VERTEX
  8
0
 10
14.851126
 20
28.1249684444
 30
0.0
  0
VERTEX
  8
0
 10
14.851126
 20
23.1582242222
 30
0.0
  0
VERTEX
  8
0
 10
14.851126
 20
18.19148
 30
0.0
  0
VERTEX
  8
0
 10
15.0509478
 20
17.20342
 30
0.0
  0
VERTEX
  8
0
 10
15.5952444
 20
16.3972748
 30
0.0
  0
VERTEX
  8
0
 10
16.4027866
 20
15.8515812
 30
0.0
  0
VERTEX
  8
0
 10
17.3908466
 20
15.6517594
 30
0.0
  0
VERTEX
  8
0
 10
22.2714752267
 20
15.6517594
 30
0.0
  0
VERTEX
  8
0
 10
27.1521038533
 20
15.6517594
 30
0.0
  0
VERTEX
  8
0
 10
32.03273248
 20
15.6517594
 30
0.0
  0
VERTEX
  8
0
 10
36.9133611067
 20
15.6517594
 30
0.0
  0
VERTEX
  8
0
 10
41.7939897333
 20
15.6517594
 30
0.0
  0
VERTEX
  8
0
 10
46.67461836
 20
15.6517594
 30
0.0
  0
VERTEX
  8
0
 10
51.5552469867
 20
15.6517594
 30
0.0
  0
VERTEX
  8
0
 10
56.4358756133
 20
15.6517594
 30
0.0
  0
VERTEX
  8
0
 10
61.31650424
 20
15.6517594
 30
0.0
  0
VERTEX
  8
0
 10
66.1971328667
 20
15.6517594
 30
0.0
  0
VERTEX
  8
0
 10
71.0777614933
 20
15.6517594
 30
0.0
  0
VERTEX
  8
0
 10
75.95839012
 20
15.6517594
 30
0.0
  0
VERTEX
  8
0
 10
80.8390187467
 20
15.6517594
 30
0.0
  0
VERTEX
  8
0
 10
85.7196473733
 20
15.6517594
 30
0.0
  0
SEQEND
  8
0
  0
POLYLINE
  8
0
 62
0
 70
1
 66
1
 10
0.0
 20
0.0
 30
0.0
  0
VERTEX
  8
0
 10
90.600276
 20
15.6517594
 30
0.0
  0
VERTEX
  8
0
 10
91.587066
 20
15.8515812
 30
0.0
  0
VERTEX
  8
0
 10
92.396056
 20
16.3972748
 30
0.0
  0
VERTEX
  8
0
 10
92.940378
 20
17.20342
 30
0.0
  0
VERTEX
  8
0
 10
93.141546
 20
18.19148
 30
0.0
  0
VERTEX
  8
0
 10
93.141546
 20
22.5947816667
 30
0.0
  0
VERTEX
  8
0
 10
93.141546
 20
26.9980833333
 30
0.0
  0
VERTEX
  8
0
 10
93.141546
 20
31.401385
 30
0.0
  0
VERTEX
  8
0
 10
93.141546
 20
35.8046866667
 30
0.0
  0
VERTEX
  8
0
 10
93.141546
 20
40.2079883333
 30
0.0
  0
VERTEX
  8
0
 10
93.141546
 20
44.61129
 30
0.0
  0
VERTEX
  8
0
 10
92.940378
 20
45.59935
 30
0.0
  0
VERTEX
  8
0
 10
92.396056
 20
46.406816
 30
0.0
  0
VERTEX
  8
0
 10
91.587066
 20
46.952662
 30
0.0
  0
VERTEX
  8
0
 10
90.600276
 20
47.152306
 30
0.0
  0
VERTEX
  8
0
 10
89.03081
 20
47.152306
 30
0.0
  0
VERTEX
  8
0
 10
89.03081
 20
51.087274
 30
0.0
  0
VERTEX
  8
0
 10
89.03081
 20
55.022242
 30
0.0
  0
VERTEX
  8
0
 10
89.03081
 20
58.95721
 30
0.0
  0
VERTEX
  8
0
 10
89.03081
 20
62.892178
 30
0.0
  0
VERTEX
  8
0
 10
88.829896
 20
63.880238
 30
0.0
  0
VERTEX
  8
0
 10
88.285574
 20
64.687704
 30
0.0
  0
VERTEX
  8
0
 10
87.477854
 20
65.232026
 30
0.0
  0
VERTEX
  8
0
 10
86.491318
 20
65.432178
 30
0.0
  0
VERTEX
  8
0
 10
81.5555700429
 20
65.432178
 30
0.0
  0
VERTEX
  8
0
 10
76.6198220857
 20
65.432178
 30
0.0
  0
VERTEX
  8
0
 10
71.6840741286
 20
65.432178
 30
0.0
  0
VERTEX
  8
0
 10
66.7483261714
 20
65.432178
 30
0.0
  0
VERTEX
  8
0
 10
61.8125782143
 20
65.432178
 30
0.0
  0
VERTEX
  8
0
 10
56.8768302571
 20
65.432178
 30
0.0
  0
VERTEX
  8
0
 10
51.9410823
 20
65.432178
 30
0.0
  0
VERTEX
  8
0
 10
47.0053343429
 20
65.432178
 30
0.0
  0
VERTEX
  8
0
 10
42.0695863857
 20
65.432178
 30
0.0
  0
VERTEX
  8
0
 10
37.1338384286
 20
65.432178
 30
0.0
  0
VERTEX
  8
0
 10
32.1980904714
 20
65.432178
 30
0.0
  0
VERTEX
  8
0
 10
27.2623425143
 20
65.432178
 30
0.0
  0
VERTEX
  8
0
 10
22.3265945571
 20
65.432178
 30
0.0
  0
VERTEX
  8
0
 10
17.3908466
 20
65.432178
 30
0.0
  0
VERTEX
  8
0
 10
16.4027866
 20
65.232026
 30
0.0
  0
VERTEX
  8
0
 10
15.5952444
 20
64.687704
 30
0.0
  0
VERTEX
  8
0
 10
15.0509478
 20
63.880238
 30
0.0
  0
VERTEX
  8
0
 10
14.851126
 20
62.892178
 30
0.0
  0
VERTEX
  8
0
 10
14.851126
 20
57.9254337778
 30
0.0
  0
VERTEX
  8
0
 10
14.851126
 20
52.9586895556
 30
0.0
  0
VERTEX
  8
0
 10
14.851126
 20
47.9919453333
 30
0.0
  0
VERTEX
  8
0
 10
14.851126
 20
43.0252011111
 30
0.0
  0
VERTEX
  8
0
 10
14.851126
 20
38.0584568889
 30
0.0
  0
VERTEX
  8
0
 10
14.851126
 20
33.0917126667
 30
0.0
  0
VERTEX
  8
0
 10
14.851126
 20
28.1249684444
 30
0.0
  0
VERTEX
  8
0
 10
14.851126
 20
23.1582242222
 30
0.0
  0
VERTEX
  8
0
 10
14.851126
 20
18.19148
 30
0.0
  0
VERTEX
  8
0
 10
15.0509478
 20
17.20342
 30
0.0
  0
VERTEX
  8
0
 10
15.5952444
 20
16.3972748
 30
0.0
  0
VERTEX
  8
0
 10
16.4027866
 20
15.8515812
 30
0.0
  0
VERTEX
  8
0
 10
17.3908466
 20
15.6517594
 30
0.0
  0
VERTEX
  8
0
 10
22.2714752267
 20
15.6517594
 30
0.0
  0
VERTEX
  8
0
 10
27.1521038533
 20
15.6517594
 30
0.0
  0
VERTEX
  8
0
 10
32.03273248
 20
15.6517594
 30
0.0
  0
VERTEX
  8
0
 10
36.9133611067
 20
15.6517594
 30
0.0
  0
VERTEX
  8
0
 10
41.7939897333
 20
15.6517594
 30
0.0
  0
VERTEX
  8
0
 10
46.67461836
 20
15.6517594
 30
0.0
  0
VERTEX
  8
0
 10
51.5552469867
 20
15.6517594
 30
0.0
  0
VERTEX
  8
0
 10
56.4358756133
 20
15.6517594
 30
0.0
  0
VERTEX
  8
0
 10
61.31650424
 20
15.6517594
 30
0.0
  0
VERTEX
  8
0
 10
66.1971328667
 20
15.6517594
 30
0.0
  0
VERTEX
  8
0
 10
71.0777614933
 20
15.6517594
 30
0.0
  0
VERTEX
  8
0
 10
75.95839012
 20
15.6517594
 30
0.0
  0
VERTEX
  8
0
 10
80.8390187467
 20
15.6517594
 30
0.0
  0
VERTEX
  8
0
 10
85.7196473733
 20
15.6517594
 30
0.0
  0
SEQEND
  8
0
  0
POLYLINE
  8
0
 62
0
 70
1
 66
1
 10
0.0
 20
0.0
 30
0.0
  0
VERTEX
  8
0
 10
64.311784
 20
3.6421568
 30
0.0
  0
VERTEX
  8
0
 10
63.77686
 20
3.8681406
 30
0.0
  0
VERTEX
  8
0
 10
63.551054
 20
4.4000928
 30
0.0
  0
VERTEX
  8
0
 10
63.551054
 20
7.4510519
 30
0.0
  0
VERTEX
  8
0
 10
63.551054
 20
10.502011
 30
0.0
  0
VERTEX
  8
0
 10
63.77686
 20
11.0353348
 30
0.0
  0
VERTEX
  8
0
 10
64.311784
 20
11.261344
 30
0.0
  0
VERTEX
  8
0
 10
67.361308
 20
11.261344
 30
0.0
  0
VERTEX
  8
0
 10
70.410832
 20
11.261344
 30
0.0
  0
VERTEX
  8
0
 10
70.944232
 20
11.0353348
 30
0.0
  0
VERTEX
  8
0
 10
71.171562
 20
10.502011
 30
0.0
  0
VERTEX
  8
0
 10
71.171562
 20
7.4510519
 30
0.0
  0
VERTEX
  8
0
 10
71.171562
 20
4.4000928
 30
0.0
  0
VERTEX
  8
0
 10
70.944232
 20
3.8681406
 30
0.0
  0
VERTEX
  8
0
 10
70.410832
 20
3.6421568
 30
0.0
  0
VERTEX
  8
0
 10
67.361308
 20
3.6421568
 30
0.0
  0
SEQEND
  8
0
  0
POLYLINE
  8
0
 62
0
 70
1
 66
1
 10
0.0
 20
0.0
 30
0.0
  0
VERTEX
  8
0
 10
73.061068
 20
8.491474
 30
0.0
  0
VERTEX
  8
0
 10
72.527668
 20
8.7188294
 30
0.0
  0
VERTEX
  8
0
 10
72.301354
 20
9.2507816
 30
0.0
  0
VERTEX
  8
0
 10
72.301354
 20
10.7817666
 30
0.0
  0
VERTEX
  8
0
 10
72.527668
 20
11.315065
 30
0.0
  0
VERTEX
  8
0
 10
73.061068
 20
11.5410488
 30
0.0
  0
VERTEX
  8
0
 10
77.8079046667
 20
11.5410488
 30
0.0
  0
VERTEX
  8
0
 10
82.5547413333
 20
11.5410488
 30
0.0
  0
VERTEX
  8
0
 10
87.301578
 20
11.5410488
 30
0.0
  0
VERTEX
  8
0
 10
87.833454
 20
11.315065
 30
0.0
  0
VERTEX
  8
0
 10
88.060784
 20
10.7817666
 30
0.0
  0
VERTEX
  8
0
 10
88.060784
 20
9.2507816
 30
0.0
  0
VERTEX
  8
0
 10
87.833454
 20
8.7188294
 30
0.0
  0
VERTEX
  8
0
 10
87.301578
 20
8.491474
 30
0.0
  0
VERTEX
  8
0
 10
82.5547413333
 20
8.491474
 30
0.0
  0
VERTEX
  8
0
 10
77.8079046667
 20
8.491474
 30
0.0
  0
SEQEND
  8
0
  0
POLYLINE
  8
0
 62
0
 70
1
 66
1
 10
0.0
 20
0.0
 30
0.0
  0
VERTEX
  8
0
 10
54.221634
 20
3.7110416
 30
0.0
  0
VERTEX
  8
0
 10
53.687218
 20
3.9370762
 30
0.0
  0
VERTEX
  8
0
 10
53.460904
 20
4.4717462
 30
0.0
  0
VERTEX
  8
0
 10
53.460904
 20
7.5220322
 30
0.0
  0
VERTEX
  8
0
 10
53.460904
 20
10.5723182
 30
0.0
  0
VERTEX
  8
0
 10
53.687218
 20
11.1056166
 30
0.0
  0
VERTEX
  8
0
 10
54.221634
 20
11.3316004
 30
0.0
  0
VERTEX
  8
0
 10
57.271158
 20
11.3316004
 30
0.0
  0
VERTEX
  8
0
 10
60.320682
 20
11.3316004
 30
0.0
  0
VERTEX
  8
0
 10
60.854082
 20
11.1056166
 30
0.0
  0
VERTEX
  8
0
 10
61.081666
 20
10.5723182
 30
0.0
  0
VERTEX
  8
0
 10
61.081666
 20
7.5220322
 30
0.0
  0
VERTEX
  8
0
 10
61.081666
 20
4.4717462
 30
0.0
  0
VERTEX
  8
0
 10
60.854082
 20
3.9370762
 30
0.0
  0
VERTEX
  8
0
 10
60.320682
 20
3.7110416
 30
0.0
  0
VERTEX
  8
0
 10
57.271158
 20
3.7110416
 30
0.0
  0
SEQEND
  8
0
  0
POLYLINE
  8
0
 62
0
 70
1
 66
1
 10
0.0
 20
0.0
 30
0.0
  0
VERTEX
  8
0
 10
44.061126
 20
3.7110416
 30
0.0
  0
VERTEX
  8
0
 10
43.52671
 20
3.9370762
 30
0.0
  0
VERTEX
  8
0
 10
43.30065
 20
4.4717462
 30
0.0
  0
VERTEX
  8
0
 10
43.30065
 20
7.5220322
 30
0.0
  0
VERTEX
  8
0
 10
43.30065
 20
10.5723182
 30
0.0
  0
VERTEX
  8
0
 10
43.52671
 20
11.1056166
 30
0.0
  0
VERTEX
  8
0
 10
44.061126
 20
11.3316004
 30
0.0
  0
VERTEX
  8
0
 10
47.110904
 20
11.3316004
 30
0.0
  0
VERTEX
  8
0
 10
50.160682
 20
11.3316004
 30
0.0
  0
VERTEX
  8
0
 10
50.693828
 20
11.1056166
 30
0.0
  0
VERTEX
  8
0
 10
50.921412
 20
10.5723182
 30
0.0
  0
VERTEX
  8
0
 10
50.921412
 20
7.5220322
 30
0.0
  0
VERTEX
  8
0
 10
50.921412
 20
4.4717462
 30
0.0
  0
VERTEX
  8
0
 10
50.693828
 20
3.9370762
 30
0.0
  0
VERTEX
  8
0
 10
50.160682
 20
3.7110416
 30
0.0
  0
VERTEX
  8
0
 10
47.110904
 20
3.7110416
 30
0.0
  0
SEQEND
  8
0
  0
POLYLINE
  8
0
 62
0
 70
1
 66
1
 10
0.0
 20
0.0
 30
0.0
  0
VERTEX
  8
0
 10
33.901126
 20
3.7110416
 30
0.0
  0
VERTEX
  8
0
 10
33.366456
 20
3.9370762
 30
0.0
  0
VERTEX
  8
0
 10
33.140396
 20
4.4717462
 30
0.0
  0
VERTEX
  8
0
 10
33.140396
 20
7.5220322
 30
0.0
  0
VERTEX
  8
0
 10
33.140396
 20
10.5723182
 30
0.0
  0
VERTEX
  8
0
 10
33.366456
 20
11.1056166
 30
0.0
  0
VERTEX
  8
0
 10
33.901126
 20
11.3316004
 30
0.0
  0
VERTEX
  8
0
 10
36.951412
 20
11.3316004
 30
0.0
  0
VERTEX
  8
0
 10
40.001698
 20
11.3316004
 30
0.0
  0
VERTEX
  8
0
 10
40.533574
 20
11.1056166
 30
0.0
  0
VERTEX
  8
0
 10
40.760904
 20
10.5723182
 30
0.0
  0
VERTEX
  8
0
 10
40.760904
 20
7.5220322
 30
0.0
  0
VERTEX
  8
0
 10
40.760904
 20
4.4717462
 30
0.0
  0
VERTEX
  8
0
 10
40.533574
 20
3.9370762
 30
0.0
  0
VERTEX
  8
0
 10
40.001698
 20
3.7110416
 30
0.0
  0
VERTEX
  8
0
 10
36.951412
 20
3.7110416
 30
0.0
  0
SEQEND
  8
0
  0
POLYLINE
  8
0
 62
0
 70
1
 66
1
 10
0.0
 20
0.0
 30
0.0
  0
VERTEX
  8
0
 10
18.92046
 20
3.7110416
 30
0.0
  0
VERTEX
  8
0
 10
18.3871616
 20
3.9370762
 30
0.0
  0
VERTEX
  8
0
 10
18.1611778
 20
4.4717462
 30
0.0
  0
VERTEX
  8
0
 10
18.1611778
 20
7.5220322
 30
0.0
  0
VERTEX
  8
0
 10
18.1611778
 20
10.5723182
 30
0.0
  0
VERTEX
  8
0
 10
18.3871616
 20
11.1056166
 30
0.0
  0
VERTEX
  8
0
 10
18.92046
 20
11.3316004
 30
0.0
  0
VERTEX
  8
0
 10
21.9707587
 20
11.3316004
 30
0.0
  0
VERTEX
  8
0
 10
25.0210574
 20
11.3316004
 30
0.0
  0
VERTEX
  8
0
 10
25.554432
 20
11.1056166
 30
0.0
  0
VERTEX
  8
0
 10
25.781762
 20
10.5723182
 30
0.0
  0
VERTEX
  8
0
 10
25.781762
 20
7.5220322
 30
0.0
  0
VERTEX
  8
0
 10
25.781762
 20
4.4717462
 30
0.0
  0
VERTEX
  8
0
 10
25.554432
 20
3.9370762
 30
0.0
  0
VERTEX
  8
0
 10
25.0210574
 20
3.7110416
 30
0.0
  0
VERTEX
  8
0
 10
21.9707587
 20
3.7110416
 30
0.0
  0
SEQEND
  8
0
  0
POLYLINE
  8
0
 62
0
 70
1
 66
1
 10
0.0
 20
0.0
 30
0.0
  0
VERTEX
  8
0
 10
103.730552
 20
20.2006454
 30
0.0
  0
VERTEX
  8
0
 10
103.492046
 20
18.2976012
 30
0.0
  0
VERTEX
  8
0
 10
102.750874
 20
16.5212776
 30
0.0
  0
VERTEX
  8
0
 10
101.587554
 20
14.9930612
 30
0.0
  0
VERTEX
  8
0
 10
100.050854
 20
13.8313668
 30
0.0
  0
VERTEX
  8
0
 10
98.283268
 20
13.0899916
 30
0.0
  0
VERTEX
  8
0
 10
96.381316
 20
12.8502156
 30
0.0
  0
VERTEX
  8
0
 10
94.994984
 20
12.6779528
 30
0.0
  0
VERTEX
  8
0
 10
93.700854
 20
12.1308622
 30
0.0
  0
VERTEX
  8
0
 10
92.590366
 20
11.2902746
 30
0.0
  0
VERTEX
  8
0
 10
91.75115
 20
10.1712776
 30
0.0
  0
VERTEX
  8
0
 10
91.20251
 20
8.8855804
 30
0.0
  0
VERTEX
  8
0
 10
91.030552
 20
7.5006454
 30
0.0
  0
VERTEX
  8
0
 10
90.792046
 20
5.5976012
 30
0.0
  0
VERTEX
  8
0
 10
90.050874
 20
3.8212776
 30
0.0
  0
VERTEX
  8
0
 10
88.887554
 20
2.2930612
 30
0.0
  0
VERTEX
  8
0
 10
87.350854
 20
1.1313668
 30
0.0
  0
VERTEX
  8
0
 10
85.583268
 20
0.3899916
 30
0.0
  0
VERTEX
  8
0
 10
83.681316
 20
0.1502156
 30
0.0
  0
VERTEX
  8
0
 10
78.7974469846
 20
0.1502156
 30
0.0
  0
VERTEX
  8
0
 10
73.9135779692
 20
0.1502156
 30
0.0
  0
VERTEX
  8
0
 10
69.0297089538
 20
0.1502156
 30
0.0
  0
VERTEX
  8
0
 10
64.1458399385
 20
0.1502156
 30
0.0
  0
VERTEX
  8
0
 10
59.2619709231
 20
0.1502156
 30
0.0
  0
VERTEX
  8
0
 10
54.3781019077
 20
0.1502156
 30
0.0
  0
VERTEX
  8
0
 10
49.4942328923
 20
0.1502156
 30
0.0
  0
VERTEX
  8
0
 10
44.6103638769
 20
0.1502156
 30
0.0
  0
VERTEX
  8
0
 10
39.7264948615
 20
0.1502156
 30
0.0
  0
VERTEX
  8
0
 10
34.8426258462
 20
0.1502156
 30
0.0
  0
VERTEX
  8
0
 10
29.9587568308
 20
0.1502156
 30
0.0
  0
VERTEX
  8
0
 10
25.0748878154
 20
0.1502156
 30
0.0
  0
VERTEX
  8
0
 10
20.1910188
 20
0.1502156
 30
0.0
  0
VERTEX
  8
0
 10
20.1910188
 20
0.1419352
 30
0.0
  0
VERTEX
  8
0
 10
18.2865522
 20
0.3817112
 30
0.0
  0
VERTEX
  8
0
 10
16.511651
 20
1.1203432
 30
0.0
  0
VERTEX
  8
0
 10
14.9820376
 20
2.2834092
 30
0.0
  0
VERTEX
  8
0
 10
13.8217148
 20
3.8102794
 30
0.0
  0
VERTEX
  8
0
 10
13.0789426
 20
5.5879238
 30
0.0
  0
VERTEX
  8
0
 10
12.8405382
 20
7.4910188
 30
0.0
  0
VERTEX
  8
0
 10
12.6683262
 20
8.8759538
 30
0.0
  0
VERTEX
  8
0
 10
12.1212356
 20
10.1602794
 30
0.0
  0
VERTEX
  8
0
 10
11.279251
 20
11.2806226
 30
0.0
  0
VERTEX
  8
0
 10
10.161651
 20
12.1212356
 30
0.0
  0
VERTEX
  8
0
 10
8.8745822
 20
12.6696978
 30
0.0
  0
VERTEX
  8
0
 10
7.4910188
 20
12.8419352
 30
0.0
  0
VERTEX
  8
0
 10
5.5865522
 20
13.0817112
 30
0.0
  0
VERTEX
  8
0
 10
3.811651
 20
13.8203432
 30
0.0
  0
VERTEX
  8
0
 10
2.2820376
 20
14.9834346
 30
0.0
  0
VERTEX
  8
0
 10
1.1217148
 20
16.5102794
 30
0.0
  0
VERTEX
  8
0
 10
0.378968
 20
18.2879238
 30
0.0
  0
VERTEX
  8
0
 10
0.1405636
 20
20.1910188
 30
0.0
  0
VERTEX
  8
0
 10
0.1405636
 20
25.0402205455
 30
0.0
  0
VERTEX
  8
0
 10
0.1405636
 20
29.8894222909
 30
0.0
  0
VERTEX
  8
0
 10
0.1405636
 20
34.7386240364
 30
0.0
  0
VERTEX
  8
0
 10
0.1405636
 20
39.5878257818
 30
0.0
  0
VERTEX
  8
0
 10
0.1405636
 20
44.4370275273
 30
0.0
  0
VERTEX
  8
0
 10
0.1405636
 20
49.2862292727
 30
0.0
  0
VERTEX
  8
0
 10
0.1405636
 20
54.1354310182
 30
0.0
  0
VERTEX
  8
0
 10
0.1405636
 20
58.9846327636
 30
0.0
  0
VERTEX
  8
0
 10
0.1405636
 20
63.8338345091
 30
0.0
  0
VERTEX
  8
0
 10
0.1405636
 20
68.6830362545
 30
0.0
  0
VERTEX
  8
0
 10
0.1405636
 20
73.532238
 30
0.0
  0
VERTEX
  8
0
 10
0.3803396
 20
75.439524
 30
0.0
  0
VERTEX
  8
0
 10
1.1313668
 20
77.211428
 30
0.0
  0
VERTEX
  8
0
 10
2.2847808
 20
78.74381
 30
0.0
  0
VERTEX
  8
0
 10
3.8212776
 20
79.901288
 30
0.0
  0
VERTEX
  8
0
 10
5.5879238
 20
80.652366
 30
0.0
  0
VERTEX
  8
0
 10
7.4910188
 20
80.892396
 30
0.0
  0
VERTEX
  8
0
 10
9.4009718
 20
80.652366
 30
0.0
  0
VERTEX
  8
0
 10
11.1717582
 20
79.901288
 30
0.0
  0
VERTEX
  8
0
 10
12.7068834
 20
78.74381
 30
0.0
  0
VERTEX
  8
0
 10
13.8616944
 20
77.211428
 30
0.0
  0
VERTEX
  8
0
 10
14.6099784
 20
75.439524
 30
0.0
  0
VERTEX
  8
0
 10
14.851126
 20
73.532238
 30
0.0
  0
VERTEX
  8
0
 10
15.0233634
 20
72.1487
 30
0.0
  0
VERTEX
  8
0
 10
15.570454
 20
70.861428
 30
0.0
  0
VERTEX
  8
0
 10
16.4110416
 20
69.75221
 30
0.0
  0
VERTEX
  8
0
 10
17.5217582
 20
68.911724
 30
0.0
  0
VERTEX
  8
0
 10
18.8060838
 20
68.364354
 30
0.0
  0
VERTEX
  8
0
 10
20.1910188
 20
68.192396
 30
0.0
  0
VERTEX
  8
0
 10
25.0748878154
 20
68.192396
 30
0.0
  0
VERTEX
  8
0
 10
29.9587568308
 20
68.192396
 30
0.0
  0
VERTEX
  8
0
 10
34.8426258462
 20
68.192396
 30
0.0
  0
VERTEX
  8
0
 10
39.7264948615
 20
68.192396
 30
0.0
  0
VERTEX
  8
0
 10
44.6103638769
 20
68.192396
 30
0.0
  0
VERTEX
  8
0
 10
49.4942328923
 20
68.192396
 30
0.0
  0
VERTEX
  8
0
 10
54.3781019077
 20
68.192396
 30
0.0
  0
VERTEX
  8
0
 10
59.2619709231
 20
68.192396
 30
0.0
  0
VERTEX
  8
0
 10
64.1458399385
 20
68.192396
 30
0.0
  0
VERTEX
  8
0
 10
69.0297089538
 20
68.192396
 30
0.0
  0
VERTEX
  8
0
 10
73.9135779692
 20
68.192396
 30
0.0
  0
VERTEX
  8
0
 10
78.7974469846
 20
68.192396
 30
0.0
  0
VERTEX
  8
0
 10
83.681316
 20
68.192396
 30
0.0
  0
VERTEX
  8
0
 10
85.064854
 20
68.364354
 30
0.0
  0
VERTEX
  8
0
 10
86.350348
 20
68.911724
 30
0.0
  0
VERTEX
  8
0
 10
87.460074
 20
69.75221
 30
0.0
  0
VERTEX
  8
0
 10
88.30056
 20
70.861428
 30
0.0
  0
VERTEX
  8
0
 10
88.847676
 20
72.1487
 30
0.0
  0
VERTEX
  8
0
 10
89.021412
 20
73.532238
 30
0.0
  0
VERTEX
  8
0
 10
89.260934
 20
75.439524
 30
0.0
  0
VERTEX
  8
0
 10
90.010488
 20
77.211428
 30
0.0
  0
VERTEX
  8
0
 10
91.164156
 20
78.74381
 30
0.0
  0
VERTEX
  8
0
 10
92.700602
 20
79.901288
 30
0.0
  0
VERTEX
  8
0
 10
94.467172
 20
80.652366
 30
0.0
  0
VERTEX
  8
0
 10
96.371918
 20
80.892396
 30
0.0
  0
VERTEX
  8
0
 10
98.281744
 20
80.652366
 30
0.0
  0
VERTEX
  8
0
 10
100.050854
 20
79.901288
 30
0.0
  0
VERTEX
  8
0
 10
101.586284
 20
78.74381
 30
0.0
  0
VERTEX
  8
0
 10
102.740968
 20
77.211428
 30
0.0
  0
VERTEX
  8
0
 10
103.490522
 20
75.439524
 30
0.0
  0
VERTEX
  8
0
 10
103.730552
 20
73.532238
 30
0.0
  0
VERTEX
  8
0
 10
103.760778
 20
73.532238
 30
0.0
  0
VERTEX
  8
0
 10
103.760778
 20
68.6830362545
 30
0.0
  0
VERTEX
  8
0
 10
103.760778
 20
63.8338345091
 30
0.0
  0
VERTEX
  8
0
 10
103.760778
 20
58.9846327636
 30
0.0
  0
VERTEX
  8
0
 10
103.760778
 20
54.1354310182
 30
0.0
  0
VERTEX
  8
0
 10
103.760778
 20
49.2862292727
 30
0.0
  0
VERTEX
  8
0
 10
103.760778
 20
44.4370275273
 30
0.0
  0
VERTEX
  8
0
 10
103.760778
 20
39.5878257818
 30
0.0
  0
VERTEX
  8
0
 10
103.760778
 20
34.7386240364
 30
0.0
  0
VERTEX
  8
0
 10
103.760778
 20
29.8894222909
 30
0.0
  0
VERTEX
  8
0
 10
103.760778
 20
25.0402205455
 30
0.0
  0
VERTEX
  8
0
 10
103.760778
 20
20.1910188
 30
0.0
  0
SEQEND
  8
0
  0
POLYLINE
  8
0
 62
0
 70
1
 66
1
 10
0.0
 20
0.0
 30
0.0
  0
VERTEX
  8
0
 10
99.950524
 20
19.6811646
 30
0.0
  0
VERTEX
  8
0
 10
99.061778
 20
19.9209406
 30
0.0
  0
VERTEX
  8
0
 10
98.411284
 20
20.5713584
 30
0.0
  0
VERTEX
  8
0
 10
98.171254
 20
21.4615522
 30
0.0
  0
VERTEX
  8
0
 10
98.411284
 20
22.3517968
 30
0.0
  0
VERTEX
  8
0
 10
99.061778
 20
23.0022146
 30
0.0
  0
VERTEX
  8
0
 10
99.950524
 20
23.2419906
 30
0.0
  0
VERTEX
  8
0
 10
100.840794
 20
23.0022146
 30
0.0
  0
VERTEX
  8
0
 10
101.491034
 20
22.3517968
 30
0.0
  0
VERTEX
  8
0
 10
101.73081
 20
21.4615522
 30
0.0
  0
VERTEX
  8
0
 10
101.491034
 20
20.5713584
 30
0.0
  0
VERTEX
  8
0
 10
100.840794
 20
19.9209406
 30
0.0
  0
SEQEND
  8
0
  0
POLYLINE
  8
0
 62
0
 70
1
 66
1
 10
0.0
 20
0.0
 30
0.0
  0
VERTEX
  8
0
 10
3.931539
 20
19.6811646
 30
0.0
  0
VERTEX
  8
0
 10
3.0413198
 20
19.9209406
 30
0.0
  0
VERTEX
  8
0
 10
2.390902
 20
20.5713584
 30
0.0
  0
VERTEX
  8
0
 10
2.151126
 20
21.4615522
 30
0.0
  0
VERTEX
  8
0
 10
2.390902
 20
22.3517968
 30
0.0
  0
VERTEX
  8
0
 10
3.0413198
 20
23.0022146
 30
0.0
  0
VERTEX
  8
0
 10
3.931539
 20
23.2419906
 30
0.0
  0
VERTEX
  8
0
 10
4.8217582
 20
23.0022146
 30
0.0
  0
VERTEX
  8
0
 10
5.4708044
 20
22.3517968
 30
0.0
  0
VERTEX
  8
0
 10
5.7105804
 20
21.4615522
 30
0.0
  0
VERTEX
  8
0
 10
5.4708044
 20
20.5713584
 30
0.0
  0
VERTEX
  8
0
 10
4.8217582
 20
19.9209406
 30
0.0
  0
SEQEND
  8
0
  0
POLYLINE
  8
0
 62
0
 70
1
 66
1
 10
0.0
 20
0.0
 30
0.0
  0
VERTEX
  8
0
 10
99.950524
 20
71.68134
 30
0.0
  0
VERTEX
  8
0
 10
99.061778
 20
71.921116
 30
0.0
  0
VERTEX
  8
0
 10
98.411284
 20
72.57161
 30
0.0
  0
VERTEX
  8
0
 10
98.171254
 20
73.461626
 30
0.0
  0
VERTEX
  8
0
 10
98.411284
 20
74.350626
 30
0.0
  0
VERTEX
  8
0
 10
99.061778
 20
75.001374
 30
0.0
  0
VERTEX
  8
0
 10
99.950524
 20
75.242166
 30
0.0
  0
VERTEX
  8
0
 10
100.840794
 20
75.001374
 30
0.0
  0
VERTEX
  8
0
 10
101.491034
 20
74.350626
 30
0.0
  0
VERTEX
  8
0
 10
101.73081
 20
73.461626
 30
0.0
  0
VERTEX
  8
0
 10
101.491034
 20
72.57161
 30
0.0
  0
VERTEX
  8
0
 10
100.840794
 20
71.921116
 30
0.0
  0
SEQEND
  8
0
  0
POLYLINE
  8
0
 62
0
 70
1
 66
1
 10
0.0
 20
0.0
 30
0.0
  0
VERTEX
  8
0
 10
3.931539
 20
71.68134
 30
0.0
  0
VERTEX
  8
0
 10
3.0413198
 20
71.921116
 30
0.0
  0
VERTEX
  8
0
 10
2.390902
 20
72.57161
 30
0.0
  0
VERTEX
  8
0
 10
2.151126
 20
73.461626
 30
0.0
  0
VERTEX
  8
0
 10
2.390902
 20
74.350626
 30
0.0
  0
VERTEX
  8
0
 10
3.0413198
 20
75.001374
 30
0.0
  0
VERTEX
  8
0
 10
3.931539
 20
75.242166
 30
0.0
  0
VERTEX
  8
0
 10
4.8217582
 20
75.001374
 30
0.0
  0
VERTEX
  8
0
 10
5.4708044
 20
74.350626
 30
0.0
  0
VERTEX
  8
0
 10
5.7105804
 20
73.461626
 30
0.0
  0
VERTEX
  8
0
 10
5.4708044
 20
72.57161
 30
0.0
  0
VERTEX
  8
0
 10
4.8217582
 20
71.921116
 30
0.0
  0
SEQEND
  8
0
  0
POLYLINE
  8
0
 62
0
 70
1
 66
1
 10
0.0
 20
0.0
 30
0.0
  0
VERTEX
  8
0
 10
6.09092
 20
42.651426
 30
0.0
  0
VERTEX
  8
0
 10
5.2007262
 20
42.891456
 30
0.0
  0
VERTEX
  8
0
 10
4.5516546
 20
43.54195
 30
0.0
  0
VERTEX
  8
0
 10
4.3105324
 20
44.431966
 30
0.0
  0
VERTEX
  8
0
 10
4.5516546
 20
45.320966
 30
0.0
  0
VERTEX
  8
0
 10
5.2007262
 20
45.97146
 30
0.0
  0
VERTEX
  8
0
 10
6.09092
 20
46.210982
 30
0.0
  0
VERTEX
  8
0
 10
6.9811646
 20
45.97146
 30
0.0
  0
VERTEX
  8
0
 10
7.6315824
 20
45.320966
 30
0.0
  0
VERTEX
  8
0
 10
7.8713584
 20
44.431966
 30
0.0
  0
VERTEX
  8
0
 10
7.6315824
 20
43.54195
 30
0.0
  0
VERTEX
  8
0
 10
6.9811646
 20
42.891456
 30
0.0
  0
SEQEND
  8
0
  0
ENDBLK
  0
ENDSEC
  0
SECTION
  2
ENTITIES
  0
INSERT
  2
SCALE
  8
0
 10
0.0
 20
0.0
 30
0.0
  0
ENDSEC
  0
EOF
