  0
SECTION
  2
HEADER
  9
$ACADVER
  1
AC1009
  9
$INSBASE
 10
0.0
 20
0.0
 30
0.0
  9
$EXTMIN
 10
0.0
 20
0.0
 30
0.0
  9
$EXTMAX
 10
0.0
 20
0.0
 30
0.0
  0
ENDSEC
  0
SECTION
  2
TABLES
  0
TABLE
  2
VPORT
 70
0
  0
ENDTAB
  0
TABLE
  2
LTYPE
 70
1
  0
LTYPE
  2
CONTINUOUS
 70
0
  3
Solid line
 72
65
 73
0
 40
0.0
  0
ENDTAB
  0
TABLE
  2
LAYER
 70
1
  0
LAYER
  2
0
 70
64
 62
7
  6
continuous
  0
ENDTAB
  0
TABLE
  2
STYLE
 70
1
  0
STYLE
  2
STANDARD
 70
0
 40
0
 41
1.0
 50
0.0
 71
0
 42
1
 3
ARIAL.TTF
 4

  0
ENDTAB
  0
TABLE
  2
VIEW
 70
0
  0
ENDTAB
  0
ENDSEC
  0
SECTION
  2
BLOCKS
  0
BLOCK
  8
0
  2
SCALE
 70
0
 10
0.0
 20
0.0
 30
0.0
  3
SCALE
  0
POLYLINE
  8
0
 62
0
 70
1
 66
1
 10
0.0
 20
0.0
 30
0.0
  0
VERTEX
  8
0
 10
13.3008116
 20
15.6517594
 30
0.0
  0
VERTEX
  8
0
 10
12.3127516
 20
15.8515812
 30
0.0
  0
VERTEX
  8
0
 10
11.5052602
 20
16.3972748
 30
0.0
  0
VERTEX
  8
0
 10
10.9609128
 20
17.20342
 30
0.0
  0
VERTEX
  8
0
 10
10.761091
 20
18.19148
 30
0.0
  0
VERTEX
  8
0
 10
10.761091
 20
22.5947816667
 30
0.0
  0
VERTEX
  8
0
 10
10.761091
 20
26.9980833333
 30
0.0
  0
VERTEX
  8
0
 10
10.761091
 20
31.401385
 30
0.0
  0
VERTEX
  8
0
 10
10.761091
 20
35.8046866667
 30
0.0
  0
VERTEX
  8
0
 10
10.761091
 20
40.2079883333
 30
0.0
  0
VERTEX
  8
0
 10
10.761091
 20
44.61129
 30
0.0
  0
VERTEX
  8
0
 10
10.9609128
 20
45.59935
 30
0.0
  0
VERTEX
  8
0
 10
11.5052602
 20
46.406816
 30
0.0
  0
VERTEX
  8
0
 10
12.3127516
 20
46.952662
 30
0.0
  0
VERTEX
  8
0
 10
13.3008116
 20
47.152306
 30
0.0
  0
VERTEX
  8
0
 10
14.8718016
 20
47.152306
 30
0.0
  0
VERTEX
  8
0
 10
14.8718016
 20
51.087274
 30
0.0
  0
VERTEX
  8
0
 10
14.8718016
 20
55.022242
 30
0.0
  0
VERTEX
  8
0
 10
14.8718016
 20
58.95721
 30
0.0
  0
VERTEX
  8
0
 10
14.8718016
 20
62.892178
 30
0.0
  0
VERTEX
  8
0
 10
15.0716234
 20
63.880238
 30
0.0
  0
VERTEX
  8
0
 10
15.61592
 20
64.687704
 30
0.0
  0
VERTEX
  8
0
 10
16.4234622
 20
65.232026
 30
0.0
  0
VERTEX
  8
0
 10
17.4115222
 20
65.432178
 30
0.0
  0
VERTEX
  8
0
 10
22.3471721857
 20
65.432178
 30
0.0
  0
VERTEX
  8
0
 10
27.2828221714
 20
65.432178
 30
0.0
  0
VERTEX
  8
0
 10
32.2184721571
 20
65.432178
 30
0.0
  0
VERTEX
  8
0
 10
37.1541221429
 20
65.432178
 30
0.0
  0
VERTEX
  8
0
 10
42.0897721286
 20
65.432178
 30
0.0
  0
VERTEX
  8
0
 10
47.0254221143
 20
65.432178
 30
0.0
  0
VERTEX
  8
0
 10
51.9610721
 20
65.432178
 30
0.0
  0
VERTEX
  8
0
 10
56.8967220857
 20
65.432178
 30
0.0
  0
VERTEX
  8
0
 10
61.8323720714
 20
65.432178
 30
0.0
  0
VERTEX
  8
0
 10
66.7680220571
 20
65.432178
 30
0.0
  0
VERTEX
  8
0
 10
71.7036720429
 20
65.432178
 30
0.0
  0
VERTEX
  8
0
 10
76.6393220286
 20
65.432178
 30
0.0
  0
VERTEX
  8
0
 10
81.5749720143
 20
65.432178
 30
0.0
  0
VERTEX
  8
0
 10
86.510622
 20
65.432178
 30
0.0
  0
VERTEX
  8
0
 10
87.496904
 20
65.232026
 30
0.0
  0
VERTEX
  8
0
 10
88.305894
 20
64.687704
 30
0.0
  0
VERTEX
  8
0
 10
88.850216
 20
63.880238
 30
0.0
  0
VERTEX
  8
0
 10
89.051638
 20
62.892178
 30
0.0
  0
VERTEX
  8
0
 10
89.051638
 20
57.9254337778
 30
0.0
  0
VERTEX
  8
0
 10
89.051638
 20
52.9586895556
 30
0.0
  0
VERTEX
  8
0
 10
89.051638
 20
47.9919453333
 30
0.0
  0
VERTEX
  8
0
 10
89.051638
 20
43.0252011111
 30
0.0
  0
VERTEX
  8
0
 10
89.051638
 20
38.0584568889
 30
0.0
  0
VERTEX
  8
0
 10
89.051638
 20
33.0917126667
 30
0.0
  0
VERTEX
  8
0
 10
89.051638
 20
28.1249684444
 30
0.0
  0
VERTEX
  8
0
 10
89.051638
 20
23.1582242222
 30
0.0
  0
VERTEX
  8
0
 10
89.051638
 20
18.19148
 30
0.0
  0
VERTEX
  8
0
 10
88.850216
 20
17.20342
 30
0.0
  0
VERTEX
  8
0
 10
88.305894
 20
16.3972748
 30
0.0
  0
VERTEX
  8
0
 10
87.496904
 20
15.8515812
 30
0.0
  0
VERTEX
  8
0
 10
86.510622
 20
15.6517594
 30
0.0
  0
VERTEX
  8
0
 10
81.6299679733
 20
15.6517594
 30
0.0
  0
VERTEX
  8
0
 10
76.7493139467
 20
15.6517594
 30
0.0
  0
VERTEX
  8
0
 10
71.86865992
 20
15.6517594
 30
0.0
  0
VERTEX
  8
0
 10
66.9880058933
 20
15.6517594
 30
0.0
  0
VERTEX
  8
0
 10
62.1073518667
 20
15.6517594
 30
0.0
  0
VERTEX
  8
0
 10
57.22669784
 20
15.6517594
 30
0.0
  0
VERTEX
  8
0
 10
52.3460438133
 20
15.6517594
 30
0.0
  0
VERTEX
  8
0
 10
47.4653897867
 20
15.6517594
 30
0.0
  0
VERTEX
  8
0
 10
42.58473576
 20
15.6517594
 30
0.0
  0
VERTEX
  8
0
 10
37.7040817333
 20
15.6517594
 30
0.0
  0
VERTEX
  8
0
 10
32.8234277067
 20
15.6517594
 30
0.0
  0
VERTEX
  8
0
 10
27.94277368
 20
15.6517594
 30
0.0
  0
VERTEX
  8
0
 10
23.0621196533
 20
15.6517594
 30
0.0
  0
VERTEX
  8
0
 10
18.1814656267
 20
15.6517594
 30
0.0
  0
SEQEND
  8
0
  0
POLYLINE
  8
0
 62
0
 70
1
 66
1
 10
0.0
 20
0.0
 30
0.0
  0
VERTEX
  8
0
 10
13.3008116
 20
15.6517594
 30
0.0
  0
VERTEX
  8
0
 10
12.3127516
 20
15.8515812
 30
0.0
  0
VERTEX
  8
0
 10
11.5052602
 20
16.3972748
 30
0.0
  0
VERTEX
  8
0
 10
10.9609128
 20
17.20342
 30
0.0
  0
VERTEX
  8
0
 10
10.761091
 20
18.19148
 30
0.0
  0
VERTEX
  8
0
 10
10.761091
 20
22.5947816667
 30
0.0
  0
VERTEX
  8
0
 10
10.761091
 20
26.9980833333
 30
0.0
  0
VERTEX
  8
0
 10
10.761091
 20
31.401385
 30
0.0
  0
VERTEX
  8
0
 10
10.761091
 20
35.8046866667
 30
0.0
  0
VERTEX
  8
0
 10
10.761091
 20
40.2079883333
 30
0.0
  0
VERTEX
  8
0
 10
10.761091
 20
44.61129
 30
0.0
  0
VERTEX
  8
0
 10
10.9609128
 20
45.59935
 30
0.0
  0
VERTEX
  8
0
 10
11.5052602
 20
46.406816
 30
0.0
  0
VERTEX
  8
0
 10
12.3127516
 20
46.952662
 30
0.0
  0
VERTEX
  8
0
 10
13.3008116
 20
47.152306
 30
0.0
  0
VERTEX
  8
0
 10
14.8718016
 20
47.152306
 30
0.0
  0
VERTEX
  8
0
 10
14.8718016
 20
51.087274
 30
0.0
  0
VERTEX
  8
0
 10
14.8718016
 20
55.022242
 30
0.0
  0
VERTEX
  8
0
 10
14.8718016
 20
58.95721
 30
0.0
  0
VERTEX
  8
0
 10
14.8718016
 20
62.892178
 30
0.0
  0
VERTEX
  8
0
 10
15.0716234
 20
63.880238
 30
0.0
  0
VERTEX
  8
0
 10
15.61592
 20
64.687704
 30
0.0
  0
VERTEX
  8
0
 10
16.4234622
 20
65.232026
 30
0.0
  0
VERTEX
  8
0
 10
17.4115222
 20
65.432178
 30
0.0
  0
VERTEX
  8
0
 10
22.3471721857
 20
65.432178
 30
0.0
  0
VERTEX
  8
0
 10
27.2828221714
 20
65.432178
 30
0.0
  0
VERTEX
  8
0
 10
32.2184721571
 20
65.432178
 30
0.0
  0
VERTEX
  8
0
 10
37.1541221429
 20
65.432178
 30
0.0
  0
VERTEX
  8
0
 10
42.0897721286
 20
65.432178
 30
0.0
  0
VERTEX
  8
0
 10
47.0254221143
 20
65.432178
 30
0.0
  0
VERTEX
  8
0
 10
51.9610721
 20
65.432178
 30
0.0
  0
VERTEX
  8
0
 10
56.8967220857
 20
65.432178
 30
0.0
  0
VERTEX
  8
0
 10
61.8323720714
 20
65.432178
 30
0.0
  0
VERTEX
  8
0
 10
66.7680220571
 20
65.432178
 30
0.0
  0
VERTEX
  8
0
 10
71.7036720429
 20
65.432178
 30
0.0
  0
VERTEX
  8
0
 10
76.6393220286
 20
65.432178
 30
0.0
  0
VERTEX
  8
0
 10
81.5749720143
 20
65.432178
 30
0.0
  0
VERTEX
  8
0
 10
86.510622
 20
65.432178
 30
0.0
  0
VERTEX
  8
0
 10
87.496904
 20
65.232026
 30
0.0
  0
VERTEX
  8
0
 10
88.305894
 20
64.687704
 30
0.0
  0
VERTEX
  8
0
 10
88.850216
 20
63.880238
 30
0.0
  0
VERTEX
  8
0
 10
89.051638
 20
62.892178
 30
0.0
  0
VERTEX
  8
0
 10
89.051638
 20
57.9254337778
 30
0.0
  0
VERTEX
  8
0
 10
89.051638
 20
52.9586895556
 30
0.0
  0
VERTEX
  8
0
 10
89.051638
 20
47.9919453333
 30
0.0
  0
VERTEX
  8
0
 10
89.051638
 20
43.0252011111
 30
0.0
  0
VERTEX
  8
0
 10
89.051638
 20
38.0584568889
 30
0.0
  0
VERTEX
  8
0
 10
89.051638
 20
33.0917126667
 30
0.0
  0
VERTEX
  8
0
 10
89.051638
 20
28.1249684444
 30
0.0
  0
VERTEX
  8
0
 10
89.051638
 20
23.1582242222
 30
0.0
  0
VERTEX
  8
0
 10
89.051638
 20
18.19148
 30
0.0
  0
VERTEX
  8
0
 10
88.850216
 20
17.20342
 30
0.0
  0
VERTEX
  8
0
 10
88.305894
 20
16.3972748
 30
0.0
  0
VERTEX
  8
0
 10
87.496904
 20
15.8515812
 30
0.0
  0
VERTEX
  8
0
 10
86.510622
 20
15.6517594
 30
0.0
  0
VERTEX
  8
0
 10
81.6299679733
 20
15.6517594
 30
0.0
  0
VERTEX
  8
0
 10
76.7493139467
 20
15.6517594
 30
0.0
  0
VERTEX
  8
0
 10
71.86865992
 20
15.6517594
 30
0.0
  0
VERTEX
  8
0
 10
66.9880058933
 20
15.6517594
 30
0.0
  0
VERTEX
  8
0
 10
62.1073518667
 20
15.6517594
 30
0.0
  0
VERTEX
  8
0
 10
57.22669784
 20
15.6517594
 30
0.0
  0
VERTEX
  8
0
 10
52.3460438133
 20
15.6517594
 30
0.0
  0
VERTEX
  8
0
 10
47.4653897867
 20
15.6517594
 30
0.0
  0
VERTEX
  8
0
 10
42.58473576
 20
15.6517594
 30
0.0
  0
VERTEX
  8
0
 10
37.7040817333
 20
15.6517594
 30
0.0
  0
VERTEX
  8
0
 10
32.8234277067
 20
15.6517594
 30
0.0
  0
VERTEX
  8
0
 10
27.94277368
 20
15.6517594
 30
0.0
  0
VERTEX
  8
0
 10
23.0621196533
 20
15.6517594
 30
0.0
  0
VERTEX
  8
0
 10
18.1814656267
 20
15.6517594
 30
0.0
  0
SEQEND
  8
0
  0
POLYLINE
  8
0
 62
0
 70
1
 66
1
 10
0.0
 20
0.0
 30
0.0
  0
VERTEX
  8
0
 10
39.591234
 20
3.6421568
 30
0.0
  0
VERTEX
  8
0
 10
40.124126
 20
3.8681406
 30
0.0
  0
VERTEX
  8
0
 10
40.35171
 20
4.4000928
 30
0.0
  0
VERTEX
  8
0
 10
40.35171
 20
7.4510519
 30
0.0
  0
VERTEX
  8
0
 10
40.35171
 20
10.502011
 30
0.0
  0
VERTEX
  8
0
 10
40.124126
 20
11.0353348
 30
0.0
  0
VERTEX
  8
0
 10
39.591234
 20
11.261344
 30
0.0
  0
VERTEX
  8
0
 10
36.540821
 20
11.261344
 30
0.0
  0
VERTEX
  8
0
 10
33.490408
 20
11.261344
 30
0.0
  0
VERTEX
  8
0
 10
32.957262
 20
11.0353348
 30
0.0
  0
VERTEX
  8
0
 10
32.731202
 20
10.502011
 30
0.0
  0
VERTEX
  8
0
 10
32.731202
 20
7.4510519
 30
0.0
  0
VERTEX
  8
0
 10
32.731202
 20
4.4000928
 30
0.0
  0
VERTEX
  8
0
 10
32.957262
 20
3.8681406
 30
0.0
  0
VERTEX
  8
0
 10
33.490408
 20
3.6421568
 30
0.0
  0
VERTEX
  8
0
 10
36.540821
 20
3.6421568
 30
0.0
  0
SEQEND
  8
0
  0
POLYLINE
  8
0
 62
0
 70
1
 66
1
 10
0.0
 20
0.0
 30
0.0
  0
VERTEX
  8
0
 10
30.840426
 20
8.491474
 30
0.0
  0
VERTEX
  8
0
 10
31.373826
 20
8.7188294
 30
0.0
  0
VERTEX
  8
0
 10
31.601156
 20
9.2507816
 30
0.0
  0
VERTEX
  8
0
 10
31.601156
 20
10.7817666
 30
0.0
  0
VERTEX
  8
0
 10
31.373826
 20
11.315065
 30
0.0
  0
VERTEX
  8
0
 10
30.840426
 20
11.5410488
 30
0.0
  0
VERTEX
  8
0
 10
26.0940296
 20
11.5410488
 30
0.0
  0
VERTEX
  8
0
 10
21.3476332
 20
11.5410488
 30
0.0
  0
VERTEX
  8
0
 10
16.6012368
 20
11.5410488
 30
0.0
  0
VERTEX
  8
0
 10
16.0665668
 20
11.315065
 30
0.0
  0
VERTEX
  8
0
 10
15.8405322
 20
10.7817666
 30
0.0
  0
VERTEX
  8
0
 10
15.8405322
 20
9.2507816
 30
0.0
  0
VERTEX
  8
0
 10
16.0665668
 20
8.7188294
 30
0.0
  0
VERTEX
  8
0
 10
16.6012368
 20
8.491474
 30
0.0
  0
VERTEX
  8
0
 10
21.3476332
 20
8.491474
 30
0.0
  0
VERTEX
  8
0
 10
26.0940296
 20
8.491474
 30
0.0
  0
SEQEND
  8
0
  0
POLYLINE
  8
0
 62
0
 70
1
 66
1
 10
0.0
 20
0.0
 30
0.0
  0
VERTEX
  8
0
 10
49.680876
 20
3.7110416
 30
0.0
  0
VERTEX
  8
0
 10
50.214276
 20
3.9370762
 30
0.0
  0
VERTEX
  8
0
 10
50.441606
 20
4.4717462
 30
0.0
  0
VERTEX
  8
0
 10
50.441606
 20
7.5220322
 30
0.0
  0
VERTEX
  8
0
 10
50.441606
 20
10.5723182
 30
0.0
  0
VERTEX
  8
0
 10
50.214276
 20
11.1056166
 30
0.0
  0
VERTEX
  8
0
 10
49.680876
 20
11.3316004
 30
0.0
  0
VERTEX
  8
0
 10
46.63059
 20
11.3316004
 30
0.0
  0
VERTEX
  8
0
 10
43.580304
 20
11.3316004
 30
0.0
  0
VERTEX
  8
0
 10
43.046904
 20
11.1056166
 30
0.0
  0
VERTEX
  8
0
 10
42.821352
 20
10.5723182
 30
0.0
  0
VERTEX
  8
0
 10
42.821352
 20
7.5220322
 30
0.0
  0
VERTEX
  8
0
 10
42.821352
 20
4.4717462
 30
0.0
  0
VERTEX
  8
0
 10
43.046904
 20
3.9370762
 30
0.0
  0
VERTEX
  8
0
 10
43.580304
 20
3.7110416
 30
0.0
  0
VERTEX
  8
0
 10
46.63059
 20
3.7110416
 30
0.0
  0
SEQEND
  8
0
  0
POLYLINE
  8
0
 62
0
 70
1
 66
1
 10
0.0
 20
0.0
 30
0.0
  0
VERTEX
  8
0
 10
59.841384
 20
3.7110416
 30
0.0
  0
VERTEX
  8
0
 10
60.37326
 20
3.9370762
 30
0.0
  0
VERTEX
  8
0
 10
60.60059
 20
4.4717462
 30
0.0
  0
VERTEX
  8
0
 10
60.60059
 20
7.5220322
 30
0.0
  0
VERTEX
  8
0
 10
60.60059
 20
10.5723182
 30
0.0
  0
VERTEX
  8
0
 10
60.37326
 20
11.1056166
 30
0.0
  0
VERTEX
  8
0
 10
59.841384
 20
11.3316004
 30
0.0
  0
VERTEX
  8
0
 10
56.791098
 20
11.3316004
 30
0.0
  0
VERTEX
  8
0
 10
53.740812
 20
11.3316004
 30
0.0
  0
VERTEX
  8
0
 10
53.207412
 20
11.1056166
 30
0.0
  0
VERTEX
  8
0
 10
52.981606
 20
10.5723182
 30
0.0
  0
VERTEX
  8
0
 10
52.981606
 20
7.5220322
 30
0.0
  0
VERTEX
  8
0
 10
52.981606
 20
4.4717462
 30
0.0
  0
VERTEX
  8
0
 10
53.207412
 20
3.9370762
 30
0.0
  0
VERTEX
  8
0
 10
53.740812
 20
3.7110416
 30
0.0
  0
VERTEX
  8
0
 10
56.791098
 20
3.7110416
 30
0.0
  0
SEQEND
  8
0
  0
POLYLINE
  8
0
 62
0
 70
1
 66
1
 10
0.0
 20
0.0
 30
0.0
  0
VERTEX
  8
0
 10
70.001638
 20
3.7110416
 30
0.0
  0
VERTEX
  8
0
 10
70.533768
 20
3.9370762
 30
0.0
  0
VERTEX
  8
0
 10
70.760844
 20
4.4717462
 30
0.0
  0
VERTEX
  8
0
 10
70.760844
 20
7.5220322
 30
0.0
  0
VERTEX
  8
0
 10
70.760844
 20
10.5723182
 30
0.0
  0
VERTEX
  8
0
 10
70.533768
 20
11.1056166
 30
0.0
  0
VERTEX
  8
0
 10
70.001638
 20
11.3316004
 30
0.0
  0
VERTEX
  8
0
 10
66.951352
 20
11.3316004
 30
0.0
  0
VERTEX
  8
0
 10
63.901066
 20
11.3316004
 30
0.0
  0
VERTEX
  8
0
 10
63.367666
 20
11.1056166
 30
0.0
  0
VERTEX
  8
0
 10
63.141606
 20
10.5723182
 30
0.0
  0
VERTEX
  8
0
 10
63.141606
 20
7.5220322
 30
0.0
  0
VERTEX
  8
0
 10
63.141606
 20
4.4717462
 30
0.0
  0
VERTEX
  8
0
 10
63.367666
 20
3.9370762
 30
0.0
  0
VERTEX
  8
0
 10
63.901066
 20
3.7110416
 30
0.0
  0
VERTEX
  8
0
 10
66.951352
 20
3.7110416
 30
0.0
  0
SEQEND
  8
0
  0
POLYLINE
  8
0
 62
0
 70
1
 66
1
 10
0.0
 20
0.0
 30
0.0
  0
VERTEX
  8
0
 10
84.981034
 20
3.7110416
 30
0.0
  0
VERTEX
  8
0
 10
85.513926
 20
3.9370762
 30
0.0
  0
VERTEX
  8
0
 10
85.74151
 20
4.4717462
 30
0.0
  0
VERTEX
  8
0
 10
85.74151
 20
7.5220322
 30
0.0
  0
VERTEX
  8
0
 10
85.74151
 20
10.5723182
 30
0.0
  0
VERTEX
  8
0
 10
85.513926
 20
11.1056166
 30
0.0
  0
VERTEX
  8
0
 10
84.981034
 20
11.3316004
 30
0.0
  0
VERTEX
  8
0
 10
81.931383
 20
11.3316004
 30
0.0
  0
VERTEX
  8
0
 10
78.881732
 20
11.3316004
 30
0.0
  0
VERTEX
  8
0
 10
78.347062
 20
11.1056166
 30
0.0
  0
VERTEX
  8
0
 10
78.121002
 20
10.5723182
 30
0.0
  0
VERTEX
  8
0
 10
78.121002
 20
7.5220322
 30
0.0
  0
VERTEX
  8
0
 10
78.121002
 20
4.4717462
 30
0.0
  0
VERTEX
  8
0
 10
78.347062
 20
3.9370762
 30
0.0
  0
VERTEX
  8
0
 10
78.881732
 20
3.7110416
 30
0.0
  0
VERTEX
  8
0
 10
81.931383
 20
3.7110416
 30
0.0
  0
SEQEND
  8
0
  0
POLYLINE
  8
0
 62
0
 70
1
 66
1
 10
0.0
 20
0.0
 30
0.0
  0
VERTEX
  8
0
 10
0.1708658
 20
20.2006454
 30
0.0
  0
VERTEX
  8
0
 10
0.4092702
 20
18.2976012
 30
0.0
  0
VERTEX
  8
0
 10
1.1506708
 20
16.5212776
 30
0.0
  0
VERTEX
  8
0
 10
2.3123398
 20
14.9930612
 30
0.0
  0
VERTEX
  8
0
 10
3.8516306
 20
13.8313668
 30
0.0
  0
VERTEX
  8
0
 10
5.6182768
 20
13.0899916
 30
0.0
  0
VERTEX
  8
0
 10
7.521321
 20
12.8502156
 30
0.0
  0
VERTEX
  8
0
 10
8.906256
 20
12.6779528
 30
0.0
  0
VERTEX
  8
0
 10
10.2016306
 20
12.1308622
 30
0.0
  0
VERTEX
  8
0
 10
11.3109502
 20
11.2902746
 30
0.0
  0
VERTEX
  8
0
 10
12.1515378
 20
10.1712776
 30
0.0
  0
VERTEX
  8
0
 10
12.6986284
 20
8.8855804
 30
0.0
  0
VERTEX
  8
0
 10
12.8708912
 20
7.5006454
 30
0.0
  0
VERTEX
  8
0
 10
13.1092956
 20
5.5976012
 30
0.0
  0
VERTEX
  8
0
 10
13.8506454
 20
3.8212776
 30
0.0
  0
VERTEX
  8
0
 10
15.0123398
 20
2.2930612
 30
0.0
  0
VERTEX
  8
0
 10
16.5516306
 20
1.1313668
 30
0.0
  0
VERTEX
  8
0
 10
18.3182768
 20
0.3899916
 30
0.0
  0
VERTEX
  8
0
 10
20.221321
 20
0.1502156
 30
0.0
  0
VERTEX
  8
0
 10
25.1052036923
 20
0.1502156
 30
0.0
  0
VERTEX
  8
0
 10
29.9890863846
 20
0.1502156
 30
0.0
  0
VERTEX
  8
0
 10
34.8729690769
 20
0.1502156
 30
0.0
  0
VERTEX
  8
0
 10
39.7568517692
 20
0.1502156
 30
0.0
  0
VERTEX
  8
0
 10
44.6407344615
 20
0.1502156
 30
0.0
  0
VERTEX
  8
0
 10
49.5246171538
 20
0.1502156
 30
0.0
  0
VERTEX
  8
0
 10
54.4084998462
 20
0.1502156
 30
0.0
  0
VERTEX
  8
0
 10
59.2923825385
 20
0.1502156
 30
0.0
  0
VERTEX
  8
0
 10
64.1762652308
 20
0.1502156
 30
0.0
  0
VERTEX
  8
0
 10
69.0601479231
 20
0.1502156
 30
0.0
  0
VERTEX
  8
0
 10
73.9440306154
 20
0.1502156
 30
0.0
  0
VERTEX
  8
0
 10
78.8279133077
 20
0.1502156
 30
0.0
  0
VERTEX
  8
0
 10
83.711796
 20
0.1502156
 30
0.0
  0
VERTEX
  8
0
 10
83.711796
 20
0.1419352
 30
0.0
  0
VERTEX
  8
0
 10
85.615018
 20
0.3817112
 30
0.0
  0
VERTEX
  8
0
 10
87.39124
 20
1.1203432
 30
0.0
  0
VERTEX
  8
0
 10
88.919304
 20
2.2834092
 30
0.0
  0
VERTEX
  8
0
 10
90.0811
 20
3.8102794
 30
0.0
  0
VERTEX
  8
0
 10
90.821002
 20
5.5879238
 30
0.0
  0
VERTEX
  8
0
 10
91.060778
 20
7.4910188
 30
0.0
  0
VERTEX
  8
0
 10
91.23299
 20
8.8759538
 30
0.0
  0
VERTEX
  8
0
 10
91.781376
 20
10.1602794
 30
0.0
  0
VERTEX
  8
0
 10
92.622116
 20
11.2806226
 30
0.0
  0
VERTEX
  8
0
 10
93.74124
 20
12.1212356
 30
0.0
  0
VERTEX
  8
0
 10
95.026734
 20
12.6696978
 30
0.0
  0
VERTEX
  8
0
 10
96.411796
 20
12.8419352
 30
0.0
  0
VERTEX
  8
0
 10
98.315018
 20
13.0817112
 30
0.0
  0
VERTEX
  8
0
 10
100.09124
 20
13.8203432
 30
0.0
  0
VERTEX
  8
0
 10
101.619304
 20
14.9834346
 30
0.0
  0
VERTEX
  8
0
 10
102.7811
 20
16.5102794
 30
0.0
  0
VERTEX
  8
0
 10
103.521002
 20
18.2879238
 30
0.0
  0
VERTEX
  8
0
 10
103.760778
 20
20.1910188
 30
0.0
  0
VERTEX
  8
0
 10
103.760778
 20
25.0402205455
 30
0.0
  0
VERTEX
  8
0
 10
103.760778
 20
29.8894222909
 30
0.0
  0
VERTEX
  8
0
 10
103.760778
 20
34.7386240364
 30
0.0
  0
VERTEX
  8
0
 10
103.760778
 20
39.5878257818
 30
0.0
  0
VERTEX
  8
0
 10
103.760778
 20
44.4370275273
 30
0.0
  0
VERTEX
  8
0
 10
103.760778
 20
49.2862292727
 30
0.0
  0
VERTEX
  8
0
 10
103.760778
 20
54.1354310182
 30
0.0
  0
VERTEX
  8
0
 10
103.760778
 20
58.9846327636
 30
0.0
  0
VERTEX
  8
0
 10
103.760778
 20
63.8338345091
 30
0.0
  0
VERTEX
  8
0
 10
103.760778
 20
68.6830362545
 30
0.0
  0
VERTEX
  8
0
 10
103.760778
 20
73.532238
 30
0.0
  0
VERTEX
  8
0
 10
103.519478
 20
75.439524
 30
0.0
  0
VERTEX
  8
0
 10
102.771194
 20
77.211428
 30
0.0
  0
VERTEX
  8
0
 10
101.61651
 20
78.74381
 30
0.0
  0
VERTEX
  8
0
 10
100.081334
 20
79.901288
 30
0.0
  0
VERTEX
  8
0
 10
98.313494
 20
80.652366
 30
0.0
  0
VERTEX
  8
0
 10
96.411796
 20
80.892396
 30
0.0
  0
VERTEX
  8
0
 10
94.498922
 20
80.652366
 30
0.0
  0
VERTEX
  8
0
 10
92.730828
 20
79.901288
 30
0.0
  0
VERTEX
  8
0
 10
91.194382
 20
78.74381
 30
0.0
  0
VERTEX
  8
0
 10
90.040968
 20
77.211428
 30
0.0
  0
VERTEX
  8
0
 10
89.29116
 20
75.439524
 30
0.0
  0
VERTEX
  8
0
 10
89.051638
 20
73.532238
 30
0.0
  0
VERTEX
  8
0
 10
88.878156
 20
72.1487
 30
0.0
  0
VERTEX
  8
0
 10
88.33104
 20
70.861428
 30
0.0
  0
VERTEX
  8
0
 10
87.4903
 20
69.75221
 30
0.0
  0
VERTEX
  8
0
 10
86.380828
 20
68.911724
 30
0.0
  0
VERTEX
  8
0
 10
85.09381
 20
68.364354
 30
0.0
  0
VERTEX
  8
0
 10
83.711796
 20
68.192396
 30
0.0
  0
VERTEX
  8
0
 10
78.8279133077
 20
68.192396
 30
0.0
  0
VERTEX
  8
0
 10
73.9440306154
 20
68.192396
 30
0.0
  0
VERTEX
  8
0
 10
69.0601479231
 20
68.192396
 30
0.0
  0
VERTEX
  8
0
 10
64.1762652308
 20
68.192396
 30
0.0
  0
VERTEX
  8
0
 10
59.2923825385
 20
68.192396
 30
0.0
  0
VERTEX
  8
0
 10
54.4084998462
 20
68.192396
 30
0.0
  0
VERTEX
  8
0
 10
49.5246171538
 20
68.192396
 30
0.0
  0
VERTEX
  8
0
 10
44.6407344615
 20
68.192396
 30
0.0
  0
VERTEX
  8
0
 10
39.7568517692
 20
68.192396
 30
0.0
  0
VERTEX
  8
0
 10
34.8729690769
 20
68.192396
 30
0.0
  0
VERTEX
  8
0
 10
29.9890863846
 20
68.192396
 30
0.0
  0
VERTEX
  8
0
 10
25.1052036923
 20
68.192396
 30
0.0
  0
VERTEX
  8
0
 10
20.221321
 20
68.192396
 30
0.0
  0
VERTEX
  8
0
 10
18.836386
 20
68.364354
 30
0.0
  0
VERTEX
  8
0
 10
17.5506888
 20
68.911724
 30
0.0
  0
VERTEX
  8
0
 10
16.4399976
 20
69.75221
 30
0.0
  0
VERTEX
  8
0
 10
15.6007816
 20
70.861428
 30
0.0
  0
VERTEX
  8
0
 10
15.0523194
 20
72.1487
 30
0.0
  0
VERTEX
  8
0
 10
14.8814282
 20
73.532238
 30
0.0
  0
VERTEX
  8
0
 10
14.6402806
 20
75.439524
 30
0.0
  0
VERTEX
  8
0
 10
13.890625
 20
77.211428
 30
0.0
  0
VERTEX
  8
0
 10
12.737211
 20
78.74381
 30
0.0
  0
VERTEX
  8
0
 10
11.2006888
 20
79.901288
 30
0.0
  0
VERTEX
  8
0
 10
9.432671
 20
80.652366
 30
0.0
  0
VERTEX
  8
0
 10
7.5309984
 20
80.892396
 30
0.0
  0
VERTEX
  8
0
 10
5.6196484
 20
80.652366
 30
0.0
  0
VERTEX
  8
0
 10
3.8516306
 20
79.901288
 30
0.0
  0
VERTEX
  8
0
 10
2.3137368
 20
78.74381
 30
0.0
  0
VERTEX
  8
0
 10
1.1616944
 20
77.211428
 30
0.0
  0
VERTEX
  8
0
 10
0.4106672
 20
75.439524
 30
0.0
  0
VERTEX
  8
0
 10
0.1708658
 20
73.532238
 30
0.0
  0
VERTEX
  8
0
 10
0.1405636
 20
73.532238
 30
0.0
  0
VERTEX
  8
0
 10
0.1405636
 20
68.6830362545
 30
0.0
  0
VERTEX
  8
0
 10
0.1405636
 20
63.8338345091
 30
0.0
  0
VERTEX
  8
0
 10
0.1405636
 20
58.9846327636
 30
0.0
  0
VERTEX
  8
0
 10
0.1405636
 20
54.1354310182
 30
0.0
  0
VERTEX
  8
0
 10
0.1405636
 20
49.2862292727
 30
0.0
  0
VERTEX
  8
0
 10
0.1405636
 20
44.4370275273
 30
0.0
  0
VERTEX
  8
0
 10
0.1405636
 20
39.5878257818
 30
0.0
  0
VERTEX
  8
0
 10
0.1405636
 20
34.7386240364
 30
0.0
  0
VERTEX
  8
0
 10
0.1405636
 20
29.8894222909
 30
0.0
  0
VERTEX
  8
0
 10
0.1405636
 20
25.0402205455
 30
0.0
  0
VERTEX
  8
0
 10
0.1405636
 20
20.1910188
 30
0.0
  0
SEQEND
  8
0
  0
POLYLINE
  8
0
 62
0
 70
1
 66
1
 10
0.0
 20
0.0
 30
0.0
  0
VERTEX
  8
0
 10
3.9508176
 20
19.6811646
 30
0.0
  0
VERTEX
  8
0
 10
4.8410622
 20
19.9209406
 30
0.0
  0
VERTEX
  8
0
 10
5.49148
 20
20.5713584
 30
0.0
  0
VERTEX
  8
0
 10
5.731256
 20
21.4615522
 30
0.0
  0
VERTEX
  8
0
 10
5.49148
 20
22.3517968
 30
0.0
  0
VERTEX
  8
0
 10
4.8410622
 20
23.0022146
 30
0.0
  0
VERTEX
  8
0
 10
3.9508176
 20
23.2419906
 30
0.0
  0
VERTEX
  8
0
 10
3.0606238
 20
23.0022146
 30
0.0
  0
VERTEX
  8
0
 10
2.4115776
 20
22.3517968
 30
0.0
  0
VERTEX
  8
0
 10
2.1717762
 20
21.4615522
 30
0.0
  0
VERTEX
  8
0
 10
2.4115776
 20
20.5713584
 30
0.0
  0
VERTEX
  8
0
 10
3.0606238
 20
19.9209406
 30
0.0
  0
SEQEND
  8
0
  0
POLYLINE
  8
0
 62
0
 70
1
 66
1
 10
0.0
 20
0.0
 30
0.0
  0
VERTEX
  8
0
 10
99.971098
 20
19.6811646
 30
0.0
  0
VERTEX
  8
0
 10
100.861368
 20
19.9209406
 30
0.0
  0
VERTEX
  8
0
 10
101.510338
 20
20.5713584
 30
0.0
  0
VERTEX
  8
0
 10
101.751638
 20
21.4615522
 30
0.0
  0
VERTEX
  8
0
 10
101.510338
 20
22.3517968
 30
0.0
  0
VERTEX
  8
0
 10
100.861368
 20
23.0022146
 30
0.0
  0
VERTEX
  8
0
 10
99.971098
 20
23.2419906
 30
0.0
  0
VERTEX
  8
0
 10
99.080828
 20
23.0022146
 30
0.0
  0
VERTEX
  8
0
 10
98.430588
 20
22.3517968
 30
0.0
  0
VERTEX
  8
0
 10
98.190812
 20
21.4615522
 30
0.0
  0
VERTEX
  8
0
 10
98.430588
 20
20.5713584
 30
0.0
  0
VERTEX
  8
0
 10
99.080828
 20
19.9209406
 30
0.0
  0
SEQEND
  8
0
  0
POLYLINE
  8
0
 62
0
 70
1
 66
1
 10
0.0
 20
0.0
 30
0.0
  0
VERTEX
  8
0
 10
3.9508176
 20
71.68134
 30
0.0
  0
VERTEX
  8
0
 10
4.8410622
 20
71.921116
 30
0.0
  0
VERTEX
  8
0
 10
5.49148
 20
72.57161
 30
0.0
  0
VERTEX
  8
0
 10
5.731256
 20
73.461626
 30
0.0
  0
VERTEX
  8
0
 10
5.49148
 20
74.350626
 30
0.0
  0
VERTEX
  8
0
 10
4.8410622
 20
75.001374
 30
0.0
  0
VERTEX
  8
0
 10
3.9508176
 20
75.242166
 30
0.0
  0
VERTEX
  8
0
 10
3.0606238
 20
75.001374
 30
0.0
  0
VERTEX
  8
0
 10
2.4115776
 20
74.350626
 30
0.0
  0
VERTEX
  8
0
 10
2.1717762
 20
73.461626
 30
0.0
  0
VERTEX
  8
0
 10
2.4115776
 20
72.57161
 30
0.0
  0
VERTEX
  8
0
 10
3.0606238
 20
71.921116
 30
0.0
  0
SEQEND
  8
0
  0
POLYLINE
  8
0
 62
0
 70
1
 66
1
 10
0.0
 20
0.0
 30
0.0
  0
VERTEX
  8
0
 10
99.971098
 20
71.68134
 30
0.0
  0
VERTEX
  8
0
 10
100.861368
 20
71.921116
 30
0.0
  0
VERTEX
  8
0
 10
101.510338
 20
72.57161
 30
0.0
  0
VERTEX
  8
0
 10
101.751638
 20
73.461626
 30
0.0
  0
VERTEX
  8
0
 10
101.510338
 20
74.350626
 30
0.0
  0
VERTEX
  8
0
 10
100.861368
 20
75.001374
 30
0.0
  0
VERTEX
  8
0
 10
99.971098
 20
75.242166
 30
0.0
  0
VERTEX
  8
0
 10
99.080828
 20
75.001374
 30
0.0
  0
VERTEX
  8
0
 10
98.430588
 20
74.350626
 30
0.0
  0
VERTEX
  8
0
 10
98.190812
 20
73.461626
 30
0.0
  0
VERTEX
  8
0
 10
98.430588
 20
72.57161
 30
0.0
  0
VERTEX
  8
0
 10
99.080828
 20
71.921116
 30
0.0
  0
SEQEND
  8
0
  0
POLYLINE
  8
0
 62
0
 70
1
 66
1
 10
0.0
 20
0.0
 30
0.0
  0
VERTEX
  8
0
 10
97.811844
 20
42.651426
 30
0.0
  0
VERTEX
  8
0
 10
98.70059
 20
42.891456
 30
0.0
  0
VERTEX
  8
0
 10
99.351084
 20
43.54195
 30
0.0
  0
VERTEX
  8
0
 10
99.59086
 20
44.431966
 30
0.0
  0
VERTEX
  8
0
 10
99.351084
 20
45.320966
 30
0.0
  0
VERTEX
  8
0
 10
98.70059
 20
45.97146
 30
0.0
  0
VERTEX
  8
0
 10
97.811844
 20
46.210982
 30
0.0
  0
VERTEX
  8
0
 10
96.921574
 20
45.97146
 30
0.0
  0
VERTEX
  8
0
 10
96.271334
 20
45.320966
 30
0.0
  0
VERTEX
  8
0
 10
96.031304
 20
44.431966
 30
0.0
  0
VERTEX
  8
0
 10
96.271334
 20
43.54195
 30
0.0
  0
VERTEX
  8
0
 10
96.921574
 20
42.891456
 30
0.0
  0
SEQEND
  8
0
  0
POLYLINE
  8
0
 62
0
 70
1
 66
1
 10
0.0
 20
0.0
 30
0.0
  0
VERTEX
  8
0
 10
3.9508176
 20
47.721266
 30
0.0
  0
VERTEX
  8
0
 10
3.0606238
 20
47.961296
 30
0.0
  0
VERTEX
  8
0
 10
2.4115776
 20
48.61179
 30
0.0
  0
VERTEX
  8
0
 10
2.1717762
 20
49.501806
 30
0.0
  0
VERTEX
  8
0
 10
2.4115776
 20
50.392076
 30
0.0
  0
VERTEX
  8
0
 10
3.0606238
 20
51.039776
 30
0.0
  0
VERTEX
  8
0
 10
3.9508176
 20
51.282346
 30
0.0
  0
VERTEX
  8
0
 10
4.8410622
 20
51.039776
 30
0.0
  0
VERTEX
  8
0
 10
5.49148
 20
50.392076
 30
0.0
  0
VERTEX
  8
0
 10
5.731256
 20
49.501806
 30
0.0
  0
VERTEX
  8
0
 10
5.49148
 20
48.61179
 30
0.0
  0
VERTEX
  8
0
 10
4.8410622
 20
47.961296
 30
0.0
  0
SEQEND
  8
0
  0
ENDBLK
  0
ENDSEC
  0
SECTION
  2
ENTITIES
  0
INSERT
  2
SCALE
  8
0
 10
0.0
 20
0.0
 30
0.0
  0
ENDSEC
  0
EOF
