  0
SECTION
  2
HEADER
  9
$ACADVER
  1
AC1009
  9
$INSBASE
 10
0.0
 20
0.0
 30
0.0
  9
$EXTMIN
 10
0.0
 20
0.0
 30
0.0
  9
$EXTMAX
 10
0.0
 20
0.0
 30
0.0
  0
ENDSEC
  0
SECTION
  2
TABLES
  0
TABLE
  2
VPORT
 70
0
  0
ENDTAB
  0
TABLE
  2
LTYPE
 70
1
  0
LTYPE
  2
CONTINUOUS
 70
0
  3
Solid line
 72
65
 73
0
 40
0.0
  0
ENDTAB
  0
TABLE
  2
LAYER
 70
1
  0
LAYER
  2
0
 70
64
 62
7
  6
continuous
  0
ENDTAB
  0
TABLE
  2
STYLE
 70
1
  0
STYLE
  2
STANDARD
 70
0
 40
0
 41
1.0
 50
0.0
 71
0
 42
1
 3
ARIAL.TTF
 4

  0
ENDTAB
  0
TABLE
  2
VIEW
 70
0
  0
ENDTAB
  0
ENDSEC
  0
SECTION
  2
BLOCKS
  0
BLOCK
  8
0
  2
SCALE
 70
0
 10
0.0
 20
0.0
 30
0.0
  3
SCALE
  0
POLYLINE
  8
0
 62
0
 70
1
 66
1
 10
0.0
 20
0.0
 30
0.0
  0
VERTEX
  8
0
 10
18.6214512
 20
12.5415294
 30
0.0
  0
VERTEX
  8
0
 10
18.374741
 20
12.646279
 30
0.0
  0
VERTEX
  8
0
 10
18.2714138
 20
12.8915668
 30
0.0
  0
VERTEX
  8
0
 10
18.2714138
 20
16.0610296
 30
0.0
  0
VERTEX
  8
0
 10
18.374741
 20
16.3077144
 30
0.0
  0
VERTEX
  8
0
 10
18.6214512
 20
16.4110416
 30
0.0
  0
VERTEX
  8
0
 10
23.3312589
 20
16.4110416
 30
0.0
  0
VERTEX
  8
0
 10
28.0410666
 20
16.4110416
 30
0.0
  0
VERTEX
  8
0
 10
32.7508743
 20
16.4110416
 30
0.0
  0
VERTEX
  8
0
 10
37.460682
 20
16.4110416
 30
0.0
  0
VERTEX
  8
0
 10
37.706046
 20
16.3077144
 30
0.0
  0
VERTEX
  8
0
 10
37.810694
 20
16.0610296
 30
0.0
  0
VERTEX
  8
0
 10
37.810694
 20
12.8915668
 30
0.0
  0
VERTEX
  8
0
 10
37.706046
 20
12.646279
 30
0.0
  0
VERTEX
  8
0
 10
37.460682
 20
12.5415294
 30
0.0
  0
VERTEX
  8
0
 10
32.7508743
 20
12.5415294
 30
0.0
  0
VERTEX
  8
0
 10
28.0410666
 20
12.5415294
 30
0.0
  0
VERTEX
  8
0
 10
23.3312589
 20
12.5415294
 30
0.0
  0
SEQEND
  8
0
  0
POLYLINE
  8
0
 62
0
 70
1
 66
1
 10
0.0
 20
0.0
 30
0.0
  0
VERTEX
  8
0
 10
18.6214512
 20
12.5415294
 30
0.0
  0
VERTEX
  8
0
 10
18.374741
 20
12.646279
 30
0.0
  0
VERTEX
  8
0
 10
18.2714138
 20
12.8915668
 30
0.0
  0
VERTEX
  8
0
 10
18.2714138
 20
16.0610296
 30
0.0
  0
VERTEX
  8
0
 10
18.374741
 20
16.3077144
 30
0.0
  0
VERTEX
  8
0
 10
18.6214512
 20
16.4110416
 30
0.0
  0
VERTEX
  8
0
 10
23.3312589
 20
16.4110416
 30
0.0
  0
VERTEX
  8
0
 10
28.0410666
 20
16.4110416
 30
0.0
  0
VERTEX
  8
0
 10
32.7508743
 20
16.4110416
 30
0.0
  0
VERTEX
  8
0
 10
37.460682
 20
16.4110416
 30
0.0
  0
VERTEX
  8
0
 10
37.706046
 20
16.3077144
 30
0.0
  0
VERTEX
  8
0
 10
37.810694
 20
16.0610296
 30
0.0
  0
VERTEX
  8
0
 10
37.810694
 20
12.8915668
 30
0.0
  0
VERTEX
  8
0
 10
37.706046
 20
12.646279
 30
0.0
  0
VERTEX
  8
0
 10
37.460682
 20
12.5415294
 30
0.0
  0
VERTEX
  8
0
 10
32.7508743
 20
12.5415294
 30
0.0
  0
VERTEX
  8
0
 10
28.0410666
 20
12.5415294
 30
0.0
  0
VERTEX
  8
0
 10
23.3312589
 20
12.5415294
 30
0.0
  0
SEQEND
  8
0
  0
POLYLINE
  8
0
 62
0
 70
1
 66
1
 10
0.0
 20
0.0
 30
0.0
  0
VERTEX
  8
0
 10
14.371574
 20
17.5520604
 30
0.0
  0
VERTEX
  8
0
 10
13.8768328
 20
17.6526952
 30
0.0
  0
VERTEX
  8
0
 10
13.4730744
 20
17.924145
 30
0.0
  0
VERTEX
  8
0
 10
13.2002276
 20
18.3279034
 30
0.0
  0
VERTEX
  8
0
 10
13.1009898
 20
18.819876
 30
0.0
  0
VERTEX
  8
0
 10
13.1009898
 20
23.0518123333
 30
0.0
  0
VERTEX
  8
0
 10
13.1009898
 20
27.2837486667
 30
0.0
  0
VERTEX
  8
0
 10
13.1009898
 20
31.515685
 30
0.0
  0
VERTEX
  8
0
 10
13.1009898
 20
35.7476213333
 30
0.0
  0
VERTEX
  8
0
 10
13.1009898
 20
39.9795576667
 30
0.0
  0
VERTEX
  8
0
 10
13.1009898
 20
44.211494
 30
0.0
  0
VERTEX
  8
0
 10
13.2002276
 20
44.705016
 30
0.0
  0
VERTEX
  8
0
 10
13.4730744
 20
45.110146
 30
0.0
  0
VERTEX
  8
0
 10
13.8768328
 20
45.383196
 30
0.0
  0
VERTEX
  8
0
 10
14.371574
 20
45.482256
 30
0.0
  0
VERTEX
  8
0
 10
17.7663729
 20
45.482256
 30
0.0
  0
VERTEX
  8
0
 10
21.1611718
 20
45.482256
 30
0.0
  0
VERTEX
  8
0
 10
21.6544906
 20
45.383196
 30
0.0
  0
VERTEX
  8
0
 10
22.058249
 20
45.110146
 30
0.0
  0
VERTEX
  8
0
 10
22.3311212
 20
44.705016
 30
0.0
  0
VERTEX
  8
0
 10
22.4316798
 20
44.211494
 30
0.0
  0
VERTEX
  8
0
 10
22.4316798
 20
39.9795576667
 30
0.0
  0
VERTEX
  8
0
 10
22.4316798
 20
35.7476213333
 30
0.0
  0
VERTEX
  8
0
 10
22.4316798
 20
31.515685
 30
0.0
  0
VERTEX
  8
0
 10
22.4316798
 20
27.2837486667
 30
0.0
  0
VERTEX
  8
0
 10
22.4316798
 20
23.0518123333
 30
0.0
  0
VERTEX
  8
0
 10
22.4316798
 20
18.819876
 30
0.0
  0
VERTEX
  8
0
 10
22.3311212
 20
18.3279034
 30
0.0
  0
VERTEX
  8
0
 10
22.058249
 20
17.924145
 30
0.0
  0
VERTEX
  8
0
 10
21.6544906
 20
17.6526952
 30
0.0
  0
VERTEX
  8
0
 10
21.1611718
 20
17.5520604
 30
0.0
  0
VERTEX
  8
0
 10
17.7663729
 20
17.5520604
 30
0.0
  0
SEQEND
  8
0
  0
POLYLINE
  8
0
 62
0
 70
1
 66
1
 10
0.0
 20
0.0
 30
0.0
  0
VERTEX
  8
0
 10
1.901698
 20
52.412138
 30
0.0
  0
VERTEX
  8
0
 10
1.6550132
 20
52.51704
 30
0.0
  0
VERTEX
  8
0
 10
1.5516606
 20
52.762404
 30
0.0
  0
VERTEX
  8
0
 10
1.5516606
 20
56.521604
 30
0.0
  0
VERTEX
  8
0
 10
1.6550132
 20
56.768238
 30
0.0
  0
VERTEX
  8
0
 10
1.901698
 20
56.871616
 30
0.0
  0
VERTEX
  8
0
 10
5.7716928
 20
56.871616
 30
0.0
  0
VERTEX
  8
0
 10
9.6416876
 20
56.871616
 30
0.0
  0
VERTEX
  8
0
 10
13.5116824
 20
56.871616
 30
0.0
  0
VERTEX
  8
0
 10
13.7569702
 20
56.768238
 30
0.0
  0
VERTEX
  8
0
 10
13.8616944
 20
56.521604
 30
0.0
  0
VERTEX
  8
0
 10
13.8616944
 20
54.140354
 30
0.0
  0
VERTEX
  8
0
 10
13.871321
 20
54.061868
 30
0.0
  0
VERTEX
  8
0
 10
13.871321
 20
50.701448
 30
0.0
  0
VERTEX
  8
0
 10
13.871321
 20
47.341028
 30
0.0
  0
VERTEX
  8
0
 10
13.7665968
 20
47.095918
 30
0.0
  0
VERTEX
  8
0
 10
13.521309
 20
46.991016
 30
0.0
  0
VERTEX
  8
0
 10
10.5364915
 20
46.991016
 30
0.0
  0
VERTEX
  8
0
 10
7.551674
 20
46.991016
 30
0.0
  0
VERTEX
  8
0
 10
7.3049638
 20
47.095918
 30
0.0
  0
VERTEX
  8
0
 10
7.2016366
 20
47.341028
 30
0.0
  0
VERTEX
  8
0
 10
7.2016366
 20
49.876583
 30
0.0
  0
VERTEX
  8
0
 10
7.2016366
 20
52.412138
 30
0.0
  0
VERTEX
  8
0
 10
4.5516673
 20
52.412138
 30
0.0
  0
SEQEND
  8
0
  0
POLYLINE
  8
0
 62
0
 70
1
 66
1
 10
0.0
 20
0.0
 30
0.0
  0
VERTEX
  8
0
 10
15.9714438
 20
46.302168
 30
0.0
  0
VERTEX
  8
0
 10
15.7247844
 20
46.406816
 30
0.0
  0
VERTEX
  8
0
 10
15.6214572
 20
46.651926
 30
0.0
  0
VERTEX
  8
0
 10
15.6214572
 20
50.341022
 30
0.0
  0
VERTEX
  8
0
 10
15.7247844
 20
50.587656
 30
0.0
  0
VERTEX
  8
0
 10
15.9714438
 20
50.691034
 30
0.0
  0
VERTEX
  8
0
 10
18.8115956
 20
50.691034
 30
0.0
  0
VERTEX
  8
0
 10
21.6517474
 20
50.691034
 30
0.0
  0
VERTEX
  8
0
 10
21.8970352
 20
50.587656
 30
0.0
  0
VERTEX
  8
0
 10
22.0017594
 20
50.341022
 30
0.0
  0
VERTEX
  8
0
 10
22.0017594
 20
46.651926
 30
0.0
  0
VERTEX
  8
0
 10
21.8970352
 20
46.406816
 30
0.0
  0
VERTEX
  8
0
 10
21.6517474
 20
46.302168
 30
0.0
  0
VERTEX
  8
0
 10
18.8115956
 20
46.302168
 30
0.0
  0
SEQEND
  8
0
  0
POLYLINE
  8
0
 62
0
 70
1
 66
1
 10
0.0
 20
0.0
 30
0.0
  0
VERTEX
  8
0
 10
3.9508176
 20
19.6921628
 30
0.0
  0
VERTEX
  8
0
 10
3.0606238
 20
19.9319388
 30
0.0
  0
VERTEX
  8
0
 10
2.4115776
 20
20.580985
 30
0.0
  0
VERTEX
  8
0
 10
2.1717762
 20
21.4712296
 30
0.0
  0
VERTEX
  8
0
 10
2.4115776
 20
22.3614234
 30
0.0
  0
VERTEX
  8
0
 10
3.0606238
 20
23.0118666
 30
0.0
  0
VERTEX
  8
0
 10
3.9508176
 20
23.2516426
 30
0.0
  0
VERTEX
  8
0
 10
4.8410622
 20
23.0118666
 30
0.0
  0
VERTEX
  8
0
 10
5.49148
 20
22.3614234
 30
0.0
  0
VERTEX
  8
0
 10
5.731256
 20
21.4712296
 30
0.0
  0
VERTEX
  8
0
 10
5.49148
 20
20.580985
 30
0.0
  0
VERTEX
  8
0
 10
4.8410622
 20
19.9319388
 30
0.0
  0
SEQEND
  8
0
  0
POLYLINE
  8
0
 62
0
 70
1
 66
1
 10
0.0
 20
0.0
 30
0.0
  0
VERTEX
  8
0
 10
99.971098
 20
19.6921628
 30
0.0
  0
VERTEX
  8
0
 10
99.080828
 20
19.9319388
 30
0.0
  0
VERTEX
  8
0
 10
98.430588
 20
20.580985
 30
0.0
  0
VERTEX
  8
0
 10
98.190812
 20
21.4712296
 30
0.0
  0
VERTEX
  8
0
 10
98.430588
 20
22.3614234
 30
0.0
  0
VERTEX
  8
0
 10
99.080828
 20
23.0118666
 30
0.0
  0
VERTEX
  8
0
 10
99.971098
 20
23.2516426
 30
0.0
  0
VERTEX
  8
0
 10
100.861368
 20
23.0118666
 30
0.0
  0
VERTEX
  8
0
 10
101.510338
 20
22.3614234
 30
0.0
  0
VERTEX
  8
0
 10
101.751638
 20
21.4712296
 30
0.0
  0
VERTEX
  8
0
 10
101.510338
 20
20.580985
 30
0.0
  0
VERTEX
  8
0
 10
100.861368
 20
19.9319388
 30
0.0
  0
SEQEND
  8
0
  0
POLYLINE
  8
0
 62
0
 70
1
 66
1
 10
0.0
 20
0.0
 30
0.0
  0
VERTEX
  8
0
 10
3.9508176
 20
71.691246
 30
0.0
  0
VERTEX
  8
0
 10
3.0606238
 20
71.932038
 30
0.0
  0
VERTEX
  8
0
 10
2.4115776
 20
72.581262
 30
0.0
  0
VERTEX
  8
0
 10
2.1717762
 20
73.470262
 30
0.0
  0
VERTEX
  8
0
 10
2.4115776
 20
74.361802
 30
0.0
  0
VERTEX
  8
0
 10
3.0606238
 20
75.012296
 30
0.0
  0
VERTEX
  8
0
 10
3.9508176
 20
75.252072
 30
0.0
  0
VERTEX
  8
0
 10
4.8410622
 20
75.012296
 30
0.0
  0
VERTEX
  8
0
 10
5.49148
 20
74.361802
 30
0.0
  0
VERTEX
  8
0
 10
5.731256
 20
73.470262
 30
0.0
  0
VERTEX
  8
0
 10
5.49148
 20
72.581262
 30
0.0
  0
VERTEX
  8
0
 10
4.8410622
 20
71.932038
 30
0.0
  0
SEQEND
  8
0
  0
POLYLINE
  8
0
 62
0
 70
1
 66
1
 10
0.0
 20
0.0
 30
0.0
  0
VERTEX
  8
0
 10
99.971098
 20
71.691246
 30
0.0
  0
VERTEX
  8
0
 10
99.080828
 20
71.932038
 30
0.0
  0
VERTEX
  8
0
 10
98.430588
 20
72.581262
 30
0.0
  0
VERTEX
  8
0
 10
98.190812
 20
73.470262
 30
0.0
  0
VERTEX
  8
0
 10
98.430588
 20
74.361802
 30
0.0
  0
VERTEX
  8
0
 10
99.080828
 20
75.012296
 30
0.0
  0
VERTEX
  8
0
 10
99.971098
 20
75.252072
 30
0.0
  0
VERTEX
  8
0
 10
100.861368
 20
75.012296
 30
0.0
  0
VERTEX
  8
0
 10
101.510338
 20
74.361802
 30
0.0
  0
VERTEX
  8
0
 10
101.751638
 20
73.470262
 30
0.0
  0
VERTEX
  8
0
 10
101.510338
 20
72.581262
 30
0.0
  0
VERTEX
  8
0
 10
100.861368
 20
71.932038
 30
0.0
  0
SEQEND
  8
0
  0
POLYLINE
  8
0
 62
0
 70
1
 66
1
 10
0.0
 20
0.0
 30
0.0
  0
VERTEX
  8
0
 10
40.451024
 20
9.811639
 30
0.0
  0
VERTEX
  8
0
 10
40.277288
 20
9.8888296
 30
0.0
  0
VERTEX
  8
0
 10
40.201596
 20
10.0610416
 30
0.0
  0
VERTEX
  8
0
 10
40.201596
 20
13.6604883
 30
0.0
  0
VERTEX
  8
0
 10
40.201596
 20
17.259935
 30
0.0
  0
VERTEX
  8
0
 10
40.139366
 20
17.5424338
 30
0.0
  0
VERTEX
  8
0
 10
39.710868
 20
17.729835
 30
0.0
  0
VERTEX
  8
0
 10
36.32581
 20
17.729835
 30
0.0
  0
VERTEX
  8
0
 10
32.940752
 20
17.729835
 30
0.0
  0
VERTEX
  8
0
 10
32.693864
 20
17.8345846
 30
0.0
  0
VERTEX
  8
0
 10
32.590486
 20
18.081244
 30
0.0
  0
VERTEX
  8
0
 10
32.590486
 20
19.0816738
 30
0.0
  0
VERTEX
  8
0
 10
32.489902
 20
19.3297556
 30
0.0
  0
VERTEX
  8
0
 10
32.211772
 20
19.4206876
 30
0.0
  0
VERTEX
  8
0
 10
29.27096
 20
19.4206876
 30
0.0
  0
VERTEX
  8
0
 10
28.9814
 20
19.3077084
 30
0.0
  0
VERTEX
  8
0
 10
28.880816
 20
19.0816738
 30
0.0
  0
VERTEX
  8
0
 10
28.880816
 20
18.431256
 30
0.0
  0
VERTEX
  8
0
 10
28.67152
 20
17.9296568
 30
0.0
  0
VERTEX
  8
0
 10
28.17114
 20
17.72158
 30
0.0
  0
VERTEX
  8
0
 10
25.521412
 20
17.72158
 30
0.0
  0
VERTEX
  8
0
 10
25.0196604
 20
17.9296568
 30
0.0
  0
VERTEX
  8
0
 10
24.8115582
 20
18.431256
 30
0.0
  0
VERTEX
  8
0
 10
24.8115582
 20
23.0212392
 30
0.0
  0
VERTEX
  8
0
 10
24.8115582
 20
27.6112224
 30
0.0
  0
VERTEX
  8
0
 10
24.8115582
 20
32.2012056
 30
0.0
  0
VERTEX
  8
0
 10
24.8115582
 20
36.7911888
 30
0.0
  0
VERTEX
  8
0
 10
24.8115582
 20
41.381172
 30
0.0
  0
VERTEX
  8
0
 10
25.0196604
 20
41.884346
 30
0.0
  0
VERTEX
  8
0
 10
25.521412
 20
42.092118
 30
0.0
  0
VERTEX
  8
0
 10
28.441396
 20
42.092118
 30
0.0
  0
VERTEX
  8
0
 10
28.780232
 20
41.977818
 30
0.0
  0
VERTEX
  8
0
 10
28.880816
 20
41.6814
 30
0.0
  0
VERTEX
  8
0
 10
29.051758
 20
41.376854
 30
0.0
  0
VERTEX
  8
0
 10
29.411422
 20
41.282112
 30
0.0
  0
VERTEX
  8
0
 10
29.993082
 20
41.284652
 30
0.0
  0
VERTEX
  8
0
 10
31.338012
 20
41.288716
 30
0.0
  0
VERTEX
  8
0
 10
33.268666
 20
41.295828
 30
0.0
  0
VERTEX
  8
0
 10
35.609784
 20
41.305226
 30
0.0
  0
VERTEX
  8
0
 10
38.185344
 20
41.314878
 30
0.0
  0
VERTEX
  8
0
 10
40.82034
 20
41.324784
 30
0.0
  0
VERTEX
  8
0
 10
43.336718
 20
41.334182
 30
0.0
  0
VERTEX
  8
0
 10
45.560488
 20
41.341294
 30
0.0
  0
VERTEX
  8
0
 10
45.789596
 20
41.363138
 30
0.0
  0
VERTEX
  8
0
 10
46.106334
 20
41.46931
 30
0.0
  0
VERTEX
  8
0
 10
46.388782
 20
41.721532
 30
0.0
  0
VERTEX
  8
0
 10
46.511718
 20
42.181526
 30
0.0
  0
VERTEX
  8
0
 10
46.511718
 20
43.342052
 30
0.0
  0
VERTEX
  8
0
 10
46.719744
 20
44.372784
 30
0.0
  0
VERTEX
  8
0
 10
47.288704
 20
45.214794
 30
0.0
  0
VERTEX
  8
0
 10
48.130968
 20
45.783754
 30
0.0
  0
VERTEX
  8
0
 10
49.161446
 20
45.992034
 30
0.0
  0
VERTEX
  8
0
 10
51.971321
 20
45.992034
 30
0.0
  0
VERTEX
  8
0
 10
54.781196
 20
45.992034
 30
0.0
  0
VERTEX
  8
0
 10
55.394098
 20
46.00575
 30
0.0
  0
VERTEX
  8
0
 10
56.021478
 20
46.145196
 30
0.0
  0
VERTEX
  8
0
 10
56.499506
 20
46.565312
 30
0.0
  0
VERTEX
  8
0
 10
56.670702
 20
47.421038
 30
0.0
  0
VERTEX
  8
0
 10
56.6734325
 20
51.1913505
 30
0.0
  0
VERTEX
  8
0
 10
56.676163
 20
54.961663
 30
0.0
  0
VERTEX
  8
0
 10
56.6788935
 20
58.7319755
 30
0.0
  0
VERTEX
  8
0
 10
56.681624
 20
62.502288
 30
0.0
  0
VERTEX
  8
0
 10
56.88965
 20
63.003938
 30
0.0
  0
VERTEX
  8
0
 10
57.3913
 20
63.210694
 30
0.0
  0
VERTEX
  8
0
 10
61.6213313333
 20
63.210694
 30
0.0
  0
VERTEX
  8
0
 10
65.8513626667
 20
63.210694
 30
0.0
  0
VERTEX
  8
0
 10
70.081394
 20
63.210694
 30
0.0
  0
VERTEX
  8
0
 10
70.581774
 20
63.003938
 30
0.0
  0
VERTEX
  8
0
 10
70.791324
 20
62.502288
 30
0.0
  0
VERTEX
  8
0
 10
70.791324
 20
59.472068
 30
0.0
  0
VERTEX
  8
0
 10
70.962012
 20
59.069478
 30
0.0
  0
VERTEX
  8
0
 10
71.381112
 20
58.921904
 30
0.0
  0
VERTEX
  8
0
 10
75.2542733333
 20
58.921904
 30
0.0
  0
VERTEX
  8
0
 10
79.1274346667
 20
58.921904
 30
0.0
  0
VERTEX
  8
0
 10
83.000596
 20
58.921904
 30
0.0
  0
VERTEX
  8
0
 10
83.502246
 20
58.714132
 30
0.0
  0
VERTEX
  8
0
 10
83.711796
 20
58.211212
 30
0.0
  0
VERTEX
  8
0
 10
83.711796
 20
53.4586815
 30
0.0
  0
VERTEX
  8
0
 10
83.711796
 20
48.706151
 30
0.0
  0
VERTEX
  8
0
 10
83.711796
 20
43.9536205
 30
0.0
  0
VERTEX
  8
0
 10
83.711796
 20
39.20109
 30
0.0
  0
VERTEX
  8
0
 10
83.926426
 20
38.738048
 30
0.0
  0
VERTEX
  8
0
 10
84.421472
 20
38.551866
 30
0.0
  0
VERTEX
  8
0
 10
85.279738
 20
38.546532
 30
0.0
  0
VERTEX
  8
0
 10
87.367618
 20
38.543738
 30
0.0
  0
VERTEX
  8
0
 10
89.947496
 20
38.543738
 30
0.0
  0
VERTEX
  8
0
 10
92.281756
 20
38.542468
 30
0.0
  0
VERTEX
  8
0
 10
92.453968
 20
38.466522
 30
0.0
  0
VERTEX
  8
0
 10
92.531184
 20
38.291516
 30
0.0
  0
VERTEX
  8
0
 10
92.531184
 20
34.209736
 30
0.0
  0
VERTEX
  8
0
 10
92.453968
 20
34.039048
 30
0.0
  0
VERTEX
  8
0
 10
92.281756
 20
33.961832
 30
0.0
  0
VERTEX
  8
0
 10
88.351614
 20
33.961832
 30
0.0
  0
VERTEX
  8
0
 10
84.421472
 20
33.961832
 30
0.0
  0
VERTEX
  8
0
 10
83.926426
 20
33.771586
 30
0.0
  0
VERTEX
  8
0
 10
83.711796
 20
33.340294
 30
0.0
  0
VERTEX
  8
0
 10
83.711796
 20
28.7764982
 30
0.0
  0
VERTEX
  8
0
 10
83.711796
 20
24.2127024
 30
0.0
  0
VERTEX
  8
0
 10
83.711796
 20
19.6489066
 30
0.0
  0
VERTEX
  8
0
 10
83.711796
 20
15.0851108
 30
0.0
  0
VERTEX
  8
0
 10
83.711796
 20
10.521315
 30
0.0
  0
VERTEX
  8
0
 10
83.502246
 20
10.0211128
 30
0.0
  0
VERTEX
  8
0
 10
83.000596
 20
9.811639
 30
0.0
  0
VERTEX
  8
0
 10
78.2728657778
 20
9.811639
 30
0.0
  0
VERTEX
  8
0
 10
73.5451355556
 20
9.811639
 30
0.0
  0
VERTEX
  8
0
 10
68.8174053333
 20
9.811639
 30
0.0
  0
VERTEX
  8
0
 10
64.0896751111
 20
9.811639
 30
0.0
  0
VERTEX
  8
0
 10
59.3619448889
 20
9.811639
 30
0.0
  0
VERTEX
  8
0
 10
54.6342146667
 20
9.811639
 30
0.0
  0
VERTEX
  8
0
 10
49.9064844444
 20
9.811639
 30
0.0
  0
VERTEX
  8
0
 10
45.1787542222
 20
9.811639
 30
0.0
  0
SEQEND
  8
0
  0
POLYLINE
  8
0
 62
0
 70
1
 66
1
 10
0.0
 20
0.0
 30
0.0
  0
VERTEX
  8
0
 10
103.760778
 20
58.921904
 30
0.0
  0
VERTEX
  8
0
 10
99.700715
 20
58.921904
 30
0.0
  0
VERTEX
  8
0
 10
95.640652
 20
58.921904
 30
0.0
  0
VERTEX
  8
0
 10
91.580589
 20
58.921904
 30
0.0
  0
VERTEX
  8
0
 10
87.520526
 20
58.921904
 30
0.0
  0
VERTEX
  8
0
 10
87.025988
 20
58.818526
 30
0.0
  0
VERTEX
  8
0
 10
86.623398
 20
58.536332
 30
0.0
  0
VERTEX
  8
0
 10
86.350348
 20
58.125868
 30
0.0
  0
VERTEX
  8
0
 10
86.251288
 20
57.632346
 30
0.0
  0
VERTEX
  8
0
 10
86.251288
 20
52.915312
 30
0.0
  0
VERTEX
  8
0
 10
86.251288
 20
48.198278
 30
0.0
  0
VERTEX
  8
0
 10
86.251288
 20
43.481244
 30
0.0
  0
VERTEX
  8
0
 10
86.361778
 20
42.999152
 30
0.0
  0
VERTEX
  8
0
 10
86.652354
 20
42.596562
 30
0.0
  0
VERTEX
  8
0
 10
87.060278
 20
42.322496
 30
0.0
  0
VERTEX
  8
0
 10
87.520526
 20
42.220388
 30
0.0
  0
VERTEX
  8
0
 10
91.580589
 20
42.220388
 30
0.0
  0
VERTEX
  8
0
 10
95.640652
 20
42.220388
 30
0.0
  0
VERTEX
  8
0
 10
99.700715
 20
42.220388
 30
0.0
  0
VERTEX
  8
0
 10
103.760778
 20
42.220388
 30
0.0
  0
VERTEX
  8
0
 10
103.760778
 20
37.81451416
 30
0.0
  0
VERTEX
  8
0
 10
103.760778
 20
33.40864032
 30
0.0
  0
VERTEX
  8
0
 10
103.760778
 20
29.00276648
 30
0.0
  0
VERTEX
  8
0
 10
103.760778
 20
24.59689264
 30
0.0
  0
VERTEX
  8
0
 10
103.760778
 20
20.1910188
 30
0.0
  0
VERTEX
  8
0
 10
103.521002
 20
18.2879238
 30
0.0
  0
VERTEX
  8
0
 10
102.7811
 20
16.5102794
 30
0.0
  0
VERTEX
  8
0
 10
101.619304
 20
14.9834346
 30
0.0
  0
VERTEX
  8
0
 10
100.09124
 20
13.8203432
 30
0.0
  0
VERTEX
  8
0
 10
98.315018
 20
13.0817112
 30
0.0
  0
VERTEX
  8
0
 10
96.411796
 20
12.8419352
 30
0.0
  0
VERTEX
  8
0
 10
95.026734
 20
12.6696978
 30
0.0
  0
VERTEX
  8
0
 10
93.74124
 20
12.1212356
 30
0.0
  0
VERTEX
  8
0
 10
92.622116
 20
11.2806226
 30
0.0
  0
VERTEX
  8
0
 10
91.781376
 20
10.1602794
 30
0.0
  0
VERTEX
  8
0
 10
91.23299
 20
8.8759538
 30
0.0
  0
VERTEX
  8
0
 10
91.060778
 20
7.4910188
 30
0.0
  0
VERTEX
  8
0
 10
90.821002
 20
5.5879238
 30
0.0
  0
VERTEX
  8
0
 10
90.0811
 20
3.8102794
 30
0.0
  0
VERTEX
  8
0
 10
88.919304
 20
2.2834092
 30
0.0
  0
VERTEX
  8
0
 10
87.39124
 20
1.1203432
 30
0.0
  0
VERTEX
  8
0
 10
85.615018
 20
0.3817112
 30
0.0
  0
VERTEX
  8
0
 10
83.711796
 20
0.1419352
 30
0.0
  0
VERTEX
  8
0
 10
83.711796
 20
0.1502156
 30
0.0
  0
VERTEX
  8
0
 10
79.0080392727
 20
0.1502156
 30
0.0
  0
VERTEX
  8
0
 10
74.3042825455
 20
0.1502156
 30
0.0
  0
VERTEX
  8
0
 10
69.6005258182
 20
0.1502156
 30
0.0
  0
VERTEX
  8
0
 10
64.8967690909
 20
0.1502156
 30
0.0
  0
VERTEX
  8
0
 10
60.1930123636
 20
0.1502156
 30
0.0
  0
VERTEX
  8
0
 10
55.4892556364
 20
0.1502156
 30
0.0
  0
VERTEX
  8
0
 10
50.7854989091
 20
0.1502156
 30
0.0
  0
VERTEX
  8
0
 10
46.0817421818
 20
0.1502156
 30
0.0
  0
VERTEX
  8
0
 10
41.3779854545
 20
0.1502156
 30
0.0
  0
VERTEX
  8
0
 10
36.6742287273
 20
0.1502156
 30
0.0
  0
VERTEX
  8
0
 10
31.970472
 20
0.1502156
 30
0.0
  0
VERTEX
  8
0
 10
31.970472
 20
3.5560381
 30
0.0
  0
VERTEX
  8
0
 10
31.970472
 20
6.9618606
 30
0.0
  0
VERTEX
  8
0
 10
34.561272
 20
6.9618606
 30
0.0
  0
VERTEX
  8
0
 10
34.806382
 20
7.0665848
 30
0.0
  0
VERTEX
  8
0
 10
34.911284
 20
7.310501
 30
0.0
  0
VERTEX
  8
0
 10
34.911284
 20
10.6811572
 30
0.0
  0
VERTEX
  8
0
 10
34.806382
 20
10.9278674
 30
0.0
  0
VERTEX
  8
0
 10
34.561272
 20
11.0311946
 30
0.0
  0
VERTEX
  8
0
 10
29.9761783
 20
11.0311946
 30
0.0
  0
VERTEX
  8
0
 10
25.3910846
 20
11.0311946
 30
0.0
  0
VERTEX
  8
0
 10
20.8059909
 20
11.0311946
 30
0.0
  0
VERTEX
  8
0
 10
16.2208972
 20
11.0311946
 30
0.0
  0
VERTEX
  8
0
 10
15.7192726
 20
10.8231178
 30
0.0
  0
VERTEX
  8
0
 10
15.5112212
 20
10.3214932
 30
0.0
  0
VERTEX
  8
0
 10
15.5112212
 20
6.0812807
 30
0.0
  0
VERTEX
  8
0
 10
15.5112212
 20
1.8410682
 30
0.0
  0
VERTEX
  8
0
 10
14.6058128
 20
2.7422856
 30
0.0
  0
VERTEX
  8
0
 10
13.8506454
 20
3.8212776
 30
0.0
  0
VERTEX
  8
0
 10
13.1092956
 20
5.5976012
 30
0.0
  0
VERTEX
  8
0
 10
12.8708912
 20
7.5006454
 30
0.0
  0
VERTEX
  8
0
 10
12.6986284
 20
8.8855804
 30
0.0
  0
VERTEX
  8
0
 10
12.1515378
 20
10.1712776
 30
0.0
  0
VERTEX
  8
0
 10
11.3109502
 20
11.2902746
 30
0.0
  0
VERTEX
  8
0
 10
10.2016306
 20
12.1308622
 30
0.0
  0
VERTEX
  8
0
 10
8.906256
 20
12.6779528
 30
0.0
  0
VERTEX
  8
0
 10
7.521321
 20
12.8502156
 30
0.0
  0
VERTEX
  8
0
 10
5.6182768
 20
13.0899916
 30
0.0
  0
VERTEX
  8
0
 10
3.8516306
 20
13.8313668
 30
0.0
  0
VERTEX
  8
0
 10
2.3123398
 20
14.9930612
 30
0.0
  0
VERTEX
  8
0
 10
1.1506708
 20
16.5212776
 30
0.0
  0
VERTEX
  8
0
 10
0.4092702
 20
18.2976012
 30
0.0
  0
VERTEX
  8
0
 10
0.1708658
 20
20.2006454
 30
0.0
  0
VERTEX
  8
0
 10
0.1405636
 20
20.1910188
 30
0.0
  0
VERTEX
  8
0
 10
0.1405636
 20
25.0402205455
 30
0.0
  0
VERTEX
  8
0
 10
0.1405636
 20
29.8894222909
 30
0.0
  0
VERTEX
  8
0
 10
0.1405636
 20
34.7386240364
 30
0.0
  0
VERTEX
  8
0
 10
0.1405636
 20
39.5878257818
 30
0.0
  0
VERTEX
  8
0
 10
0.1405636
 20
44.4370275273
 30
0.0
  0
VERTEX
  8
0
 10
0.1405636
 20
49.2862292727
 30
0.0
  0
VERTEX
  8
0
 10
0.1405636
 20
54.1354310182
 30
0.0
  0
VERTEX
  8
0
 10
0.1405636
 20
58.9846327636
 30
0.0
  0
VERTEX
  8
0
 10
0.1405636
 20
63.8338345091
 30
0.0
  0
VERTEX
  8
0
 10
0.1405636
 20
68.6830362545
 30
0.0
  0
VERTEX
  8
0
 10
0.1405636
 20
73.532238
 30
0.0
  0
VERTEX
  8
0
 10
0.1708658
 20
73.532238
 30
0.0
  0
VERTEX
  8
0
 10
0.4106672
 20
75.439524
 30
0.0
  0
VERTEX
  8
0
 10
1.1616944
 20
77.211428
 30
0.0
  0
VERTEX
  8
0
 10
2.3137368
 20
78.74381
 30
0.0
  0
VERTEX
  8
0
 10
3.8516306
 20
79.901288
 30
0.0
  0
VERTEX
  8
0
 10
5.6196484
 20
80.652366
 30
0.0
  0
VERTEX
  8
0
 10
7.5309984
 20
80.892396
 30
0.0
  0
VERTEX
  8
0
 10
9.432671
 20
80.652366
 30
0.0
  0
VERTEX
  8
0
 10
11.2006888
 20
79.901288
 30
0.0
  0
VERTEX
  8
0
 10
12.737211
 20
78.74381
 30
0.0
  0
VERTEX
  8
0
 10
13.890625
 20
77.211428
 30
0.0
  0
VERTEX
  8
0
 10
14.6402806
 20
75.439524
 30
0.0
  0
VERTEX
  8
0
 10
14.8814282
 20
73.532238
 30
0.0
  0
VERTEX
  8
0
 10
15.0523194
 20
72.1487
 30
0.0
  0
VERTEX
  8
0
 10
15.6007816
 20
70.861428
 30
0.0
  0
VERTEX
  8
0
 10
16.4399976
 20
69.75221
 30
0.0
  0
VERTEX
  8
0
 10
17.5506888
 20
68.911724
 30
0.0
  0
VERTEX
  8
0
 10
18.836386
 20
68.364354
 30
0.0
  0
VERTEX
  8
0
 10
20.221321
 20
68.192396
 30
0.0
  0
VERTEX
  8
0
 10
20.96135
 20
68.192396
 30
0.0
  0
VERTEX
  8
0
 10
21.2865462
 20
68.109338
 30
0.0
  0
VERTEX
  8
0
 10
21.6035128
 20
67.880738
 30
0.0
  0
VERTEX
  8
0
 10
21.8446604
 20
67.556888
 30
0.0
  0
VERTEX
  8
0
 10
21.9411296
 20
67.19189
 30
0.0
  0
VERTEX
  8
0
 10
21.9411296
 20
63.276861
 30
0.0
  0
VERTEX
  8
0
 10
21.9411296
 20
59.361832
 30
0.0
  0
VERTEX
  8
0
 10
21.77161
 20
58.864246
 30
0.0
  0
VERTEX
  8
0
 10
21.3416896
 20
58.621676
 30
0.0
  0
VERTEX
  8
0
 10
17.2213524
 20
58.652156
 30
0.0
  0
VERTEX
  8
0
 10
16.8478962
 20
58.446924
 30
0.0
  0
VERTEX
  8
0
 10
16.6714932
 20
58.062368
 30
0.0
  0
VERTEX
  8
0
 10
16.6714932
 20
55.346854
 30
0.0
  0
VERTEX
  8
0
 10
16.6714932
 20
52.63134
 30
0.0
  0
VERTEX
  8
0
 10
16.8561766
 20
52.223416
 30
0.0
  0
VERTEX
  8
0
 10
17.2516546
 20
52.091082
 30
0.0
  0
VERTEX
  8
0
 10
22.03069
 20
52.091082
 30
0.0
  0
VERTEX
  8
0
 10
22.4785682
 20
51.921918
 30
0.0
  0
VERTEX
  8
0
 10
22.641179
 20
51.509676
 30
0.0
  0
VERTEX
  8
0
 10
22.641179
 20
48.760634
 30
0.0
  0
VERTEX
  8
0
 10
25.347676
 20
46.674278
 30
0.0
  0
VERTEX
  8
0
 10
28.054173
 20
44.587922
 30
0.0
  0
VERTEX
  8
0
 10
30.76067
 20
42.501566
 30
0.0
  0
VERTEX
  8
0
 10
34.35731
 20
42.501566
 30
0.0
  0
VERTEX
  8
0
 10
37.95395
 20
42.501566
 30
0.0
  0
VERTEX
  8
0
 10
41.55059
 20
42.501566
 30
0.0
  0
VERTEX
  8
0
 10
44.3241006667
 20
44.6512526667
 30
0.0
  0
VERTEX
  8
0
 10
47.0976113333
 20
46.8009393333
 30
0.0
  0
VERTEX
  8
0
 10
49.871122
 20
48.950626
 30
0.0
  0
VERTEX
  8
0
 10
49.861724
 20
51.351434
 30
0.0
  0
VERTEX
  8
0
 10
49.971706
 20
51.811428
 30
0.0
  0
VERTEX
  8
0
 10
50.421032
 20
52.022248
 30
0.0
  0
VERTEX
  8
0
 10
54.341522
 20
52.071778
 30
0.0
  0
VERTEX
  8
0
 10
54.83225
 20
52.214018
 30
0.0
  0
VERTEX
  8
0
 10
55.030624
 20
52.692046
 30
0.0
  0
VERTEX
  8
0
 10
55.030624
 20
55.361967
 30
0.0
  0
VERTEX
  8
0
 10
55.030624
 20
58.031888
 30
0.0
  0
VERTEX
  8
0
 10
54.843172
 20
58.408062
 30
0.0
  0
VERTEX
  8
0
 10
54.341522
 20
58.580528
 30
0.0
  0
VERTEX
  8
0
 10
50.451512
 20
58.580528
 30
0.0
  0
VERTEX
  8
0
 10
50.040794
 20
58.735976
 30
0.0
  0
VERTEX
  8
0
 10
49.871122
 20
59.131454
 30
0.0
  0
VERTEX
  8
0
 10
49.871122
 20
63.161672
 30
0.0
  0
VERTEX
  8
0
 10
49.871122
 20
67.19189
 30
0.0
  0
VERTEX
  8
0
 10
50.157888
 20
67.883532
 30
0.0
  0
VERTEX
  8
0
 10
50.820828
 20
68.192396
 30
0.0
  0
VERTEX
  8
0
 10
55.5195377143
 20
68.192396
 30
0.0
  0
VERTEX
  8
0
 10
60.2182474286
 20
68.192396
 30
0.0
  0
VERTEX
  8
0
 10
64.9169571429
 20
68.192396
 30
0.0
  0
VERTEX
  8
0
 10
69.6156668571
 20
68.192396
 30
0.0
  0
VERTEX
  8
0
 10
74.3143765714
 20
68.192396
 30
0.0
  0
VERTEX
  8
0
 10
79.0130862857
 20
68.192396
 30
0.0
  0
VERTEX
  8
0
 10
83.711796
 20
68.192396
 30
0.0
  0
VERTEX
  8
0
 10
85.09381
 20
68.364354
 30
0.0
  0
VERTEX
  8
0
 10
86.380828
 20
68.911724
 30
0.0
  0
VERTEX
  8
0
 10
87.4903
 20
69.75221
 30
0.0
  0
VERTEX
  8
0
 10
88.33104
 20
70.861428
 30
0.0
  0
VERTEX
  8
0
 10
88.878156
 20
72.1487
 30
0.0
  0
VERTEX
  8
0
 10
89.051638
 20
73.532238
 30
0.0
  0
VERTEX
  8
0
 10
89.29116
 20
75.439524
 30
0.0
  0
VERTEX
  8
0
 10
90.040968
 20
77.211428
 30
0.0
  0
VERTEX
  8
0
 10
91.194382
 20
78.74381
 30
0.0
  0
VERTEX
  8
0
 10
92.730828
 20
79.901288
 30
0.0
  0
VERTEX
  8
0
 10
94.498922
 20
80.652366
 30
0.0
  0
VERTEX
  8
0
 10
96.411796
 20
80.892396
 30
0.0
  0
VERTEX
  8
0
 10
98.313494
 20
80.652366
 30
0.0
  0
VERTEX
  8
0
 10
100.081334
 20
79.901288
 30
0.0
  0
VERTEX
  8
0
 10
101.61651
 20
78.74381
 30
0.0
  0
VERTEX
  8
0
 10
102.771194
 20
77.211428
 30
0.0
  0
VERTEX
  8
0
 10
103.519478
 20
75.439524
 30
0.0
  0
VERTEX
  8
0
 10
103.760778
 20
73.532238
 30
0.0
  0
VERTEX
  8
0
 10
103.760778
 20
68.6621266667
 30
0.0
  0
VERTEX
  8
0
 10
103.760778
 20
63.7920153333
 30
0.0
  0
SEQEND
  8
0
  0
POLYLINE
  8
0
 62
0
 70
1
 66
1
 10
0.0
 20
0.0
 30
0.0
  0
VERTEX
  8
0
 10
3.9508176
 20
47.702216
 30
0.0
  0
VERTEX
  8
0
 10
3.0606238
 20
47.941738
 30
0.0
  0
VERTEX
  8
0
 10
2.4115776
 20
48.590962
 30
0.0
  0
VERTEX
  8
0
 10
2.1717762
 20
49.479962
 30
0.0
  0
VERTEX
  8
0
 10
2.4115776
 20
50.371502
 30
0.0
  0
VERTEX
  8
0
 10
3.0606238
 20
51.021996
 30
0.0
  0
VERTEX
  8
0
 10
3.9508176
 20
51.260248
 30
0.0
  0
VERTEX
  8
0
 10
4.8410622
 20
51.021996
 30
0.0
  0
VERTEX
  8
0
 10
5.49148
 20
50.371502
 30
0.0
  0
VERTEX
  8
0
 10
5.731256
 20
49.479962
 30
0.0
  0
VERTEX
  8
0
 10
5.49148
 20
48.590962
 30
0.0
  0
VERTEX
  8
0
 10
4.8410622
 20
47.941738
 30
0.0
  0
SEQEND
  8
0
  0
ENDBLK
  0
ENDSEC
  0
SECTION
  2
ENTITIES
  0
INSERT
  2
SCALE
  8
0
 10
0.0
 20
0.0
 30
0.0
  0
ENDSEC
  0
EOF
