  0
SECTION
  2
HEADER
  9
$ACADVER
  1
AC1009
  9
$INSBASE
 10
0.0
 20
0.0
 30
0.0
  9
$EXTMIN
 10
0.0
 20
0.0
 30
0.0
  9
$EXTMAX
 10
0.0
 20
0.0
 30
0.0
  0
ENDSEC
  0
SECTION
  2
TABLES
  0
TABLE
  2
VPORT
 70
0
  0
ENDTAB
  0
TABLE
  2
LTYPE
 70
1
  0
LTYPE
  2
CONTINUOUS
 70
0
  3
Solid line
 72
65
 73
0
 40
0.0
  0
ENDTAB
  0
TABLE
  2
LAYER
 70
1
  0
LAYER
  2
0
 70
64
 62
7
  6
continuous
  0
ENDTAB
  0
TABLE
  2
STYLE
 70
1
  0
STYLE
  2
STANDARD
 70
0
 40
0
 41
1.0
 50
0.0
 71
0
 42
1
 3
ARIAL.TTF
 4

  0
ENDTAB
  0
TABLE
  2
VIEW
 70
0
  0
ENDTAB
  0
ENDSEC
  0
SECTION
  2
BLOCKS
  0
BLOCK
  8
0
  2
SCALE
 70
0
 10
0.0
 20
0.0
 30
0.0
  3
SCALE
  0
POLYLINE
  8
0
 62
0
 70
1
 66
1
 10
0.0
 20
0.0
 30
0.0
  0
VERTEX
  8
0
 10
57.3913
 20
57.351168
 30
0.0
  0
VERTEX
  8
0
 10
56.88965
 20
57.560718
 30
0.0
  0
VERTEX
  8
0
 10
56.681624
 20
58.062368
 30
0.0
  0
VERTEX
  8
0
 10
56.681624
 20
62.201806
 30
0.0
  0
VERTEX
  8
0
 10
56.88965
 20
62.703456
 30
0.0
  0
VERTEX
  8
0
 10
57.3913
 20
62.911482
 30
0.0
  0
VERTEX
  8
0
 10
61.306202
 20
62.911482
 30
0.0
  0
VERTEX
  8
0
 10
65.221104
 20
62.911482
 30
0.0
  0
VERTEX
  8
0
 10
65.721484
 20
62.703456
 30
0.0
  0
VERTEX
  8
0
 10
65.931034
 20
62.201806
 30
0.0
  0
VERTEX
  8
0
 10
65.931034
 20
58.062368
 30
0.0
  0
VERTEX
  8
0
 10
65.721484
 20
57.560718
 30
0.0
  0
VERTEX
  8
0
 10
65.221104
 20
57.351168
 30
0.0
  0
VERTEX
  8
0
 10
61.306202
 20
57.351168
 30
0.0
  0
SEQEND
  8
0
  0
POLYLINE
  8
0
 62
0
 70
1
 66
1
 10
0.0
 20
0.0
 30
0.0
  0
VERTEX
  8
0
 10
57.3913
 20
57.351168
 30
0.0
  0
VERTEX
  8
0
 10
56.88965
 20
57.560718
 30
0.0
  0
VERTEX
  8
0
 10
56.681624
 20
58.062368
 30
0.0
  0
VERTEX
  8
0
 10
56.681624
 20
62.201806
 30
0.0
  0
VERTEX
  8
0
 10
56.88965
 20
62.703456
 30
0.0
  0
VERTEX
  8
0
 10
57.3913
 20
62.911482
 30
0.0
  0
VERTEX
  8
0
 10
61.306202
 20
62.911482
 30
0.0
  0
VERTEX
  8
0
 10
65.221104
 20
62.911482
 30
0.0
  0
VERTEX
  8
0
 10
65.721484
 20
62.703456
 30
0.0
  0
VERTEX
  8
0
 10
65.931034
 20
62.201806
 30
0.0
  0
VERTEX
  8
0
 10
65.931034
 20
58.062368
 30
0.0
  0
VERTEX
  8
0
 10
65.721484
 20
57.560718
 30
0.0
  0
VERTEX
  8
0
 10
65.221104
 20
57.351168
 30
0.0
  0
VERTEX
  8
0
 10
61.306202
 20
57.351168
 30
0.0
  0
SEQEND
  8
0
  0
POLYLINE
  8
0
 62
0
 70
1
 66
1
 10
0.0
 20
0.0
 30
0.0
  0
VERTEX
  8
0
 10
22.641179
 20
58.612278
 30
0.0
  0
VERTEX
  8
0
 10
22.6308412
 20
55.346981
 30
0.0
  0
VERTEX
  8
0
 10
22.6205034
 20
52.081684
 30
0.0
  0
VERTEX
  8
0
 10
22.641179
 20
48.760634
 30
0.0
  0
VERTEX
  8
0
 10
26.3460865
 20
45.951394
 30
0.0
  0
VERTEX
  8
0
 10
30.050994
 20
43.142154
 30
0.0
  0
VERTEX
  8
0
 10
33.9177206667
 20
43.142154
 30
0.0
  0
VERTEX
  8
0
 10
37.7844473333
 20
43.142154
 30
0.0
  0
VERTEX
  8
0
 10
41.651174
 20
43.142154
 30
0.0
  0
VERTEX
  8
0
 10
45.340778
 20
46.056677
 30
0.0
  0
VERTEX
  8
0
 10
49.030382
 20
48.9712
 30
0.0
  0
VERTEX
  8
0
 10
49.030382
 20
52.071778
 30
0.0
  0
VERTEX
  8
0
 10
49.040796
 20
55.331614
 30
0.0
  0
VERTEX
  8
0
 10
49.05121
 20
58.59145
 30
0.0
  0
VERTEX
  8
0
 10
49.05121
 20
63.391923
 30
0.0
  0
VERTEX
  8
0
 10
49.05121
 20
68.192396
 30
0.0
  0
VERTEX
  8
0
 10
54.0027222857
 20
68.192396
 30
0.0
  0
VERTEX
  8
0
 10
58.9542345714
 20
68.192396
 30
0.0
  0
VERTEX
  8
0
 10
63.9057468571
 20
68.192396
 30
0.0
  0
VERTEX
  8
0
 10
68.8572591429
 20
68.192396
 30
0.0
  0
VERTEX
  8
0
 10
73.8087714286
 20
68.192396
 30
0.0
  0
VERTEX
  8
0
 10
78.7602837143
 20
68.192396
 30
0.0
  0
VERTEX
  8
0
 10
83.711796
 20
68.192396
 30
0.0
  0
VERTEX
  8
0
 10
85.09381
 20
68.364354
 30
0.0
  0
VERTEX
  8
0
 10
86.380828
 20
68.911724
 30
0.0
  0
VERTEX
  8
0
 10
87.4903
 20
69.75221
 30
0.0
  0
VERTEX
  8
0
 10
88.33104
 20
70.861428
 30
0.0
  0
VERTEX
  8
0
 10
88.878156
 20
72.1487
 30
0.0
  0
VERTEX
  8
0
 10
89.051638
 20
73.532238
 30
0.0
  0
VERTEX
  8
0
 10
89.29116
 20
75.439524
 30
0.0
  0
VERTEX
  8
0
 10
90.040968
 20
77.211428
 30
0.0
  0
VERTEX
  8
0
 10
91.194382
 20
78.74381
 30
0.0
  0
VERTEX
  8
0
 10
92.730828
 20
79.901288
 30
0.0
  0
VERTEX
  8
0
 10
94.498922
 20
80.652366
 30
0.0
  0
VERTEX
  8
0
 10
96.411796
 20
80.892396
 30
0.0
  0
VERTEX
  8
0
 10
98.313494
 20
80.652366
 30
0.0
  0
VERTEX
  8
0
 10
100.081334
 20
79.901288
 30
0.0
  0
VERTEX
  8
0
 10
101.61651
 20
78.74381
 30
0.0
  0
VERTEX
  8
0
 10
102.771194
 20
77.211428
 30
0.0
  0
VERTEX
  8
0
 10
103.519478
 20
75.439524
 30
0.0
  0
VERTEX
  8
0
 10
103.760778
 20
73.532238
 30
0.0
  0
VERTEX
  8
0
 10
103.760778
 20
68.6830362545
 30
0.0
  0
VERTEX
  8
0
 10
103.760778
 20
63.8338345091
 30
0.0
  0
VERTEX
  8
0
 10
103.760778
 20
58.9846327636
 30
0.0
  0
VERTEX
  8
0
 10
103.760778
 20
54.1354310182
 30
0.0
  0
VERTEX
  8
0
 10
103.760778
 20
49.2862292727
 30
0.0
  0
VERTEX
  8
0
 10
103.760778
 20
44.4370275273
 30
0.0
  0
VERTEX
  8
0
 10
103.760778
 20
39.5878257818
 30
0.0
  0
VERTEX
  8
0
 10
103.760778
 20
34.7386240364
 30
0.0
  0
VERTEX
  8
0
 10
103.760778
 20
29.8894222909
 30
0.0
  0
VERTEX
  8
0
 10
103.760778
 20
25.0402205455
 30
0.0
  0
VERTEX
  8
0
 10
103.760778
 20
20.1910188
 30
0.0
  0
VERTEX
  8
0
 10
103.521002
 20
18.2879238
 30
0.0
  0
VERTEX
  8
0
 10
102.7811
 20
16.5102794
 30
0.0
  0
VERTEX
  8
0
 10
101.619304
 20
14.9834346
 30
0.0
  0
VERTEX
  8
0
 10
100.09124
 20
13.8203432
 30
0.0
  0
VERTEX
  8
0
 10
98.315018
 20
13.0817112
 30
0.0
  0
VERTEX
  8
0
 10
96.411796
 20
12.8419352
 30
0.0
  0
VERTEX
  8
0
 10
95.026734
 20
12.6696978
 30
0.0
  0
VERTEX
  8
0
 10
93.74124
 20
12.1212356
 30
0.0
  0
VERTEX
  8
0
 10
92.622116
 20
11.2806226
 30
0.0
  0
VERTEX
  8
0
 10
91.781376
 20
10.1602794
 30
0.0
  0
VERTEX
  8
0
 10
91.23299
 20
8.8759538
 30
0.0
  0
VERTEX
  8
0
 10
91.060778
 20
7.4910188
 30
0.0
  0
VERTEX
  8
0
 10
90.821002
 20
5.5879238
 30
0.0
  0
VERTEX
  8
0
 10
90.0811
 20
3.8102794
 30
0.0
  0
VERTEX
  8
0
 10
88.919304
 20
2.2834092
 30
0.0
  0
VERTEX
  8
0
 10
87.39124
 20
1.1203432
 30
0.0
  0
VERTEX
  8
0
 10
85.615018
 20
0.3817112
 30
0.0
  0
VERTEX
  8
0
 10
83.711796
 20
0.1419352
 30
0.0
  0
VERTEX
  8
0
 10
83.711796
 20
0.1502156
 30
0.0
  0
VERTEX
  8
0
 10
78.8279133077
 20
0.1502156
 30
0.0
  0
VERTEX
  8
0
 10
73.9440306154
 20
0.1502156
 30
0.0
  0
VERTEX
  8
0
 10
69.0601479231
 20
0.1502156
 30
0.0
  0
VERTEX
  8
0
 10
64.1762652308
 20
0.1502156
 30
0.0
  0
VERTEX
  8
0
 10
59.2923825385
 20
0.1502156
 30
0.0
  0
VERTEX
  8
0
 10
54.4084998462
 20
0.1502156
 30
0.0
  0
VERTEX
  8
0
 10
49.5246171538
 20
0.1502156
 30
0.0
  0
VERTEX
  8
0
 10
44.6407344615
 20
0.1502156
 30
0.0
  0
VERTEX
  8
0
 10
39.7568517692
 20
0.1502156
 30
0.0
  0
VERTEX
  8
0
 10
34.8729690769
 20
0.1502156
 30
0.0
  0
VERTEX
  8
0
 10
29.9890863846
 20
0.1502156
 30
0.0
  0
VERTEX
  8
0
 10
25.1052036923
 20
0.1502156
 30
0.0
  0
VERTEX
  8
0
 10
20.221321
 20
0.1502156
 30
0.0
  0
VERTEX
  8
0
 10
18.3182768
 20
0.3899916
 30
0.0
  0
VERTEX
  8
0
 10
16.5516306
 20
1.1313668
 30
0.0
  0
VERTEX
  8
0
 10
15.0123398
 20
2.2930612
 30
0.0
  0
VERTEX
  8
0
 10
13.8506454
 20
3.8212776
 30
0.0
  0
VERTEX
  8
0
 10
13.1092956
 20
5.5976012
 30
0.0
  0
VERTEX
  8
0
 10
12.8708912
 20
7.5006454
 30
0.0
  0
VERTEX
  8
0
 10
12.6986284
 20
8.8855804
 30
0.0
  0
VERTEX
  8
0
 10
12.1515378
 20
10.1712776
 30
0.0
  0
VERTEX
  8
0
 10
11.3109502
 20
11.2902746
 30
0.0
  0
VERTEX
  8
0
 10
10.2016306
 20
12.1308622
 30
0.0
  0
VERTEX
  8
0
 10
8.906256
 20
12.6779528
 30
0.0
  0
VERTEX
  8
0
 10
7.521321
 20
12.8502156
 30
0.0
  0
VERTEX
  8
0
 10
5.6182768
 20
13.0899916
 30
0.0
  0
VERTEX
  8
0
 10
3.8516306
 20
13.8313668
 30
0.0
  0
VERTEX
  8
0
 10
2.3123398
 20
14.9930612
 30
0.0
  0
VERTEX
  8
0
 10
1.1506708
 20
16.5212776
 30
0.0
  0
VERTEX
  8
0
 10
0.4092702
 20
18.2976012
 30
0.0
  0
VERTEX
  8
0
 10
0.1708658
 20
20.2006454
 30
0.0
  0
VERTEX
  8
0
 10
0.1405636
 20
20.1910188
 30
0.0
  0
VERTEX
  8
0
 10
0.1405636
 20
25.0402205455
 30
0.0
  0
VERTEX
  8
0
 10
0.1405636
 20
29.8894222909
 30
0.0
  0
VERTEX
  8
0
 10
0.1405636
 20
34.7386240364
 30
0.0
  0
VERTEX
  8
0
 10
0.1405636
 20
39.5878257818
 30
0.0
  0
VERTEX
  8
0
 10
0.1405636
 20
44.4370275273
 30
0.0
  0
VERTEX
  8
0
 10
0.1405636
 20
49.2862292727
 30
0.0
  0
VERTEX
  8
0
 10
0.1405636
 20
54.1354310182
 30
0.0
  0
VERTEX
  8
0
 10
0.1405636
 20
58.9846327636
 30
0.0
  0
VERTEX
  8
0
 10
0.1405636
 20
63.8338345091
 30
0.0
  0
VERTEX
  8
0
 10
0.1405636
 20
68.6830362545
 30
0.0
  0
VERTEX
  8
0
 10
0.1405636
 20
73.532238
 30
0.0
  0
VERTEX
  8
0
 10
0.1708658
 20
73.532238
 30
0.0
  0
VERTEX
  8
0
 10
0.4106672
 20
75.439524
 30
0.0
  0
VERTEX
  8
0
 10
1.1616944
 20
77.211428
 30
0.0
  0
VERTEX
  8
0
 10
2.3137368
 20
78.74381
 30
0.0
  0
VERTEX
  8
0
 10
3.8516306
 20
79.901288
 30
0.0
  0
VERTEX
  8
0
 10
5.6196484
 20
80.652366
 30
0.0
  0
VERTEX
  8
0
 10
7.5309984
 20
80.892396
 30
0.0
  0
VERTEX
  8
0
 10
9.432671
 20
80.652366
 30
0.0
  0
VERTEX
  8
0
 10
11.2006888
 20
79.901288
 30
0.0
  0
VERTEX
  8
0
 10
12.737211
 20
78.74381
 30
0.0
  0
VERTEX
  8
0
 10
13.890625
 20
77.211428
 30
0.0
  0
VERTEX
  8
0
 10
14.6402806
 20
75.439524
 30
0.0
  0
VERTEX
  8
0
 10
14.8814282
 20
73.532238
 30
0.0
  0
VERTEX
  8
0
 10
15.0523194
 20
72.1487
 30
0.0
  0
VERTEX
  8
0
 10
15.6007816
 20
70.861428
 30
0.0
  0
VERTEX
  8
0
 10
16.4399976
 20
69.75221
 30
0.0
  0
VERTEX
  8
0
 10
17.5506888
 20
68.911724
 30
0.0
  0
VERTEX
  8
0
 10
18.836386
 20
68.364354
 30
0.0
  0
VERTEX
  8
0
 10
20.221321
 20
68.192396
 30
0.0
  0
VERTEX
  8
0
 10
22.7307394
 20
68.192396
 30
0.0
  0
VERTEX
  8
0
 10
22.6859592
 20
63.402337
 30
0.0
  0
SEQEND
  8
0
  0
POLYLINE
  8
0
 62
0
 70
1
 66
1
 10
0.0
 20
0.0
 30
0.0
  0
VERTEX
  8
0
 10
3.9508176
 20
19.6921628
 30
0.0
  0
VERTEX
  8
0
 10
3.0606238
 20
19.9319388
 30
0.0
  0
VERTEX
  8
0
 10
2.4115776
 20
20.580985
 30
0.0
  0
VERTEX
  8
0
 10
2.1717762
 20
21.4712296
 30
0.0
  0
VERTEX
  8
0
 10
2.4115776
 20
22.3614234
 30
0.0
  0
VERTEX
  8
0
 10
3.0606238
 20
23.0118666
 30
0.0
  0
VERTEX
  8
0
 10
3.9508176
 20
23.2516426
 30
0.0
  0
VERTEX
  8
0
 10
4.8410622
 20
23.0118666
 30
0.0
  0
VERTEX
  8
0
 10
5.49148
 20
22.3614234
 30
0.0
  0
VERTEX
  8
0
 10
5.731256
 20
21.4712296
 30
0.0
  0
VERTEX
  8
0
 10
5.49148
 20
20.580985
 30
0.0
  0
VERTEX
  8
0
 10
4.8410622
 20
19.9319388
 30
0.0
  0
SEQEND
  8
0
  0
POLYLINE
  8
0
 62
0
 70
1
 66
1
 10
0.0
 20
0.0
 30
0.0
  0
VERTEX
  8
0
 10
99.971098
 20
19.6921628
 30
0.0
  0
VERTEX
  8
0
 10
99.080828
 20
19.9319388
 30
0.0
  0
VERTEX
  8
0
 10
98.430588
 20
20.580985
 30
0.0
  0
VERTEX
  8
0
 10
98.190812
 20
21.4712296
 30
0.0
  0
VERTEX
  8
0
 10
98.430588
 20
22.3614234
 30
0.0
  0
VERTEX
  8
0
 10
99.080828
 20
23.0118666
 30
0.0
  0
VERTEX
  8
0
 10
99.971098
 20
23.2516426
 30
0.0
  0
VERTEX
  8
0
 10
100.861368
 20
23.0118666
 30
0.0
  0
VERTEX
  8
0
 10
101.510338
 20
22.3614234
 30
0.0
  0
VERTEX
  8
0
 10
101.751638
 20
21.4712296
 30
0.0
  0
VERTEX
  8
0
 10
101.510338
 20
20.580985
 30
0.0
  0
VERTEX
  8
0
 10
100.861368
 20
19.9319388
 30
0.0
  0
SEQEND
  8
0
  0
POLYLINE
  8
0
 62
0
 70
1
 66
1
 10
0.0
 20
0.0
 30
0.0
  0
VERTEX
  8
0
 10
3.9508176
 20
71.691246
 30
0.0
  0
VERTEX
  8
0
 10
3.0606238
 20
71.932038
 30
0.0
  0
VERTEX
  8
0
 10
2.4115776
 20
72.581262
 30
0.0
  0
VERTEX
  8
0
 10
2.1717762
 20
73.470262
 30
0.0
  0
VERTEX
  8
0
 10
2.4115776
 20
74.361802
 30
0.0
  0
VERTEX
  8
0
 10
3.0606238
 20
75.012296
 30
0.0
  0
VERTEX
  8
0
 10
3.9508176
 20
75.252072
 30
0.0
  0
VERTEX
  8
0
 10
4.8410622
 20
75.012296
 30
0.0
  0
VERTEX
  8
0
 10
5.49148
 20
74.361802
 30
0.0
  0
VERTEX
  8
0
 10
5.731256
 20
73.470262
 30
0.0
  0
VERTEX
  8
0
 10
5.49148
 20
72.581262
 30
0.0
  0
VERTEX
  8
0
 10
4.8410622
 20
71.932038
 30
0.0
  0
SEQEND
  8
0
  0
POLYLINE
  8
0
 62
0
 70
1
 66
1
 10
0.0
 20
0.0
 30
0.0
  0
VERTEX
  8
0
 10
99.971098
 20
71.691246
 30
0.0
  0
VERTEX
  8
0
 10
99.080828
 20
71.932038
 30
0.0
  0
VERTEX
  8
0
 10
98.430588
 20
72.581262
 30
0.0
  0
VERTEX
  8
0
 10
98.190812
 20
73.470262
 30
0.0
  0
VERTEX
  8
0
 10
98.430588
 20
74.361802
 30
0.0
  0
VERTEX
  8
0
 10
99.080828
 20
75.012296
 30
0.0
  0
VERTEX
  8
0
 10
99.971098
 20
75.252072
 30
0.0
  0
VERTEX
  8
0
 10
100.861368
 20
75.012296
 30
0.0
  0
VERTEX
  8
0
 10
101.510338
 20
74.361802
 30
0.0
  0
VERTEX
  8
0
 10
101.751638
 20
73.470262
 30
0.0
  0
VERTEX
  8
0
 10
101.510338
 20
72.581262
 30
0.0
  0
VERTEX
  8
0
 10
100.861368
 20
71.932038
 30
0.0
  0
SEQEND
  8
0
  0
ENDBLK
  0
ENDSEC
  0
SECTION
  2
ENTITIES
  0
INSERT
  2
SCALE
  8
0
 10
0.0
 20
0.0
 30
0.0
  0
ENDSEC
  0
EOF
