G04 (created by PCBNEW (2013-mar-13)-testing) date Saturday 19 October 2013 09:12:08 PM IST*
%MOIN*%
G04 Gerber Fmt 3.4, Leading zero omitted, Abs format*
%FSLAX34Y34*%
G01*
G70*
G90*
G04 APERTURE LIST*
%ADD10C,0.005906*%
%ADD11C,0.005000*%
%ADD12R,0.078740X0.062992*%
%ADD13R,0.043307X0.003937*%
%ADD14R,0.039400X0.023600*%
%ADD15R,0.039400X0.031500*%
%ADD16R,0.042000X0.056000*%
%ADD17R,0.056000X0.042000*%
%ADD18R,0.059000X0.051200*%
%ADD19R,0.051200X0.059000*%
%ADD20R,0.047200X0.031500*%
%ADD21R,0.078700X0.017700*%
%ADD22R,0.017700X0.078700*%
%ADD23R,0.054000X0.016000*%
%ADD24R,0.056000X0.063000*%
%ADD25R,0.075000X0.075000*%
%ADD26C,0.075000*%
%ADD27R,0.080000X0.024000*%
%ADD28R,0.039400X0.035400*%
%ADD29R,0.098425X0.118110*%
%ADD30R,0.300000X0.100000*%
%ADD31R,0.133700X0.059000*%
%ADD32R,0.137700X0.039200*%
%ADD33R,0.016500X0.057900*%
%ADD34R,0.062992X0.027559*%
%ADD35R,0.062992X0.047244*%
%ADD36R,0.086614X0.047244*%
%ADD37R,0.055118X0.062992*%
%ADD38R,0.030000X0.030000*%
%ADD39R,0.049213X0.035433*%
%ADD40R,0.035433X0.049213*%
%ADD41R,0.225000X0.225000*%
%ADD42C,0.600000*%
G04 APERTURE END LIST*
G54D10*
G54D11*
X19900Y-19000D02*
X17500Y-19000D01*
X20400Y-19500D02*
G75*
G03X19900Y-19000I-500J0D01*
G74*
G01*
X27400Y-19000D02*
G75*
G03X26900Y-19500I0J-500D01*
G74*
G01*
X26400Y-20500D02*
G75*
G03X26900Y-20000I0J500D01*
G74*
G01*
X20400Y-20000D02*
G75*
G03X20900Y-20500I500J0D01*
G74*
G01*
X26900Y-19500D02*
X26900Y-20000D01*
X20400Y-19500D02*
X20400Y-20000D01*
X20900Y-20500D02*
X26400Y-20500D01*
X27400Y-19000D02*
X42500Y-19000D01*
X47500Y-40000D02*
G75*
G03X50000Y-37500I0J2500D01*
G74*
G01*
X42500Y-45000D02*
G75*
G03X45000Y-42500I0J2500D01*
G74*
G01*
X47500Y-40000D02*
G75*
G03X45000Y-42500I0J-2500D01*
G74*
G01*
X15000Y-42500D02*
G75*
G03X17500Y-45000I2500J0D01*
G74*
G01*
X10000Y-37500D02*
G75*
G03X12500Y-40000I2500J0D01*
G74*
G01*
X15000Y-42500D02*
G75*
G03X12500Y-40000I-2500J0D01*
G74*
G01*
X42500Y-19000D02*
G75*
G03X45000Y-16500I0J2500D01*
G74*
G01*
X50000Y-16500D02*
G75*
G03X47500Y-14000I-2500J0D01*
G74*
G01*
X47500Y-14000D02*
G75*
G03X45000Y-16500I0J-2500D01*
G74*
G01*
X15000Y-16500D02*
G75*
G03X17500Y-19000I2500J0D01*
G74*
G01*
X15000Y-16500D02*
G75*
G03X12500Y-14000I-2500J0D01*
G74*
G01*
X12500Y-14000D02*
G75*
G03X10000Y-16500I0J-2500D01*
G74*
G01*
X13850Y-38550D02*
X15350Y-38550D01*
X13850Y-27550D02*
X13850Y-38550D01*
X15350Y-27550D02*
X13850Y-27550D01*
X15350Y-38550D02*
X15350Y-27550D01*
X42500Y-45000D02*
X17500Y-45000D01*
X10000Y-37500D02*
X10000Y-16500D01*
X50000Y-16500D02*
X50000Y-37500D01*
G54D12*
X16768Y-28263D03*
X16768Y-37436D03*
G54D13*
X18050Y-29011D03*
X18050Y-29208D03*
X18050Y-29405D03*
X18050Y-29601D03*
X18050Y-29798D03*
X18050Y-29995D03*
X18050Y-30192D03*
X18050Y-30389D03*
X18050Y-30586D03*
X18050Y-30783D03*
X18050Y-30979D03*
X18050Y-31176D03*
X18050Y-31373D03*
X18050Y-31570D03*
X18050Y-31767D03*
X18050Y-31964D03*
X18050Y-32161D03*
X18050Y-32357D03*
X18050Y-32554D03*
X18050Y-32751D03*
X18050Y-32948D03*
X18050Y-33145D03*
X18050Y-33342D03*
X18050Y-33538D03*
X18050Y-33735D03*
X18050Y-33932D03*
X18050Y-34129D03*
X18050Y-34326D03*
X18050Y-34523D03*
X18050Y-34720D03*
X18050Y-34916D03*
X18050Y-35113D03*
X18050Y-35310D03*
X18050Y-35507D03*
X18050Y-35704D03*
X18050Y-35901D03*
X18050Y-36098D03*
X18050Y-36294D03*
X18050Y-36491D03*
X18050Y-36688D03*
G54D14*
X23924Y-38156D03*
X23924Y-37644D03*
X23176Y-37900D03*
X14649Y-26581D03*
X14649Y-26069D03*
X13901Y-26325D03*
X23924Y-35656D03*
X23924Y-35144D03*
X23176Y-35400D03*
X20324Y-40006D03*
X20324Y-39494D03*
X19576Y-39750D03*
X23176Y-36344D03*
X23176Y-36856D03*
X23924Y-36600D03*
X23999Y-40006D03*
X23999Y-39494D03*
X23251Y-39750D03*
X14649Y-25381D03*
X14649Y-24869D03*
X13901Y-25125D03*
G54D15*
X13792Y-23875D03*
X14658Y-24250D03*
X14658Y-23500D03*
G54D16*
X41275Y-25425D03*
X40475Y-25425D03*
X29200Y-34850D03*
X30000Y-34850D03*
X19750Y-34225D03*
X20550Y-34225D03*
X21550Y-30950D03*
X22350Y-30950D03*
X19750Y-33000D03*
X20550Y-33000D03*
X21550Y-32175D03*
X22350Y-32175D03*
G54D17*
X16220Y-26780D03*
X16220Y-25980D03*
G54D16*
X21550Y-29750D03*
X22350Y-29750D03*
X19750Y-30600D03*
X20550Y-30600D03*
G54D17*
X17700Y-26775D03*
X17700Y-25975D03*
G54D16*
X21550Y-33350D03*
X22350Y-33350D03*
X21550Y-37200D03*
X22350Y-37200D03*
X19750Y-31800D03*
X20550Y-31800D03*
X21550Y-36000D03*
X22350Y-36000D03*
X34875Y-28150D03*
X35675Y-28150D03*
X22350Y-34500D03*
X21550Y-34500D03*
X19750Y-36600D03*
X20550Y-36600D03*
X19750Y-37800D03*
X20550Y-37800D03*
X19750Y-29400D03*
X20550Y-29400D03*
G54D17*
X26375Y-36800D03*
X26375Y-36000D03*
G54D18*
X12900Y-26325D03*
X12900Y-25575D03*
X22400Y-39375D03*
X22400Y-40125D03*
X18600Y-40125D03*
X18600Y-39375D03*
G54D19*
X19775Y-35400D03*
X20525Y-35400D03*
G54D18*
X17500Y-39375D03*
X17500Y-40125D03*
X21350Y-39375D03*
X21350Y-40125D03*
G54D19*
X39900Y-27800D03*
X39150Y-27800D03*
G54D18*
X11775Y-24325D03*
X11775Y-23575D03*
G54D17*
X24975Y-36800D03*
X24975Y-36000D03*
G54D16*
X39150Y-28800D03*
X39950Y-28800D03*
X37900Y-36500D03*
X38700Y-36500D03*
G54D17*
X12900Y-23575D03*
X12900Y-24375D03*
G54D16*
X35675Y-30875D03*
X34875Y-30875D03*
G54D17*
X27175Y-31775D03*
X27175Y-32575D03*
X10650Y-23575D03*
X10650Y-24375D03*
X33700Y-29900D03*
X33700Y-29100D03*
G54D20*
X35675Y-29125D03*
X34725Y-29500D03*
X35675Y-29875D03*
G54D19*
X34640Y-41100D03*
X33890Y-41100D03*
X38640Y-41100D03*
X37890Y-41100D03*
X30640Y-41100D03*
X29890Y-41100D03*
X40960Y-41100D03*
X41710Y-41100D03*
G54D17*
X22700Y-41450D03*
X22700Y-42250D03*
G54D21*
X28366Y-28398D03*
X28366Y-28713D03*
X28366Y-29028D03*
X28366Y-29343D03*
X28366Y-29657D03*
X28366Y-29972D03*
X28366Y-30287D03*
X28366Y-30602D03*
X31634Y-30602D03*
X31634Y-28398D03*
X31634Y-28713D03*
X31634Y-29028D03*
X31634Y-29343D03*
X31634Y-29657D03*
X31634Y-29972D03*
X31634Y-30287D03*
G54D22*
X28898Y-31134D03*
X29213Y-31134D03*
X29528Y-31134D03*
X29843Y-31134D03*
X30157Y-31134D03*
X30472Y-31134D03*
X30787Y-31134D03*
X31102Y-31134D03*
X28898Y-27866D03*
X29213Y-27866D03*
X29528Y-27866D03*
X29843Y-27866D03*
X30157Y-27866D03*
X30472Y-27866D03*
X30787Y-27866D03*
X31102Y-27866D03*
G54D15*
X27342Y-36425D03*
X28208Y-36800D03*
X28208Y-36050D03*
G54D18*
X36775Y-21850D03*
X36775Y-21100D03*
G54D16*
X40750Y-23425D03*
X41550Y-23425D03*
G54D19*
X26640Y-41100D03*
X25890Y-41100D03*
G54D16*
X39525Y-23425D03*
X38725Y-23425D03*
G54D17*
X45475Y-30800D03*
X45475Y-31600D03*
G54D23*
X11650Y-34075D03*
X11650Y-33819D03*
X11650Y-33563D03*
X11650Y-34331D03*
X11650Y-34587D03*
G54D24*
X11550Y-35325D03*
X11550Y-32825D03*
G54D25*
X10600Y-34550D03*
X10600Y-33600D03*
G54D26*
X10600Y-35375D03*
X10600Y-32775D03*
G54D15*
X27342Y-34850D03*
X28208Y-35225D03*
X28208Y-34475D03*
G54D16*
X29200Y-36425D03*
X30000Y-36425D03*
G54D27*
X39000Y-21100D03*
X40900Y-21100D03*
X39000Y-21600D03*
X39000Y-22100D03*
X39000Y-22600D03*
X40900Y-21600D03*
X40900Y-22100D03*
X40900Y-22600D03*
G54D28*
X26125Y-32146D03*
X26125Y-31554D03*
X24450Y-32146D03*
X24450Y-31554D03*
G54D29*
X23775Y-30325D03*
X26325Y-30325D03*
G54D30*
X47675Y-21475D03*
G54D31*
X10819Y-31318D03*
G54D32*
X13004Y-30393D03*
X13004Y-29607D03*
G54D31*
X10819Y-28682D03*
G54D10*
G36*
X32825Y-24100D02*
X32825Y-24000D01*
X33425Y-23800D01*
X33425Y-24300D01*
X32825Y-24100D01*
X32825Y-24100D01*
G37*
G36*
X33475Y-24300D02*
X33475Y-23800D01*
X34075Y-24000D01*
X34075Y-24100D01*
X33475Y-24300D01*
X33475Y-24300D01*
G37*
G54D33*
X40872Y-32298D03*
X41128Y-32298D03*
X41384Y-32298D03*
X41640Y-32298D03*
X40104Y-34502D03*
X40104Y-32298D03*
X40360Y-32298D03*
X40616Y-32298D03*
X41896Y-34502D03*
X41640Y-34502D03*
X41384Y-34502D03*
X41128Y-34502D03*
X40872Y-34502D03*
X40616Y-34502D03*
X41896Y-32298D03*
X40360Y-34502D03*
X39848Y-32298D03*
X42152Y-32298D03*
X42152Y-34502D03*
X39848Y-34502D03*
G54D34*
X44230Y-24700D03*
X44230Y-24267D03*
X44230Y-23834D03*
X44230Y-23401D03*
X44230Y-22968D03*
X44230Y-25133D03*
X44230Y-25566D03*
X44230Y-25999D03*
X44230Y-26432D03*
G54D35*
X44466Y-22495D03*
G54D36*
X48206Y-22495D03*
X48206Y-28597D03*
G54D37*
X44426Y-28243D03*
G54D19*
X39200Y-30150D03*
X39950Y-30150D03*
G54D38*
X33675Y-23150D03*
X33200Y-23150D03*
G54D39*
X35284Y-21077D03*
X32115Y-21077D03*
X35284Y-21943D03*
X32115Y-21943D03*
G54D40*
X34585Y-22327D03*
X33995Y-22327D03*
X32814Y-22327D03*
G54D41*
X29875Y-23675D03*
X17425Y-23675D03*
G54D42*
X23650Y-23675D03*
M02*
