M48
INCH,TZ
T1C0.025
T2C0.035
T3C0.035
T4C0.040
T5C0.046
T6C0.050
T7C0.100
T8C0.125
%
G90
G05
T1
X013000Y-035900
X013125Y-026975
X013775Y-023150
X015225Y-026225
X015250Y-024050
X015250Y-025075
X016560Y-027460
X016625Y-033925
X016625Y-035600
X016800Y-029425
X016800Y-029875
X016800Y-030350
X017050Y-034700
X017350Y-029025
X017400Y-036250
X017425Y-021825
X017740Y-028500
X018700Y-035100
X019275Y-036600
X021200Y-038750
X021550Y-035400
X022500Y-044110
X022775Y-035400
X023100Y-037175
X023900Y-033500
X023925Y-034675
X023925Y-037150
X024000Y-039125
X024475Y-033150
X024890Y-041700
X024975Y-035525
X025520Y-034200
X025900Y-033850
X026500Y-044110
X026875Y-034850
X028200Y-035575
X028225Y-027950
X028890Y-041700
X028900Y-032475
X029075Y-027150
X029225Y-029650
X029275Y-032800
X029525Y-027050
X029625Y-033125
X029675Y-026625
X029875Y-021825
X030000Y-033400
X030275Y-027075
X030475Y-029350
X030500Y-044110
X030780Y-026620
X030825Y-029025
X031100Y-026120
X031300Y-021000
X031475Y-039275
X031625Y-032000
X031650Y-026125
X031975Y-026625
X031975Y-027075
X032100Y-031850
X032375Y-037450
X032400Y-029200
X032550Y-032000
X032825Y-025575
X032890Y-041710
X033800Y-027750
X034400Y-024050
X034500Y-044110
X034600Y-023425
X034600Y-026050
X035300Y-023000
X036300Y-023000
X036890Y-041710
X036900Y-039750
X037300Y-023000
X037400Y-031375
X037400Y-032375
X037675Y-021850
X037800Y-020570
X038150Y-034500
X038250Y-022600
X038275Y-022100
X038275Y-027400
X039150Y-035150
X039650Y-030900
X039800Y-036800
X040000Y-020380
X040610Y-030900
X040800Y-036800
X040900Y-039750
X040960Y-041700
X041150Y-030900
X041400Y-020500
X041650Y-030900
X041650Y-036050
X042150Y-030150
X042150Y-030900
X042310Y-033660
X042400Y-020600
X042690Y-033310
X042900Y-039750
X043225Y-022500
X043225Y-024275
X043400Y-020600
X043750Y-034100
X043900Y-039750
X044400Y-020600
X044900Y-039750
X045900Y-039750
X046400Y-020500
X047900Y-030200
T2
X045575Y-020975
X045575Y-021975
X048364Y-023598
X048364Y-026747
T3
X033109Y-021510
X034291Y-021510
T4
X016500Y-041500
X017500Y-041500
X018500Y-041500
X019500Y-041500
X020500Y-041500
X021500Y-041500
X030300Y-020000
X031300Y-020000
X032300Y-020000
X033300Y-020000
X033900Y-039000
X034300Y-020000
X034900Y-039000
X035300Y-020000
X035900Y-039000
X036300Y-020000
X036900Y-039000
X037300Y-020000
X037900Y-039000
X038300Y-020000
X038900Y-039000
X039300Y-020000
X039900Y-039000
X040900Y-020000
X040900Y-039000
X041900Y-020000
X042900Y-020000
X042900Y-039000
X043900Y-020000
X043900Y-039000
X044900Y-020000
X044900Y-039000
X045500Y-034100
X045500Y-035100
X045500Y-036100
X045900Y-020000
X045900Y-039000
X046500Y-029700
X046500Y-030700
X046500Y-031700
X046500Y-032700
X046500Y-034100
X046500Y-035100
X046500Y-036100
X046900Y-020000
X046900Y-039000
X047900Y-020000
X047900Y-039000
T6
X010600Y-032775
X010600Y-035375
T8
X011100Y-026000
X011100Y-037000
X028400Y-039000
X028900Y-020000
X048900Y-037000
T4
X013906Y-018996G85X014706Y-018996
G05
T5
X013125Y-020455G85X013125Y-021395
G05
X015487Y-020355G85X015487Y-021495
G05
T7
X010950Y-016500G85X014050Y-016500
G05
X045950Y-016500G85X049050Y-016500
G05
T0
M30
