G04 (created by PCBNEW (2013-mar-13)-testing) date Saturday 19 October 2013 09:12:08 PM IST*
%MOIN*%
G04 Gerber Fmt 3.4, Leading zero omitted, Abs format*
%FSLAX34Y34*%
G01*
G70*
G90*
G04 APERTURE LIST*
%ADD10C,0.005906*%
%ADD11C,0.005000*%
%ADD12C,0.040000*%
%ADD13R,0.060000X0.060000*%
%ADD14C,0.060000*%
%ADD15C,0.450000*%
%ADD16C,0.070000*%
%ADD17R,0.070000X0.070000*%
%ADD18C,0.075000*%
%ADD19C,0.155000*%
%ADD20O,0.100000X0.180000*%
%ADD21R,0.100000X0.200000*%
%ADD22O,0.150000X0.070000*%
%ADD23C,0.045000*%
%ADD24R,0.040000X0.050000*%
%ADD25R,0.060000X0.070000*%
%ADD26C,0.035433*%
G04 APERTURE END LIST*
G54D10*
G54D11*
X19900Y-19000D02*
X17500Y-19000D01*
X20400Y-19500D02*
G75*
G03X19900Y-19000I-500J0D01*
G74*
G01*
X27400Y-19000D02*
G75*
G03X26900Y-19500I0J-500D01*
G74*
G01*
X26400Y-20500D02*
G75*
G03X26900Y-20000I0J500D01*
G74*
G01*
X20400Y-20000D02*
G75*
G03X20900Y-20500I500J0D01*
G74*
G01*
X26900Y-19500D02*
X26900Y-20000D01*
X20400Y-19500D02*
X20400Y-20000D01*
X20900Y-20500D02*
X26400Y-20500D01*
X27400Y-19000D02*
X42500Y-19000D01*
X47500Y-40000D02*
G75*
G03X50000Y-37500I0J2500D01*
G74*
G01*
X42500Y-45000D02*
G75*
G03X45000Y-42500I0J2500D01*
G74*
G01*
X47500Y-40000D02*
G75*
G03X45000Y-42500I0J-2500D01*
G74*
G01*
X15000Y-42500D02*
G75*
G03X17500Y-45000I2500J0D01*
G74*
G01*
X10000Y-37500D02*
G75*
G03X12500Y-40000I2500J0D01*
G74*
G01*
X15000Y-42500D02*
G75*
G03X12500Y-40000I-2500J0D01*
G74*
G01*
X42500Y-19000D02*
G75*
G03X45000Y-16500I0J2500D01*
G74*
G01*
X50000Y-16500D02*
G75*
G03X47500Y-14000I-2500J0D01*
G74*
G01*
X47500Y-14000D02*
G75*
G03X45000Y-16500I0J-2500D01*
G74*
G01*
X15000Y-16500D02*
G75*
G03X17500Y-19000I2500J0D01*
G74*
G01*
X15000Y-16500D02*
G75*
G03X12500Y-14000I-2500J0D01*
G74*
G01*
X12500Y-14000D02*
G75*
G03X10000Y-16500I0J-2500D01*
G74*
G01*
X13850Y-38550D02*
X15350Y-38550D01*
X13850Y-27550D02*
X13850Y-38550D01*
X15350Y-27550D02*
X13850Y-27550D01*
X15350Y-38550D02*
X15350Y-27550D01*
X42500Y-45000D02*
X17500Y-45000D01*
X10000Y-37500D02*
X10000Y-16500D01*
X50000Y-16500D02*
X50000Y-37500D01*
G54D12*
X40610Y-30900D03*
X37400Y-32375D03*
G54D13*
X16500Y-41500D03*
X17500Y-41500D03*
G54D14*
X18500Y-41500D03*
X19500Y-41500D03*
X20500Y-41500D03*
X21500Y-41500D03*
G54D15*
X12500Y-16500D03*
G54D16*
X46500Y-29700D03*
X46500Y-30700D03*
X46500Y-31700D03*
G54D17*
X46500Y-32700D03*
G54D12*
X37400Y-31375D03*
X39800Y-36800D03*
X40800Y-36800D03*
G54D15*
X47500Y-16500D03*
G54D18*
X10600Y-35375D03*
X10600Y-32775D03*
G54D14*
X45575Y-20975D03*
X45575Y-21975D03*
G54D12*
X37675Y-21850D03*
G54D19*
X11100Y-26000D03*
X11100Y-37000D03*
G54D20*
X13125Y-20925D03*
G54D21*
X15487Y-20925D03*
G54D22*
X14306Y-18995D03*
G54D23*
X48363Y-23597D03*
X48363Y-26747D03*
G54D24*
X47615Y-27970D03*
X48415Y-27970D03*
G54D25*
X24890Y-44110D03*
X24890Y-40890D03*
X23110Y-40890D03*
X23110Y-44110D03*
X32890Y-44110D03*
X32890Y-40890D03*
X31110Y-40890D03*
X31110Y-44110D03*
X36890Y-44110D03*
X36890Y-40890D03*
X35110Y-40890D03*
X35110Y-44110D03*
X28890Y-44110D03*
X28890Y-40890D03*
X27110Y-40890D03*
X27110Y-44110D03*
X42740Y-44110D03*
X42740Y-40890D03*
X40960Y-40890D03*
X40960Y-44110D03*
G54D26*
X34290Y-21510D03*
X33109Y-21510D03*
G54D12*
X42900Y-39750D03*
X43900Y-39750D03*
X44900Y-39750D03*
X46400Y-20500D03*
X44400Y-20600D03*
X43400Y-20600D03*
X42400Y-20600D03*
X41400Y-20500D03*
X40000Y-20380D03*
X37800Y-20570D03*
X37300Y-23000D03*
X36300Y-23000D03*
X35300Y-23000D03*
X40900Y-39750D03*
X36900Y-39750D03*
X45900Y-39750D03*
X31300Y-21000D03*
G54D14*
X47900Y-39000D03*
X46900Y-39000D03*
X45900Y-39000D03*
X42900Y-39000D03*
X43900Y-39000D03*
X44900Y-39000D03*
X40900Y-39000D03*
X39900Y-39000D03*
X38900Y-39000D03*
X36900Y-39000D03*
X35900Y-39000D03*
X47900Y-20000D03*
X46900Y-20000D03*
X45900Y-20000D03*
X44900Y-20000D03*
X43900Y-20000D03*
X42900Y-20000D03*
X41900Y-20000D03*
X40900Y-20000D03*
X39300Y-20000D03*
X38300Y-20000D03*
X37300Y-20000D03*
X36300Y-20000D03*
X35300Y-20000D03*
X34300Y-20000D03*
X33300Y-20000D03*
X32300Y-20000D03*
X37900Y-39000D03*
G54D19*
X48900Y-37000D03*
X28900Y-20000D03*
X28400Y-39000D03*
G54D14*
X34900Y-39000D03*
X31300Y-20000D03*
X30300Y-20000D03*
X33900Y-39000D03*
G54D13*
X45500Y-36100D03*
G54D14*
X46500Y-36100D03*
X45500Y-35100D03*
X46500Y-35100D03*
X45500Y-34100D03*
X46500Y-34100D03*
M02*
