G04 (created by PCBNEW (2013-mar-13)-testing) date Saturday 19 October 2013 09:12:08 PM IST*
%MOIN*%
G04 Gerber Fmt 3.4, Leading zero omitted, Abs format*
%FSLAX34Y34*%
G01*
G70*
G90*
G04 APERTURE LIST*
%ADD10C,0.005906*%
%ADD11C,0.006000*%
%ADD12C,0.005000*%
%ADD13C,0.010000*%
%ADD14C,0.016000*%
%ADD15C,0.008000*%
%ADD16C,0.003100*%
%ADD17C,0.004000*%
%ADD18R,0.094488X0.078740*%
%ADD19R,0.059055X0.019685*%
%ADD20R,0.039400X0.023600*%
%ADD21R,0.039400X0.031500*%
%ADD22R,0.042000X0.056000*%
%ADD23R,0.056000X0.042000*%
%ADD24R,0.059000X0.051200*%
%ADD25R,0.051200X0.059000*%
%ADD26R,0.047200X0.031500*%
%ADD27C,0.040000*%
%ADD28R,0.060000X0.060000*%
%ADD29C,0.060000*%
%ADD30R,0.078700X0.017700*%
%ADD31R,0.017700X0.078700*%
%ADD32C,0.450000*%
%ADD33C,0.070000*%
%ADD34R,0.070000X0.070000*%
%ADD35R,0.054000X0.016000*%
%ADD36R,0.056000X0.063000*%
%ADD37R,0.075000X0.075000*%
%ADD38C,0.075000*%
%ADD39R,0.080000X0.024000*%
%ADD40R,0.039400X0.035400*%
%ADD41R,0.098425X0.118110*%
%ADD42R,0.300000X0.100000*%
%ADD43R,0.133700X0.059000*%
%ADD44R,0.137700X0.039200*%
%ADD45C,0.155000*%
%ADD46O,0.100000X0.180000*%
%ADD47R,0.100000X0.200000*%
%ADD48O,0.150000X0.070000*%
%ADD49R,0.016500X0.057900*%
%ADD50R,0.062992X0.027559*%
%ADD51R,0.062992X0.047244*%
%ADD52R,0.086614X0.047244*%
%ADD53R,0.055118X0.062992*%
%ADD54C,0.045000*%
%ADD55R,0.030000X0.030000*%
%ADD56R,0.049213X0.035433*%
%ADD57R,0.035433X0.049213*%
%ADD58C,0.035433*%
%ADD59R,0.225000X0.225000*%
%ADD60C,0.960000*%
G04 APERTURE END LIST*
G54D10*
G54D11*
X29600Y-38550D02*
X29600Y-37600D01*
X43800Y-38550D02*
X29600Y-38550D01*
X43800Y-37600D02*
X43800Y-38550D01*
X43800Y-37600D02*
X29600Y-37600D01*
X38600Y-32800D02*
X38600Y-34300D01*
X30900Y-32800D02*
X38600Y-32800D01*
X30900Y-34300D02*
X30900Y-32800D01*
X30900Y-34300D02*
X38600Y-34300D01*
G54D12*
X35850Y-19650D02*
X36575Y-19650D01*
X35025Y-19650D02*
X34025Y-19650D01*
X35850Y-23700D02*
X34925Y-23700D01*
X35850Y-23700D02*
X37650Y-23700D01*
X35850Y-23650D02*
X35850Y-23700D01*
X31950Y-20700D02*
X31950Y-19725D01*
X29975Y-20700D02*
X31950Y-20700D01*
X35850Y-19650D02*
X35025Y-19650D01*
X35850Y-21025D02*
X35850Y-19650D01*
X35850Y-23650D02*
X35850Y-21025D01*
X39600Y-19650D02*
X39025Y-19650D01*
X39600Y-19150D02*
X39600Y-19650D01*
X40200Y-19150D02*
X39600Y-19150D01*
X40200Y-19250D02*
X40200Y-19150D01*
X38025Y-19650D02*
X38575Y-19650D01*
X38025Y-19075D02*
X38025Y-19650D01*
X40200Y-19250D02*
X40200Y-20200D01*
X41400Y-19900D02*
X41400Y-20250D01*
X41200Y-19900D02*
X41400Y-19900D01*
X42400Y-19900D02*
X42400Y-20350D01*
X42200Y-19900D02*
X42400Y-19900D01*
X43400Y-19900D02*
X43400Y-20350D01*
X43200Y-19900D02*
X43400Y-19900D01*
X44400Y-19900D02*
X44400Y-20350D01*
X44200Y-19900D02*
X44400Y-19900D01*
X46400Y-19900D02*
X46400Y-20250D01*
X46200Y-19900D02*
X46400Y-19900D01*
X48257Y-38621D02*
X48214Y-38635D01*
X48142Y-38635D01*
X48114Y-38621D01*
X48099Y-38607D01*
X48085Y-38578D01*
X48085Y-38550D01*
X48099Y-38521D01*
X48114Y-38507D01*
X48142Y-38492D01*
X48199Y-38478D01*
X48228Y-38464D01*
X48242Y-38450D01*
X48257Y-38421D01*
X48257Y-38392D01*
X48242Y-38364D01*
X48228Y-38350D01*
X48199Y-38335D01*
X48128Y-38335D01*
X48085Y-38350D01*
X47785Y-38607D02*
X47800Y-38621D01*
X47842Y-38635D01*
X47871Y-38635D01*
X47914Y-38621D01*
X47942Y-38592D01*
X47957Y-38564D01*
X47971Y-38507D01*
X47971Y-38464D01*
X47957Y-38407D01*
X47942Y-38378D01*
X47914Y-38350D01*
X47871Y-38335D01*
X47842Y-38335D01*
X47800Y-38350D01*
X47785Y-38364D01*
X47514Y-38635D02*
X47657Y-38635D01*
X47657Y-38335D01*
X47264Y-38621D02*
X47221Y-38635D01*
X47149Y-38635D01*
X47121Y-38621D01*
X47107Y-38607D01*
X47092Y-38578D01*
X47092Y-38550D01*
X47107Y-38521D01*
X47121Y-38507D01*
X47149Y-38492D01*
X47207Y-38478D01*
X47235Y-38464D01*
X47249Y-38450D01*
X47264Y-38421D01*
X47264Y-38392D01*
X47249Y-38364D01*
X47235Y-38350D01*
X47207Y-38335D01*
X47135Y-38335D01*
X47092Y-38350D01*
X46964Y-38635D02*
X46964Y-38335D01*
X46892Y-38335D01*
X46850Y-38350D01*
X46821Y-38378D01*
X46807Y-38407D01*
X46792Y-38464D01*
X46792Y-38507D01*
X46807Y-38564D01*
X46821Y-38592D01*
X46850Y-38621D01*
X46892Y-38635D01*
X46964Y-38635D01*
X46678Y-38550D02*
X46535Y-38550D01*
X46707Y-38635D02*
X46607Y-38335D01*
X46507Y-38635D01*
X36064Y-39760D02*
X36164Y-39617D01*
X36235Y-39760D02*
X36235Y-39460D01*
X36121Y-39460D01*
X36092Y-39475D01*
X36078Y-39489D01*
X36064Y-39517D01*
X36064Y-39560D01*
X36078Y-39589D01*
X36092Y-39603D01*
X36121Y-39617D01*
X36235Y-39617D01*
X35949Y-39746D02*
X35907Y-39760D01*
X35835Y-39760D01*
X35807Y-39746D01*
X35792Y-39732D01*
X35778Y-39703D01*
X35778Y-39675D01*
X35792Y-39646D01*
X35807Y-39632D01*
X35835Y-39617D01*
X35892Y-39603D01*
X35921Y-39589D01*
X35935Y-39575D01*
X35949Y-39546D01*
X35949Y-39517D01*
X35935Y-39489D01*
X35921Y-39475D01*
X35892Y-39460D01*
X35821Y-39460D01*
X35778Y-39475D01*
X35692Y-39460D02*
X35521Y-39460D01*
X35607Y-39760D02*
X35607Y-39460D01*
X35099Y-39460D02*
X35242Y-39460D01*
X35257Y-39603D01*
X35242Y-39589D01*
X35214Y-39575D01*
X35142Y-39575D01*
X35114Y-39589D01*
X35099Y-39603D01*
X35085Y-39632D01*
X35085Y-39703D01*
X35099Y-39732D01*
X35114Y-39746D01*
X35142Y-39760D01*
X35214Y-39760D01*
X35242Y-39746D01*
X35257Y-39732D01*
X35000Y-39460D02*
X34900Y-39760D01*
X34800Y-39460D01*
X34642Y-39460D02*
X34614Y-39460D01*
X34585Y-39475D01*
X34571Y-39489D01*
X34557Y-39517D01*
X34542Y-39575D01*
X34542Y-39646D01*
X34557Y-39703D01*
X34571Y-39732D01*
X34585Y-39746D01*
X34614Y-39760D01*
X34642Y-39760D01*
X34671Y-39746D01*
X34685Y-39732D01*
X34699Y-39703D01*
X34714Y-39646D01*
X34714Y-39575D01*
X34699Y-39517D01*
X34685Y-39489D01*
X34671Y-39475D01*
X34642Y-39460D01*
X38099Y-39460D02*
X38242Y-39460D01*
X38257Y-39603D01*
X38242Y-39589D01*
X38214Y-39575D01*
X38142Y-39575D01*
X38114Y-39589D01*
X38099Y-39603D01*
X38085Y-39632D01*
X38085Y-39703D01*
X38099Y-39732D01*
X38114Y-39746D01*
X38142Y-39760D01*
X38214Y-39760D01*
X38242Y-39746D01*
X38257Y-39732D01*
X38000Y-39460D02*
X37900Y-39760D01*
X37800Y-39460D01*
X37642Y-39460D02*
X37614Y-39460D01*
X37585Y-39475D01*
X37571Y-39489D01*
X37557Y-39517D01*
X37542Y-39575D01*
X37542Y-39646D01*
X37557Y-39703D01*
X37571Y-39732D01*
X37585Y-39746D01*
X37614Y-39760D01*
X37642Y-39760D01*
X37671Y-39746D01*
X37685Y-39732D01*
X37699Y-39703D01*
X37714Y-39646D01*
X37714Y-39575D01*
X37699Y-39517D01*
X37685Y-39489D01*
X37671Y-39475D01*
X37642Y-39460D01*
X39128Y-39475D02*
X39157Y-39460D01*
X39200Y-39460D01*
X39242Y-39475D01*
X39271Y-39503D01*
X39285Y-39532D01*
X39300Y-39589D01*
X39300Y-39632D01*
X39285Y-39689D01*
X39271Y-39717D01*
X39242Y-39746D01*
X39200Y-39760D01*
X39171Y-39760D01*
X39128Y-39746D01*
X39114Y-39732D01*
X39114Y-39632D01*
X39171Y-39632D01*
X38985Y-39760D02*
X38985Y-39460D01*
X38814Y-39760D01*
X38814Y-39460D01*
X38671Y-39760D02*
X38671Y-39460D01*
X38600Y-39460D01*
X38557Y-39475D01*
X38528Y-39503D01*
X38514Y-39532D01*
X38500Y-39589D01*
X38500Y-39632D01*
X38514Y-39689D01*
X38528Y-39717D01*
X38557Y-39746D01*
X38600Y-39760D01*
X38671Y-39760D01*
X40128Y-39475D02*
X40157Y-39460D01*
X40200Y-39460D01*
X40242Y-39475D01*
X40271Y-39503D01*
X40285Y-39532D01*
X40300Y-39589D01*
X40300Y-39632D01*
X40285Y-39689D01*
X40271Y-39717D01*
X40242Y-39746D01*
X40200Y-39760D01*
X40171Y-39760D01*
X40128Y-39746D01*
X40114Y-39732D01*
X40114Y-39632D01*
X40171Y-39632D01*
X39985Y-39760D02*
X39985Y-39460D01*
X39814Y-39760D01*
X39814Y-39460D01*
X39671Y-39760D02*
X39671Y-39460D01*
X39600Y-39460D01*
X39557Y-39475D01*
X39528Y-39503D01*
X39514Y-39532D01*
X39500Y-39589D01*
X39500Y-39632D01*
X39514Y-39689D01*
X39528Y-39717D01*
X39557Y-39746D01*
X39600Y-39760D01*
X39671Y-39760D01*
X19900Y-19000D02*
X17500Y-19000D01*
G54D13*
X43592Y-38276D02*
X43592Y-37776D01*
X43378Y-38276D02*
X43378Y-38014D01*
X43402Y-37966D01*
X43449Y-37942D01*
X43521Y-37942D01*
X43569Y-37966D01*
X43592Y-37990D01*
X43211Y-37942D02*
X43021Y-37942D01*
X43140Y-37776D02*
X43140Y-38204D01*
X43116Y-38252D01*
X43069Y-38276D01*
X43021Y-38276D01*
X42926Y-37942D02*
X42735Y-37942D01*
X42854Y-37776D02*
X42854Y-38204D01*
X42830Y-38252D01*
X42783Y-38276D01*
X42735Y-38276D01*
X42569Y-37942D02*
X42569Y-38442D01*
X42569Y-37966D02*
X42521Y-37942D01*
X42426Y-37942D01*
X42378Y-37966D01*
X42354Y-37990D01*
X42330Y-38038D01*
X42330Y-38180D01*
X42354Y-38228D01*
X42378Y-38252D01*
X42426Y-38276D01*
X42521Y-38276D01*
X42569Y-38252D01*
X42116Y-38228D02*
X42092Y-38252D01*
X42116Y-38276D01*
X42140Y-38252D01*
X42116Y-38228D01*
X42116Y-38276D01*
X42116Y-37966D02*
X42092Y-37990D01*
X42116Y-38014D01*
X42140Y-37990D01*
X42116Y-37966D01*
X42116Y-38014D01*
X41521Y-37752D02*
X41949Y-38395D01*
X40997Y-37752D02*
X41426Y-38395D01*
X40878Y-37942D02*
X40783Y-38276D01*
X40688Y-38038D01*
X40592Y-38276D01*
X40497Y-37942D01*
X40354Y-37942D02*
X40235Y-38276D01*
X40116Y-37942D02*
X40235Y-38276D01*
X40283Y-38395D01*
X40307Y-38419D01*
X40354Y-38442D01*
X39854Y-38276D02*
X39902Y-38252D01*
X39926Y-38228D01*
X39949Y-38180D01*
X39949Y-38038D01*
X39926Y-37990D01*
X39902Y-37966D01*
X39854Y-37942D01*
X39783Y-37942D01*
X39735Y-37966D01*
X39711Y-37990D01*
X39688Y-38038D01*
X39688Y-38180D01*
X39711Y-38228D01*
X39735Y-38252D01*
X39783Y-38276D01*
X39854Y-38276D01*
X39402Y-38276D02*
X39449Y-38252D01*
X39473Y-38204D01*
X39473Y-37776D01*
X38997Y-37942D02*
X38997Y-38276D01*
X39211Y-37942D02*
X39211Y-38204D01*
X39188Y-38252D01*
X39140Y-38276D01*
X39069Y-38276D01*
X39021Y-38252D01*
X38997Y-38228D01*
X38759Y-38276D02*
X38759Y-37942D01*
X38759Y-37990D02*
X38735Y-37966D01*
X38688Y-37942D01*
X38616Y-37942D01*
X38569Y-37966D01*
X38545Y-38014D01*
X38545Y-38276D01*
X38545Y-38014D02*
X38521Y-37966D01*
X38473Y-37942D01*
X38402Y-37942D01*
X38354Y-37966D01*
X38330Y-38014D01*
X38330Y-38276D01*
X38092Y-38228D02*
X38069Y-38252D01*
X38092Y-38276D01*
X38116Y-38252D01*
X38092Y-38228D01*
X38092Y-38276D01*
X37640Y-38252D02*
X37688Y-38276D01*
X37783Y-38276D01*
X37830Y-38252D01*
X37854Y-38228D01*
X37878Y-38180D01*
X37878Y-38038D01*
X37854Y-37990D01*
X37830Y-37966D01*
X37783Y-37942D01*
X37688Y-37942D01*
X37640Y-37966D01*
X37354Y-38276D02*
X37402Y-38252D01*
X37426Y-38228D01*
X37449Y-38180D01*
X37449Y-38038D01*
X37426Y-37990D01*
X37402Y-37966D01*
X37354Y-37942D01*
X37283Y-37942D01*
X37235Y-37966D01*
X37211Y-37990D01*
X37188Y-38038D01*
X37188Y-38180D01*
X37211Y-38228D01*
X37235Y-38252D01*
X37283Y-38276D01*
X37354Y-38276D01*
X36973Y-38276D02*
X36973Y-37942D01*
X36973Y-37990D02*
X36949Y-37966D01*
X36902Y-37942D01*
X36830Y-37942D01*
X36783Y-37966D01*
X36759Y-38014D01*
X36759Y-38276D01*
X36759Y-38014D02*
X36735Y-37966D01*
X36688Y-37942D01*
X36616Y-37942D01*
X36569Y-37966D01*
X36545Y-38014D01*
X36545Y-38276D01*
X35949Y-37752D02*
X36378Y-38395D01*
X35783Y-37942D02*
X35783Y-38442D01*
X35783Y-37966D02*
X35735Y-37942D01*
X35640Y-37942D01*
X35592Y-37966D01*
X35569Y-37990D01*
X35545Y-38038D01*
X35545Y-38180D01*
X35569Y-38228D01*
X35592Y-38252D01*
X35640Y-38276D01*
X35735Y-38276D01*
X35783Y-38252D01*
X35330Y-38276D02*
X35330Y-37942D01*
X35330Y-38038D02*
X35307Y-37990D01*
X35283Y-37966D01*
X35235Y-37942D01*
X35188Y-37942D01*
X34949Y-38276D02*
X34997Y-38252D01*
X35021Y-38228D01*
X35045Y-38180D01*
X35045Y-38038D01*
X35021Y-37990D01*
X34997Y-37966D01*
X34949Y-37942D01*
X34878Y-37942D01*
X34830Y-37966D01*
X34807Y-37990D01*
X34783Y-38038D01*
X34783Y-38180D01*
X34807Y-38228D01*
X34830Y-38252D01*
X34878Y-38276D01*
X34949Y-38276D01*
X34569Y-37942D02*
X34569Y-38371D01*
X34592Y-38419D01*
X34640Y-38442D01*
X34664Y-38442D01*
X34569Y-37776D02*
X34592Y-37800D01*
X34569Y-37823D01*
X34545Y-37800D01*
X34569Y-37776D01*
X34569Y-37823D01*
X34140Y-38252D02*
X34188Y-38276D01*
X34283Y-38276D01*
X34330Y-38252D01*
X34354Y-38204D01*
X34354Y-38014D01*
X34330Y-37966D01*
X34283Y-37942D01*
X34188Y-37942D01*
X34140Y-37966D01*
X34116Y-38014D01*
X34116Y-38061D01*
X34354Y-38109D01*
X33688Y-38252D02*
X33735Y-38276D01*
X33830Y-38276D01*
X33878Y-38252D01*
X33902Y-38228D01*
X33926Y-38180D01*
X33926Y-38038D01*
X33902Y-37990D01*
X33878Y-37966D01*
X33830Y-37942D01*
X33735Y-37942D01*
X33688Y-37966D01*
X33545Y-37942D02*
X33354Y-37942D01*
X33473Y-37776D02*
X33473Y-38204D01*
X33450Y-38252D01*
X33402Y-38276D01*
X33354Y-38276D01*
X33211Y-38252D02*
X33164Y-38276D01*
X33069Y-38276D01*
X33021Y-38252D01*
X32997Y-38204D01*
X32997Y-38180D01*
X33021Y-38133D01*
X33069Y-38109D01*
X33140Y-38109D01*
X33188Y-38085D01*
X33211Y-38038D01*
X33211Y-38014D01*
X33188Y-37966D01*
X33140Y-37942D01*
X33069Y-37942D01*
X33021Y-37966D01*
X32426Y-37752D02*
X32854Y-38395D01*
X32092Y-38014D02*
X32021Y-38038D01*
X31997Y-38061D01*
X31973Y-38109D01*
X31973Y-38180D01*
X31997Y-38228D01*
X32021Y-38252D01*
X32069Y-38276D01*
X32259Y-38276D01*
X32259Y-37776D01*
X32092Y-37776D01*
X32045Y-37800D01*
X32021Y-37823D01*
X31997Y-37871D01*
X31997Y-37919D01*
X32021Y-37966D01*
X32045Y-37990D01*
X32092Y-38014D01*
X32259Y-38014D01*
X31783Y-38133D02*
X31545Y-38133D01*
X31830Y-38276D02*
X31664Y-37776D01*
X31497Y-38276D01*
X31330Y-38276D02*
X31330Y-37776D01*
X31211Y-37776D01*
X31140Y-37800D01*
X31092Y-37847D01*
X31069Y-37895D01*
X31045Y-37990D01*
X31045Y-38061D01*
X31069Y-38157D01*
X31092Y-38204D01*
X31140Y-38252D01*
X31211Y-38276D01*
X31330Y-38276D01*
X30569Y-37800D02*
X30616Y-37776D01*
X30688Y-37776D01*
X30759Y-37800D01*
X30807Y-37847D01*
X30830Y-37895D01*
X30854Y-37990D01*
X30854Y-38061D01*
X30830Y-38157D01*
X30807Y-38204D01*
X30759Y-38252D01*
X30688Y-38276D01*
X30640Y-38276D01*
X30569Y-38252D01*
X30545Y-38228D01*
X30545Y-38061D01*
X30640Y-38061D01*
X30330Y-38014D02*
X30164Y-38014D01*
X30092Y-38276D02*
X30330Y-38276D01*
X30330Y-37776D01*
X30092Y-37776D01*
X29878Y-38276D02*
X29878Y-37942D01*
X29878Y-38038D02*
X29854Y-37990D01*
X29830Y-37966D01*
X29783Y-37942D01*
X29735Y-37942D01*
G54D12*
X36180Y-20520D02*
X36180Y-22710D01*
X30960Y-21050D02*
X30817Y-21050D01*
X30989Y-21135D02*
X30889Y-20835D01*
X30789Y-21135D01*
X30517Y-21135D02*
X30617Y-20992D01*
X30689Y-21135D02*
X30689Y-20835D01*
X30575Y-20835D01*
X30546Y-20850D01*
X30532Y-20864D01*
X30517Y-20892D01*
X30517Y-20935D01*
X30532Y-20964D01*
X30546Y-20978D01*
X30575Y-20992D01*
X30689Y-20992D01*
X30389Y-20978D02*
X30289Y-20978D01*
X30246Y-21135D02*
X30389Y-21135D01*
X30389Y-20835D01*
X30246Y-20835D01*
X30017Y-20978D02*
X30117Y-20978D01*
X30117Y-21135D02*
X30117Y-20835D01*
X29974Y-20835D01*
X37271Y-40060D02*
X37085Y-40060D01*
X37185Y-40175D01*
X37142Y-40175D01*
X37114Y-40189D01*
X37099Y-40203D01*
X37085Y-40232D01*
X37085Y-40303D01*
X37099Y-40332D01*
X37114Y-40346D01*
X37142Y-40360D01*
X37228Y-40360D01*
X37257Y-40346D01*
X37271Y-40332D01*
X37000Y-40060D02*
X36900Y-40360D01*
X36800Y-40060D01*
X36728Y-40060D02*
X36542Y-40060D01*
X36642Y-40175D01*
X36599Y-40175D01*
X36571Y-40189D01*
X36557Y-40203D01*
X36542Y-40232D01*
X36542Y-40303D01*
X36557Y-40332D01*
X36571Y-40346D01*
X36599Y-40360D01*
X36685Y-40360D01*
X36714Y-40346D01*
X36728Y-40332D01*
X41342Y-40060D02*
X41242Y-40360D01*
X41142Y-40060D01*
X41114Y-40389D02*
X40885Y-40389D01*
X40814Y-40360D02*
X40814Y-40060D01*
X40671Y-40360D02*
X40671Y-40060D01*
X40500Y-40360D01*
X40500Y-40060D01*
X31800Y-24650D02*
X31700Y-24650D01*
X31800Y-24700D02*
X31600Y-24700D01*
X31800Y-24750D02*
X31500Y-24750D01*
X31800Y-24800D02*
X31400Y-24800D01*
X31800Y-25050D02*
X31700Y-25050D01*
X31800Y-25000D02*
X31600Y-25000D01*
X31800Y-24950D02*
X31500Y-24950D01*
X31800Y-24900D02*
X31400Y-24900D01*
X31800Y-25100D02*
X31300Y-24850D01*
X31800Y-24600D02*
X31800Y-25100D01*
X31300Y-24850D02*
X31800Y-24600D01*
X33000Y-24850D02*
X31300Y-24850D01*
X38650Y-26000D02*
X38650Y-24850D01*
X33000Y-26000D02*
X38650Y-26000D01*
X33000Y-24850D02*
X33000Y-26000D01*
X38650Y-24850D02*
X33000Y-24850D01*
X38403Y-25153D02*
X38360Y-25167D01*
X38346Y-25182D01*
X38332Y-25210D01*
X38332Y-25253D01*
X38346Y-25282D01*
X38360Y-25296D01*
X38389Y-25310D01*
X38503Y-25310D01*
X38503Y-25010D01*
X38403Y-25010D01*
X38375Y-25025D01*
X38360Y-25039D01*
X38346Y-25067D01*
X38346Y-25096D01*
X38360Y-25125D01*
X38375Y-25139D01*
X38403Y-25153D01*
X38503Y-25153D01*
X38217Y-25225D02*
X38075Y-25225D01*
X38246Y-25310D02*
X38146Y-25010D01*
X38046Y-25310D01*
X37989Y-25010D02*
X37817Y-25010D01*
X37903Y-25310D02*
X37903Y-25010D01*
X37760Y-25010D02*
X37589Y-25010D01*
X37675Y-25310D02*
X37675Y-25010D01*
X37089Y-25282D02*
X37103Y-25296D01*
X37146Y-25310D01*
X37175Y-25310D01*
X37217Y-25296D01*
X37246Y-25267D01*
X37260Y-25239D01*
X37275Y-25182D01*
X37275Y-25139D01*
X37260Y-25082D01*
X37246Y-25053D01*
X37217Y-25025D01*
X37175Y-25010D01*
X37146Y-25010D01*
X37103Y-25025D01*
X37089Y-25039D01*
X36789Y-25310D02*
X36889Y-25167D01*
X36960Y-25310D02*
X36960Y-25010D01*
X36846Y-25010D01*
X36817Y-25025D01*
X36803Y-25039D01*
X36789Y-25067D01*
X36789Y-25110D01*
X36803Y-25139D01*
X36817Y-25153D01*
X36846Y-25167D01*
X36960Y-25167D01*
X36675Y-25039D02*
X36660Y-25025D01*
X36632Y-25010D01*
X36560Y-25010D01*
X36532Y-25025D01*
X36517Y-25039D01*
X36503Y-25067D01*
X36503Y-25096D01*
X36517Y-25139D01*
X36689Y-25310D01*
X36503Y-25310D01*
X36246Y-25110D02*
X36246Y-25310D01*
X36317Y-24996D02*
X36389Y-25210D01*
X36203Y-25210D01*
X35946Y-25010D02*
X36089Y-25010D01*
X36103Y-25153D01*
X36089Y-25139D01*
X36060Y-25125D01*
X35989Y-25125D01*
X35960Y-25139D01*
X35946Y-25153D01*
X35932Y-25182D01*
X35932Y-25253D01*
X35946Y-25282D01*
X35960Y-25296D01*
X35989Y-25310D01*
X36060Y-25310D01*
X36089Y-25296D01*
X36103Y-25282D01*
X35746Y-25010D02*
X35717Y-25010D01*
X35689Y-25025D01*
X35675Y-25039D01*
X35660Y-25067D01*
X35646Y-25125D01*
X35646Y-25196D01*
X35660Y-25253D01*
X35675Y-25282D01*
X35689Y-25296D01*
X35717Y-25310D01*
X35746Y-25310D01*
X35775Y-25296D01*
X35789Y-25282D01*
X35803Y-25253D01*
X35817Y-25196D01*
X35817Y-25125D01*
X35803Y-25067D01*
X35789Y-25039D01*
X35775Y-25025D01*
X35746Y-25010D01*
X35317Y-25110D02*
X35260Y-25310D01*
X35203Y-25167D01*
X35146Y-25310D01*
X35089Y-25110D01*
X34975Y-25310D02*
X34975Y-25110D01*
X34975Y-25010D02*
X34989Y-25025D01*
X34975Y-25039D01*
X34960Y-25025D01*
X34975Y-25010D01*
X34975Y-25039D01*
X34789Y-25310D02*
X34817Y-25296D01*
X34832Y-25267D01*
X34832Y-25010D01*
X34632Y-25310D02*
X34660Y-25296D01*
X34675Y-25267D01*
X34675Y-25010D01*
X34289Y-25110D02*
X34289Y-25410D01*
X34289Y-25125D02*
X34260Y-25110D01*
X34203Y-25110D01*
X34175Y-25125D01*
X34160Y-25139D01*
X34146Y-25167D01*
X34146Y-25253D01*
X34160Y-25282D01*
X34175Y-25296D01*
X34203Y-25310D01*
X34260Y-25310D01*
X34289Y-25296D01*
X33975Y-25310D02*
X34003Y-25296D01*
X34017Y-25282D01*
X34032Y-25253D01*
X34032Y-25167D01*
X34017Y-25139D01*
X34003Y-25125D01*
X33975Y-25110D01*
X33932Y-25110D01*
X33903Y-25125D01*
X33889Y-25139D01*
X33875Y-25167D01*
X33875Y-25253D01*
X33889Y-25282D01*
X33903Y-25296D01*
X33932Y-25310D01*
X33975Y-25310D01*
X33775Y-25110D02*
X33717Y-25310D01*
X33660Y-25167D01*
X33603Y-25310D01*
X33546Y-25110D01*
X33317Y-25296D02*
X33346Y-25310D01*
X33403Y-25310D01*
X33432Y-25296D01*
X33446Y-25267D01*
X33446Y-25153D01*
X33432Y-25125D01*
X33403Y-25110D01*
X33346Y-25110D01*
X33317Y-25125D01*
X33303Y-25153D01*
X33303Y-25182D01*
X33446Y-25210D01*
X33175Y-25310D02*
X33175Y-25110D01*
X33175Y-25167D02*
X33160Y-25139D01*
X33146Y-25125D01*
X33117Y-25110D01*
X33089Y-25110D01*
X38375Y-25780D02*
X38375Y-25623D01*
X38389Y-25595D01*
X38417Y-25580D01*
X38475Y-25580D01*
X38503Y-25595D01*
X38375Y-25766D02*
X38403Y-25780D01*
X38475Y-25780D01*
X38503Y-25766D01*
X38517Y-25737D01*
X38517Y-25709D01*
X38503Y-25680D01*
X38475Y-25666D01*
X38403Y-25666D01*
X38375Y-25652D01*
X38232Y-25580D02*
X38232Y-25880D01*
X38232Y-25595D02*
X38203Y-25580D01*
X38146Y-25580D01*
X38117Y-25595D01*
X38103Y-25609D01*
X38089Y-25637D01*
X38089Y-25723D01*
X38103Y-25752D01*
X38117Y-25766D01*
X38146Y-25780D01*
X38203Y-25780D01*
X38232Y-25766D01*
X37960Y-25580D02*
X37960Y-25880D01*
X37960Y-25595D02*
X37932Y-25580D01*
X37874Y-25580D01*
X37846Y-25595D01*
X37832Y-25609D01*
X37817Y-25637D01*
X37817Y-25723D01*
X37832Y-25752D01*
X37846Y-25766D01*
X37874Y-25780D01*
X37932Y-25780D01*
X37960Y-25766D01*
X37689Y-25780D02*
X37689Y-25580D01*
X37689Y-25637D02*
X37674Y-25609D01*
X37660Y-25595D01*
X37632Y-25580D01*
X37603Y-25580D01*
X37460Y-25780D02*
X37489Y-25766D01*
X37503Y-25752D01*
X37517Y-25723D01*
X37517Y-25637D01*
X37503Y-25609D01*
X37489Y-25595D01*
X37460Y-25580D01*
X37417Y-25580D01*
X37389Y-25595D01*
X37374Y-25609D01*
X37360Y-25637D01*
X37360Y-25723D01*
X37374Y-25752D01*
X37389Y-25766D01*
X37417Y-25780D01*
X37460Y-25780D01*
X37260Y-25780D02*
X37103Y-25580D01*
X37260Y-25580D02*
X37103Y-25780D01*
X36989Y-25752D02*
X36974Y-25766D01*
X36989Y-25780D01*
X37003Y-25766D01*
X36989Y-25752D01*
X36989Y-25780D01*
X36460Y-25780D02*
X36632Y-25780D01*
X36546Y-25780D02*
X36546Y-25480D01*
X36574Y-25523D01*
X36603Y-25552D01*
X36632Y-25566D01*
X36275Y-25480D02*
X36246Y-25480D01*
X36217Y-25495D01*
X36203Y-25509D01*
X36189Y-25537D01*
X36175Y-25595D01*
X36175Y-25666D01*
X36189Y-25723D01*
X36203Y-25752D01*
X36217Y-25766D01*
X36246Y-25780D01*
X36275Y-25780D01*
X36303Y-25766D01*
X36317Y-25752D01*
X36332Y-25723D01*
X36346Y-25666D01*
X36346Y-25595D01*
X36332Y-25537D01*
X36317Y-25509D01*
X36303Y-25495D01*
X36275Y-25480D01*
X35989Y-25480D02*
X35960Y-25480D01*
X35932Y-25495D01*
X35917Y-25509D01*
X35903Y-25537D01*
X35889Y-25595D01*
X35889Y-25666D01*
X35903Y-25723D01*
X35917Y-25752D01*
X35932Y-25766D01*
X35960Y-25780D01*
X35989Y-25780D01*
X36017Y-25766D01*
X36032Y-25752D01*
X36046Y-25723D01*
X36060Y-25666D01*
X36060Y-25595D01*
X36046Y-25537D01*
X36032Y-25509D01*
X36017Y-25495D01*
X35989Y-25480D01*
X35532Y-25580D02*
X35532Y-25880D01*
X35532Y-25595D02*
X35503Y-25580D01*
X35446Y-25580D01*
X35417Y-25595D01*
X35403Y-25609D01*
X35389Y-25637D01*
X35389Y-25723D01*
X35403Y-25752D01*
X35417Y-25766D01*
X35446Y-25780D01*
X35503Y-25780D01*
X35532Y-25766D01*
X35132Y-25780D02*
X35132Y-25623D01*
X35146Y-25595D01*
X35175Y-25580D01*
X35232Y-25580D01*
X35260Y-25595D01*
X35132Y-25766D02*
X35160Y-25780D01*
X35232Y-25780D01*
X35260Y-25766D01*
X35275Y-25737D01*
X35275Y-25709D01*
X35260Y-25680D01*
X35232Y-25666D01*
X35160Y-25666D01*
X35132Y-25652D01*
X34860Y-25580D02*
X34860Y-25823D01*
X34875Y-25852D01*
X34889Y-25866D01*
X34917Y-25880D01*
X34960Y-25880D01*
X34989Y-25866D01*
X34860Y-25766D02*
X34889Y-25780D01*
X34946Y-25780D01*
X34975Y-25766D01*
X34989Y-25752D01*
X35003Y-25723D01*
X35003Y-25637D01*
X34989Y-25609D01*
X34975Y-25595D01*
X34946Y-25580D01*
X34889Y-25580D01*
X34860Y-25595D01*
X34603Y-25766D02*
X34632Y-25780D01*
X34689Y-25780D01*
X34717Y-25766D01*
X34732Y-25737D01*
X34732Y-25623D01*
X34717Y-25595D01*
X34689Y-25580D01*
X34632Y-25580D01*
X34603Y-25595D01*
X34589Y-25623D01*
X34589Y-25652D01*
X34732Y-25680D01*
X34275Y-25580D02*
X34160Y-25580D01*
X34232Y-25480D02*
X34232Y-25737D01*
X34217Y-25766D01*
X34189Y-25780D01*
X34160Y-25780D01*
X33932Y-25580D02*
X33932Y-25780D01*
X34060Y-25580D02*
X34060Y-25737D01*
X34046Y-25766D01*
X34017Y-25780D01*
X33974Y-25780D01*
X33946Y-25766D01*
X33932Y-25752D01*
X33789Y-25780D02*
X33789Y-25580D01*
X33789Y-25637D02*
X33774Y-25609D01*
X33760Y-25595D01*
X33732Y-25580D01*
X33703Y-25580D01*
X33603Y-25580D02*
X33603Y-25780D01*
X33603Y-25609D02*
X33589Y-25595D01*
X33560Y-25580D01*
X33517Y-25580D01*
X33489Y-25595D01*
X33474Y-25623D01*
X33474Y-25780D01*
X33346Y-25766D02*
X33317Y-25780D01*
X33260Y-25780D01*
X33232Y-25766D01*
X33217Y-25737D01*
X33217Y-25723D01*
X33232Y-25695D01*
X33260Y-25680D01*
X33303Y-25680D01*
X33332Y-25666D01*
X33346Y-25637D01*
X33346Y-25623D01*
X33332Y-25595D01*
X33303Y-25580D01*
X33260Y-25580D01*
X33232Y-25595D01*
G54D13*
X43400Y-41950D02*
X43400Y-43850D01*
X23400Y-41950D02*
X43400Y-41950D01*
X23400Y-43850D02*
X23400Y-41950D01*
X43400Y-43850D02*
X23400Y-43850D01*
G54D14*
X38057Y-33542D02*
X37942Y-33580D01*
X37904Y-33619D01*
X37866Y-33695D01*
X37866Y-33809D01*
X37904Y-33885D01*
X37942Y-33923D01*
X38019Y-33961D01*
X38323Y-33961D01*
X38323Y-33161D01*
X38057Y-33161D01*
X37980Y-33200D01*
X37942Y-33238D01*
X37904Y-33314D01*
X37904Y-33390D01*
X37942Y-33466D01*
X37980Y-33504D01*
X38057Y-33542D01*
X38323Y-33542D01*
X37561Y-33733D02*
X37180Y-33733D01*
X37638Y-33961D02*
X37371Y-33161D01*
X37104Y-33961D01*
X36838Y-33961D02*
X36838Y-33161D01*
X36647Y-33161D01*
X36533Y-33200D01*
X36457Y-33276D01*
X36419Y-33352D01*
X36380Y-33504D01*
X36380Y-33619D01*
X36419Y-33771D01*
X36457Y-33847D01*
X36533Y-33923D01*
X36647Y-33961D01*
X36838Y-33961D01*
X35619Y-33200D02*
X35695Y-33161D01*
X35809Y-33161D01*
X35923Y-33200D01*
X36000Y-33276D01*
X36038Y-33352D01*
X36076Y-33504D01*
X36076Y-33619D01*
X36038Y-33771D01*
X36000Y-33847D01*
X35923Y-33923D01*
X35809Y-33961D01*
X35733Y-33961D01*
X35619Y-33923D01*
X35580Y-33885D01*
X35580Y-33619D01*
X35733Y-33619D01*
X35238Y-33542D02*
X34971Y-33542D01*
X34857Y-33961D02*
X35238Y-33961D01*
X35238Y-33161D01*
X34857Y-33161D01*
X34514Y-33961D02*
X34514Y-33428D01*
X34514Y-33580D02*
X34476Y-33504D01*
X34438Y-33466D01*
X34361Y-33428D01*
X34285Y-33428D01*
X34209Y-34038D02*
X33600Y-34038D01*
X33485Y-33428D02*
X33295Y-33961D01*
X33104Y-33428D01*
X32457Y-33428D02*
X32457Y-33961D01*
X32647Y-33123D02*
X32838Y-33695D01*
X32342Y-33695D01*
X32038Y-33885D02*
X32000Y-33923D01*
X32038Y-33961D01*
X32076Y-33923D01*
X32038Y-33885D01*
X32038Y-33961D01*
X31238Y-33961D02*
X31695Y-33961D01*
X31466Y-33961D02*
X31466Y-33161D01*
X31542Y-33276D01*
X31619Y-33352D01*
X31695Y-33390D01*
G54D12*
X20400Y-19500D02*
G75*
G03X19900Y-19000I-500J0D01*
G74*
G01*
X27400Y-19000D02*
G75*
G03X26900Y-19500I0J-500D01*
G74*
G01*
X26400Y-20500D02*
G75*
G03X26900Y-20000I0J500D01*
G74*
G01*
X20400Y-20000D02*
G75*
G03X20900Y-20500I500J0D01*
G74*
G01*
X26900Y-19500D02*
X26900Y-20000D01*
X20400Y-19500D02*
X20400Y-20000D01*
X20900Y-20500D02*
X26400Y-20500D01*
X48875Y-22350D02*
X49500Y-22350D01*
X48675Y-22200D02*
X48875Y-22350D01*
X47525Y-22200D02*
X48675Y-22200D01*
X47350Y-22350D02*
X47525Y-22200D01*
X45225Y-22350D02*
X44725Y-22050D01*
X47350Y-22350D02*
X45225Y-22350D01*
X42021Y-21710D02*
X42121Y-21567D01*
X42192Y-21710D02*
X42192Y-21410D01*
X42078Y-21410D01*
X42049Y-21425D01*
X42035Y-21439D01*
X42021Y-21467D01*
X42021Y-21510D01*
X42035Y-21539D01*
X42049Y-21553D01*
X42078Y-21567D01*
X42192Y-21567D01*
X41935Y-21410D02*
X41764Y-21410D01*
X41849Y-21710D02*
X41849Y-21410D01*
X41492Y-21682D02*
X41507Y-21696D01*
X41550Y-21710D01*
X41578Y-21710D01*
X41621Y-21696D01*
X41650Y-21667D01*
X41664Y-21639D01*
X41678Y-21582D01*
X41678Y-21539D01*
X41664Y-21482D01*
X41650Y-21453D01*
X41621Y-21425D01*
X41578Y-21410D01*
X41550Y-21410D01*
X41507Y-21425D01*
X41492Y-21439D01*
X36992Y-27135D02*
X36821Y-27135D01*
X36907Y-27435D02*
X36907Y-27135D01*
X36721Y-27278D02*
X36621Y-27278D01*
X36578Y-27435D02*
X36721Y-27435D01*
X36721Y-27135D01*
X36578Y-27135D01*
X36449Y-27435D02*
X36449Y-27135D01*
X36349Y-27350D01*
X36249Y-27135D01*
X36249Y-27435D01*
X36107Y-27435D02*
X36107Y-27135D01*
X35992Y-27135D01*
X35964Y-27150D01*
X35950Y-27164D01*
X35935Y-27192D01*
X35935Y-27235D01*
X35950Y-27264D01*
X35964Y-27278D01*
X35992Y-27292D01*
X36107Y-27292D01*
X37000Y-27540D02*
X34520Y-27540D01*
X37000Y-31520D02*
X37000Y-27540D01*
X34530Y-31520D02*
X37000Y-31520D01*
X42040Y-22050D02*
X44720Y-22050D01*
X42040Y-24500D02*
X42040Y-22050D01*
X36180Y-24500D02*
X42040Y-24500D01*
X49500Y-20520D02*
X36180Y-20520D01*
X49500Y-22350D02*
X49500Y-20520D01*
G54D15*
X45376Y-18462D02*
X45460Y-18462D01*
X45460Y-17748D01*
X45376Y-17748D01*
X45243Y-18105D02*
X44976Y-18105D01*
X44843Y-18462D02*
X44759Y-18462D01*
X44759Y-17748D01*
X44843Y-17748D01*
X15136Y-18462D02*
X15220Y-18462D01*
X15220Y-17748D01*
X15136Y-17748D01*
X15003Y-18105D02*
X14736Y-18105D01*
X14870Y-18296D02*
X14870Y-17915D01*
X14603Y-18462D02*
X14519Y-18462D01*
X14519Y-17748D01*
X14603Y-17748D01*
G54D11*
X18816Y-43763D02*
X18833Y-43739D01*
X18866Y-43715D01*
X18900Y-43715D01*
X18933Y-43739D01*
X18950Y-43763D01*
X18966Y-43810D01*
X18966Y-43858D01*
X18950Y-43905D01*
X18933Y-43929D01*
X18900Y-43953D01*
X18866Y-43953D01*
X18833Y-43929D01*
X18816Y-43905D01*
X18816Y-43715D02*
X18816Y-43905D01*
X18800Y-43929D01*
X18783Y-43929D01*
X18750Y-43905D01*
X18733Y-43858D01*
X18733Y-43739D01*
X18766Y-43667D01*
X18816Y-43620D01*
X18883Y-43596D01*
X18950Y-43620D01*
X19000Y-43667D01*
X19033Y-43739D01*
X19050Y-43834D01*
X19033Y-43929D01*
X19000Y-44001D01*
X18950Y-44048D01*
X18883Y-44072D01*
X18816Y-44048D01*
X18766Y-44001D01*
X18150Y-43501D02*
X18316Y-43501D01*
X18333Y-43739D01*
X18316Y-43715D01*
X18283Y-43691D01*
X18200Y-43691D01*
X18166Y-43715D01*
X18150Y-43739D01*
X18133Y-43786D01*
X18133Y-43905D01*
X18150Y-43953D01*
X18166Y-43977D01*
X18200Y-44001D01*
X18283Y-44001D01*
X18316Y-43977D01*
X18333Y-43953D01*
X18033Y-43501D02*
X17916Y-44001D01*
X17800Y-43501D01*
X17616Y-43501D02*
X17583Y-43501D01*
X17550Y-43525D01*
X17533Y-43548D01*
X17516Y-43596D01*
X17500Y-43691D01*
X17500Y-43810D01*
X17516Y-43905D01*
X17533Y-43953D01*
X17550Y-43977D01*
X17583Y-44001D01*
X17616Y-44001D01*
X17650Y-43977D01*
X17666Y-43953D01*
X17683Y-43905D01*
X17700Y-43810D01*
X17700Y-43691D01*
X17683Y-43596D01*
X17666Y-43548D01*
X17650Y-43525D01*
X17616Y-43501D01*
G54D14*
X42940Y-43411D02*
X42940Y-42611D01*
X42559Y-43411D02*
X42559Y-42611D01*
X42369Y-42611D01*
X42254Y-42650D01*
X42178Y-42726D01*
X42140Y-42802D01*
X42102Y-42954D01*
X42102Y-43069D01*
X42140Y-43221D01*
X42178Y-43297D01*
X42254Y-43373D01*
X42369Y-43411D01*
X42559Y-43411D01*
X41759Y-43335D02*
X41721Y-43373D01*
X41759Y-43411D01*
X41797Y-43373D01*
X41759Y-43335D01*
X41759Y-43411D01*
X41759Y-42916D02*
X41721Y-42954D01*
X41759Y-42992D01*
X41797Y-42954D01*
X41759Y-42916D01*
X41759Y-42992D01*
G54D11*
X18033Y-20205D02*
X17766Y-20205D01*
X17938Y-20605D01*
X17614Y-20453D02*
X17309Y-20453D01*
X16909Y-20605D02*
X17138Y-20605D01*
X17023Y-20605D02*
X17023Y-20205D01*
X17061Y-20263D01*
X17099Y-20301D01*
X17138Y-20320D01*
X16757Y-20244D02*
X16738Y-20225D01*
X16699Y-20205D01*
X16604Y-20205D01*
X16566Y-20225D01*
X16547Y-20244D01*
X16528Y-20282D01*
X16528Y-20320D01*
X16547Y-20377D01*
X16776Y-20605D01*
X16528Y-20605D01*
X16414Y-20205D02*
X16280Y-20605D01*
X16147Y-20205D01*
X13155Y-33236D02*
X13155Y-33046D01*
X13346Y-33027D01*
X13327Y-33046D01*
X13308Y-33084D01*
X13308Y-33179D01*
X13327Y-33217D01*
X13346Y-33236D01*
X13384Y-33255D01*
X13479Y-33255D01*
X13517Y-33236D01*
X13536Y-33217D01*
X13555Y-33179D01*
X13555Y-33084D01*
X13536Y-33046D01*
X13517Y-33027D01*
X13155Y-33370D02*
X13555Y-33503D01*
X13155Y-33636D01*
X13555Y-34075D02*
X13289Y-34075D01*
X13327Y-34075D02*
X13308Y-34094D01*
X13289Y-34132D01*
X13289Y-34189D01*
X13308Y-34227D01*
X13346Y-34246D01*
X13555Y-34246D01*
X13346Y-34246D02*
X13308Y-34265D01*
X13289Y-34303D01*
X13289Y-34360D01*
X13308Y-34398D01*
X13346Y-34417D01*
X13555Y-34417D01*
X13555Y-34779D02*
X13346Y-34779D01*
X13308Y-34760D01*
X13289Y-34722D01*
X13289Y-34646D01*
X13308Y-34608D01*
X13536Y-34779D02*
X13555Y-34741D01*
X13555Y-34646D01*
X13536Y-34608D01*
X13498Y-34589D01*
X13460Y-34589D01*
X13422Y-34608D01*
X13403Y-34646D01*
X13403Y-34741D01*
X13384Y-34779D01*
X13555Y-34932D02*
X13289Y-35141D01*
X13289Y-34932D02*
X13555Y-35141D01*
X12757Y-27705D02*
X12509Y-27705D01*
X12642Y-27858D01*
X12585Y-27858D01*
X12547Y-27877D01*
X12528Y-27896D01*
X12509Y-27934D01*
X12509Y-28029D01*
X12528Y-28067D01*
X12547Y-28086D01*
X12585Y-28105D01*
X12699Y-28105D01*
X12738Y-28086D01*
X12757Y-28067D01*
X12395Y-27705D02*
X12261Y-28105D01*
X12128Y-27705D01*
X12033Y-27705D02*
X11766Y-27705D01*
X11938Y-28105D01*
X11309Y-28105D02*
X11309Y-27839D01*
X11309Y-27877D02*
X11290Y-27858D01*
X11252Y-27839D01*
X11195Y-27839D01*
X11157Y-27858D01*
X11138Y-27896D01*
X11138Y-28105D01*
X11138Y-27896D02*
X11119Y-27858D01*
X11080Y-27839D01*
X11023Y-27839D01*
X10985Y-27858D01*
X10966Y-27896D01*
X10966Y-28105D01*
X10604Y-28105D02*
X10604Y-27896D01*
X10623Y-27858D01*
X10661Y-27839D01*
X10738Y-27839D01*
X10776Y-27858D01*
X10604Y-28086D02*
X10642Y-28105D01*
X10738Y-28105D01*
X10776Y-28086D01*
X10795Y-28048D01*
X10795Y-28010D01*
X10776Y-27972D01*
X10738Y-27953D01*
X10642Y-27953D01*
X10604Y-27934D01*
X10452Y-28105D02*
X10242Y-27839D01*
X10452Y-27839D02*
X10242Y-28105D01*
X49776Y-30316D02*
X49276Y-30316D01*
X49323Y-30466D02*
X49300Y-30483D01*
X49276Y-30516D01*
X49276Y-30600D01*
X49300Y-30633D01*
X49323Y-30650D01*
X49371Y-30666D01*
X49419Y-30666D01*
X49490Y-30650D01*
X49776Y-30450D01*
X49776Y-30666D01*
X49728Y-31016D02*
X49752Y-31000D01*
X49776Y-30950D01*
X49776Y-30916D01*
X49752Y-30866D01*
X49704Y-30833D01*
X49657Y-30816D01*
X49561Y-30800D01*
X49490Y-30800D01*
X49395Y-30816D01*
X49347Y-30833D01*
X49300Y-30866D01*
X49276Y-30916D01*
X49276Y-30950D01*
X49300Y-31000D01*
X49323Y-31016D01*
X49538Y-31383D02*
X49514Y-31366D01*
X49490Y-31333D01*
X49490Y-31300D01*
X49514Y-31266D01*
X49538Y-31250D01*
X49585Y-31233D01*
X49633Y-31233D01*
X49680Y-31250D01*
X49704Y-31266D01*
X49728Y-31300D01*
X49728Y-31333D01*
X49704Y-31366D01*
X49680Y-31383D01*
X49490Y-31383D02*
X49680Y-31383D01*
X49704Y-31400D01*
X49704Y-31416D01*
X49680Y-31450D01*
X49633Y-31466D01*
X49514Y-31466D01*
X49442Y-31433D01*
X49395Y-31383D01*
X49371Y-31316D01*
X49395Y-31250D01*
X49442Y-31200D01*
X49514Y-31166D01*
X49609Y-31150D01*
X49704Y-31166D01*
X49776Y-31200D01*
X49823Y-31250D01*
X49847Y-31316D01*
X49823Y-31383D01*
X49776Y-31433D01*
X49276Y-31783D02*
X49276Y-31616D01*
X49514Y-31600D01*
X49490Y-31616D01*
X49466Y-31650D01*
X49466Y-31733D01*
X49490Y-31766D01*
X49514Y-31783D01*
X49561Y-31800D01*
X49680Y-31800D01*
X49728Y-31783D01*
X49752Y-31766D01*
X49776Y-31733D01*
X49776Y-31650D01*
X49752Y-31616D01*
X49728Y-31600D01*
X49276Y-31900D02*
X49776Y-32016D01*
X49276Y-32133D01*
X49776Y-34050D02*
X49276Y-34050D01*
X49752Y-34199D02*
X49776Y-34249D01*
X49776Y-34333D01*
X49752Y-34366D01*
X49728Y-34383D01*
X49680Y-34399D01*
X49633Y-34399D01*
X49585Y-34383D01*
X49561Y-34366D01*
X49538Y-34333D01*
X49514Y-34266D01*
X49490Y-34233D01*
X49466Y-34216D01*
X49419Y-34199D01*
X49371Y-34199D01*
X49323Y-34216D01*
X49300Y-34233D01*
X49276Y-34266D01*
X49276Y-34349D01*
X49300Y-34399D01*
X49776Y-34550D02*
X49276Y-34550D01*
X49276Y-34683D01*
X49300Y-34716D01*
X49323Y-34733D01*
X49371Y-34750D01*
X49442Y-34750D01*
X49490Y-34733D01*
X49514Y-34716D01*
X49538Y-34683D01*
X49538Y-34550D01*
X49538Y-35116D02*
X49514Y-35100D01*
X49490Y-35066D01*
X49490Y-35033D01*
X49514Y-35000D01*
X49538Y-34983D01*
X49585Y-34966D01*
X49633Y-34966D01*
X49680Y-34983D01*
X49704Y-35000D01*
X49728Y-35033D01*
X49728Y-35066D01*
X49704Y-35100D01*
X49680Y-35116D01*
X49490Y-35116D02*
X49680Y-35116D01*
X49704Y-35133D01*
X49704Y-35150D01*
X49680Y-35183D01*
X49633Y-35200D01*
X49514Y-35200D01*
X49442Y-35166D01*
X49395Y-35116D01*
X49371Y-35050D01*
X49395Y-34983D01*
X49442Y-34933D01*
X49514Y-34900D01*
X49609Y-34883D01*
X49704Y-34900D01*
X49776Y-34933D01*
X49823Y-34983D01*
X49847Y-35050D01*
X49823Y-35116D01*
X49776Y-35166D01*
X49276Y-35316D02*
X49276Y-35533D01*
X49466Y-35416D01*
X49466Y-35466D01*
X49490Y-35500D01*
X49514Y-35516D01*
X49561Y-35533D01*
X49680Y-35533D01*
X49728Y-35516D01*
X49752Y-35500D01*
X49776Y-35466D01*
X49776Y-35366D01*
X49752Y-35333D01*
X49728Y-35316D01*
X49276Y-35633D02*
X49776Y-35750D01*
X49276Y-35866D01*
X49276Y-35950D02*
X49276Y-36166D01*
X49466Y-36050D01*
X49466Y-36100D01*
X49490Y-36133D01*
X49514Y-36150D01*
X49561Y-36166D01*
X49680Y-36166D01*
X49728Y-36150D01*
X49752Y-36133D01*
X49776Y-36100D01*
X49776Y-36000D01*
X49752Y-35966D01*
X49728Y-35950D01*
G54D12*
X27400Y-19000D02*
X42500Y-19000D01*
X48810Y-32550D02*
X48839Y-32535D01*
X48882Y-32535D01*
X48925Y-32550D01*
X48953Y-32578D01*
X48967Y-32607D01*
X48982Y-32664D01*
X48982Y-32707D01*
X48967Y-32764D01*
X48953Y-32792D01*
X48925Y-32821D01*
X48882Y-32835D01*
X48853Y-32835D01*
X48810Y-32821D01*
X48796Y-32807D01*
X48796Y-32707D01*
X48853Y-32707D01*
X48667Y-32835D02*
X48667Y-32535D01*
X48496Y-32835D01*
X48496Y-32535D01*
X48353Y-32835D02*
X48353Y-32535D01*
X48282Y-32535D01*
X48239Y-32550D01*
X48210Y-32578D01*
X48196Y-32607D01*
X48182Y-32664D01*
X48182Y-32707D01*
X48196Y-32764D01*
X48210Y-32792D01*
X48239Y-32821D01*
X48282Y-32835D01*
X48353Y-32835D01*
X48910Y-31821D02*
X48867Y-31835D01*
X48796Y-31835D01*
X48767Y-31821D01*
X48753Y-31807D01*
X48739Y-31778D01*
X48739Y-31750D01*
X48753Y-31721D01*
X48767Y-31707D01*
X48796Y-31692D01*
X48853Y-31678D01*
X48882Y-31664D01*
X48896Y-31650D01*
X48910Y-31621D01*
X48910Y-31592D01*
X48896Y-31564D01*
X48882Y-31550D01*
X48853Y-31535D01*
X48782Y-31535D01*
X48739Y-31550D01*
X48610Y-31835D02*
X48610Y-31535D01*
X48539Y-31535D01*
X48496Y-31550D01*
X48467Y-31578D01*
X48453Y-31607D01*
X48439Y-31664D01*
X48439Y-31707D01*
X48453Y-31764D01*
X48467Y-31792D01*
X48496Y-31821D01*
X48539Y-31835D01*
X48610Y-31835D01*
X48325Y-31750D02*
X48182Y-31750D01*
X48353Y-31835D02*
X48253Y-31535D01*
X48153Y-31835D01*
X48871Y-30821D02*
X48828Y-30835D01*
X48757Y-30835D01*
X48728Y-30821D01*
X48714Y-30807D01*
X48700Y-30778D01*
X48700Y-30750D01*
X48714Y-30721D01*
X48728Y-30707D01*
X48757Y-30692D01*
X48814Y-30678D01*
X48842Y-30664D01*
X48857Y-30650D01*
X48871Y-30621D01*
X48871Y-30592D01*
X48857Y-30564D01*
X48842Y-30550D01*
X48814Y-30535D01*
X48742Y-30535D01*
X48700Y-30550D01*
X48400Y-30807D02*
X48414Y-30821D01*
X48457Y-30835D01*
X48485Y-30835D01*
X48528Y-30821D01*
X48557Y-30792D01*
X48571Y-30764D01*
X48585Y-30707D01*
X48585Y-30664D01*
X48571Y-30607D01*
X48557Y-30578D01*
X48528Y-30550D01*
X48485Y-30535D01*
X48457Y-30535D01*
X48414Y-30550D01*
X48400Y-30564D01*
X48128Y-30835D02*
X48271Y-30835D01*
X48271Y-30535D01*
X48428Y-29535D02*
X48571Y-29535D01*
X48585Y-29678D01*
X48571Y-29664D01*
X48542Y-29650D01*
X48471Y-29650D01*
X48442Y-29664D01*
X48428Y-29678D01*
X48414Y-29707D01*
X48414Y-29778D01*
X48428Y-29807D01*
X48442Y-29821D01*
X48471Y-29835D01*
X48542Y-29835D01*
X48571Y-29821D01*
X48585Y-29807D01*
X48328Y-29535D02*
X48228Y-29835D01*
X48128Y-29535D01*
X47500Y-40000D02*
G75*
G03X50000Y-37500I0J2500D01*
G74*
G01*
X42500Y-45000D02*
G75*
G03X45000Y-42500I0J2500D01*
G74*
G01*
X47500Y-40000D02*
G75*
G03X45000Y-42500I0J-2500D01*
G74*
G01*
X15000Y-42500D02*
G75*
G03X17500Y-45000I2500J0D01*
G74*
G01*
X10000Y-37500D02*
G75*
G03X12500Y-40000I2500J0D01*
G74*
G01*
X15000Y-42500D02*
G75*
G03X12500Y-40000I-2500J0D01*
G74*
G01*
X42500Y-19000D02*
G75*
G03X45000Y-16500I0J2500D01*
G74*
G01*
X50000Y-16500D02*
G75*
G03X47500Y-14000I-2500J0D01*
G74*
G01*
X47500Y-14000D02*
G75*
G03X45000Y-16500I0J-2500D01*
G74*
G01*
X15000Y-16500D02*
G75*
G03X17500Y-19000I2500J0D01*
G74*
G01*
X15000Y-16500D02*
G75*
G03X12500Y-14000I-2500J0D01*
G74*
G01*
X12500Y-14000D02*
G75*
G03X10000Y-16500I0J-2500D01*
G74*
G01*
X13850Y-38550D02*
X15350Y-38550D01*
X13850Y-27550D02*
X13850Y-38550D01*
X15350Y-27550D02*
X13850Y-27550D01*
X15350Y-38550D02*
X15350Y-27550D01*
X42500Y-45000D02*
X17500Y-45000D01*
X10000Y-37500D02*
X10000Y-16500D01*
X50000Y-16500D02*
X50000Y-37500D01*
X29997Y-29503D02*
X30194Y-29503D01*
X29997Y-29503D02*
X29800Y-29503D01*
X29997Y-29503D02*
X29997Y-29306D01*
X29997Y-29503D02*
X29997Y-29700D01*
G54D11*
X17723Y-36885D02*
X15558Y-36885D01*
X17723Y-28814D02*
X15558Y-28814D01*
X15558Y-31472D02*
X15558Y-28263D01*
X15558Y-34227D02*
X15558Y-37436D01*
X15361Y-32850D02*
X15361Y-34031D01*
X15361Y-34031D02*
X15558Y-34227D01*
X15361Y-31668D02*
X15558Y-31472D01*
X15361Y-32850D02*
X15361Y-31668D01*
X15755Y-28263D02*
X15755Y-28460D01*
X15755Y-28460D02*
X15912Y-28460D01*
X15912Y-28460D02*
X15912Y-28046D01*
X15755Y-37436D02*
X15755Y-37239D01*
X15755Y-37239D02*
X15912Y-37239D01*
X15912Y-37239D02*
X15912Y-37653D01*
X15558Y-37436D02*
X15755Y-37436D01*
X15558Y-28263D02*
X15755Y-28263D01*
X16198Y-37653D02*
X15912Y-37653D01*
X17723Y-37653D02*
X17339Y-37653D01*
X16198Y-28046D02*
X15912Y-28046D01*
X17723Y-28046D02*
X17329Y-28046D01*
X17723Y-32850D02*
X17723Y-28046D01*
X17723Y-32850D02*
X17723Y-37653D01*
G54D10*
X23628Y-37486D02*
G75*
G03X23628Y-37486I-39J0D01*
G74*
G01*
X23687Y-37900D02*
X23687Y-38411D01*
X23687Y-38411D02*
X23412Y-38411D01*
X23412Y-38411D02*
X23412Y-37388D01*
X23412Y-37388D02*
X23687Y-37388D01*
X23687Y-37388D02*
X23687Y-37900D01*
X14353Y-25911D02*
G75*
G03X14353Y-25911I-39J0D01*
G74*
G01*
X14412Y-26325D02*
X14412Y-26836D01*
X14412Y-26836D02*
X14137Y-26836D01*
X14137Y-26836D02*
X14137Y-25813D01*
X14137Y-25813D02*
X14412Y-25813D01*
X14412Y-25813D02*
X14412Y-26325D01*
X23628Y-34986D02*
G75*
G03X23628Y-34986I-39J0D01*
G74*
G01*
X23687Y-35400D02*
X23687Y-35911D01*
X23687Y-35911D02*
X23412Y-35911D01*
X23412Y-35911D02*
X23412Y-34888D01*
X23412Y-34888D02*
X23687Y-34888D01*
X23687Y-34888D02*
X23687Y-35400D01*
X20028Y-39336D02*
G75*
G03X20028Y-39336I-39J0D01*
G74*
G01*
X20087Y-39750D02*
X20087Y-40261D01*
X20087Y-40261D02*
X19812Y-40261D01*
X19812Y-40261D02*
X19812Y-39238D01*
X19812Y-39238D02*
X20087Y-39238D01*
X20087Y-39238D02*
X20087Y-39750D01*
X23550Y-37013D02*
G75*
G03X23550Y-37013I-39J0D01*
G74*
G01*
X23412Y-36600D02*
X23412Y-36088D01*
X23412Y-36088D02*
X23687Y-36088D01*
X23687Y-36088D02*
X23687Y-37111D01*
X23687Y-37111D02*
X23412Y-37111D01*
X23412Y-37111D02*
X23412Y-36600D01*
X23703Y-39336D02*
G75*
G03X23703Y-39336I-39J0D01*
G74*
G01*
X23762Y-39750D02*
X23762Y-40261D01*
X23762Y-40261D02*
X23487Y-40261D01*
X23487Y-40261D02*
X23487Y-39238D01*
X23487Y-39238D02*
X23762Y-39238D01*
X23762Y-39238D02*
X23762Y-39750D01*
X14353Y-24711D02*
G75*
G03X14353Y-24711I-39J0D01*
G74*
G01*
X14412Y-25125D02*
X14412Y-25636D01*
X14412Y-25636D02*
X14137Y-25636D01*
X14137Y-25636D02*
X14137Y-24613D01*
X14137Y-24613D02*
X14412Y-24613D01*
X14412Y-24613D02*
X14412Y-25125D01*
G54D16*
X14425Y-23412D02*
G75*
G03X14425Y-23412I-62J0D01*
G74*
G01*
X14025Y-24375D02*
X14425Y-24375D01*
X14025Y-23350D02*
X14425Y-23350D01*
X14425Y-24375D02*
X14425Y-23350D01*
X14025Y-23350D02*
X14025Y-24375D01*
G54D11*
X41625Y-25000D02*
X40925Y-25000D01*
X41625Y-25850D02*
X40925Y-25850D01*
X40475Y-25000D02*
X40125Y-25000D01*
X40125Y-25850D02*
X40475Y-25850D01*
X40925Y-25850D02*
X40925Y-25000D01*
X41625Y-25850D02*
X41625Y-25000D01*
X40125Y-25850D02*
X40125Y-25000D01*
X28850Y-35275D02*
X29550Y-35275D01*
X28850Y-34425D02*
X29550Y-34425D01*
X30000Y-35275D02*
X30350Y-35275D01*
X30350Y-34425D02*
X30000Y-34425D01*
X29550Y-34425D02*
X29550Y-35275D01*
X28850Y-34425D02*
X28850Y-35275D01*
X30350Y-34425D02*
X30350Y-35275D01*
X19400Y-34650D02*
X20100Y-34650D01*
X19400Y-33800D02*
X20100Y-33800D01*
X20550Y-34650D02*
X20900Y-34650D01*
X20900Y-33800D02*
X20550Y-33800D01*
X20100Y-33800D02*
X20100Y-34650D01*
X19400Y-33800D02*
X19400Y-34650D01*
X20900Y-33800D02*
X20900Y-34650D01*
X21200Y-31375D02*
X21900Y-31375D01*
X21200Y-30525D02*
X21900Y-30525D01*
X22350Y-31375D02*
X22700Y-31375D01*
X22700Y-30525D02*
X22350Y-30525D01*
X21900Y-30525D02*
X21900Y-31375D01*
X21200Y-30525D02*
X21200Y-31375D01*
X22700Y-30525D02*
X22700Y-31375D01*
X19400Y-33425D02*
X20100Y-33425D01*
X19400Y-32575D02*
X20100Y-32575D01*
X20550Y-33425D02*
X20900Y-33425D01*
X20900Y-32575D02*
X20550Y-32575D01*
X20100Y-32575D02*
X20100Y-33425D01*
X19400Y-32575D02*
X19400Y-33425D01*
X20900Y-32575D02*
X20900Y-33425D01*
X21200Y-32600D02*
X21900Y-32600D01*
X21200Y-31750D02*
X21900Y-31750D01*
X22350Y-32600D02*
X22700Y-32600D01*
X22700Y-31750D02*
X22350Y-31750D01*
X21900Y-31750D02*
X21900Y-32600D01*
X21200Y-31750D02*
X21200Y-32600D01*
X22700Y-31750D02*
X22700Y-32600D01*
X16645Y-27130D02*
X16645Y-26430D01*
X15795Y-27130D02*
X15795Y-26430D01*
X16645Y-25980D02*
X16645Y-25630D01*
X15795Y-25630D02*
X15795Y-25980D01*
X15795Y-26430D02*
X16645Y-26430D01*
X15795Y-27130D02*
X16645Y-27130D01*
X15795Y-25630D02*
X16645Y-25630D01*
X21200Y-30175D02*
X21900Y-30175D01*
X21200Y-29325D02*
X21900Y-29325D01*
X22350Y-30175D02*
X22700Y-30175D01*
X22700Y-29325D02*
X22350Y-29325D01*
X21900Y-29325D02*
X21900Y-30175D01*
X21200Y-29325D02*
X21200Y-30175D01*
X22700Y-29325D02*
X22700Y-30175D01*
X19400Y-31025D02*
X20100Y-31025D01*
X19400Y-30175D02*
X20100Y-30175D01*
X20550Y-31025D02*
X20900Y-31025D01*
X20900Y-30175D02*
X20550Y-30175D01*
X20100Y-30175D02*
X20100Y-31025D01*
X19400Y-30175D02*
X19400Y-31025D01*
X20900Y-30175D02*
X20900Y-31025D01*
X18125Y-27125D02*
X18125Y-26425D01*
X17275Y-27125D02*
X17275Y-26425D01*
X18125Y-25975D02*
X18125Y-25625D01*
X17275Y-25625D02*
X17275Y-25975D01*
X17275Y-26425D02*
X18125Y-26425D01*
X17275Y-27125D02*
X18125Y-27125D01*
X17275Y-25625D02*
X18125Y-25625D01*
X21200Y-33775D02*
X21900Y-33775D01*
X21200Y-32925D02*
X21900Y-32925D01*
X22350Y-33775D02*
X22700Y-33775D01*
X22700Y-32925D02*
X22350Y-32925D01*
X21900Y-32925D02*
X21900Y-33775D01*
X21200Y-32925D02*
X21200Y-33775D01*
X22700Y-32925D02*
X22700Y-33775D01*
X21200Y-37625D02*
X21900Y-37625D01*
X21200Y-36775D02*
X21900Y-36775D01*
X22350Y-37625D02*
X22700Y-37625D01*
X22700Y-36775D02*
X22350Y-36775D01*
X21900Y-36775D02*
X21900Y-37625D01*
X21200Y-36775D02*
X21200Y-37625D01*
X22700Y-36775D02*
X22700Y-37625D01*
X19400Y-32225D02*
X20100Y-32225D01*
X19400Y-31375D02*
X20100Y-31375D01*
X20550Y-32225D02*
X20900Y-32225D01*
X20900Y-31375D02*
X20550Y-31375D01*
X20100Y-31375D02*
X20100Y-32225D01*
X19400Y-31375D02*
X19400Y-32225D01*
X20900Y-31375D02*
X20900Y-32225D01*
X21200Y-36425D02*
X21900Y-36425D01*
X21200Y-35575D02*
X21900Y-35575D01*
X22350Y-36425D02*
X22700Y-36425D01*
X22700Y-35575D02*
X22350Y-35575D01*
X21900Y-35575D02*
X21900Y-36425D01*
X21200Y-35575D02*
X21200Y-36425D01*
X22700Y-35575D02*
X22700Y-36425D01*
X34525Y-28575D02*
X35225Y-28575D01*
X34525Y-27725D02*
X35225Y-27725D01*
X35675Y-28575D02*
X36025Y-28575D01*
X36025Y-27725D02*
X35675Y-27725D01*
X35225Y-27725D02*
X35225Y-28575D01*
X34525Y-27725D02*
X34525Y-28575D01*
X36025Y-27725D02*
X36025Y-28575D01*
X22700Y-34075D02*
X22000Y-34075D01*
X22700Y-34925D02*
X22000Y-34925D01*
X21550Y-34075D02*
X21200Y-34075D01*
X21200Y-34925D02*
X21550Y-34925D01*
X22000Y-34925D02*
X22000Y-34075D01*
X22700Y-34925D02*
X22700Y-34075D01*
X21200Y-34925D02*
X21200Y-34075D01*
X19400Y-37025D02*
X20100Y-37025D01*
X19400Y-36175D02*
X20100Y-36175D01*
X20550Y-37025D02*
X20900Y-37025D01*
X20900Y-36175D02*
X20550Y-36175D01*
X20100Y-36175D02*
X20100Y-37025D01*
X19400Y-36175D02*
X19400Y-37025D01*
X20900Y-36175D02*
X20900Y-37025D01*
X19400Y-38225D02*
X20100Y-38225D01*
X19400Y-37375D02*
X20100Y-37375D01*
X20550Y-38225D02*
X20900Y-38225D01*
X20900Y-37375D02*
X20550Y-37375D01*
X20100Y-37375D02*
X20100Y-38225D01*
X19400Y-37375D02*
X19400Y-38225D01*
X20900Y-37375D02*
X20900Y-38225D01*
X19400Y-29825D02*
X20100Y-29825D01*
X19400Y-28975D02*
X20100Y-28975D01*
X20550Y-29825D02*
X20900Y-29825D01*
X20900Y-28975D02*
X20550Y-28975D01*
X20100Y-28975D02*
X20100Y-29825D01*
X19400Y-28975D02*
X19400Y-29825D01*
X20900Y-28975D02*
X20900Y-29825D01*
X26800Y-37150D02*
X26800Y-36450D01*
X25950Y-37150D02*
X25950Y-36450D01*
X26800Y-36000D02*
X26800Y-35650D01*
X25950Y-35650D02*
X25950Y-36000D01*
X25950Y-36450D02*
X26800Y-36450D01*
X25950Y-37150D02*
X26800Y-37150D01*
X25950Y-35650D02*
X26800Y-35650D01*
X13325Y-26100D02*
X13325Y-26725D01*
X13325Y-26725D02*
X12475Y-26725D01*
X12475Y-26725D02*
X12475Y-26100D01*
X12475Y-25800D02*
X12475Y-25200D01*
X12475Y-25200D02*
X12475Y-25175D01*
X12475Y-25175D02*
X13325Y-25175D01*
X13325Y-25175D02*
X13325Y-25800D01*
X21975Y-39600D02*
X21975Y-38975D01*
X21975Y-38975D02*
X22825Y-38975D01*
X22825Y-38975D02*
X22825Y-39600D01*
X22825Y-39900D02*
X22825Y-40500D01*
X22825Y-40500D02*
X22825Y-40525D01*
X22825Y-40525D02*
X21975Y-40525D01*
X21975Y-40525D02*
X21975Y-39900D01*
X19025Y-39900D02*
X19025Y-40525D01*
X19025Y-40525D02*
X18175Y-40525D01*
X18175Y-40525D02*
X18175Y-39900D01*
X18175Y-39600D02*
X18175Y-39000D01*
X18175Y-39000D02*
X18175Y-38975D01*
X18175Y-38975D02*
X19025Y-38975D01*
X19025Y-38975D02*
X19025Y-39600D01*
X20000Y-35825D02*
X19375Y-35825D01*
X19375Y-35825D02*
X19375Y-34975D01*
X19375Y-34975D02*
X20000Y-34975D01*
X20300Y-34975D02*
X20900Y-34975D01*
X20900Y-34975D02*
X20925Y-34975D01*
X20925Y-34975D02*
X20925Y-35825D01*
X20925Y-35825D02*
X20300Y-35825D01*
X17075Y-39600D02*
X17075Y-38975D01*
X17075Y-38975D02*
X17925Y-38975D01*
X17925Y-38975D02*
X17925Y-39600D01*
X17925Y-39900D02*
X17925Y-40500D01*
X17925Y-40500D02*
X17925Y-40525D01*
X17925Y-40525D02*
X17075Y-40525D01*
X17075Y-40525D02*
X17075Y-39900D01*
X20925Y-39600D02*
X20925Y-38975D01*
X20925Y-38975D02*
X21775Y-38975D01*
X21775Y-38975D02*
X21775Y-39600D01*
X21775Y-39900D02*
X21775Y-40500D01*
X21775Y-40500D02*
X21775Y-40525D01*
X21775Y-40525D02*
X20925Y-40525D01*
X20925Y-40525D02*
X20925Y-39900D01*
X39675Y-27375D02*
X40300Y-27375D01*
X40300Y-27375D02*
X40300Y-28225D01*
X40300Y-28225D02*
X39675Y-28225D01*
X39375Y-28225D02*
X38775Y-28225D01*
X38775Y-28225D02*
X38750Y-28225D01*
X38750Y-28225D02*
X38750Y-27375D01*
X38750Y-27375D02*
X39375Y-27375D01*
X12200Y-24100D02*
X12200Y-24725D01*
X12200Y-24725D02*
X11350Y-24725D01*
X11350Y-24725D02*
X11350Y-24100D01*
X11350Y-23800D02*
X11350Y-23200D01*
X11350Y-23200D02*
X11350Y-23175D01*
X11350Y-23175D02*
X12200Y-23175D01*
X12200Y-23175D02*
X12200Y-23800D01*
X25400Y-37150D02*
X25400Y-36450D01*
X24550Y-37150D02*
X24550Y-36450D01*
X25400Y-36000D02*
X25400Y-35650D01*
X24550Y-35650D02*
X24550Y-36000D01*
X24550Y-36450D02*
X25400Y-36450D01*
X24550Y-37150D02*
X25400Y-37150D01*
X24550Y-35650D02*
X25400Y-35650D01*
X38800Y-29225D02*
X39500Y-29225D01*
X38800Y-28375D02*
X39500Y-28375D01*
X39950Y-29225D02*
X40300Y-29225D01*
X40300Y-28375D02*
X39950Y-28375D01*
X39500Y-28375D02*
X39500Y-29225D01*
X38800Y-28375D02*
X38800Y-29225D01*
X40300Y-28375D02*
X40300Y-29225D01*
X37550Y-36925D02*
X38250Y-36925D01*
X37550Y-36075D02*
X38250Y-36075D01*
X38700Y-36925D02*
X39050Y-36925D01*
X39050Y-36075D02*
X38700Y-36075D01*
X38250Y-36075D02*
X38250Y-36925D01*
X37550Y-36075D02*
X37550Y-36925D01*
X39050Y-36075D02*
X39050Y-36925D01*
X12475Y-23225D02*
X12475Y-23925D01*
X13325Y-23225D02*
X13325Y-23925D01*
X12475Y-24375D02*
X12475Y-24725D01*
X13325Y-24725D02*
X13325Y-24375D01*
X13325Y-23925D02*
X12475Y-23925D01*
X13325Y-23225D02*
X12475Y-23225D01*
X13325Y-24725D02*
X12475Y-24725D01*
X36025Y-30450D02*
X35325Y-30450D01*
X36025Y-31300D02*
X35325Y-31300D01*
X34875Y-30450D02*
X34525Y-30450D01*
X34525Y-31300D02*
X34875Y-31300D01*
X35325Y-31300D02*
X35325Y-30450D01*
X36025Y-31300D02*
X36025Y-30450D01*
X34525Y-31300D02*
X34525Y-30450D01*
X26750Y-31425D02*
X26750Y-32125D01*
X27600Y-31425D02*
X27600Y-32125D01*
X26750Y-32575D02*
X26750Y-32925D01*
X27600Y-32925D02*
X27600Y-32575D01*
X27600Y-32125D02*
X26750Y-32125D01*
X27600Y-31425D02*
X26750Y-31425D01*
X27600Y-32925D02*
X26750Y-32925D01*
X10225Y-23225D02*
X10225Y-23925D01*
X11075Y-23225D02*
X11075Y-23925D01*
X10225Y-24375D02*
X10225Y-24725D01*
X11075Y-24725D02*
X11075Y-24375D01*
X11075Y-23925D02*
X10225Y-23925D01*
X11075Y-23225D02*
X10225Y-23225D01*
X11075Y-24725D02*
X10225Y-24725D01*
X34125Y-30250D02*
X34125Y-29550D01*
X33275Y-30250D02*
X33275Y-29550D01*
X34125Y-29100D02*
X34125Y-28750D01*
X33275Y-28750D02*
X33275Y-29100D01*
X33275Y-29550D02*
X34125Y-29550D01*
X33275Y-30250D02*
X34125Y-30250D01*
X33275Y-28750D02*
X34125Y-28750D01*
X34950Y-29200D02*
X34950Y-28825D01*
X34950Y-28825D02*
X36050Y-28825D01*
X36050Y-28825D02*
X36050Y-30150D01*
X36050Y-30150D02*
X36050Y-30175D01*
X36050Y-30175D02*
X34950Y-30175D01*
X34950Y-30175D02*
X34950Y-29800D01*
X34950Y-29800D02*
X34350Y-29800D01*
X34350Y-29800D02*
X34350Y-29500D01*
X34350Y-29500D02*
X34350Y-29200D01*
X34350Y-29200D02*
X34950Y-29200D01*
X34415Y-40675D02*
X35040Y-40675D01*
X35040Y-40675D02*
X35040Y-41525D01*
X35040Y-41525D02*
X34415Y-41525D01*
X34115Y-41525D02*
X33515Y-41525D01*
X33515Y-41525D02*
X33490Y-41525D01*
X33490Y-41525D02*
X33490Y-40675D01*
X33490Y-40675D02*
X34115Y-40675D01*
X38415Y-40675D02*
X39040Y-40675D01*
X39040Y-40675D02*
X39040Y-41525D01*
X39040Y-41525D02*
X38415Y-41525D01*
X38115Y-41525D02*
X37515Y-41525D01*
X37515Y-41525D02*
X37490Y-41525D01*
X37490Y-41525D02*
X37490Y-40675D01*
X37490Y-40675D02*
X38115Y-40675D01*
X30415Y-40675D02*
X31040Y-40675D01*
X31040Y-40675D02*
X31040Y-41525D01*
X31040Y-41525D02*
X30415Y-41525D01*
X30115Y-41525D02*
X29515Y-41525D01*
X29515Y-41525D02*
X29490Y-41525D01*
X29490Y-41525D02*
X29490Y-40675D01*
X29490Y-40675D02*
X30115Y-40675D01*
X41185Y-41525D02*
X40560Y-41525D01*
X40560Y-41525D02*
X40560Y-40675D01*
X40560Y-40675D02*
X41185Y-40675D01*
X41485Y-40675D02*
X42085Y-40675D01*
X42085Y-40675D02*
X42110Y-40675D01*
X42110Y-40675D02*
X42110Y-41525D01*
X42110Y-41525D02*
X41485Y-41525D01*
X16850Y-41975D02*
X16850Y-41925D01*
X16900Y-41975D02*
X16900Y-41875D01*
X16950Y-41975D02*
X16950Y-41825D01*
X16150Y-41975D02*
X16150Y-41925D01*
X16100Y-41975D02*
X16100Y-41875D01*
X16050Y-41975D02*
X16050Y-41825D01*
X16150Y-41025D02*
X16150Y-41075D01*
X16100Y-41025D02*
X16100Y-41125D01*
X16050Y-41025D02*
X16050Y-41175D01*
X16850Y-41025D02*
X16850Y-41075D01*
X16900Y-41025D02*
X16900Y-41100D01*
X16950Y-41025D02*
X16950Y-41175D01*
X16750Y-42000D02*
X16975Y-42000D01*
X16975Y-42000D02*
X17000Y-42000D01*
X17000Y-42000D02*
X17000Y-41775D01*
X16000Y-41750D02*
X16000Y-42000D01*
X16000Y-42000D02*
X16250Y-42000D01*
X17000Y-41250D02*
X17000Y-41000D01*
X17000Y-41000D02*
X16750Y-41000D01*
X16000Y-41250D02*
X16000Y-41000D01*
X16000Y-41000D02*
X16250Y-41000D01*
X17000Y-41750D02*
X17000Y-41250D01*
X16000Y-41750D02*
X16000Y-41250D01*
X16000Y-41250D02*
X16250Y-41000D01*
X16250Y-41000D02*
X16750Y-41000D01*
X16750Y-41000D02*
X17000Y-41250D01*
X17000Y-41250D02*
X17250Y-41000D01*
X17250Y-41000D02*
X17750Y-41000D01*
X17750Y-41000D02*
X18000Y-41250D01*
X18000Y-41250D02*
X18250Y-41000D01*
X18250Y-41000D02*
X18750Y-41000D01*
X18750Y-41000D02*
X19000Y-41250D01*
X19000Y-41250D02*
X19250Y-41000D01*
X19250Y-41000D02*
X19750Y-41000D01*
X19750Y-41000D02*
X20000Y-41250D01*
X20000Y-41250D02*
X20250Y-41000D01*
X20250Y-41000D02*
X20750Y-41000D01*
X20750Y-41000D02*
X21000Y-41250D01*
X21000Y-41250D02*
X21250Y-41000D01*
X21250Y-41000D02*
X21750Y-41000D01*
X21750Y-41000D02*
X22000Y-41250D01*
X22000Y-41250D02*
X22000Y-41750D01*
X22000Y-41750D02*
X21750Y-42000D01*
X21750Y-42000D02*
X21250Y-42000D01*
X21250Y-42000D02*
X21000Y-41750D01*
X21000Y-41750D02*
X20750Y-42000D01*
X20750Y-42000D02*
X20250Y-42000D01*
X20250Y-42000D02*
X20000Y-41750D01*
X20000Y-41750D02*
X19750Y-42000D01*
X19750Y-42000D02*
X19250Y-42000D01*
X19250Y-42000D02*
X19000Y-41750D01*
X19000Y-41750D02*
X18750Y-42000D01*
X18750Y-42000D02*
X18250Y-42000D01*
X18250Y-42000D02*
X18000Y-41750D01*
X18000Y-41750D02*
X17750Y-42000D01*
X17750Y-42000D02*
X17250Y-42000D01*
X17250Y-42000D02*
X17000Y-41750D01*
X17000Y-41750D02*
X16750Y-42000D01*
X16750Y-42000D02*
X16250Y-42000D01*
X16250Y-42000D02*
X16000Y-41750D01*
X22275Y-41100D02*
X22275Y-41800D01*
X23125Y-41100D02*
X23125Y-41800D01*
X22275Y-42250D02*
X22275Y-42600D01*
X23125Y-42600D02*
X23125Y-42250D01*
X23125Y-41800D02*
X22275Y-41800D01*
X23125Y-41100D02*
X22275Y-41100D01*
X23125Y-42600D02*
X22275Y-42600D01*
X28350Y-31150D02*
X28275Y-31150D01*
X28350Y-31150D02*
X28350Y-31225D01*
X28400Y-31100D02*
X28225Y-31100D01*
X28400Y-31100D02*
X28400Y-31275D01*
X28450Y-31050D02*
X28175Y-31050D01*
X28450Y-31050D02*
X28450Y-31325D01*
X28500Y-31000D02*
X28125Y-31000D01*
X28500Y-31000D02*
X28500Y-31375D01*
X28550Y-30950D02*
X28075Y-30950D01*
X28550Y-30950D02*
X28550Y-31425D01*
X27975Y-30900D02*
X28600Y-30900D01*
X28600Y-30900D02*
X28600Y-31500D01*
X28725Y-31625D02*
X32125Y-31625D01*
X32125Y-31625D02*
X32125Y-27375D01*
X32125Y-27375D02*
X27875Y-27375D01*
X27875Y-27375D02*
X27875Y-30800D01*
X27875Y-30800D02*
X28725Y-31625D01*
G54D13*
X46500Y-33100D02*
X46500Y-33200D01*
X46500Y-32100D02*
X46500Y-32300D01*
X46500Y-31100D02*
X46500Y-31300D01*
X46500Y-30100D02*
X46500Y-30300D01*
X46500Y-29200D02*
X46500Y-29300D01*
X47000Y-32200D02*
X47000Y-33200D01*
X47100Y-32200D02*
X47100Y-33200D01*
X47200Y-32200D02*
X47200Y-33200D01*
X46500Y-32200D02*
X47300Y-32200D01*
X47300Y-32700D02*
X47900Y-32700D01*
X47300Y-31700D02*
X47900Y-31700D01*
X47300Y-30700D02*
X47900Y-30700D01*
X47300Y-29700D02*
X47900Y-29700D01*
X46500Y-30200D02*
X47300Y-30200D01*
X46500Y-29200D02*
X47300Y-29200D01*
X47300Y-29200D02*
X47300Y-31200D01*
X47300Y-31200D02*
X47300Y-33200D01*
X47300Y-33200D02*
X46500Y-33200D01*
G54D16*
X27975Y-35962D02*
G75*
G03X27975Y-35962I-62J0D01*
G74*
G01*
X27575Y-36925D02*
X27975Y-36925D01*
X27575Y-35900D02*
X27975Y-35900D01*
X27975Y-36925D02*
X27975Y-35900D01*
X27575Y-35900D02*
X27575Y-36925D01*
G54D11*
X37200Y-21625D02*
X37200Y-22250D01*
X37200Y-22250D02*
X36350Y-22250D01*
X36350Y-22250D02*
X36350Y-21625D01*
X36350Y-21325D02*
X36350Y-20725D01*
X36350Y-20725D02*
X36350Y-20700D01*
X36350Y-20700D02*
X37200Y-20700D01*
X37200Y-20700D02*
X37200Y-21325D01*
X40400Y-23850D02*
X41100Y-23850D01*
X40400Y-23000D02*
X41100Y-23000D01*
X41550Y-23850D02*
X41900Y-23850D01*
X41900Y-23000D02*
X41550Y-23000D01*
X41100Y-23000D02*
X41100Y-23850D01*
X40400Y-23000D02*
X40400Y-23850D01*
X41900Y-23000D02*
X41900Y-23850D01*
X26415Y-40675D02*
X27040Y-40675D01*
X27040Y-40675D02*
X27040Y-41525D01*
X27040Y-41525D02*
X26415Y-41525D01*
X26115Y-41525D02*
X25515Y-41525D01*
X25515Y-41525D02*
X25490Y-41525D01*
X25490Y-41525D02*
X25490Y-40675D01*
X25490Y-40675D02*
X26115Y-40675D01*
X39875Y-23000D02*
X39175Y-23000D01*
X39875Y-23850D02*
X39175Y-23850D01*
X38725Y-23000D02*
X38375Y-23000D01*
X38375Y-23850D02*
X38725Y-23850D01*
X39175Y-23850D02*
X39175Y-23000D01*
X39875Y-23850D02*
X39875Y-23000D01*
X38375Y-23850D02*
X38375Y-23000D01*
X45050Y-30450D02*
X45050Y-31150D01*
X45900Y-30450D02*
X45900Y-31150D01*
X45050Y-31600D02*
X45050Y-31950D01*
X45900Y-31950D02*
X45900Y-31600D01*
X45900Y-31150D02*
X45050Y-31150D01*
X45900Y-30450D02*
X45050Y-30450D01*
X45900Y-31950D02*
X45050Y-31950D01*
X12150Y-34075D02*
X12150Y-32650D01*
X12150Y-32650D02*
X11975Y-32650D01*
X12150Y-35500D02*
X11975Y-35500D01*
X12150Y-34075D02*
X12150Y-35500D01*
X11975Y-35500D02*
X11975Y-35775D01*
X11975Y-35775D02*
X10000Y-35775D01*
X10000Y-35775D02*
X10000Y-34075D01*
X10000Y-34075D02*
X10000Y-32375D01*
X10000Y-32375D02*
X11975Y-32375D01*
X11975Y-32375D02*
X11975Y-32650D01*
X10225Y-33050D02*
X10075Y-33050D01*
X10225Y-35100D02*
X10075Y-35100D01*
X10225Y-35100D02*
X10225Y-35175D01*
X10225Y-35175D02*
X10075Y-35100D01*
X10075Y-35100D02*
X10225Y-35025D01*
X10225Y-35025D02*
X10225Y-35100D01*
X10225Y-33125D02*
X10225Y-32975D01*
X10225Y-32975D02*
X10075Y-33050D01*
X10075Y-33050D02*
X10225Y-33125D01*
G54D16*
X27975Y-34387D02*
G75*
G03X27975Y-34387I-62J0D01*
G74*
G01*
X27575Y-35350D02*
X27975Y-35350D01*
X27575Y-34325D02*
X27975Y-34325D01*
X27975Y-35350D02*
X27975Y-34325D01*
X27575Y-34325D02*
X27575Y-35350D01*
G54D11*
X28850Y-36850D02*
X29550Y-36850D01*
X28850Y-36000D02*
X29550Y-36000D01*
X30000Y-36850D02*
X30350Y-36850D01*
X30350Y-36000D02*
X30000Y-36000D01*
X29550Y-36000D02*
X29550Y-36850D01*
X28850Y-36000D02*
X28850Y-36850D01*
X30350Y-36000D02*
X30350Y-36850D01*
X40750Y-20875D02*
X40675Y-20800D01*
X39800Y-20900D02*
X40100Y-20900D01*
X39800Y-20850D02*
X40100Y-20850D01*
X39800Y-20800D02*
X39800Y-20950D01*
X39800Y-20950D02*
X40100Y-20950D01*
X40100Y-20950D02*
X40100Y-20800D01*
X40750Y-22825D02*
X40750Y-22900D01*
X40750Y-22900D02*
X39150Y-22900D01*
X39150Y-22900D02*
X39150Y-22825D01*
X39150Y-20875D02*
X39150Y-20800D01*
X39150Y-20800D02*
X40750Y-20800D01*
X40750Y-20800D02*
X40750Y-20875D01*
X26125Y-31250D02*
X25800Y-31250D01*
X25800Y-31250D02*
X25800Y-32450D01*
X25800Y-32450D02*
X26450Y-32450D01*
X26450Y-32450D02*
X26450Y-31250D01*
X26450Y-31250D02*
X26125Y-31250D01*
X24450Y-31250D02*
X24125Y-31250D01*
X24125Y-31250D02*
X24125Y-32450D01*
X24125Y-32450D02*
X24775Y-32450D01*
X24775Y-32450D02*
X24775Y-31250D01*
X24775Y-31250D02*
X24450Y-31250D01*
X25250Y-30325D02*
X25450Y-30325D01*
X24850Y-30325D02*
X24650Y-30325D01*
X24850Y-30725D02*
X24850Y-29925D01*
X25250Y-29925D02*
X25250Y-30725D01*
X25000Y-30075D02*
X25000Y-30575D01*
X25100Y-30075D02*
X25100Y-30575D01*
X25050Y-30075D02*
X25050Y-30575D01*
X25100Y-30075D02*
X25000Y-30075D01*
X25000Y-30575D02*
X25100Y-30575D01*
X24375Y-29600D02*
X23150Y-29600D01*
X23150Y-29600D02*
X23150Y-31050D01*
X23150Y-31050D02*
X24375Y-31050D01*
X25725Y-29600D02*
X26950Y-29600D01*
X26950Y-29600D02*
X26950Y-31050D01*
X26950Y-31050D02*
X25750Y-31050D01*
X46075Y-20825D02*
X49325Y-20825D01*
X49325Y-20825D02*
X49325Y-22125D01*
X49325Y-22125D02*
X46075Y-22125D01*
X10000Y-28250D02*
X13525Y-28250D01*
X10000Y-30000D02*
X10000Y-31750D01*
X10000Y-31750D02*
X13525Y-31750D01*
X13525Y-31750D02*
X13525Y-31375D01*
X13525Y-31375D02*
X12175Y-31375D01*
X12175Y-31375D02*
X12175Y-28625D01*
X12175Y-28625D02*
X13525Y-28625D01*
X13525Y-28625D02*
X13525Y-28250D01*
X10000Y-28250D02*
X10000Y-30000D01*
X33825Y-23700D02*
X33075Y-23700D01*
X33075Y-24400D02*
X33825Y-24400D01*
X34175Y-24050D02*
G75*
G02X33825Y-24400I-350J0D01*
G74*
G01*
X33825Y-23700D02*
G75*
G02X34175Y-24050I0J-350D01*
G74*
G01*
X32725Y-24050D02*
G75*
G02X33075Y-23700I350J0D01*
G74*
G01*
X33075Y-24400D02*
G75*
G02X32725Y-24050I0J350D01*
G74*
G01*
G54D12*
X11274Y-20925D02*
X11274Y-19153D01*
X11274Y-20925D02*
X11274Y-22696D01*
X15802Y-22066D02*
X15802Y-22696D01*
X15802Y-22696D02*
X10093Y-22696D01*
X15093Y-19153D02*
X15802Y-19153D01*
X15802Y-19153D02*
X15802Y-19783D01*
X10093Y-19153D02*
X13518Y-19153D01*
X10093Y-20925D02*
X10093Y-19153D01*
X10093Y-20925D02*
X10093Y-22696D01*
X39870Y-32780D02*
G75*
G03X39870Y-32780I-100J0D01*
G74*
G01*
X39820Y-32780D02*
G75*
G03X39820Y-32780I-50J0D01*
G74*
G01*
X39790Y-33400D02*
G75*
G02X39590Y-33600I-200J0D01*
G74*
G01*
X39590Y-33200D02*
G75*
G02X39790Y-33400I0J-200D01*
G74*
G01*
X39740Y-33400D02*
G75*
G02X39590Y-33550I-150J0D01*
G74*
G01*
X39590Y-33250D02*
G75*
G02X39740Y-33400I0J-150D01*
G74*
G01*
X39690Y-33400D02*
G75*
G02X39590Y-33500I-100J0D01*
G74*
G01*
X39590Y-33300D02*
G75*
G02X39690Y-33400I0J-100D01*
G74*
G01*
X39590Y-33350D02*
G75*
G02X39640Y-33400I0J-50D01*
G74*
G01*
X39640Y-33400D02*
G75*
G02X39590Y-33450I-50J0D01*
G74*
G01*
X42300Y-34500D02*
X42410Y-34500D01*
X42410Y-34500D02*
X42410Y-32300D01*
X42410Y-32300D02*
X42300Y-32300D01*
X39700Y-34500D02*
X39590Y-34500D01*
X39590Y-34500D02*
X39590Y-32300D01*
X39590Y-32300D02*
X39700Y-32300D01*
G54D11*
X49938Y-28440D02*
X48767Y-28440D01*
X49554Y-24700D02*
X49938Y-26845D01*
X48767Y-22652D02*
X49554Y-22652D01*
X49554Y-22652D02*
X49554Y-24700D01*
X49938Y-28440D02*
X49938Y-26845D01*
X44230Y-27800D02*
X44230Y-26698D01*
X47645Y-28440D02*
X44830Y-28440D01*
X44830Y-28440D02*
X44830Y-27800D01*
X44830Y-27800D02*
X44230Y-27800D01*
X47635Y-22652D02*
X44909Y-22652D01*
X46749Y-24916D02*
X46749Y-26688D01*
X46749Y-26688D02*
X45962Y-26688D01*
X45962Y-26688D02*
X45962Y-23144D01*
X45962Y-23144D02*
X46749Y-23144D01*
X46749Y-23144D02*
X46749Y-24916D01*
X43796Y-25546D02*
X43501Y-25546D01*
X39425Y-30575D02*
X38800Y-30575D01*
X38800Y-30575D02*
X38800Y-29725D01*
X38800Y-29725D02*
X39425Y-29725D01*
X39725Y-29725D02*
X40325Y-29725D01*
X40325Y-29725D02*
X40350Y-29725D01*
X40350Y-29725D02*
X40350Y-30575D01*
X40350Y-30575D02*
X39725Y-30575D01*
X32925Y-22875D02*
X34100Y-22875D01*
X32925Y-23425D02*
X34100Y-23425D01*
X34000Y-23425D02*
X34000Y-22875D01*
X32925Y-23425D02*
X32925Y-22875D01*
X33950Y-22875D02*
X33950Y-23425D01*
X34050Y-22875D02*
X34050Y-23425D01*
X34100Y-23425D02*
X34100Y-22875D01*
G54D12*
X33070Y-21195D02*
X33070Y-21313D01*
X33700Y-21825D02*
X33070Y-21825D01*
X33070Y-21825D02*
X33070Y-21707D01*
X33700Y-21825D02*
X34329Y-21825D01*
X34329Y-21825D02*
X34329Y-21707D01*
X33070Y-21195D02*
X33700Y-21195D01*
X33700Y-21195D02*
X34329Y-21195D01*
X34329Y-21195D02*
X34329Y-21313D01*
X33700Y-20959D02*
X34999Y-20959D01*
X34999Y-20959D02*
X34999Y-22061D01*
X34999Y-22061D02*
X32400Y-22061D01*
X32400Y-22061D02*
X32400Y-20959D01*
X32400Y-20959D02*
X33700Y-20959D01*
G54D11*
X27650Y-23675D02*
G75*
G03X27650Y-23675I-4000J0D01*
G74*
G01*
X25150Y-19025D02*
X27350Y-19025D01*
X19950Y-19025D02*
X22150Y-19025D01*
X21650Y-28725D02*
X18650Y-26175D01*
X28650Y-26175D02*
X25650Y-28725D01*
X25650Y-28725D02*
X21650Y-28725D01*
X16100Y-22175D02*
X18650Y-22175D01*
X18650Y-25175D02*
X16100Y-25175D01*
X28650Y-25175D02*
X31200Y-25175D01*
X31200Y-22175D02*
X28650Y-22175D01*
X18650Y-20325D02*
X18650Y-21175D01*
X18650Y-20325D02*
G75*
G02X19950Y-19025I1300J0D01*
G74*
G01*
X28650Y-20325D02*
X28650Y-21175D01*
X27350Y-19025D02*
G75*
G02X28650Y-20325I0J-1300D01*
G74*
G01*
X18650Y-25175D02*
X18650Y-26175D01*
X18650Y-22175D02*
X18650Y-21175D01*
X28650Y-25175D02*
X28650Y-26175D01*
X28650Y-22175D02*
X28650Y-21175D01*
X16100Y-22175D02*
X16100Y-25175D01*
X31200Y-22175D02*
X31200Y-25175D01*
G54D10*
X22650Y-19525D02*
X22150Y-19025D01*
X23650Y-19525D02*
X22650Y-19525D01*
X24650Y-19525D02*
X23650Y-19525D01*
X25150Y-19025D02*
X24650Y-19525D01*
G54D11*
X46750Y-34600D02*
X46250Y-34600D01*
X46250Y-34600D02*
X46000Y-34350D01*
X46000Y-34350D02*
X46000Y-33850D01*
X46000Y-33850D02*
X46250Y-33600D01*
X46750Y-36600D02*
X47000Y-36350D01*
X46750Y-35600D02*
X47000Y-35350D01*
X47000Y-35850D02*
X46750Y-35600D01*
X46750Y-34600D02*
X47000Y-34350D01*
X47000Y-34850D02*
X46750Y-34600D01*
X47000Y-33850D02*
X46750Y-33600D01*
X45250Y-33600D02*
X45000Y-33850D01*
X45250Y-34600D02*
X45000Y-34850D01*
X45000Y-34350D02*
X45250Y-34600D01*
X45250Y-35600D02*
X45000Y-35850D01*
X45000Y-35350D02*
X45250Y-35600D01*
X45000Y-36350D02*
X45250Y-36600D01*
X46750Y-33600D02*
X45250Y-33600D01*
X45000Y-33850D02*
X45000Y-34350D01*
X45000Y-34850D02*
X45000Y-35350D01*
X45000Y-35850D02*
X45000Y-36350D01*
X45250Y-36600D02*
X46750Y-36600D01*
X47000Y-36350D02*
X47000Y-35850D01*
X47000Y-35350D02*
X47000Y-34850D01*
X47000Y-34350D02*
X47000Y-33850D01*
G54D12*
X24653Y-38339D02*
X24682Y-38325D01*
X24710Y-38296D01*
X24753Y-38253D01*
X24782Y-38239D01*
X24810Y-38239D01*
X24796Y-38310D02*
X24825Y-38296D01*
X24853Y-38267D01*
X24867Y-38210D01*
X24867Y-38110D01*
X24853Y-38053D01*
X24825Y-38025D01*
X24796Y-38010D01*
X24739Y-38010D01*
X24710Y-38025D01*
X24682Y-38053D01*
X24667Y-38110D01*
X24667Y-38210D01*
X24682Y-38267D01*
X24710Y-38296D01*
X24739Y-38310D01*
X24796Y-38310D01*
X24396Y-38010D02*
X24539Y-38010D01*
X24553Y-38153D01*
X24539Y-38139D01*
X24510Y-38125D01*
X24439Y-38125D01*
X24410Y-38139D01*
X24396Y-38153D01*
X24382Y-38182D01*
X24382Y-38253D01*
X24396Y-38282D01*
X24410Y-38296D01*
X24439Y-38310D01*
X24510Y-38310D01*
X24539Y-38296D01*
X24553Y-38282D01*
X15353Y-25964D02*
X15382Y-25950D01*
X15410Y-25921D01*
X15453Y-25878D01*
X15482Y-25864D01*
X15510Y-25864D01*
X15496Y-25935D02*
X15525Y-25921D01*
X15553Y-25892D01*
X15567Y-25835D01*
X15567Y-25735D01*
X15553Y-25678D01*
X15525Y-25650D01*
X15496Y-25635D01*
X15439Y-25635D01*
X15410Y-25650D01*
X15382Y-25678D01*
X15367Y-25735D01*
X15367Y-25835D01*
X15382Y-25892D01*
X15410Y-25921D01*
X15439Y-25935D01*
X15496Y-25935D01*
X15253Y-25664D02*
X15239Y-25650D01*
X15210Y-25635D01*
X15139Y-25635D01*
X15110Y-25650D01*
X15096Y-25664D01*
X15082Y-25692D01*
X15082Y-25721D01*
X15096Y-25764D01*
X15267Y-25935D01*
X15082Y-25935D01*
X24678Y-35189D02*
X24707Y-35175D01*
X24735Y-35146D01*
X24778Y-35103D01*
X24807Y-35089D01*
X24835Y-35089D01*
X24821Y-35160D02*
X24850Y-35146D01*
X24878Y-35117D01*
X24892Y-35060D01*
X24892Y-34960D01*
X24878Y-34903D01*
X24850Y-34875D01*
X24821Y-34860D01*
X24764Y-34860D01*
X24735Y-34875D01*
X24707Y-34903D01*
X24692Y-34960D01*
X24692Y-35060D01*
X24707Y-35117D01*
X24735Y-35146D01*
X24764Y-35160D01*
X24821Y-35160D01*
X24435Y-34960D02*
X24435Y-35160D01*
X24507Y-34846D02*
X24578Y-35060D01*
X24392Y-35060D01*
X19978Y-39114D02*
X20007Y-39100D01*
X20035Y-39071D01*
X20078Y-39028D01*
X20107Y-39014D01*
X20135Y-39014D01*
X20121Y-39085D02*
X20150Y-39071D01*
X20178Y-39042D01*
X20192Y-38985D01*
X20192Y-38885D01*
X20178Y-38828D01*
X20150Y-38800D01*
X20121Y-38785D01*
X20064Y-38785D01*
X20035Y-38800D01*
X20007Y-38828D01*
X19992Y-38885D01*
X19992Y-38985D01*
X20007Y-39042D01*
X20035Y-39071D01*
X20064Y-39085D01*
X20121Y-39085D01*
X19735Y-38785D02*
X19792Y-38785D01*
X19821Y-38800D01*
X19835Y-38814D01*
X19864Y-38857D01*
X19878Y-38914D01*
X19878Y-39028D01*
X19864Y-39057D01*
X19850Y-39071D01*
X19821Y-39085D01*
X19764Y-39085D01*
X19735Y-39071D01*
X19721Y-39057D01*
X19707Y-39028D01*
X19707Y-38957D01*
X19721Y-38928D01*
X19735Y-38914D01*
X19764Y-38900D01*
X19821Y-38900D01*
X19850Y-38914D01*
X19864Y-38928D01*
X19878Y-38957D01*
X24321Y-36310D02*
X24321Y-36010D01*
X24250Y-36010D01*
X24207Y-36025D01*
X24178Y-36053D01*
X24164Y-36082D01*
X24150Y-36139D01*
X24150Y-36182D01*
X24164Y-36239D01*
X24178Y-36267D01*
X24207Y-36296D01*
X24250Y-36310D01*
X24321Y-36310D01*
X23864Y-36310D02*
X24035Y-36310D01*
X23950Y-36310D02*
X23950Y-36010D01*
X23978Y-36053D01*
X24007Y-36082D01*
X24035Y-36096D01*
X24128Y-39164D02*
X24157Y-39150D01*
X24185Y-39121D01*
X24228Y-39078D01*
X24257Y-39064D01*
X24285Y-39064D01*
X24271Y-39135D02*
X24300Y-39121D01*
X24328Y-39092D01*
X24342Y-39035D01*
X24342Y-38935D01*
X24328Y-38878D01*
X24300Y-38850D01*
X24271Y-38835D01*
X24214Y-38835D01*
X24185Y-38850D01*
X24157Y-38878D01*
X24142Y-38935D01*
X24142Y-39035D01*
X24157Y-39092D01*
X24185Y-39121D01*
X24214Y-39135D01*
X24271Y-39135D01*
X24042Y-38835D02*
X23842Y-38835D01*
X23971Y-39135D01*
X15378Y-24814D02*
X15407Y-24800D01*
X15435Y-24771D01*
X15478Y-24728D01*
X15507Y-24714D01*
X15535Y-24714D01*
X15521Y-24785D02*
X15550Y-24771D01*
X15578Y-24742D01*
X15592Y-24685D01*
X15592Y-24585D01*
X15578Y-24528D01*
X15550Y-24500D01*
X15521Y-24485D01*
X15464Y-24485D01*
X15435Y-24500D01*
X15407Y-24528D01*
X15392Y-24585D01*
X15392Y-24685D01*
X15407Y-24742D01*
X15435Y-24771D01*
X15464Y-24785D01*
X15521Y-24785D01*
X15292Y-24485D02*
X15107Y-24485D01*
X15207Y-24600D01*
X15164Y-24600D01*
X15135Y-24614D01*
X15121Y-24628D01*
X15107Y-24657D01*
X15107Y-24728D01*
X15121Y-24757D01*
X15135Y-24771D01*
X15164Y-24785D01*
X15250Y-24785D01*
X15278Y-24771D01*
X15292Y-24757D01*
X15353Y-23714D02*
X15382Y-23700D01*
X15410Y-23671D01*
X15453Y-23628D01*
X15482Y-23614D01*
X15510Y-23614D01*
X15496Y-23685D02*
X15525Y-23671D01*
X15553Y-23642D01*
X15567Y-23585D01*
X15567Y-23485D01*
X15553Y-23428D01*
X15525Y-23400D01*
X15496Y-23385D01*
X15439Y-23385D01*
X15410Y-23400D01*
X15382Y-23428D01*
X15367Y-23485D01*
X15367Y-23585D01*
X15382Y-23642D01*
X15410Y-23671D01*
X15439Y-23685D01*
X15496Y-23685D01*
X15082Y-23685D02*
X15253Y-23685D01*
X15167Y-23685D02*
X15167Y-23385D01*
X15196Y-23428D01*
X15225Y-23457D01*
X15253Y-23471D01*
X40925Y-26332D02*
X40939Y-26346D01*
X40982Y-26360D01*
X41010Y-26360D01*
X41053Y-26346D01*
X41082Y-26317D01*
X41096Y-26289D01*
X41110Y-26232D01*
X41110Y-26189D01*
X41096Y-26132D01*
X41082Y-26103D01*
X41053Y-26075D01*
X41010Y-26060D01*
X40982Y-26060D01*
X40939Y-26075D01*
X40925Y-26089D01*
X40653Y-26060D02*
X40796Y-26060D01*
X40810Y-26203D01*
X40796Y-26189D01*
X40767Y-26175D01*
X40696Y-26175D01*
X40667Y-26189D01*
X40653Y-26203D01*
X40639Y-26232D01*
X40639Y-26303D01*
X40653Y-26332D01*
X40667Y-26346D01*
X40696Y-26360D01*
X40767Y-26360D01*
X40796Y-26346D01*
X40810Y-26332D01*
X31192Y-34957D02*
X31207Y-34971D01*
X31250Y-34985D01*
X31278Y-34985D01*
X31321Y-34971D01*
X31350Y-34942D01*
X31364Y-34914D01*
X31378Y-34857D01*
X31378Y-34814D01*
X31364Y-34757D01*
X31350Y-34728D01*
X31321Y-34700D01*
X31278Y-34685D01*
X31250Y-34685D01*
X31207Y-34700D01*
X31192Y-34714D01*
X31092Y-34685D02*
X30907Y-34685D01*
X31007Y-34800D01*
X30964Y-34800D01*
X30935Y-34814D01*
X30921Y-34828D01*
X30907Y-34857D01*
X30907Y-34928D01*
X30921Y-34957D01*
X30935Y-34971D01*
X30964Y-34985D01*
X31050Y-34985D01*
X31078Y-34971D01*
X31092Y-34957D01*
X30721Y-34685D02*
X30692Y-34685D01*
X30664Y-34700D01*
X30650Y-34714D01*
X30635Y-34742D01*
X30621Y-34800D01*
X30621Y-34871D01*
X30635Y-34928D01*
X30650Y-34957D01*
X30664Y-34971D01*
X30692Y-34985D01*
X30721Y-34985D01*
X30750Y-34971D01*
X30764Y-34957D01*
X30778Y-34928D01*
X30792Y-34871D01*
X30792Y-34800D01*
X30778Y-34742D01*
X30764Y-34714D01*
X30750Y-34700D01*
X30721Y-34685D01*
X18992Y-34332D02*
X19007Y-34346D01*
X19050Y-34360D01*
X19078Y-34360D01*
X19121Y-34346D01*
X19150Y-34317D01*
X19164Y-34289D01*
X19178Y-34232D01*
X19178Y-34189D01*
X19164Y-34132D01*
X19150Y-34103D01*
X19121Y-34075D01*
X19078Y-34060D01*
X19050Y-34060D01*
X19007Y-34075D01*
X18992Y-34089D01*
X18878Y-34089D02*
X18864Y-34075D01*
X18835Y-34060D01*
X18764Y-34060D01*
X18735Y-34075D01*
X18721Y-34089D01*
X18707Y-34117D01*
X18707Y-34146D01*
X18721Y-34189D01*
X18892Y-34360D01*
X18707Y-34360D01*
X18521Y-34060D02*
X18492Y-34060D01*
X18464Y-34075D01*
X18450Y-34089D01*
X18435Y-34117D01*
X18421Y-34175D01*
X18421Y-34246D01*
X18435Y-34303D01*
X18450Y-34332D01*
X18464Y-34346D01*
X18492Y-34360D01*
X18521Y-34360D01*
X18550Y-34346D01*
X18564Y-34332D01*
X18578Y-34303D01*
X18592Y-34246D01*
X18592Y-34175D01*
X18578Y-34117D01*
X18564Y-34089D01*
X18550Y-34075D01*
X18521Y-34060D01*
X23542Y-31507D02*
X23557Y-31521D01*
X23600Y-31535D01*
X23628Y-31535D01*
X23671Y-31521D01*
X23700Y-31492D01*
X23714Y-31464D01*
X23728Y-31407D01*
X23728Y-31364D01*
X23714Y-31307D01*
X23700Y-31278D01*
X23671Y-31250D01*
X23628Y-31235D01*
X23600Y-31235D01*
X23557Y-31250D01*
X23542Y-31264D01*
X23257Y-31535D02*
X23428Y-31535D01*
X23342Y-31535D02*
X23342Y-31235D01*
X23371Y-31278D01*
X23400Y-31307D01*
X23428Y-31321D01*
X22985Y-31235D02*
X23128Y-31235D01*
X23142Y-31378D01*
X23128Y-31364D01*
X23100Y-31350D01*
X23028Y-31350D01*
X23000Y-31364D01*
X22985Y-31378D01*
X22971Y-31407D01*
X22971Y-31478D01*
X22985Y-31507D01*
X23000Y-31521D01*
X23028Y-31535D01*
X23100Y-31535D01*
X23128Y-31521D01*
X23142Y-31507D01*
X18967Y-33107D02*
X18982Y-33121D01*
X19025Y-33135D01*
X19053Y-33135D01*
X19096Y-33121D01*
X19125Y-33092D01*
X19139Y-33064D01*
X19153Y-33007D01*
X19153Y-32964D01*
X19139Y-32907D01*
X19125Y-32878D01*
X19096Y-32850D01*
X19053Y-32835D01*
X19025Y-32835D01*
X18982Y-32850D01*
X18967Y-32864D01*
X18682Y-33135D02*
X18853Y-33135D01*
X18767Y-33135D02*
X18767Y-32835D01*
X18796Y-32878D01*
X18825Y-32907D01*
X18853Y-32921D01*
X18510Y-32964D02*
X18539Y-32950D01*
X18553Y-32935D01*
X18567Y-32907D01*
X18567Y-32892D01*
X18553Y-32864D01*
X18539Y-32850D01*
X18510Y-32835D01*
X18453Y-32835D01*
X18425Y-32850D01*
X18410Y-32864D01*
X18396Y-32892D01*
X18396Y-32907D01*
X18410Y-32935D01*
X18425Y-32950D01*
X18453Y-32964D01*
X18510Y-32964D01*
X18539Y-32978D01*
X18553Y-32992D01*
X18567Y-33021D01*
X18567Y-33078D01*
X18553Y-33107D01*
X18539Y-33121D01*
X18510Y-33135D01*
X18453Y-33135D01*
X18425Y-33121D01*
X18410Y-33107D01*
X18396Y-33078D01*
X18396Y-33021D01*
X18410Y-32992D01*
X18425Y-32978D01*
X18453Y-32964D01*
X23542Y-32532D02*
X23557Y-32546D01*
X23600Y-32560D01*
X23628Y-32560D01*
X23671Y-32546D01*
X23700Y-32517D01*
X23714Y-32489D01*
X23728Y-32432D01*
X23728Y-32389D01*
X23714Y-32332D01*
X23700Y-32303D01*
X23671Y-32275D01*
X23628Y-32260D01*
X23600Y-32260D01*
X23557Y-32275D01*
X23542Y-32289D01*
X23257Y-32560D02*
X23428Y-32560D01*
X23342Y-32560D02*
X23342Y-32260D01*
X23371Y-32303D01*
X23400Y-32332D01*
X23428Y-32346D01*
X23157Y-32260D02*
X22957Y-32260D01*
X23085Y-32560D01*
X15367Y-27307D02*
X15382Y-27321D01*
X15425Y-27335D01*
X15453Y-27335D01*
X15496Y-27321D01*
X15525Y-27292D01*
X15539Y-27264D01*
X15553Y-27207D01*
X15553Y-27164D01*
X15539Y-27107D01*
X15525Y-27078D01*
X15496Y-27050D01*
X15453Y-27035D01*
X15425Y-27035D01*
X15382Y-27050D01*
X15367Y-27064D01*
X15082Y-27335D02*
X15253Y-27335D01*
X15167Y-27335D02*
X15167Y-27035D01*
X15196Y-27078D01*
X15225Y-27107D01*
X15253Y-27121D01*
X14896Y-27035D02*
X14867Y-27035D01*
X14839Y-27050D01*
X14825Y-27064D01*
X14810Y-27092D01*
X14796Y-27150D01*
X14796Y-27221D01*
X14810Y-27278D01*
X14825Y-27307D01*
X14839Y-27321D01*
X14867Y-27335D01*
X14896Y-27335D01*
X14925Y-27321D01*
X14939Y-27307D01*
X14953Y-27278D01*
X14967Y-27221D01*
X14967Y-27150D01*
X14953Y-27092D01*
X14939Y-27064D01*
X14925Y-27050D01*
X14896Y-27035D01*
X23492Y-29357D02*
X23507Y-29371D01*
X23550Y-29385D01*
X23578Y-29385D01*
X23621Y-29371D01*
X23650Y-29342D01*
X23664Y-29314D01*
X23678Y-29257D01*
X23678Y-29214D01*
X23664Y-29157D01*
X23650Y-29128D01*
X23621Y-29100D01*
X23578Y-29085D01*
X23550Y-29085D01*
X23507Y-29100D01*
X23492Y-29114D01*
X23207Y-29385D02*
X23378Y-29385D01*
X23292Y-29385D02*
X23292Y-29085D01*
X23321Y-29128D01*
X23350Y-29157D01*
X23378Y-29171D01*
X23107Y-29085D02*
X22921Y-29085D01*
X23021Y-29200D01*
X22978Y-29200D01*
X22950Y-29214D01*
X22935Y-29228D01*
X22921Y-29257D01*
X22921Y-29328D01*
X22935Y-29357D01*
X22950Y-29371D01*
X22978Y-29385D01*
X23064Y-29385D01*
X23092Y-29371D01*
X23107Y-29357D01*
X18967Y-30707D02*
X18982Y-30721D01*
X19025Y-30735D01*
X19053Y-30735D01*
X19096Y-30721D01*
X19125Y-30692D01*
X19139Y-30664D01*
X19153Y-30607D01*
X19153Y-30564D01*
X19139Y-30507D01*
X19125Y-30478D01*
X19096Y-30450D01*
X19053Y-30435D01*
X19025Y-30435D01*
X18982Y-30450D01*
X18967Y-30464D01*
X18682Y-30735D02*
X18853Y-30735D01*
X18767Y-30735D02*
X18767Y-30435D01*
X18796Y-30478D01*
X18825Y-30507D01*
X18853Y-30521D01*
X18425Y-30535D02*
X18425Y-30735D01*
X18496Y-30421D02*
X18567Y-30635D01*
X18382Y-30635D01*
X18067Y-27607D02*
X18082Y-27621D01*
X18125Y-27635D01*
X18153Y-27635D01*
X18196Y-27621D01*
X18225Y-27592D01*
X18239Y-27564D01*
X18253Y-27507D01*
X18253Y-27464D01*
X18239Y-27407D01*
X18225Y-27378D01*
X18196Y-27350D01*
X18153Y-27335D01*
X18125Y-27335D01*
X18082Y-27350D01*
X18067Y-27364D01*
X17782Y-27635D02*
X17953Y-27635D01*
X17867Y-27635D02*
X17867Y-27335D01*
X17896Y-27378D01*
X17925Y-27407D01*
X17953Y-27421D01*
X17496Y-27635D02*
X17667Y-27635D01*
X17582Y-27635D02*
X17582Y-27335D01*
X17610Y-27378D01*
X17639Y-27407D01*
X17667Y-27421D01*
X23542Y-33457D02*
X23557Y-33471D01*
X23600Y-33485D01*
X23628Y-33485D01*
X23671Y-33471D01*
X23700Y-33442D01*
X23714Y-33414D01*
X23728Y-33357D01*
X23728Y-33314D01*
X23714Y-33257D01*
X23700Y-33228D01*
X23671Y-33200D01*
X23628Y-33185D01*
X23600Y-33185D01*
X23557Y-33200D01*
X23542Y-33214D01*
X23257Y-33485D02*
X23428Y-33485D01*
X23342Y-33485D02*
X23342Y-33185D01*
X23371Y-33228D01*
X23400Y-33257D01*
X23428Y-33271D01*
X23114Y-33485D02*
X23057Y-33485D01*
X23028Y-33471D01*
X23014Y-33457D01*
X22985Y-33414D01*
X22971Y-33357D01*
X22971Y-33242D01*
X22985Y-33214D01*
X23000Y-33200D01*
X23028Y-33185D01*
X23085Y-33185D01*
X23114Y-33200D01*
X23128Y-33214D01*
X23142Y-33242D01*
X23142Y-33314D01*
X23128Y-33342D01*
X23114Y-33357D01*
X23085Y-33371D01*
X23028Y-33371D01*
X23000Y-33357D01*
X22985Y-33342D01*
X22971Y-33314D01*
X22142Y-38107D02*
X22157Y-38121D01*
X22200Y-38135D01*
X22228Y-38135D01*
X22271Y-38121D01*
X22300Y-38092D01*
X22314Y-38064D01*
X22328Y-38007D01*
X22328Y-37964D01*
X22314Y-37907D01*
X22300Y-37878D01*
X22271Y-37850D01*
X22228Y-37835D01*
X22200Y-37835D01*
X22157Y-37850D01*
X22142Y-37864D01*
X22028Y-37864D02*
X22014Y-37850D01*
X21985Y-37835D01*
X21914Y-37835D01*
X21885Y-37850D01*
X21871Y-37864D01*
X21857Y-37892D01*
X21857Y-37921D01*
X21871Y-37964D01*
X22042Y-38135D01*
X21857Y-38135D01*
X21600Y-37935D02*
X21600Y-38135D01*
X21671Y-37821D02*
X21742Y-38035D01*
X21557Y-38035D01*
X18992Y-31907D02*
X19007Y-31921D01*
X19050Y-31935D01*
X19078Y-31935D01*
X19121Y-31921D01*
X19150Y-31892D01*
X19164Y-31864D01*
X19178Y-31807D01*
X19178Y-31764D01*
X19164Y-31707D01*
X19150Y-31678D01*
X19121Y-31650D01*
X19078Y-31635D01*
X19050Y-31635D01*
X19007Y-31650D01*
X18992Y-31664D01*
X18707Y-31935D02*
X18878Y-31935D01*
X18792Y-31935D02*
X18792Y-31635D01*
X18821Y-31678D01*
X18850Y-31707D01*
X18878Y-31721D01*
X18450Y-31635D02*
X18507Y-31635D01*
X18535Y-31650D01*
X18550Y-31664D01*
X18578Y-31707D01*
X18592Y-31764D01*
X18592Y-31878D01*
X18578Y-31907D01*
X18564Y-31921D01*
X18535Y-31935D01*
X18478Y-31935D01*
X18450Y-31921D01*
X18435Y-31907D01*
X18421Y-31878D01*
X18421Y-31807D01*
X18435Y-31778D01*
X18450Y-31764D01*
X18478Y-31750D01*
X18535Y-31750D01*
X18564Y-31764D01*
X18578Y-31778D01*
X18592Y-31807D01*
X22362Y-35387D02*
X22377Y-35401D01*
X22420Y-35415D01*
X22448Y-35415D01*
X22491Y-35401D01*
X22520Y-35372D01*
X22534Y-35344D01*
X22548Y-35287D01*
X22548Y-35244D01*
X22534Y-35187D01*
X22520Y-35158D01*
X22491Y-35130D01*
X22448Y-35115D01*
X22420Y-35115D01*
X22377Y-35130D01*
X22362Y-35144D01*
X22248Y-35144D02*
X22234Y-35130D01*
X22205Y-35115D01*
X22134Y-35115D01*
X22105Y-35130D01*
X22091Y-35144D01*
X22077Y-35172D01*
X22077Y-35201D01*
X22091Y-35244D01*
X22262Y-35415D01*
X22077Y-35415D01*
X21962Y-35144D02*
X21948Y-35130D01*
X21920Y-35115D01*
X21848Y-35115D01*
X21820Y-35130D01*
X21805Y-35144D01*
X21791Y-35172D01*
X21791Y-35201D01*
X21805Y-35244D01*
X21977Y-35415D01*
X21791Y-35415D01*
X36575Y-28257D02*
X36589Y-28271D01*
X36632Y-28285D01*
X36660Y-28285D01*
X36703Y-28271D01*
X36732Y-28242D01*
X36746Y-28214D01*
X36760Y-28157D01*
X36760Y-28114D01*
X36746Y-28057D01*
X36732Y-28028D01*
X36703Y-28000D01*
X36660Y-27985D01*
X36632Y-27985D01*
X36589Y-28000D01*
X36575Y-28014D01*
X36475Y-27985D02*
X36275Y-27985D01*
X36403Y-28285D01*
X23517Y-34457D02*
X23532Y-34471D01*
X23575Y-34485D01*
X23603Y-34485D01*
X23646Y-34471D01*
X23675Y-34442D01*
X23689Y-34414D01*
X23703Y-34357D01*
X23703Y-34314D01*
X23689Y-34257D01*
X23675Y-34228D01*
X23646Y-34200D01*
X23603Y-34185D01*
X23575Y-34185D01*
X23532Y-34200D01*
X23517Y-34214D01*
X23403Y-34214D02*
X23389Y-34200D01*
X23360Y-34185D01*
X23289Y-34185D01*
X23260Y-34200D01*
X23246Y-34214D01*
X23232Y-34242D01*
X23232Y-34271D01*
X23246Y-34314D01*
X23417Y-34485D01*
X23232Y-34485D01*
X22946Y-34485D02*
X23117Y-34485D01*
X23032Y-34485D02*
X23032Y-34185D01*
X23060Y-34228D01*
X23089Y-34257D01*
X23117Y-34271D01*
X18967Y-37182D02*
X18982Y-37196D01*
X19025Y-37210D01*
X19053Y-37210D01*
X19096Y-37196D01*
X19125Y-37167D01*
X19139Y-37139D01*
X19153Y-37082D01*
X19153Y-37039D01*
X19139Y-36982D01*
X19125Y-36953D01*
X19096Y-36925D01*
X19053Y-36910D01*
X19025Y-36910D01*
X18982Y-36925D01*
X18967Y-36939D01*
X18853Y-36939D02*
X18839Y-36925D01*
X18810Y-36910D01*
X18739Y-36910D01*
X18710Y-36925D01*
X18696Y-36939D01*
X18682Y-36967D01*
X18682Y-36996D01*
X18696Y-37039D01*
X18867Y-37210D01*
X18682Y-37210D01*
X18582Y-36910D02*
X18396Y-36910D01*
X18496Y-37025D01*
X18453Y-37025D01*
X18425Y-37039D01*
X18410Y-37053D01*
X18396Y-37082D01*
X18396Y-37153D01*
X18410Y-37182D01*
X18425Y-37196D01*
X18453Y-37210D01*
X18539Y-37210D01*
X18567Y-37196D01*
X18582Y-37182D01*
X18967Y-37982D02*
X18982Y-37996D01*
X19025Y-38010D01*
X19053Y-38010D01*
X19096Y-37996D01*
X19125Y-37967D01*
X19139Y-37939D01*
X19153Y-37882D01*
X19153Y-37839D01*
X19139Y-37782D01*
X19125Y-37753D01*
X19096Y-37725D01*
X19053Y-37710D01*
X19025Y-37710D01*
X18982Y-37725D01*
X18967Y-37739D01*
X18853Y-37739D02*
X18839Y-37725D01*
X18810Y-37710D01*
X18739Y-37710D01*
X18710Y-37725D01*
X18696Y-37739D01*
X18682Y-37767D01*
X18682Y-37796D01*
X18696Y-37839D01*
X18867Y-38010D01*
X18682Y-38010D01*
X18410Y-37710D02*
X18553Y-37710D01*
X18567Y-37853D01*
X18553Y-37839D01*
X18525Y-37825D01*
X18453Y-37825D01*
X18425Y-37839D01*
X18410Y-37853D01*
X18396Y-37882D01*
X18396Y-37953D01*
X18410Y-37982D01*
X18425Y-37996D01*
X18453Y-38010D01*
X18525Y-38010D01*
X18553Y-37996D01*
X18567Y-37982D01*
X18992Y-29507D02*
X19007Y-29521D01*
X19050Y-29535D01*
X19078Y-29535D01*
X19121Y-29521D01*
X19150Y-29492D01*
X19164Y-29464D01*
X19178Y-29407D01*
X19178Y-29364D01*
X19164Y-29307D01*
X19150Y-29278D01*
X19121Y-29250D01*
X19078Y-29235D01*
X19050Y-29235D01*
X19007Y-29250D01*
X18992Y-29264D01*
X18707Y-29535D02*
X18878Y-29535D01*
X18792Y-29535D02*
X18792Y-29235D01*
X18821Y-29278D01*
X18850Y-29307D01*
X18878Y-29321D01*
X18592Y-29264D02*
X18578Y-29250D01*
X18550Y-29235D01*
X18478Y-29235D01*
X18450Y-29250D01*
X18435Y-29264D01*
X18421Y-29292D01*
X18421Y-29321D01*
X18435Y-29364D01*
X18607Y-29535D01*
X18421Y-29535D01*
X26567Y-35357D02*
X26582Y-35371D01*
X26625Y-35385D01*
X26653Y-35385D01*
X26696Y-35371D01*
X26725Y-35342D01*
X26739Y-35314D01*
X26753Y-35257D01*
X26753Y-35214D01*
X26739Y-35157D01*
X26725Y-35128D01*
X26696Y-35100D01*
X26653Y-35085D01*
X26625Y-35085D01*
X26582Y-35100D01*
X26567Y-35114D01*
X26453Y-35114D02*
X26439Y-35100D01*
X26410Y-35085D01*
X26339Y-35085D01*
X26310Y-35100D01*
X26296Y-35114D01*
X26282Y-35142D01*
X26282Y-35171D01*
X26296Y-35214D01*
X26467Y-35385D01*
X26282Y-35385D01*
X26110Y-35214D02*
X26139Y-35200D01*
X26153Y-35185D01*
X26167Y-35157D01*
X26167Y-35142D01*
X26153Y-35114D01*
X26139Y-35100D01*
X26110Y-35085D01*
X26053Y-35085D01*
X26025Y-35100D01*
X26010Y-35114D01*
X25996Y-35142D01*
X25996Y-35157D01*
X26010Y-35185D01*
X26025Y-35200D01*
X26053Y-35214D01*
X26110Y-35214D01*
X26139Y-35228D01*
X26153Y-35242D01*
X26167Y-35271D01*
X26167Y-35328D01*
X26153Y-35357D01*
X26139Y-35371D01*
X26110Y-35385D01*
X26053Y-35385D01*
X26025Y-35371D01*
X26010Y-35357D01*
X25996Y-35328D01*
X25996Y-35271D01*
X26010Y-35242D01*
X26025Y-35228D01*
X26053Y-35214D01*
X12625Y-27210D02*
X12725Y-27067D01*
X12796Y-27210D02*
X12796Y-26910D01*
X12682Y-26910D01*
X12653Y-26925D01*
X12639Y-26939D01*
X12625Y-26967D01*
X12625Y-27010D01*
X12639Y-27039D01*
X12653Y-27053D01*
X12682Y-27067D01*
X12796Y-27067D01*
X12339Y-27210D02*
X12510Y-27210D01*
X12425Y-27210D02*
X12425Y-26910D01*
X12453Y-26953D01*
X12482Y-26982D01*
X12510Y-26996D01*
X22717Y-38785D02*
X22817Y-38642D01*
X22889Y-38785D02*
X22889Y-38485D01*
X22775Y-38485D01*
X22746Y-38500D01*
X22732Y-38514D01*
X22717Y-38542D01*
X22717Y-38585D01*
X22732Y-38614D01*
X22746Y-38628D01*
X22775Y-38642D01*
X22889Y-38642D01*
X22432Y-38785D02*
X22603Y-38785D01*
X22517Y-38785D02*
X22517Y-38485D01*
X22546Y-38528D01*
X22575Y-38557D01*
X22603Y-38571D01*
X22317Y-38514D02*
X22303Y-38500D01*
X22275Y-38485D01*
X22203Y-38485D01*
X22175Y-38500D01*
X22160Y-38514D01*
X22146Y-38542D01*
X22146Y-38571D01*
X22160Y-38614D01*
X22332Y-38785D01*
X22146Y-38785D01*
X18792Y-38785D02*
X18892Y-38642D01*
X18964Y-38785D02*
X18964Y-38485D01*
X18850Y-38485D01*
X18821Y-38500D01*
X18807Y-38514D01*
X18792Y-38542D01*
X18792Y-38585D01*
X18807Y-38614D01*
X18821Y-38628D01*
X18850Y-38642D01*
X18964Y-38642D01*
X18507Y-38785D02*
X18678Y-38785D01*
X18592Y-38785D02*
X18592Y-38485D01*
X18621Y-38528D01*
X18650Y-38557D01*
X18678Y-38571D01*
X18221Y-38785D02*
X18392Y-38785D01*
X18307Y-38785D02*
X18307Y-38485D01*
X18335Y-38528D01*
X18364Y-38557D01*
X18392Y-38571D01*
X19000Y-35610D02*
X19100Y-35467D01*
X19171Y-35610D02*
X19171Y-35310D01*
X19057Y-35310D01*
X19028Y-35325D01*
X19014Y-35339D01*
X19000Y-35367D01*
X19000Y-35410D01*
X19014Y-35439D01*
X19028Y-35453D01*
X19057Y-35467D01*
X19171Y-35467D01*
X18857Y-35610D02*
X18800Y-35610D01*
X18771Y-35596D01*
X18757Y-35582D01*
X18728Y-35539D01*
X18714Y-35482D01*
X18714Y-35367D01*
X18728Y-35339D01*
X18742Y-35325D01*
X18771Y-35310D01*
X18828Y-35310D01*
X18857Y-35325D01*
X18871Y-35339D01*
X18885Y-35367D01*
X18885Y-35439D01*
X18871Y-35467D01*
X18857Y-35482D01*
X18828Y-35496D01*
X18771Y-35496D01*
X18742Y-35482D01*
X18728Y-35467D01*
X18714Y-35439D01*
X17550Y-38785D02*
X17650Y-38642D01*
X17721Y-38785D02*
X17721Y-38485D01*
X17607Y-38485D01*
X17578Y-38500D01*
X17564Y-38514D01*
X17550Y-38542D01*
X17550Y-38585D01*
X17564Y-38614D01*
X17578Y-38628D01*
X17607Y-38642D01*
X17721Y-38642D01*
X17450Y-38485D02*
X17264Y-38485D01*
X17364Y-38600D01*
X17321Y-38600D01*
X17292Y-38614D01*
X17278Y-38628D01*
X17264Y-38657D01*
X17264Y-38728D01*
X17278Y-38757D01*
X17292Y-38771D01*
X17321Y-38785D01*
X17407Y-38785D01*
X17435Y-38771D01*
X17450Y-38757D01*
X21542Y-38545D02*
X21642Y-38402D01*
X21714Y-38545D02*
X21714Y-38245D01*
X21600Y-38245D01*
X21571Y-38260D01*
X21557Y-38274D01*
X21542Y-38302D01*
X21542Y-38345D01*
X21557Y-38374D01*
X21571Y-38388D01*
X21600Y-38402D01*
X21714Y-38402D01*
X21257Y-38545D02*
X21428Y-38545D01*
X21342Y-38545D02*
X21342Y-38245D01*
X21371Y-38288D01*
X21400Y-38317D01*
X21428Y-38331D01*
X21071Y-38245D02*
X21042Y-38245D01*
X21014Y-38260D01*
X21000Y-38274D01*
X20985Y-38302D01*
X20971Y-38360D01*
X20971Y-38431D01*
X20985Y-38488D01*
X21000Y-38517D01*
X21014Y-38531D01*
X21042Y-38545D01*
X21071Y-38545D01*
X21100Y-38531D01*
X21114Y-38517D01*
X21128Y-38488D01*
X21142Y-38431D01*
X21142Y-38360D01*
X21128Y-38302D01*
X21114Y-38274D01*
X21100Y-38260D01*
X21071Y-38245D01*
X41167Y-27935D02*
X41267Y-27792D01*
X41339Y-27935D02*
X41339Y-27635D01*
X41225Y-27635D01*
X41196Y-27650D01*
X41182Y-27664D01*
X41167Y-27692D01*
X41167Y-27735D01*
X41182Y-27764D01*
X41196Y-27778D01*
X41225Y-27792D01*
X41339Y-27792D01*
X40882Y-27935D02*
X41053Y-27935D01*
X40967Y-27935D02*
X40967Y-27635D01*
X40996Y-27678D01*
X41025Y-27707D01*
X41053Y-27721D01*
X40625Y-27635D02*
X40682Y-27635D01*
X40710Y-27650D01*
X40725Y-27664D01*
X40753Y-27707D01*
X40767Y-27764D01*
X40767Y-27878D01*
X40753Y-27907D01*
X40739Y-27921D01*
X40710Y-27935D01*
X40653Y-27935D01*
X40625Y-27921D01*
X40610Y-27907D01*
X40596Y-27878D01*
X40596Y-27807D01*
X40610Y-27778D01*
X40625Y-27764D01*
X40653Y-27750D01*
X40710Y-27750D01*
X40739Y-27764D01*
X40753Y-27778D01*
X40767Y-27807D01*
X11825Y-23085D02*
X11925Y-22942D01*
X11996Y-23085D02*
X11996Y-22785D01*
X11882Y-22785D01*
X11853Y-22800D01*
X11839Y-22814D01*
X11825Y-22842D01*
X11825Y-22885D01*
X11839Y-22914D01*
X11853Y-22928D01*
X11882Y-22942D01*
X11996Y-22942D01*
X11710Y-22814D02*
X11696Y-22800D01*
X11667Y-22785D01*
X11596Y-22785D01*
X11567Y-22800D01*
X11553Y-22814D01*
X11539Y-22842D01*
X11539Y-22871D01*
X11553Y-22914D01*
X11725Y-23085D01*
X11539Y-23085D01*
X25167Y-37607D02*
X25182Y-37621D01*
X25225Y-37635D01*
X25253Y-37635D01*
X25296Y-37621D01*
X25325Y-37592D01*
X25339Y-37564D01*
X25353Y-37507D01*
X25353Y-37464D01*
X25339Y-37407D01*
X25325Y-37378D01*
X25296Y-37350D01*
X25253Y-37335D01*
X25225Y-37335D01*
X25182Y-37350D01*
X25167Y-37364D01*
X25053Y-37364D02*
X25039Y-37350D01*
X25010Y-37335D01*
X24939Y-37335D01*
X24910Y-37350D01*
X24896Y-37364D01*
X24882Y-37392D01*
X24882Y-37421D01*
X24896Y-37464D01*
X25067Y-37635D01*
X24882Y-37635D01*
X24625Y-37335D02*
X24682Y-37335D01*
X24710Y-37350D01*
X24725Y-37364D01*
X24753Y-37407D01*
X24767Y-37464D01*
X24767Y-37578D01*
X24753Y-37607D01*
X24739Y-37621D01*
X24710Y-37635D01*
X24653Y-37635D01*
X24625Y-37621D01*
X24610Y-37607D01*
X24596Y-37578D01*
X24596Y-37507D01*
X24610Y-37478D01*
X24625Y-37464D01*
X24653Y-37450D01*
X24710Y-37450D01*
X24739Y-37464D01*
X24753Y-37478D01*
X24767Y-37507D01*
X40850Y-28882D02*
X40864Y-28896D01*
X40907Y-28910D01*
X40935Y-28910D01*
X40978Y-28896D01*
X41007Y-28867D01*
X41021Y-28839D01*
X41035Y-28782D01*
X41035Y-28739D01*
X41021Y-28682D01*
X41007Y-28653D01*
X40978Y-28625D01*
X40935Y-28610D01*
X40907Y-28610D01*
X40864Y-28625D01*
X40850Y-28639D01*
X40592Y-28710D02*
X40592Y-28910D01*
X40664Y-28596D02*
X40735Y-28810D01*
X40550Y-28810D01*
X37200Y-36607D02*
X37214Y-36621D01*
X37257Y-36635D01*
X37285Y-36635D01*
X37328Y-36621D01*
X37357Y-36592D01*
X37371Y-36564D01*
X37385Y-36507D01*
X37385Y-36464D01*
X37371Y-36407D01*
X37357Y-36378D01*
X37328Y-36350D01*
X37285Y-36335D01*
X37257Y-36335D01*
X37214Y-36350D01*
X37200Y-36364D01*
X37085Y-36364D02*
X37071Y-36350D01*
X37042Y-36335D01*
X36971Y-36335D01*
X36942Y-36350D01*
X36928Y-36364D01*
X36914Y-36392D01*
X36914Y-36421D01*
X36928Y-36464D01*
X37100Y-36635D01*
X36914Y-36635D01*
X12950Y-23107D02*
X12964Y-23121D01*
X13007Y-23135D01*
X13035Y-23135D01*
X13078Y-23121D01*
X13107Y-23092D01*
X13121Y-23064D01*
X13135Y-23007D01*
X13135Y-22964D01*
X13121Y-22907D01*
X13107Y-22878D01*
X13078Y-22850D01*
X13035Y-22835D01*
X13007Y-22835D01*
X12964Y-22850D01*
X12950Y-22864D01*
X12664Y-23135D02*
X12835Y-23135D01*
X12750Y-23135D02*
X12750Y-22835D01*
X12778Y-22878D01*
X12807Y-22907D01*
X12835Y-22921D01*
X36575Y-30807D02*
X36589Y-30821D01*
X36632Y-30835D01*
X36660Y-30835D01*
X36703Y-30821D01*
X36732Y-30792D01*
X36746Y-30764D01*
X36760Y-30707D01*
X36760Y-30664D01*
X36746Y-30607D01*
X36732Y-30578D01*
X36703Y-30550D01*
X36660Y-30535D01*
X36632Y-30535D01*
X36589Y-30550D01*
X36575Y-30564D01*
X36403Y-30664D02*
X36432Y-30650D01*
X36446Y-30635D01*
X36460Y-30607D01*
X36460Y-30592D01*
X36446Y-30564D01*
X36432Y-30550D01*
X36403Y-30535D01*
X36346Y-30535D01*
X36317Y-30550D01*
X36303Y-30564D01*
X36289Y-30592D01*
X36289Y-30607D01*
X36303Y-30635D01*
X36317Y-30650D01*
X36346Y-30664D01*
X36403Y-30664D01*
X36432Y-30678D01*
X36446Y-30692D01*
X36460Y-30721D01*
X36460Y-30778D01*
X36446Y-30807D01*
X36432Y-30821D01*
X36403Y-30835D01*
X36346Y-30835D01*
X36317Y-30821D01*
X36303Y-30807D01*
X36289Y-30778D01*
X36289Y-30721D01*
X36303Y-30692D01*
X36317Y-30678D01*
X36346Y-30664D01*
X27367Y-33407D02*
X27382Y-33421D01*
X27425Y-33435D01*
X27453Y-33435D01*
X27496Y-33421D01*
X27525Y-33392D01*
X27539Y-33364D01*
X27553Y-33307D01*
X27553Y-33264D01*
X27539Y-33207D01*
X27525Y-33178D01*
X27496Y-33150D01*
X27453Y-33135D01*
X27425Y-33135D01*
X27382Y-33150D01*
X27367Y-33164D01*
X27253Y-33164D02*
X27239Y-33150D01*
X27210Y-33135D01*
X27139Y-33135D01*
X27110Y-33150D01*
X27096Y-33164D01*
X27082Y-33192D01*
X27082Y-33221D01*
X27096Y-33264D01*
X27267Y-33435D01*
X27082Y-33435D01*
X26939Y-33435D02*
X26882Y-33435D01*
X26853Y-33421D01*
X26839Y-33407D01*
X26810Y-33364D01*
X26796Y-33307D01*
X26796Y-33192D01*
X26810Y-33164D01*
X26825Y-33150D01*
X26853Y-33135D01*
X26910Y-33135D01*
X26939Y-33150D01*
X26953Y-33164D01*
X26967Y-33192D01*
X26967Y-33264D01*
X26953Y-33292D01*
X26939Y-33307D01*
X26910Y-33321D01*
X26853Y-33321D01*
X26825Y-33307D01*
X26810Y-33292D01*
X26796Y-33264D01*
X10700Y-23107D02*
X10714Y-23121D01*
X10757Y-23135D01*
X10785Y-23135D01*
X10828Y-23121D01*
X10857Y-23092D01*
X10871Y-23064D01*
X10885Y-23007D01*
X10885Y-22964D01*
X10871Y-22907D01*
X10857Y-22878D01*
X10828Y-22850D01*
X10785Y-22835D01*
X10757Y-22835D01*
X10714Y-22850D01*
X10700Y-22864D01*
X10600Y-22835D02*
X10414Y-22835D01*
X10514Y-22950D01*
X10471Y-22950D01*
X10442Y-22964D01*
X10428Y-22978D01*
X10414Y-23007D01*
X10414Y-23078D01*
X10428Y-23107D01*
X10442Y-23121D01*
X10471Y-23135D01*
X10557Y-23135D01*
X10585Y-23121D01*
X10600Y-23107D01*
X33892Y-28507D02*
X33907Y-28521D01*
X33950Y-28535D01*
X33978Y-28535D01*
X34021Y-28521D01*
X34050Y-28492D01*
X34064Y-28464D01*
X34078Y-28407D01*
X34078Y-28364D01*
X34064Y-28307D01*
X34050Y-28278D01*
X34021Y-28250D01*
X33978Y-28235D01*
X33950Y-28235D01*
X33907Y-28250D01*
X33892Y-28264D01*
X33778Y-28264D02*
X33764Y-28250D01*
X33735Y-28235D01*
X33664Y-28235D01*
X33635Y-28250D01*
X33621Y-28264D01*
X33607Y-28292D01*
X33607Y-28321D01*
X33621Y-28364D01*
X33792Y-28535D01*
X33607Y-28535D01*
X33507Y-28235D02*
X33307Y-28235D01*
X33435Y-28535D01*
X36778Y-29335D02*
X36778Y-29578D01*
X36764Y-29607D01*
X36750Y-29621D01*
X36721Y-29635D01*
X36664Y-29635D01*
X36635Y-29621D01*
X36621Y-29607D01*
X36607Y-29578D01*
X36607Y-29335D01*
X36307Y-29635D02*
X36478Y-29635D01*
X36392Y-29635D02*
X36392Y-29335D01*
X36421Y-29378D01*
X36450Y-29407D01*
X36478Y-29421D01*
X35590Y-41210D02*
X35690Y-41067D01*
X35761Y-41210D02*
X35761Y-40910D01*
X35647Y-40910D01*
X35618Y-40925D01*
X35604Y-40939D01*
X35590Y-40967D01*
X35590Y-41010D01*
X35604Y-41039D01*
X35618Y-41053D01*
X35647Y-41067D01*
X35761Y-41067D01*
X35332Y-41010D02*
X35332Y-41210D01*
X35404Y-40896D02*
X35475Y-41110D01*
X35290Y-41110D01*
X39540Y-41235D02*
X39640Y-41092D01*
X39711Y-41235D02*
X39711Y-40935D01*
X39597Y-40935D01*
X39568Y-40950D01*
X39554Y-40964D01*
X39540Y-40992D01*
X39540Y-41035D01*
X39554Y-41064D01*
X39568Y-41078D01*
X39597Y-41092D01*
X39711Y-41092D01*
X39268Y-40935D02*
X39411Y-40935D01*
X39425Y-41078D01*
X39411Y-41064D01*
X39382Y-41050D01*
X39311Y-41050D01*
X39282Y-41064D01*
X39268Y-41078D01*
X39254Y-41107D01*
X39254Y-41178D01*
X39268Y-41207D01*
X39282Y-41221D01*
X39311Y-41235D01*
X39382Y-41235D01*
X39411Y-41221D01*
X39425Y-41207D01*
X31565Y-41235D02*
X31665Y-41092D01*
X31736Y-41235D02*
X31736Y-40935D01*
X31622Y-40935D01*
X31593Y-40950D01*
X31579Y-40964D01*
X31565Y-40992D01*
X31565Y-41035D01*
X31579Y-41064D01*
X31593Y-41078D01*
X31622Y-41092D01*
X31736Y-41092D01*
X31307Y-40935D02*
X31365Y-40935D01*
X31393Y-40950D01*
X31407Y-40964D01*
X31436Y-41007D01*
X31450Y-41064D01*
X31450Y-41178D01*
X31436Y-41207D01*
X31422Y-41221D01*
X31393Y-41235D01*
X31336Y-41235D01*
X31307Y-41221D01*
X31293Y-41207D01*
X31279Y-41178D01*
X31279Y-41107D01*
X31293Y-41078D01*
X31307Y-41064D01*
X31336Y-41050D01*
X31393Y-41050D01*
X31422Y-41064D01*
X31436Y-41078D01*
X31450Y-41107D01*
X42635Y-41235D02*
X42735Y-41092D01*
X42806Y-41235D02*
X42806Y-40935D01*
X42692Y-40935D01*
X42663Y-40950D01*
X42649Y-40964D01*
X42635Y-40992D01*
X42635Y-41035D01*
X42649Y-41064D01*
X42663Y-41078D01*
X42692Y-41092D01*
X42806Y-41092D01*
X42535Y-40935D02*
X42335Y-40935D01*
X42463Y-41235D01*
X40981Y-31265D02*
X40781Y-31565D01*
X40781Y-31265D02*
X40981Y-31565D01*
X40681Y-31480D02*
X40538Y-31480D01*
X40710Y-31565D02*
X40610Y-31265D01*
X40510Y-31565D01*
X40438Y-31265D02*
X40252Y-31265D01*
X40352Y-31380D01*
X40309Y-31380D01*
X40281Y-31394D01*
X40267Y-31408D01*
X40252Y-31437D01*
X40252Y-31508D01*
X40267Y-31537D01*
X40281Y-31551D01*
X40309Y-31565D01*
X40395Y-31565D01*
X40424Y-31551D01*
X40438Y-31537D01*
X37042Y-32425D02*
X36899Y-32425D01*
X37071Y-32510D02*
X36971Y-32210D01*
X36871Y-32510D01*
X36714Y-32210D02*
X36685Y-32210D01*
X36657Y-32225D01*
X36642Y-32239D01*
X36628Y-32267D01*
X36614Y-32325D01*
X36614Y-32396D01*
X36628Y-32453D01*
X36642Y-32482D01*
X36657Y-32496D01*
X36685Y-32510D01*
X36714Y-32510D01*
X36742Y-32496D01*
X36757Y-32482D01*
X36771Y-32453D01*
X36785Y-32396D01*
X36785Y-32325D01*
X36771Y-32267D01*
X36757Y-32239D01*
X36742Y-32225D01*
X36714Y-32210D01*
X36557Y-32539D02*
X36328Y-32539D01*
X36285Y-32210D02*
X36100Y-32210D01*
X36200Y-32325D01*
X36157Y-32325D01*
X36128Y-32339D01*
X36114Y-32353D01*
X36100Y-32382D01*
X36100Y-32453D01*
X36114Y-32482D01*
X36128Y-32496D01*
X36157Y-32510D01*
X36242Y-32510D01*
X36271Y-32496D01*
X36285Y-32482D01*
X36014Y-32210D02*
X35914Y-32510D01*
X35814Y-32210D01*
X35742Y-32210D02*
X35557Y-32210D01*
X35657Y-32325D01*
X35614Y-32325D01*
X35585Y-32339D01*
X35571Y-32353D01*
X35557Y-32382D01*
X35557Y-32453D01*
X35571Y-32482D01*
X35585Y-32496D01*
X35614Y-32510D01*
X35700Y-32510D01*
X35728Y-32496D01*
X35742Y-32482D01*
X15721Y-41635D02*
X15721Y-41335D01*
X15607Y-41335D01*
X15578Y-41350D01*
X15564Y-41364D01*
X15550Y-41392D01*
X15550Y-41435D01*
X15564Y-41464D01*
X15578Y-41478D01*
X15607Y-41492D01*
X15721Y-41492D01*
X15450Y-41335D02*
X15264Y-41335D01*
X15364Y-41450D01*
X15321Y-41450D01*
X15292Y-41464D01*
X15278Y-41478D01*
X15264Y-41507D01*
X15264Y-41578D01*
X15278Y-41607D01*
X15292Y-41621D01*
X15321Y-41635D01*
X15407Y-41635D01*
X15435Y-41621D01*
X15450Y-41607D01*
G54D11*
X20116Y-43739D02*
X20233Y-43739D01*
X20233Y-44001D02*
X20233Y-43501D01*
X20066Y-43501D01*
X19983Y-43501D02*
X19783Y-43501D01*
X19883Y-44001D02*
X19883Y-43501D01*
X19666Y-44001D02*
X19666Y-43501D01*
X19583Y-43501D01*
X19533Y-43525D01*
X19500Y-43572D01*
X19483Y-43620D01*
X19466Y-43715D01*
X19466Y-43786D01*
X19483Y-43882D01*
X19500Y-43929D01*
X19533Y-43977D01*
X19583Y-44001D01*
X19666Y-44001D01*
X19316Y-44001D02*
X19316Y-43501D01*
G54D12*
X21742Y-40650D02*
X21771Y-40635D01*
X21814Y-40635D01*
X21857Y-40650D01*
X21885Y-40678D01*
X21900Y-40707D01*
X21914Y-40764D01*
X21914Y-40807D01*
X21900Y-40864D01*
X21885Y-40892D01*
X21857Y-40921D01*
X21814Y-40935D01*
X21785Y-40935D01*
X21742Y-40921D01*
X21728Y-40907D01*
X21728Y-40807D01*
X21785Y-40807D01*
X21428Y-40935D02*
X21528Y-40792D01*
X21600Y-40935D02*
X21600Y-40635D01*
X21485Y-40635D01*
X21457Y-40650D01*
X21442Y-40664D01*
X21428Y-40692D01*
X21428Y-40735D01*
X21442Y-40764D01*
X21457Y-40778D01*
X21485Y-40792D01*
X21600Y-40792D01*
X21300Y-40935D02*
X21300Y-40635D01*
X21128Y-40935D01*
X21128Y-40635D01*
X20985Y-40907D02*
X20971Y-40921D01*
X20985Y-40935D01*
X21000Y-40921D01*
X20985Y-40907D01*
X20985Y-40935D01*
X20785Y-40792D02*
X20785Y-40935D01*
X20885Y-40635D02*
X20785Y-40792D01*
X20685Y-40635D01*
X20585Y-40778D02*
X20485Y-40778D01*
X20442Y-40935D02*
X20585Y-40935D01*
X20585Y-40635D01*
X20442Y-40635D01*
X20171Y-40935D02*
X20314Y-40935D01*
X20314Y-40635D01*
X20071Y-40907D02*
X20057Y-40921D01*
X20071Y-40935D01*
X20085Y-40921D01*
X20071Y-40907D01*
X20071Y-40935D01*
X19871Y-40635D02*
X19814Y-40635D01*
X19785Y-40650D01*
X19757Y-40678D01*
X19742Y-40735D01*
X19742Y-40835D01*
X19757Y-40892D01*
X19785Y-40921D01*
X19814Y-40935D01*
X19871Y-40935D01*
X19900Y-40921D01*
X19928Y-40892D01*
X19942Y-40835D01*
X19942Y-40735D01*
X19928Y-40678D01*
X19900Y-40650D01*
X19871Y-40635D01*
X19442Y-40935D02*
X19542Y-40792D01*
X19614Y-40935D02*
X19614Y-40635D01*
X19500Y-40635D01*
X19471Y-40650D01*
X19457Y-40664D01*
X19442Y-40692D01*
X19442Y-40735D01*
X19457Y-40764D01*
X19471Y-40778D01*
X19500Y-40792D01*
X19614Y-40792D01*
X19157Y-40650D02*
X19185Y-40635D01*
X19228Y-40635D01*
X19271Y-40650D01*
X19300Y-40678D01*
X19314Y-40707D01*
X19328Y-40764D01*
X19328Y-40807D01*
X19314Y-40864D01*
X19300Y-40892D01*
X19271Y-40921D01*
X19228Y-40935D01*
X19200Y-40935D01*
X19157Y-40921D01*
X19142Y-40907D01*
X19142Y-40807D01*
X19200Y-40807D01*
X19014Y-40907D02*
X19000Y-40921D01*
X19014Y-40935D01*
X19028Y-40921D01*
X19014Y-40907D01*
X19014Y-40935D01*
X18700Y-40935D02*
X18800Y-40792D01*
X18871Y-40935D02*
X18871Y-40635D01*
X18757Y-40635D01*
X18728Y-40650D01*
X18714Y-40664D01*
X18700Y-40692D01*
X18700Y-40735D01*
X18714Y-40764D01*
X18728Y-40778D01*
X18757Y-40792D01*
X18871Y-40792D01*
X18571Y-40778D02*
X18471Y-40778D01*
X18428Y-40935D02*
X18571Y-40935D01*
X18571Y-40635D01*
X18428Y-40635D01*
X18299Y-40935D02*
X18299Y-40635D01*
X18228Y-40635D01*
X18185Y-40650D01*
X18157Y-40678D01*
X18142Y-40707D01*
X18128Y-40764D01*
X18128Y-40807D01*
X18142Y-40864D01*
X18157Y-40892D01*
X18185Y-40921D01*
X18228Y-40935D01*
X18299Y-40935D01*
X17999Y-40907D02*
X17985Y-40921D01*
X17999Y-40935D01*
X18014Y-40921D01*
X17999Y-40907D01*
X17999Y-40935D01*
X17757Y-40778D02*
X17714Y-40792D01*
X17700Y-40807D01*
X17685Y-40835D01*
X17685Y-40878D01*
X17700Y-40907D01*
X17714Y-40921D01*
X17742Y-40935D01*
X17857Y-40935D01*
X17857Y-40635D01*
X17757Y-40635D01*
X17728Y-40650D01*
X17714Y-40664D01*
X17700Y-40692D01*
X17700Y-40721D01*
X17714Y-40750D01*
X17728Y-40764D01*
X17757Y-40778D01*
X17857Y-40778D01*
X17385Y-40935D02*
X17485Y-40792D01*
X17557Y-40935D02*
X17557Y-40635D01*
X17442Y-40635D01*
X17414Y-40650D01*
X17400Y-40664D01*
X17385Y-40692D01*
X17385Y-40735D01*
X17400Y-40764D01*
X17414Y-40778D01*
X17442Y-40792D01*
X17557Y-40792D01*
X17257Y-40935D02*
X17257Y-40635D01*
X17085Y-40935D01*
X17085Y-40635D01*
X16942Y-40907D02*
X16928Y-40921D01*
X16942Y-40935D01*
X16957Y-40921D01*
X16942Y-40907D01*
X16942Y-40935D01*
X16699Y-40778D02*
X16657Y-40792D01*
X16642Y-40807D01*
X16628Y-40835D01*
X16628Y-40878D01*
X16642Y-40907D01*
X16657Y-40921D01*
X16685Y-40935D01*
X16799Y-40935D01*
X16799Y-40635D01*
X16699Y-40635D01*
X16671Y-40650D01*
X16657Y-40664D01*
X16642Y-40692D01*
X16642Y-40721D01*
X16657Y-40750D01*
X16671Y-40764D01*
X16699Y-40778D01*
X16799Y-40778D01*
X16357Y-40935D02*
X16499Y-40935D01*
X16499Y-40635D01*
X16257Y-40935D02*
X16257Y-40635D01*
X16085Y-40935D02*
X16214Y-40764D01*
X16085Y-40635D02*
X16257Y-40807D01*
X22892Y-43132D02*
X22907Y-43146D01*
X22950Y-43160D01*
X22978Y-43160D01*
X23021Y-43146D01*
X23050Y-43117D01*
X23064Y-43089D01*
X23078Y-43032D01*
X23078Y-42989D01*
X23064Y-42932D01*
X23050Y-42903D01*
X23021Y-42875D01*
X22978Y-42860D01*
X22950Y-42860D01*
X22907Y-42875D01*
X22892Y-42889D01*
X22792Y-42860D02*
X22607Y-42860D01*
X22707Y-42975D01*
X22664Y-42975D01*
X22635Y-42989D01*
X22621Y-43003D01*
X22607Y-43032D01*
X22607Y-43103D01*
X22621Y-43132D01*
X22635Y-43146D01*
X22664Y-43160D01*
X22750Y-43160D01*
X22778Y-43146D01*
X22792Y-43132D01*
X22321Y-43160D02*
X22492Y-43160D01*
X22407Y-43160D02*
X22407Y-42860D01*
X22435Y-42903D01*
X22464Y-42932D01*
X22492Y-42946D01*
X29278Y-31835D02*
X29278Y-32078D01*
X29264Y-32107D01*
X29250Y-32121D01*
X29221Y-32135D01*
X29164Y-32135D01*
X29135Y-32121D01*
X29121Y-32107D01*
X29107Y-32078D01*
X29107Y-31835D01*
X28978Y-31864D02*
X28964Y-31850D01*
X28935Y-31835D01*
X28864Y-31835D01*
X28835Y-31850D01*
X28821Y-31864D01*
X28807Y-31892D01*
X28807Y-31921D01*
X28821Y-31964D01*
X28992Y-32135D01*
X28807Y-32135D01*
X45771Y-32910D02*
X45771Y-32610D01*
X45657Y-32610D01*
X45628Y-32625D01*
X45614Y-32639D01*
X45600Y-32667D01*
X45600Y-32710D01*
X45614Y-32739D01*
X45628Y-32753D01*
X45657Y-32767D01*
X45771Y-32767D01*
X45342Y-32710D02*
X45342Y-32910D01*
X45414Y-32596D02*
X45485Y-32810D01*
X45300Y-32810D01*
X38471Y-31510D02*
X38471Y-31210D01*
X38357Y-31210D01*
X38328Y-31225D01*
X38314Y-31239D01*
X38300Y-31267D01*
X38300Y-31310D01*
X38314Y-31339D01*
X38328Y-31353D01*
X38357Y-31367D01*
X38471Y-31367D01*
X38071Y-31353D02*
X38028Y-31367D01*
X38014Y-31382D01*
X38000Y-31410D01*
X38000Y-31453D01*
X38014Y-31482D01*
X38028Y-31496D01*
X38057Y-31510D01*
X38171Y-31510D01*
X38171Y-31210D01*
X38071Y-31210D01*
X38042Y-31225D01*
X38028Y-31239D01*
X38014Y-31267D01*
X38014Y-31296D01*
X38028Y-31325D01*
X38042Y-31339D01*
X38071Y-31353D01*
X38171Y-31353D01*
X37885Y-31239D02*
X37871Y-31225D01*
X37842Y-31210D01*
X37771Y-31210D01*
X37742Y-31225D01*
X37728Y-31239D01*
X37714Y-31267D01*
X37714Y-31296D01*
X37728Y-31339D01*
X37900Y-31510D01*
X37714Y-31510D01*
X40014Y-36340D02*
X39871Y-36340D01*
X40042Y-36425D02*
X39942Y-36125D01*
X39842Y-36425D01*
X39685Y-36125D02*
X39657Y-36125D01*
X39628Y-36140D01*
X39614Y-36154D01*
X39599Y-36182D01*
X39585Y-36240D01*
X39585Y-36311D01*
X39599Y-36368D01*
X39614Y-36397D01*
X39628Y-36411D01*
X39657Y-36425D01*
X39685Y-36425D01*
X39714Y-36411D01*
X39728Y-36397D01*
X39742Y-36368D01*
X39757Y-36311D01*
X39757Y-36240D01*
X39742Y-36182D01*
X39728Y-36154D01*
X39714Y-36140D01*
X39685Y-36125D01*
X41192Y-36125D02*
X40992Y-36425D01*
X40992Y-36125D02*
X41192Y-36425D01*
X40778Y-36268D02*
X40735Y-36282D01*
X40721Y-36297D01*
X40707Y-36325D01*
X40707Y-36368D01*
X40721Y-36397D01*
X40735Y-36411D01*
X40764Y-36425D01*
X40878Y-36425D01*
X40878Y-36125D01*
X40778Y-36125D01*
X40750Y-36140D01*
X40735Y-36154D01*
X40721Y-36182D01*
X40721Y-36211D01*
X40735Y-36240D01*
X40750Y-36254D01*
X40778Y-36268D01*
X40878Y-36268D01*
X40607Y-36125D02*
X40421Y-36125D01*
X40521Y-36240D01*
X40478Y-36240D01*
X40450Y-36254D01*
X40435Y-36268D01*
X40421Y-36297D01*
X40421Y-36368D01*
X40435Y-36397D01*
X40450Y-36411D01*
X40478Y-36425D01*
X40564Y-36425D01*
X40592Y-36411D01*
X40607Y-36397D01*
X28428Y-37260D02*
X28428Y-37503D01*
X28414Y-37532D01*
X28400Y-37546D01*
X28371Y-37560D01*
X28314Y-37560D01*
X28285Y-37546D01*
X28271Y-37532D01*
X28257Y-37503D01*
X28257Y-37260D01*
X28142Y-37260D02*
X27957Y-37260D01*
X28057Y-37375D01*
X28014Y-37375D01*
X27985Y-37389D01*
X27971Y-37403D01*
X27957Y-37432D01*
X27957Y-37503D01*
X27971Y-37532D01*
X27985Y-37546D01*
X28014Y-37560D01*
X28100Y-37560D01*
X28128Y-37546D01*
X28142Y-37532D01*
X36850Y-22635D02*
X36950Y-22492D01*
X37021Y-22635D02*
X37021Y-22335D01*
X36907Y-22335D01*
X36878Y-22350D01*
X36864Y-22364D01*
X36850Y-22392D01*
X36850Y-22435D01*
X36864Y-22464D01*
X36878Y-22478D01*
X36907Y-22492D01*
X37021Y-22492D01*
X36678Y-22464D02*
X36707Y-22450D01*
X36721Y-22435D01*
X36735Y-22407D01*
X36735Y-22392D01*
X36721Y-22364D01*
X36707Y-22350D01*
X36678Y-22335D01*
X36621Y-22335D01*
X36592Y-22350D01*
X36578Y-22364D01*
X36564Y-22392D01*
X36564Y-22407D01*
X36578Y-22435D01*
X36592Y-22450D01*
X36621Y-22464D01*
X36678Y-22464D01*
X36707Y-22478D01*
X36721Y-22492D01*
X36735Y-22521D01*
X36735Y-22578D01*
X36721Y-22607D01*
X36707Y-22621D01*
X36678Y-22635D01*
X36621Y-22635D01*
X36592Y-22621D01*
X36578Y-22607D01*
X36564Y-22578D01*
X36564Y-22521D01*
X36578Y-22492D01*
X36592Y-22478D01*
X36621Y-22464D01*
X41342Y-24332D02*
X41357Y-24346D01*
X41400Y-24360D01*
X41428Y-24360D01*
X41471Y-24346D01*
X41500Y-24317D01*
X41514Y-24289D01*
X41528Y-24232D01*
X41528Y-24189D01*
X41514Y-24132D01*
X41500Y-24103D01*
X41471Y-24075D01*
X41428Y-24060D01*
X41400Y-24060D01*
X41357Y-24075D01*
X41342Y-24089D01*
X41242Y-24060D02*
X41057Y-24060D01*
X41157Y-24175D01*
X41114Y-24175D01*
X41085Y-24189D01*
X41071Y-24203D01*
X41057Y-24232D01*
X41057Y-24303D01*
X41071Y-24332D01*
X41085Y-24346D01*
X41114Y-24360D01*
X41200Y-24360D01*
X41228Y-24346D01*
X41242Y-24332D01*
X40942Y-24089D02*
X40928Y-24075D01*
X40900Y-24060D01*
X40828Y-24060D01*
X40800Y-24075D01*
X40785Y-24089D01*
X40771Y-24117D01*
X40771Y-24146D01*
X40785Y-24189D01*
X40957Y-24360D01*
X40771Y-24360D01*
X27882Y-41235D02*
X27982Y-41092D01*
X28054Y-41235D02*
X28054Y-40935D01*
X27940Y-40935D01*
X27911Y-40950D01*
X27897Y-40964D01*
X27882Y-40992D01*
X27882Y-41035D01*
X27897Y-41064D01*
X27911Y-41078D01*
X27940Y-41092D01*
X28054Y-41092D01*
X27597Y-41235D02*
X27768Y-41235D01*
X27682Y-41235D02*
X27682Y-40935D01*
X27711Y-40978D01*
X27740Y-41007D01*
X27768Y-41021D01*
X27497Y-40935D02*
X27311Y-40935D01*
X27411Y-41050D01*
X27368Y-41050D01*
X27340Y-41064D01*
X27325Y-41078D01*
X27311Y-41107D01*
X27311Y-41178D01*
X27325Y-41207D01*
X27340Y-41221D01*
X27368Y-41235D01*
X27454Y-41235D01*
X27482Y-41221D01*
X27497Y-41207D01*
X39317Y-24332D02*
X39332Y-24346D01*
X39375Y-24360D01*
X39403Y-24360D01*
X39446Y-24346D01*
X39475Y-24317D01*
X39489Y-24289D01*
X39503Y-24232D01*
X39503Y-24189D01*
X39489Y-24132D01*
X39475Y-24103D01*
X39446Y-24075D01*
X39403Y-24060D01*
X39375Y-24060D01*
X39332Y-24075D01*
X39317Y-24089D01*
X39217Y-24060D02*
X39032Y-24060D01*
X39132Y-24175D01*
X39089Y-24175D01*
X39060Y-24189D01*
X39046Y-24203D01*
X39032Y-24232D01*
X39032Y-24303D01*
X39046Y-24332D01*
X39060Y-24346D01*
X39089Y-24360D01*
X39175Y-24360D01*
X39203Y-24346D01*
X39217Y-24332D01*
X38932Y-24060D02*
X38746Y-24060D01*
X38846Y-24175D01*
X38803Y-24175D01*
X38775Y-24189D01*
X38760Y-24203D01*
X38746Y-24232D01*
X38746Y-24303D01*
X38760Y-24332D01*
X38775Y-24346D01*
X38803Y-24360D01*
X38889Y-24360D01*
X38917Y-24346D01*
X38932Y-24332D01*
X45667Y-30232D02*
X45682Y-30246D01*
X45725Y-30260D01*
X45753Y-30260D01*
X45796Y-30246D01*
X45825Y-30217D01*
X45839Y-30189D01*
X45853Y-30132D01*
X45853Y-30089D01*
X45839Y-30032D01*
X45825Y-30003D01*
X45796Y-29975D01*
X45753Y-29960D01*
X45725Y-29960D01*
X45682Y-29975D01*
X45667Y-29989D01*
X45567Y-29960D02*
X45382Y-29960D01*
X45482Y-30075D01*
X45439Y-30075D01*
X45410Y-30089D01*
X45396Y-30103D01*
X45382Y-30132D01*
X45382Y-30203D01*
X45396Y-30232D01*
X45410Y-30246D01*
X45439Y-30260D01*
X45525Y-30260D01*
X45553Y-30246D01*
X45567Y-30232D01*
X45125Y-30060D02*
X45125Y-30260D01*
X45196Y-29946D02*
X45267Y-30160D01*
X45082Y-30160D01*
X12935Y-33853D02*
X12635Y-33853D01*
X12635Y-33967D01*
X12650Y-33996D01*
X12664Y-34010D01*
X12692Y-34025D01*
X12735Y-34025D01*
X12764Y-34010D01*
X12778Y-33996D01*
X12792Y-33967D01*
X12792Y-33853D01*
X12635Y-34125D02*
X12635Y-34325D01*
X12935Y-34196D01*
X28428Y-33835D02*
X28428Y-34078D01*
X28414Y-34107D01*
X28400Y-34121D01*
X28371Y-34135D01*
X28314Y-34135D01*
X28285Y-34121D01*
X28271Y-34107D01*
X28257Y-34078D01*
X28257Y-33835D01*
X27985Y-33835D02*
X28042Y-33835D01*
X28071Y-33850D01*
X28085Y-33864D01*
X28114Y-33907D01*
X28128Y-33964D01*
X28128Y-34078D01*
X28114Y-34107D01*
X28100Y-34121D01*
X28071Y-34135D01*
X28014Y-34135D01*
X27985Y-34121D01*
X27971Y-34107D01*
X27957Y-34078D01*
X27957Y-34007D01*
X27971Y-33978D01*
X27985Y-33964D01*
X28014Y-33950D01*
X28071Y-33950D01*
X28100Y-33964D01*
X28114Y-33978D01*
X28128Y-34007D01*
X31192Y-36532D02*
X31207Y-36546D01*
X31250Y-36560D01*
X31278Y-36560D01*
X31321Y-36546D01*
X31350Y-36517D01*
X31364Y-36489D01*
X31378Y-36432D01*
X31378Y-36389D01*
X31364Y-36332D01*
X31350Y-36303D01*
X31321Y-36275D01*
X31278Y-36260D01*
X31250Y-36260D01*
X31207Y-36275D01*
X31192Y-36289D01*
X31092Y-36260D02*
X30907Y-36260D01*
X31007Y-36375D01*
X30964Y-36375D01*
X30935Y-36389D01*
X30921Y-36403D01*
X30907Y-36432D01*
X30907Y-36503D01*
X30921Y-36532D01*
X30935Y-36546D01*
X30964Y-36560D01*
X31050Y-36560D01*
X31078Y-36546D01*
X31092Y-36532D01*
X30635Y-36260D02*
X30778Y-36260D01*
X30792Y-36403D01*
X30778Y-36389D01*
X30750Y-36375D01*
X30678Y-36375D01*
X30650Y-36389D01*
X30635Y-36403D01*
X30621Y-36432D01*
X30621Y-36503D01*
X30635Y-36532D01*
X30650Y-36546D01*
X30678Y-36560D01*
X30750Y-36560D01*
X30778Y-36546D01*
X30792Y-36532D01*
X41958Y-20945D02*
X41958Y-21188D01*
X41944Y-21217D01*
X41930Y-21231D01*
X41901Y-21245D01*
X41844Y-21245D01*
X41815Y-21231D01*
X41801Y-21217D01*
X41787Y-21188D01*
X41787Y-20945D01*
X41501Y-20945D02*
X41644Y-20945D01*
X41658Y-21088D01*
X41644Y-21074D01*
X41615Y-21060D01*
X41544Y-21060D01*
X41515Y-21074D01*
X41501Y-21088D01*
X41487Y-21117D01*
X41487Y-21188D01*
X41501Y-21217D01*
X41515Y-21231D01*
X41544Y-21245D01*
X41615Y-21245D01*
X41644Y-21231D01*
X41658Y-21217D01*
X25450Y-31607D02*
X25464Y-31621D01*
X25507Y-31635D01*
X25535Y-31635D01*
X25578Y-31621D01*
X25607Y-31592D01*
X25621Y-31564D01*
X25635Y-31507D01*
X25635Y-31464D01*
X25621Y-31407D01*
X25607Y-31378D01*
X25578Y-31350D01*
X25535Y-31335D01*
X25507Y-31335D01*
X25464Y-31350D01*
X25450Y-31364D01*
X25192Y-31335D02*
X25250Y-31335D01*
X25278Y-31350D01*
X25292Y-31364D01*
X25321Y-31407D01*
X25335Y-31464D01*
X25335Y-31578D01*
X25321Y-31607D01*
X25307Y-31621D01*
X25278Y-31635D01*
X25221Y-31635D01*
X25192Y-31621D01*
X25178Y-31607D01*
X25164Y-31578D01*
X25164Y-31507D01*
X25178Y-31478D01*
X25192Y-31464D01*
X25221Y-31450D01*
X25278Y-31450D01*
X25307Y-31464D01*
X25321Y-31478D01*
X25335Y-31507D01*
X25250Y-32382D02*
X25264Y-32396D01*
X25307Y-32410D01*
X25335Y-32410D01*
X25378Y-32396D01*
X25407Y-32367D01*
X25421Y-32339D01*
X25435Y-32282D01*
X25435Y-32239D01*
X25421Y-32182D01*
X25407Y-32153D01*
X25378Y-32125D01*
X25335Y-32110D01*
X25307Y-32110D01*
X25264Y-32125D01*
X25250Y-32139D01*
X25107Y-32410D02*
X25050Y-32410D01*
X25021Y-32396D01*
X25007Y-32382D01*
X24978Y-32339D01*
X24964Y-32282D01*
X24964Y-32167D01*
X24978Y-32139D01*
X24992Y-32125D01*
X25021Y-32110D01*
X25078Y-32110D01*
X25107Y-32125D01*
X25121Y-32139D01*
X25135Y-32167D01*
X25135Y-32239D01*
X25121Y-32267D01*
X25107Y-32282D01*
X25078Y-32296D01*
X25021Y-32296D01*
X24992Y-32282D01*
X24978Y-32267D01*
X24964Y-32239D01*
X25292Y-29160D02*
X25092Y-29460D01*
X25092Y-29160D02*
X25292Y-29460D01*
X24821Y-29460D02*
X24992Y-29460D01*
X24907Y-29460D02*
X24907Y-29160D01*
X24935Y-29203D01*
X24964Y-29232D01*
X24992Y-29246D01*
X26953Y-29289D02*
X26982Y-29275D01*
X26996Y-29260D01*
X27010Y-29232D01*
X27010Y-29217D01*
X26996Y-29189D01*
X26982Y-29175D01*
X26953Y-29160D01*
X26896Y-29160D01*
X26867Y-29175D01*
X26853Y-29189D01*
X26839Y-29217D01*
X26839Y-29232D01*
X26853Y-29260D01*
X26867Y-29275D01*
X26896Y-29289D01*
X26953Y-29289D01*
X26982Y-29303D01*
X26996Y-29317D01*
X27010Y-29346D01*
X27010Y-29403D01*
X26996Y-29432D01*
X26982Y-29446D01*
X26953Y-29460D01*
X26896Y-29460D01*
X26867Y-29446D01*
X26853Y-29432D01*
X26839Y-29403D01*
X26839Y-29346D01*
X26853Y-29317D01*
X26867Y-29303D01*
X26896Y-29289D01*
X26710Y-29460D02*
X26710Y-29160D01*
X26610Y-29375D01*
X26510Y-29160D01*
X26510Y-29460D01*
X26367Y-29460D02*
X26367Y-29160D01*
X26367Y-29303D02*
X26196Y-29303D01*
X26196Y-29460D02*
X26196Y-29160D01*
X26082Y-29260D02*
X25925Y-29260D01*
X26082Y-29460D01*
X25925Y-29460D01*
X45037Y-21115D02*
X44837Y-21415D01*
X44837Y-21115D02*
X45037Y-21415D01*
X44737Y-21144D02*
X44723Y-21130D01*
X44695Y-21115D01*
X44623Y-21115D01*
X44595Y-21130D01*
X44580Y-21144D01*
X44566Y-21172D01*
X44566Y-21201D01*
X44580Y-21244D01*
X44752Y-21415D01*
X44566Y-21415D01*
X45037Y-21585D02*
X44852Y-21585D01*
X44952Y-21700D01*
X44909Y-21700D01*
X44880Y-21714D01*
X44866Y-21728D01*
X44852Y-21757D01*
X44852Y-21828D01*
X44866Y-21857D01*
X44880Y-21871D01*
X44909Y-21885D01*
X44994Y-21885D01*
X45023Y-21871D01*
X45037Y-21857D01*
X44737Y-21614D02*
X44723Y-21600D01*
X44694Y-21585D01*
X44623Y-21585D01*
X44594Y-21600D01*
X44580Y-21614D01*
X44566Y-21642D01*
X44566Y-21671D01*
X44580Y-21714D01*
X44752Y-21885D01*
X44566Y-21885D01*
X44437Y-21857D02*
X44423Y-21871D01*
X44437Y-21885D01*
X44452Y-21871D01*
X44437Y-21857D01*
X44437Y-21885D01*
X44323Y-21585D02*
X44123Y-21585D01*
X44252Y-21885D01*
X43880Y-21585D02*
X43937Y-21585D01*
X43966Y-21600D01*
X43980Y-21614D01*
X44009Y-21657D01*
X44023Y-21714D01*
X44023Y-21828D01*
X44009Y-21857D01*
X43995Y-21871D01*
X43966Y-21885D01*
X43909Y-21885D01*
X43880Y-21871D01*
X43866Y-21857D01*
X43852Y-21828D01*
X43852Y-21757D01*
X43866Y-21728D01*
X43880Y-21714D01*
X43909Y-21700D01*
X43966Y-21700D01*
X43995Y-21714D01*
X44009Y-21728D01*
X44023Y-21757D01*
X43680Y-21714D02*
X43709Y-21700D01*
X43723Y-21685D01*
X43737Y-21657D01*
X43737Y-21642D01*
X43723Y-21614D01*
X43709Y-21600D01*
X43680Y-21585D01*
X43623Y-21585D01*
X43595Y-21600D01*
X43580Y-21614D01*
X43566Y-21642D01*
X43566Y-21657D01*
X43580Y-21685D01*
X43595Y-21700D01*
X43623Y-21714D01*
X43680Y-21714D01*
X43709Y-21728D01*
X43723Y-21742D01*
X43737Y-21771D01*
X43737Y-21828D01*
X43723Y-21857D01*
X43709Y-21871D01*
X43680Y-21885D01*
X43623Y-21885D01*
X43595Y-21871D01*
X43580Y-21857D01*
X43566Y-21828D01*
X43566Y-21771D01*
X43580Y-21742D01*
X43595Y-21728D01*
X43623Y-21714D01*
X43437Y-21885D02*
X43437Y-21585D01*
X43409Y-21771D02*
X43323Y-21885D01*
X43323Y-21685D02*
X43437Y-21800D01*
X43195Y-21885D02*
X43195Y-21585D01*
X43195Y-21728D02*
X43023Y-21728D01*
X43023Y-21885D02*
X43023Y-21585D01*
X42909Y-21685D02*
X42752Y-21685D01*
X42909Y-21885D01*
X42752Y-21885D01*
X13646Y-28060D02*
X13646Y-27760D01*
X13532Y-27760D01*
X13503Y-27775D01*
X13489Y-27789D01*
X13475Y-27817D01*
X13475Y-27860D01*
X13489Y-27889D01*
X13503Y-27903D01*
X13532Y-27917D01*
X13646Y-27917D01*
X13203Y-27760D02*
X13346Y-27760D01*
X13360Y-27903D01*
X13346Y-27889D01*
X13317Y-27875D01*
X13246Y-27875D01*
X13217Y-27889D01*
X13203Y-27903D01*
X13189Y-27932D01*
X13189Y-28003D01*
X13203Y-28032D01*
X13217Y-28046D01*
X13246Y-28060D01*
X13317Y-28060D01*
X13346Y-28046D01*
X13360Y-28032D01*
G54D15*
X13524Y-28863D02*
X13524Y-29168D01*
X13524Y-30831D02*
X13524Y-31136D01*
X13676Y-30984D02*
X13372Y-30984D01*
G54D12*
X38403Y-21160D02*
X38403Y-21403D01*
X38389Y-21432D01*
X38375Y-21446D01*
X38346Y-21460D01*
X38289Y-21460D01*
X38260Y-21446D01*
X38246Y-21432D01*
X38232Y-21403D01*
X38232Y-21160D01*
X37946Y-21160D02*
X38089Y-21160D01*
X38103Y-21303D01*
X38089Y-21289D01*
X38060Y-21275D01*
X37989Y-21275D01*
X37960Y-21289D01*
X37946Y-21303D01*
X37932Y-21332D01*
X37932Y-21403D01*
X37946Y-21432D01*
X37960Y-21446D01*
X37989Y-21460D01*
X38060Y-21460D01*
X38089Y-21446D01*
X38103Y-21432D01*
X37589Y-21146D02*
X37846Y-21532D01*
X37517Y-21160D02*
X37317Y-21160D01*
X37446Y-21460D01*
X32599Y-24171D02*
X32557Y-24185D01*
X32485Y-24185D01*
X32457Y-24171D01*
X32442Y-24157D01*
X32428Y-24128D01*
X32428Y-24100D01*
X32442Y-24071D01*
X32457Y-24057D01*
X32485Y-24042D01*
X32542Y-24028D01*
X32571Y-24014D01*
X32585Y-24000D01*
X32599Y-23971D01*
X32599Y-23942D01*
X32585Y-23914D01*
X32571Y-23900D01*
X32542Y-23885D01*
X32471Y-23885D01*
X32428Y-23900D01*
X32157Y-24185D02*
X32299Y-24185D01*
X32299Y-23885D01*
X31900Y-24185D02*
X32071Y-24185D01*
X31985Y-24185D02*
X31985Y-23885D01*
X32014Y-23928D01*
X32042Y-23957D01*
X32071Y-23971D01*
X36049Y-24171D02*
X36007Y-24185D01*
X35935Y-24185D01*
X35907Y-24171D01*
X35892Y-24157D01*
X35878Y-24128D01*
X35878Y-24100D01*
X35892Y-24071D01*
X35907Y-24057D01*
X35935Y-24042D01*
X35992Y-24028D01*
X36021Y-24014D01*
X36035Y-24000D01*
X36049Y-23971D01*
X36049Y-23942D01*
X36035Y-23914D01*
X36021Y-23900D01*
X35992Y-23885D01*
X35921Y-23885D01*
X35878Y-23900D01*
X35821Y-24214D02*
X35592Y-24214D01*
X35378Y-24185D02*
X35521Y-24185D01*
X35521Y-23885D01*
X35278Y-24185D02*
X35278Y-23885D01*
X35135Y-24185D02*
X35135Y-23885D01*
X34964Y-24185D01*
X34964Y-23885D01*
X34821Y-24185D02*
X34821Y-23885D01*
X34650Y-24185D02*
X34778Y-24014D01*
X34650Y-23885D02*
X34821Y-24057D01*
X16671Y-19510D02*
X16671Y-19210D01*
X16557Y-19210D01*
X16528Y-19225D01*
X16514Y-19239D01*
X16500Y-19267D01*
X16500Y-19310D01*
X16514Y-19339D01*
X16528Y-19353D01*
X16557Y-19367D01*
X16671Y-19367D01*
X16242Y-19210D02*
X16300Y-19210D01*
X16328Y-19225D01*
X16342Y-19239D01*
X16371Y-19282D01*
X16385Y-19339D01*
X16385Y-19453D01*
X16371Y-19482D01*
X16357Y-19496D01*
X16328Y-19510D01*
X16271Y-19510D01*
X16242Y-19496D01*
X16228Y-19482D01*
X16214Y-19453D01*
X16214Y-19382D01*
X16228Y-19353D01*
X16242Y-19339D01*
X16271Y-19325D01*
X16328Y-19325D01*
X16357Y-19339D01*
X16371Y-19353D01*
X16385Y-19382D01*
X17117Y-19710D02*
X17017Y-20010D01*
X16917Y-19710D01*
X16889Y-20039D02*
X16660Y-20039D01*
X16589Y-20010D02*
X16589Y-19710D01*
X16446Y-20010D02*
X16446Y-19710D01*
X16275Y-20010D01*
X16275Y-19710D01*
X39388Y-32325D02*
X39388Y-32568D01*
X39374Y-32597D01*
X39360Y-32611D01*
X39331Y-32625D01*
X39274Y-32625D01*
X39245Y-32611D01*
X39231Y-32597D01*
X39217Y-32568D01*
X39217Y-32325D01*
X38945Y-32425D02*
X38945Y-32625D01*
X39017Y-32311D02*
X39088Y-32525D01*
X38902Y-32525D01*
X41942Y-33685D02*
X41771Y-33685D01*
X41857Y-33985D02*
X41857Y-33685D01*
X41699Y-33685D02*
X41499Y-33985D01*
X41499Y-33685D02*
X41699Y-33985D01*
X41399Y-33971D02*
X41357Y-33985D01*
X41285Y-33985D01*
X41257Y-33971D01*
X41242Y-33957D01*
X41228Y-33928D01*
X41228Y-33900D01*
X41242Y-33871D01*
X41257Y-33857D01*
X41285Y-33842D01*
X41342Y-33828D01*
X41371Y-33814D01*
X41385Y-33800D01*
X41399Y-33771D01*
X41399Y-33742D01*
X41385Y-33714D01*
X41371Y-33700D01*
X41342Y-33685D01*
X41271Y-33685D01*
X41228Y-33700D01*
X41042Y-33685D02*
X41014Y-33685D01*
X40985Y-33700D01*
X40971Y-33714D01*
X40957Y-33742D01*
X40942Y-33800D01*
X40942Y-33871D01*
X40957Y-33928D01*
X40971Y-33957D01*
X40985Y-33971D01*
X41014Y-33985D01*
X41042Y-33985D01*
X41071Y-33971D01*
X41085Y-33957D01*
X41099Y-33928D01*
X41114Y-33871D01*
X41114Y-33800D01*
X41099Y-33742D01*
X41085Y-33714D01*
X41071Y-33700D01*
X41042Y-33685D01*
X40657Y-33985D02*
X40828Y-33985D01*
X40742Y-33985D02*
X40742Y-33685D01*
X40771Y-33728D01*
X40800Y-33757D01*
X40828Y-33771D01*
X40471Y-33685D02*
X40442Y-33685D01*
X40414Y-33700D01*
X40400Y-33714D01*
X40385Y-33742D01*
X40371Y-33800D01*
X40371Y-33871D01*
X40385Y-33928D01*
X40400Y-33957D01*
X40414Y-33971D01*
X40442Y-33985D01*
X40471Y-33985D01*
X40500Y-33971D01*
X40514Y-33957D01*
X40528Y-33928D01*
X40542Y-33871D01*
X40542Y-33800D01*
X40528Y-33742D01*
X40514Y-33714D01*
X40500Y-33700D01*
X40471Y-33685D01*
X40200Y-33814D02*
X40228Y-33800D01*
X40242Y-33785D01*
X40257Y-33757D01*
X40257Y-33742D01*
X40242Y-33714D01*
X40228Y-33700D01*
X40200Y-33685D01*
X40142Y-33685D01*
X40114Y-33700D01*
X40100Y-33714D01*
X40085Y-33742D01*
X40085Y-33757D01*
X40100Y-33785D01*
X40114Y-33800D01*
X40142Y-33814D01*
X40200Y-33814D01*
X40228Y-33828D01*
X40242Y-33842D01*
X40257Y-33871D01*
X40257Y-33928D01*
X40242Y-33957D01*
X40228Y-33971D01*
X40200Y-33985D01*
X40142Y-33985D01*
X40114Y-33971D01*
X40100Y-33957D01*
X40085Y-33928D01*
X40085Y-33871D01*
X40100Y-33842D01*
X40114Y-33828D01*
X40142Y-33814D01*
X43953Y-27771D02*
X43910Y-27785D01*
X43839Y-27785D01*
X43810Y-27771D01*
X43796Y-27757D01*
X43782Y-27728D01*
X43782Y-27700D01*
X43796Y-27671D01*
X43810Y-27657D01*
X43839Y-27642D01*
X43896Y-27628D01*
X43925Y-27614D01*
X43939Y-27600D01*
X43953Y-27571D01*
X43953Y-27542D01*
X43939Y-27514D01*
X43925Y-27500D01*
X43896Y-27485D01*
X43825Y-27485D01*
X43782Y-27500D01*
X43653Y-27785D02*
X43653Y-27485D01*
X43582Y-27485D01*
X43539Y-27500D01*
X43510Y-27528D01*
X43496Y-27557D01*
X43482Y-27614D01*
X43482Y-27657D01*
X43496Y-27714D01*
X43510Y-27742D01*
X43539Y-27771D01*
X43582Y-27785D01*
X43653Y-27785D01*
X43196Y-27785D02*
X43367Y-27785D01*
X43282Y-27785D02*
X43282Y-27485D01*
X43310Y-27528D01*
X43339Y-27557D01*
X43367Y-27571D01*
X49351Y-23507D02*
X49365Y-23550D01*
X49365Y-23621D01*
X49351Y-23650D01*
X49337Y-23664D01*
X49308Y-23678D01*
X49280Y-23678D01*
X49251Y-23664D01*
X49237Y-23650D01*
X49222Y-23621D01*
X49208Y-23564D01*
X49194Y-23535D01*
X49180Y-23521D01*
X49151Y-23507D01*
X49122Y-23507D01*
X49094Y-23521D01*
X49080Y-23535D01*
X49065Y-23564D01*
X49065Y-23635D01*
X49080Y-23678D01*
X49365Y-23807D02*
X49065Y-23807D01*
X49065Y-23878D01*
X49080Y-23921D01*
X49108Y-23950D01*
X49137Y-23964D01*
X49194Y-23978D01*
X49237Y-23978D01*
X49294Y-23964D01*
X49322Y-23950D01*
X49351Y-23921D01*
X49365Y-23878D01*
X49365Y-23807D01*
X49394Y-24035D02*
X49394Y-24264D01*
X49337Y-24507D02*
X49351Y-24492D01*
X49365Y-24450D01*
X49365Y-24421D01*
X49351Y-24378D01*
X49322Y-24350D01*
X49294Y-24335D01*
X49237Y-24321D01*
X49194Y-24321D01*
X49137Y-24335D01*
X49108Y-24350D01*
X49080Y-24378D01*
X49065Y-24421D01*
X49065Y-24450D01*
X49080Y-24492D01*
X49094Y-24507D01*
X49280Y-24621D02*
X49280Y-24764D01*
X49365Y-24592D02*
X49065Y-24692D01*
X49365Y-24792D01*
X49365Y-25064D02*
X49222Y-24964D01*
X49365Y-24892D02*
X49065Y-24892D01*
X49065Y-25007D01*
X49080Y-25035D01*
X49094Y-25050D01*
X49122Y-25064D01*
X49165Y-25064D01*
X49194Y-25050D01*
X49208Y-25035D01*
X49222Y-25007D01*
X49222Y-24892D01*
X49365Y-25192D02*
X49065Y-25192D01*
X49065Y-25264D01*
X49080Y-25307D01*
X49108Y-25335D01*
X49137Y-25350D01*
X49194Y-25364D01*
X49237Y-25364D01*
X49294Y-25350D01*
X49322Y-25335D01*
X49351Y-25307D01*
X49365Y-25264D01*
X49365Y-25192D01*
X49394Y-25421D02*
X49394Y-25650D01*
X49365Y-25721D02*
X49065Y-25721D01*
X49280Y-25821D01*
X49065Y-25921D01*
X49365Y-25921D01*
X49365Y-26064D02*
X49065Y-26064D01*
X49337Y-26378D02*
X49351Y-26364D01*
X49365Y-26321D01*
X49365Y-26292D01*
X49351Y-26250D01*
X49322Y-26221D01*
X49294Y-26207D01*
X49237Y-26192D01*
X49194Y-26192D01*
X49137Y-26207D01*
X49108Y-26221D01*
X49080Y-26250D01*
X49065Y-26292D01*
X49065Y-26321D01*
X49080Y-26364D01*
X49094Y-26378D01*
X49365Y-26678D02*
X49222Y-26578D01*
X49365Y-26507D02*
X49065Y-26507D01*
X49065Y-26621D01*
X49080Y-26650D01*
X49094Y-26664D01*
X49122Y-26678D01*
X49165Y-26678D01*
X49194Y-26664D01*
X49208Y-26650D01*
X49222Y-26621D01*
X49222Y-26507D01*
X49065Y-26864D02*
X49065Y-26921D01*
X49080Y-26950D01*
X49108Y-26978D01*
X49165Y-26992D01*
X49265Y-26992D01*
X49322Y-26978D01*
X49351Y-26950D01*
X49365Y-26921D01*
X49365Y-26864D01*
X49351Y-26835D01*
X49322Y-26807D01*
X49265Y-26792D01*
X49165Y-26792D01*
X49108Y-26807D01*
X49080Y-26835D01*
X49065Y-26864D01*
G54D17*
X41142Y-30285D02*
X41242Y-30142D01*
X41314Y-30285D02*
X41314Y-29985D01*
X41200Y-29985D01*
X41171Y-30000D01*
X41157Y-30014D01*
X41142Y-30042D01*
X41142Y-30085D01*
X41157Y-30114D01*
X41171Y-30128D01*
X41200Y-30142D01*
X41314Y-30142D01*
X40857Y-30285D02*
X41028Y-30285D01*
X40942Y-30285D02*
X40942Y-29985D01*
X40971Y-30028D01*
X41000Y-30057D01*
X41028Y-30071D01*
X40600Y-30085D02*
X40600Y-30285D01*
X40671Y-29971D02*
X40742Y-30185D01*
X40557Y-30185D01*
G54D12*
X32571Y-23285D02*
X32571Y-22985D01*
X32500Y-22985D01*
X32457Y-23000D01*
X32428Y-23028D01*
X32414Y-23057D01*
X32400Y-23114D01*
X32400Y-23157D01*
X32414Y-23214D01*
X32428Y-23242D01*
X32457Y-23271D01*
X32500Y-23285D01*
X32571Y-23285D01*
X32285Y-23014D02*
X32271Y-23000D01*
X32242Y-22985D01*
X32171Y-22985D01*
X32142Y-23000D01*
X32128Y-23014D01*
X32114Y-23042D01*
X32114Y-23071D01*
X32128Y-23114D01*
X32300Y-23285D01*
X32114Y-23285D01*
X34020Y-21771D02*
X33985Y-21785D01*
X33928Y-21785D01*
X33905Y-21771D01*
X33894Y-21757D01*
X33882Y-21728D01*
X33882Y-21700D01*
X33894Y-21671D01*
X33905Y-21657D01*
X33928Y-21642D01*
X33974Y-21628D01*
X33997Y-21614D01*
X34008Y-21600D01*
X34020Y-21571D01*
X34020Y-21542D01*
X34008Y-21514D01*
X33997Y-21500D01*
X33974Y-21485D01*
X33917Y-21485D01*
X33882Y-21500D01*
X33802Y-21485D02*
X33745Y-21785D01*
X33700Y-21571D01*
X33654Y-21785D01*
X33597Y-21485D01*
X33402Y-21485D02*
X33448Y-21485D01*
X33471Y-21500D01*
X33482Y-21514D01*
X33505Y-21557D01*
X33517Y-21614D01*
X33517Y-21728D01*
X33505Y-21757D01*
X33494Y-21771D01*
X33471Y-21785D01*
X33425Y-21785D01*
X33402Y-21771D01*
X33391Y-21757D01*
X33380Y-21728D01*
X33380Y-21657D01*
X33391Y-21628D01*
X33402Y-21614D01*
X33425Y-21600D01*
X33471Y-21600D01*
X33494Y-21614D01*
X33505Y-21628D01*
X33517Y-21657D01*
X34385Y-20821D02*
X34342Y-20835D01*
X34271Y-20835D01*
X34242Y-20821D01*
X34228Y-20807D01*
X34214Y-20778D01*
X34214Y-20750D01*
X34228Y-20721D01*
X34242Y-20707D01*
X34271Y-20692D01*
X34328Y-20678D01*
X34357Y-20664D01*
X34371Y-20650D01*
X34385Y-20621D01*
X34385Y-20592D01*
X34371Y-20564D01*
X34357Y-20550D01*
X34328Y-20535D01*
X34257Y-20535D01*
X34214Y-20550D01*
X34114Y-20535D02*
X34042Y-20835D01*
X33985Y-20621D01*
X33928Y-20835D01*
X33857Y-20535D01*
X33814Y-20864D02*
X33585Y-20864D01*
X33457Y-20535D02*
X33400Y-20535D01*
X33371Y-20550D01*
X33342Y-20578D01*
X33328Y-20635D01*
X33328Y-20735D01*
X33342Y-20792D01*
X33371Y-20821D01*
X33400Y-20835D01*
X33457Y-20835D01*
X33485Y-20821D01*
X33514Y-20792D01*
X33528Y-20735D01*
X33528Y-20635D01*
X33514Y-20578D01*
X33485Y-20550D01*
X33457Y-20535D01*
X33200Y-20835D02*
X33200Y-20535D01*
X33028Y-20835D01*
X33028Y-20535D01*
X43264Y-40275D02*
X43121Y-40275D01*
X43292Y-40360D02*
X43192Y-40060D01*
X43092Y-40360D01*
X42992Y-40360D02*
X42992Y-40060D01*
X42921Y-40060D01*
X42878Y-40075D01*
X42849Y-40103D01*
X42835Y-40132D01*
X42821Y-40189D01*
X42821Y-40232D01*
X42835Y-40289D01*
X42849Y-40317D01*
X42878Y-40346D01*
X42921Y-40360D01*
X42992Y-40360D01*
X42635Y-40060D02*
X42607Y-40060D01*
X42578Y-40075D01*
X42564Y-40089D01*
X42549Y-40117D01*
X42535Y-40175D01*
X42535Y-40246D01*
X42549Y-40303D01*
X42564Y-40332D01*
X42578Y-40346D01*
X42607Y-40360D01*
X42635Y-40360D01*
X42664Y-40346D01*
X42678Y-40332D01*
X42692Y-40303D01*
X42707Y-40246D01*
X42707Y-40175D01*
X42692Y-40117D01*
X42678Y-40089D01*
X42664Y-40075D01*
X42635Y-40060D01*
X44264Y-40275D02*
X44121Y-40275D01*
X44292Y-40360D02*
X44192Y-40060D01*
X44092Y-40360D01*
X43992Y-40360D02*
X43992Y-40060D01*
X43921Y-40060D01*
X43878Y-40075D01*
X43849Y-40103D01*
X43835Y-40132D01*
X43821Y-40189D01*
X43821Y-40232D01*
X43835Y-40289D01*
X43849Y-40317D01*
X43878Y-40346D01*
X43921Y-40360D01*
X43992Y-40360D01*
X43535Y-40360D02*
X43707Y-40360D01*
X43621Y-40360D02*
X43621Y-40060D01*
X43649Y-40103D01*
X43678Y-40132D01*
X43707Y-40146D01*
X45264Y-40275D02*
X45121Y-40275D01*
X45292Y-40360D02*
X45192Y-40060D01*
X45092Y-40360D01*
X44992Y-40360D02*
X44992Y-40060D01*
X44921Y-40060D01*
X44878Y-40075D01*
X44849Y-40103D01*
X44835Y-40132D01*
X44821Y-40189D01*
X44821Y-40232D01*
X44835Y-40289D01*
X44849Y-40317D01*
X44878Y-40346D01*
X44921Y-40360D01*
X44992Y-40360D01*
X44707Y-40089D02*
X44692Y-40075D01*
X44664Y-40060D01*
X44592Y-40060D01*
X44564Y-40075D01*
X44549Y-40089D01*
X44535Y-40117D01*
X44535Y-40146D01*
X44549Y-40189D01*
X44721Y-40360D01*
X44535Y-40360D01*
X46535Y-19053D02*
X46235Y-19053D01*
X46235Y-19167D01*
X46250Y-19196D01*
X46264Y-19210D01*
X46292Y-19225D01*
X46335Y-19225D01*
X46364Y-19210D01*
X46378Y-19196D01*
X46392Y-19167D01*
X46392Y-19053D01*
X46535Y-19353D02*
X46235Y-19353D01*
X46235Y-19425D01*
X46250Y-19467D01*
X46278Y-19496D01*
X46307Y-19510D01*
X46364Y-19525D01*
X46407Y-19525D01*
X46464Y-19510D01*
X46492Y-19496D01*
X46521Y-19467D01*
X46535Y-19425D01*
X46535Y-19353D01*
X46264Y-19639D02*
X46250Y-19653D01*
X46235Y-19682D01*
X46235Y-19753D01*
X46250Y-19782D01*
X46264Y-19796D01*
X46292Y-19810D01*
X46321Y-19810D01*
X46364Y-19796D01*
X46535Y-19625D01*
X46535Y-19810D01*
X44560Y-19053D02*
X44260Y-19053D01*
X44260Y-19167D01*
X44275Y-19196D01*
X44289Y-19210D01*
X44317Y-19225D01*
X44360Y-19225D01*
X44389Y-19210D01*
X44403Y-19196D01*
X44417Y-19167D01*
X44417Y-19053D01*
X44560Y-19353D02*
X44260Y-19353D01*
X44260Y-19425D01*
X44275Y-19467D01*
X44303Y-19496D01*
X44332Y-19510D01*
X44389Y-19525D01*
X44432Y-19525D01*
X44489Y-19510D01*
X44517Y-19496D01*
X44546Y-19467D01*
X44560Y-19425D01*
X44560Y-19353D01*
X44360Y-19782D02*
X44560Y-19782D01*
X44246Y-19710D02*
X44460Y-19639D01*
X44460Y-19825D01*
X43560Y-19053D02*
X43260Y-19053D01*
X43260Y-19167D01*
X43275Y-19196D01*
X43289Y-19210D01*
X43317Y-19225D01*
X43360Y-19225D01*
X43389Y-19210D01*
X43403Y-19196D01*
X43417Y-19167D01*
X43417Y-19053D01*
X43560Y-19353D02*
X43260Y-19353D01*
X43260Y-19425D01*
X43275Y-19467D01*
X43303Y-19496D01*
X43332Y-19510D01*
X43389Y-19525D01*
X43432Y-19525D01*
X43489Y-19510D01*
X43517Y-19496D01*
X43546Y-19467D01*
X43560Y-19425D01*
X43560Y-19353D01*
X43260Y-19796D02*
X43260Y-19653D01*
X43403Y-19639D01*
X43389Y-19653D01*
X43375Y-19682D01*
X43375Y-19753D01*
X43389Y-19782D01*
X43403Y-19796D01*
X43432Y-19810D01*
X43503Y-19810D01*
X43532Y-19796D01*
X43546Y-19782D01*
X43560Y-19753D01*
X43560Y-19682D01*
X43546Y-19653D01*
X43532Y-19639D01*
X42560Y-19078D02*
X42260Y-19078D01*
X42260Y-19192D01*
X42275Y-19221D01*
X42289Y-19235D01*
X42317Y-19250D01*
X42360Y-19250D01*
X42389Y-19235D01*
X42403Y-19221D01*
X42417Y-19192D01*
X42417Y-19078D01*
X42560Y-19378D02*
X42260Y-19378D01*
X42260Y-19450D01*
X42275Y-19492D01*
X42303Y-19521D01*
X42332Y-19535D01*
X42389Y-19550D01*
X42432Y-19550D01*
X42489Y-19535D01*
X42517Y-19521D01*
X42546Y-19492D01*
X42560Y-19450D01*
X42560Y-19378D01*
X42260Y-19807D02*
X42260Y-19750D01*
X42275Y-19721D01*
X42289Y-19707D01*
X42332Y-19678D01*
X42389Y-19664D01*
X42503Y-19664D01*
X42532Y-19678D01*
X42546Y-19692D01*
X42560Y-19721D01*
X42560Y-19778D01*
X42546Y-19807D01*
X42532Y-19821D01*
X42503Y-19835D01*
X42432Y-19835D01*
X42403Y-19821D01*
X42389Y-19807D01*
X42375Y-19778D01*
X42375Y-19721D01*
X42389Y-19692D01*
X42403Y-19678D01*
X42432Y-19664D01*
X41585Y-19078D02*
X41285Y-19078D01*
X41285Y-19192D01*
X41300Y-19221D01*
X41314Y-19235D01*
X41342Y-19250D01*
X41385Y-19250D01*
X41414Y-19235D01*
X41428Y-19221D01*
X41442Y-19192D01*
X41442Y-19078D01*
X41585Y-19378D02*
X41285Y-19378D01*
X41285Y-19450D01*
X41300Y-19492D01*
X41328Y-19521D01*
X41357Y-19535D01*
X41414Y-19550D01*
X41457Y-19550D01*
X41514Y-19535D01*
X41542Y-19521D01*
X41571Y-19492D01*
X41585Y-19450D01*
X41585Y-19378D01*
X41285Y-19650D02*
X41285Y-19850D01*
X41585Y-19721D01*
X40135Y-19253D02*
X39835Y-19253D01*
X39835Y-19367D01*
X39850Y-19396D01*
X39864Y-19410D01*
X39892Y-19425D01*
X39935Y-19425D01*
X39964Y-19410D01*
X39978Y-19396D01*
X39992Y-19367D01*
X39992Y-19253D01*
X40135Y-19553D02*
X39835Y-19553D01*
X39835Y-19625D01*
X39850Y-19667D01*
X39878Y-19696D01*
X39907Y-19710D01*
X39964Y-19725D01*
X40007Y-19725D01*
X40064Y-19710D01*
X40092Y-19696D01*
X40121Y-19667D01*
X40135Y-19625D01*
X40135Y-19553D01*
X39964Y-19896D02*
X39950Y-19867D01*
X39935Y-19853D01*
X39907Y-19839D01*
X39892Y-19839D01*
X39864Y-19853D01*
X39850Y-19867D01*
X39835Y-19896D01*
X39835Y-19953D01*
X39850Y-19982D01*
X39864Y-19996D01*
X39892Y-20010D01*
X39907Y-20010D01*
X39935Y-19996D01*
X39950Y-19982D01*
X39964Y-19953D01*
X39964Y-19896D01*
X39978Y-19867D01*
X39992Y-19853D01*
X40021Y-19839D01*
X40078Y-19839D01*
X40107Y-19853D01*
X40121Y-19867D01*
X40135Y-19896D01*
X40135Y-19953D01*
X40121Y-19982D01*
X40107Y-19996D01*
X40078Y-20010D01*
X40021Y-20010D01*
X39992Y-19996D01*
X39978Y-19982D01*
X39964Y-19953D01*
X37935Y-19078D02*
X37635Y-19078D01*
X37635Y-19192D01*
X37650Y-19221D01*
X37664Y-19235D01*
X37692Y-19250D01*
X37735Y-19250D01*
X37764Y-19235D01*
X37778Y-19221D01*
X37792Y-19192D01*
X37792Y-19078D01*
X37935Y-19378D02*
X37635Y-19378D01*
X37635Y-19450D01*
X37650Y-19492D01*
X37678Y-19521D01*
X37707Y-19535D01*
X37764Y-19550D01*
X37807Y-19550D01*
X37864Y-19535D01*
X37892Y-19521D01*
X37921Y-19492D01*
X37935Y-19450D01*
X37935Y-19378D01*
X37935Y-19692D02*
X37935Y-19750D01*
X37921Y-19778D01*
X37907Y-19792D01*
X37864Y-19821D01*
X37807Y-19835D01*
X37692Y-19835D01*
X37664Y-19821D01*
X37650Y-19807D01*
X37635Y-19778D01*
X37635Y-19721D01*
X37650Y-19692D01*
X37664Y-19678D01*
X37692Y-19664D01*
X37764Y-19664D01*
X37792Y-19678D01*
X37807Y-19692D01*
X37821Y-19721D01*
X37821Y-19778D01*
X37807Y-19807D01*
X37792Y-19821D01*
X37764Y-19835D01*
X37642Y-23635D02*
X37642Y-23335D01*
X37566Y-23335D01*
X37547Y-23350D01*
X37538Y-23364D01*
X37528Y-23392D01*
X37528Y-23435D01*
X37538Y-23464D01*
X37547Y-23478D01*
X37566Y-23492D01*
X37642Y-23492D01*
X37442Y-23635D02*
X37442Y-23335D01*
X37395Y-23335D01*
X37366Y-23350D01*
X37347Y-23378D01*
X37338Y-23407D01*
X37328Y-23464D01*
X37328Y-23507D01*
X37338Y-23564D01*
X37347Y-23592D01*
X37366Y-23621D01*
X37395Y-23635D01*
X37442Y-23635D01*
X37138Y-23635D02*
X37252Y-23635D01*
X37195Y-23635D02*
X37195Y-23335D01*
X37214Y-23378D01*
X37233Y-23407D01*
X37252Y-23421D01*
X36947Y-23635D02*
X37061Y-23635D01*
X37004Y-23635D02*
X37004Y-23335D01*
X37023Y-23378D01*
X37042Y-23407D01*
X37061Y-23421D01*
X36642Y-23635D02*
X36642Y-23335D01*
X36566Y-23335D01*
X36547Y-23350D01*
X36538Y-23364D01*
X36528Y-23392D01*
X36528Y-23435D01*
X36538Y-23464D01*
X36547Y-23478D01*
X36566Y-23492D01*
X36642Y-23492D01*
X36442Y-23635D02*
X36442Y-23335D01*
X36395Y-23335D01*
X36366Y-23350D01*
X36347Y-23378D01*
X36338Y-23407D01*
X36328Y-23464D01*
X36328Y-23507D01*
X36338Y-23564D01*
X36347Y-23592D01*
X36366Y-23621D01*
X36395Y-23635D01*
X36442Y-23635D01*
X36138Y-23635D02*
X36252Y-23635D01*
X36195Y-23635D02*
X36195Y-23335D01*
X36214Y-23378D01*
X36233Y-23407D01*
X36252Y-23421D01*
X36061Y-23364D02*
X36052Y-23350D01*
X36033Y-23335D01*
X35985Y-23335D01*
X35966Y-23350D01*
X35957Y-23364D01*
X35947Y-23392D01*
X35947Y-23421D01*
X35957Y-23464D01*
X36071Y-23635D01*
X35947Y-23635D01*
X35642Y-23635D02*
X35642Y-23335D01*
X35566Y-23335D01*
X35547Y-23350D01*
X35538Y-23364D01*
X35528Y-23392D01*
X35528Y-23435D01*
X35538Y-23464D01*
X35547Y-23478D01*
X35566Y-23492D01*
X35642Y-23492D01*
X35442Y-23635D02*
X35442Y-23335D01*
X35395Y-23335D01*
X35366Y-23350D01*
X35347Y-23378D01*
X35338Y-23407D01*
X35328Y-23464D01*
X35328Y-23507D01*
X35338Y-23564D01*
X35347Y-23592D01*
X35366Y-23621D01*
X35395Y-23635D01*
X35442Y-23635D01*
X35138Y-23635D02*
X35252Y-23635D01*
X35195Y-23635D02*
X35195Y-23335D01*
X35214Y-23378D01*
X35233Y-23407D01*
X35252Y-23421D01*
X35071Y-23335D02*
X34947Y-23335D01*
X35014Y-23450D01*
X34985Y-23450D01*
X34966Y-23464D01*
X34957Y-23478D01*
X34947Y-23507D01*
X34947Y-23578D01*
X34957Y-23607D01*
X34966Y-23621D01*
X34985Y-23635D01*
X35042Y-23635D01*
X35061Y-23621D01*
X35071Y-23607D01*
X46889Y-39800D02*
X46746Y-39800D01*
X46917Y-39885D02*
X46817Y-39585D01*
X46717Y-39885D01*
X46617Y-39885D02*
X46617Y-39585D01*
X46546Y-39585D01*
X46503Y-39600D01*
X46474Y-39628D01*
X46460Y-39657D01*
X46446Y-39714D01*
X46446Y-39757D01*
X46460Y-39814D01*
X46474Y-39842D01*
X46503Y-39871D01*
X46546Y-39885D01*
X46617Y-39885D01*
X46346Y-39585D02*
X46160Y-39585D01*
X46260Y-39700D01*
X46217Y-39700D01*
X46189Y-39714D01*
X46174Y-39728D01*
X46160Y-39757D01*
X46160Y-39828D01*
X46174Y-39857D01*
X46189Y-39871D01*
X46217Y-39885D01*
X46303Y-39885D01*
X46332Y-39871D01*
X46346Y-39857D01*
G54D11*
X22285Y-28478D02*
X22242Y-28492D01*
X22228Y-28507D01*
X22214Y-28535D01*
X22214Y-28578D01*
X22228Y-28607D01*
X22242Y-28621D01*
X22271Y-28635D01*
X22385Y-28635D01*
X22385Y-28335D01*
X22285Y-28335D01*
X22257Y-28350D01*
X22242Y-28364D01*
X22228Y-28392D01*
X22228Y-28421D01*
X22242Y-28450D01*
X22257Y-28464D01*
X22285Y-28478D01*
X22385Y-28478D01*
X22128Y-28335D02*
X21957Y-28335D01*
X22042Y-28635D02*
X22042Y-28335D01*
X21871Y-28364D02*
X21857Y-28350D01*
X21828Y-28335D01*
X21757Y-28335D01*
X21728Y-28350D01*
X21714Y-28364D01*
X21700Y-28392D01*
X21700Y-28421D01*
X21714Y-28464D01*
X21885Y-28635D01*
X21700Y-28635D01*
X25460Y-28478D02*
X25417Y-28492D01*
X25403Y-28507D01*
X25389Y-28535D01*
X25389Y-28578D01*
X25403Y-28607D01*
X25417Y-28621D01*
X25446Y-28635D01*
X25560Y-28635D01*
X25560Y-28335D01*
X25460Y-28335D01*
X25432Y-28350D01*
X25417Y-28364D01*
X25403Y-28392D01*
X25403Y-28421D01*
X25417Y-28450D01*
X25432Y-28464D01*
X25460Y-28478D01*
X25560Y-28478D01*
X25274Y-28550D02*
X25132Y-28550D01*
X25303Y-28635D02*
X25203Y-28335D01*
X25103Y-28635D01*
X25046Y-28335D02*
X24874Y-28335D01*
X24960Y-28635D02*
X24960Y-28335D01*
X24817Y-28335D02*
X24646Y-28335D01*
X24732Y-28635D02*
X24732Y-28335D01*
X24617Y-28664D02*
X24389Y-28664D01*
X24146Y-28607D02*
X24160Y-28621D01*
X24203Y-28635D01*
X24232Y-28635D01*
X24275Y-28621D01*
X24303Y-28592D01*
X24317Y-28564D01*
X24332Y-28507D01*
X24332Y-28464D01*
X24317Y-28407D01*
X24303Y-28378D01*
X24275Y-28350D01*
X24232Y-28335D01*
X24203Y-28335D01*
X24160Y-28350D01*
X24146Y-28364D01*
X23960Y-28335D02*
X23903Y-28335D01*
X23875Y-28350D01*
X23846Y-28378D01*
X23832Y-28435D01*
X23832Y-28535D01*
X23846Y-28592D01*
X23875Y-28621D01*
X23903Y-28635D01*
X23960Y-28635D01*
X23989Y-28621D01*
X24017Y-28592D01*
X24032Y-28535D01*
X24032Y-28435D01*
X24017Y-28378D01*
X23989Y-28350D01*
X23960Y-28335D01*
X23703Y-28635D02*
X23703Y-28335D01*
X23560Y-28635D02*
X23560Y-28335D01*
X23389Y-28635D01*
X23389Y-28335D01*
G54D12*
X30960Y-21803D02*
X30917Y-21817D01*
X30903Y-21832D01*
X30889Y-21860D01*
X30889Y-21903D01*
X30903Y-21932D01*
X30917Y-21946D01*
X30946Y-21960D01*
X31060Y-21960D01*
X31060Y-21660D01*
X30960Y-21660D01*
X30932Y-21675D01*
X30917Y-21689D01*
X30903Y-21717D01*
X30903Y-21746D01*
X30917Y-21775D01*
X30932Y-21789D01*
X30960Y-21803D01*
X31060Y-21803D01*
X30803Y-21660D02*
X30632Y-21660D01*
X30717Y-21960D02*
X30717Y-21660D01*
X30375Y-21960D02*
X30546Y-21960D01*
X30460Y-21960D02*
X30460Y-21660D01*
X30489Y-21703D01*
X30517Y-21732D01*
X30546Y-21746D01*
X45696Y-37185D02*
X45696Y-36885D01*
X45582Y-36885D01*
X45553Y-36900D01*
X45539Y-36914D01*
X45525Y-36942D01*
X45525Y-36985D01*
X45539Y-37014D01*
X45553Y-37028D01*
X45582Y-37042D01*
X45696Y-37042D01*
X45410Y-36914D02*
X45396Y-36900D01*
X45367Y-36885D01*
X45296Y-36885D01*
X45267Y-36900D01*
X45253Y-36914D01*
X45239Y-36942D01*
X45239Y-36971D01*
X45253Y-37014D01*
X45425Y-37185D01*
X45239Y-37185D01*
G54D11*
X44858Y-33880D02*
X44641Y-33880D01*
X44758Y-34033D01*
X44708Y-34033D01*
X44675Y-34052D01*
X44658Y-34071D01*
X44641Y-34109D01*
X44641Y-34204D01*
X44658Y-34242D01*
X44675Y-34261D01*
X44708Y-34280D01*
X44808Y-34280D01*
X44841Y-34261D01*
X44858Y-34242D01*
X44541Y-33880D02*
X44425Y-34280D01*
X44308Y-33880D01*
X44225Y-33880D02*
X44008Y-33880D01*
X44125Y-34033D01*
X44075Y-34033D01*
X44041Y-34052D01*
X44025Y-34071D01*
X44008Y-34109D01*
X44008Y-34204D01*
X44025Y-34242D01*
X44041Y-34261D01*
X44075Y-34280D01*
X44175Y-34280D01*
X44208Y-34261D01*
X44225Y-34242D01*
X44849Y-35280D02*
X44849Y-34880D01*
X44733Y-35166D01*
X44616Y-34880D01*
X44616Y-35280D01*
X44383Y-34880D02*
X44316Y-34880D01*
X44283Y-34900D01*
X44249Y-34938D01*
X44233Y-35014D01*
X44233Y-35147D01*
X44249Y-35223D01*
X44283Y-35261D01*
X44316Y-35280D01*
X44383Y-35280D01*
X44416Y-35261D01*
X44449Y-35223D01*
X44466Y-35147D01*
X44466Y-35014D01*
X44449Y-34938D01*
X44416Y-34900D01*
X44383Y-34880D01*
X44100Y-35261D02*
X44050Y-35280D01*
X43966Y-35280D01*
X43933Y-35261D01*
X43916Y-35242D01*
X43900Y-35204D01*
X43900Y-35166D01*
X43916Y-35128D01*
X43933Y-35109D01*
X43966Y-35090D01*
X44033Y-35071D01*
X44066Y-35052D01*
X44083Y-35033D01*
X44100Y-34995D01*
X44100Y-34957D01*
X44083Y-34919D01*
X44066Y-34900D01*
X44033Y-34880D01*
X43950Y-34880D01*
X43900Y-34900D01*
X43749Y-35280D02*
X43749Y-34880D01*
X44641Y-35900D02*
X44674Y-35880D01*
X44724Y-35880D01*
X44774Y-35900D01*
X44808Y-35938D01*
X44824Y-35976D01*
X44841Y-36052D01*
X44841Y-36109D01*
X44824Y-36185D01*
X44808Y-36223D01*
X44774Y-36261D01*
X44724Y-36280D01*
X44691Y-36280D01*
X44641Y-36261D01*
X44624Y-36242D01*
X44624Y-36109D01*
X44691Y-36109D01*
X44474Y-36280D02*
X44474Y-35880D01*
X44274Y-36280D01*
X44274Y-35880D01*
X44108Y-36280D02*
X44108Y-35880D01*
X44025Y-35880D01*
X43975Y-35900D01*
X43941Y-35938D01*
X43925Y-35976D01*
X43908Y-36052D01*
X43908Y-36109D01*
X43925Y-36185D01*
X43941Y-36223D01*
X43975Y-36261D01*
X44025Y-36280D01*
X44108Y-36280D01*
X49000Y-34280D02*
X49000Y-33880D01*
X48883Y-34166D01*
X48766Y-33880D01*
X48766Y-34280D01*
X48600Y-34280D02*
X48600Y-33880D01*
X48450Y-34261D02*
X48400Y-34280D01*
X48316Y-34280D01*
X48283Y-34261D01*
X48266Y-34242D01*
X48250Y-34204D01*
X48250Y-34166D01*
X48266Y-34128D01*
X48283Y-34109D01*
X48316Y-34090D01*
X48383Y-34071D01*
X48416Y-34052D01*
X48433Y-34033D01*
X48450Y-33995D01*
X48450Y-33957D01*
X48433Y-33919D01*
X48416Y-33900D01*
X48383Y-33880D01*
X48300Y-33880D01*
X48250Y-33900D01*
X48033Y-33880D02*
X47966Y-33880D01*
X47933Y-33900D01*
X47900Y-33938D01*
X47883Y-34014D01*
X47883Y-34147D01*
X47900Y-34223D01*
X47933Y-34261D01*
X47966Y-34280D01*
X48033Y-34280D01*
X48066Y-34261D01*
X48100Y-34223D01*
X48116Y-34147D01*
X48116Y-34014D01*
X48100Y-33938D01*
X48066Y-33900D01*
X48033Y-33880D01*
X47633Y-34433D02*
X47650Y-34414D01*
X47683Y-34357D01*
X47700Y-34319D01*
X47716Y-34261D01*
X47733Y-34166D01*
X47733Y-34090D01*
X47716Y-33995D01*
X47700Y-33938D01*
X47683Y-33900D01*
X47650Y-33842D01*
X47633Y-33823D01*
X47316Y-34280D02*
X47516Y-34280D01*
X47416Y-34280D02*
X47416Y-33880D01*
X47450Y-33938D01*
X47483Y-33976D01*
X47516Y-33995D01*
X47200Y-34433D02*
X47183Y-34414D01*
X47150Y-34357D01*
X47133Y-34319D01*
X47116Y-34261D01*
X47100Y-34166D01*
X47100Y-34090D01*
X47116Y-33995D01*
X47133Y-33938D01*
X47150Y-33900D01*
X47183Y-33842D01*
X47200Y-33823D01*
X48050Y-35261D02*
X48000Y-35280D01*
X47916Y-35280D01*
X47883Y-35261D01*
X47866Y-35242D01*
X47850Y-35204D01*
X47850Y-35166D01*
X47866Y-35128D01*
X47883Y-35109D01*
X47916Y-35090D01*
X47983Y-35071D01*
X48016Y-35052D01*
X48033Y-35033D01*
X48050Y-34995D01*
X48050Y-34957D01*
X48033Y-34919D01*
X48016Y-34900D01*
X47983Y-34880D01*
X47900Y-34880D01*
X47850Y-34900D01*
X47499Y-35242D02*
X47516Y-35261D01*
X47566Y-35280D01*
X47599Y-35280D01*
X47649Y-35261D01*
X47683Y-35223D01*
X47699Y-35185D01*
X47716Y-35109D01*
X47716Y-35052D01*
X47699Y-34976D01*
X47683Y-34938D01*
X47649Y-34900D01*
X47599Y-34880D01*
X47566Y-34880D01*
X47516Y-34900D01*
X47499Y-34919D01*
X47349Y-35280D02*
X47349Y-34880D01*
X47149Y-35280D02*
X47299Y-35052D01*
X47149Y-34880D02*
X47349Y-35109D01*
X47791Y-36280D02*
X47908Y-36090D01*
X47991Y-36280D02*
X47991Y-35880D01*
X47858Y-35880D01*
X47825Y-35900D01*
X47808Y-35919D01*
X47791Y-35957D01*
X47791Y-36014D01*
X47808Y-36052D01*
X47825Y-36071D01*
X47858Y-36090D01*
X47991Y-36090D01*
X47658Y-36261D02*
X47608Y-36280D01*
X47525Y-36280D01*
X47491Y-36261D01*
X47475Y-36242D01*
X47458Y-36204D01*
X47458Y-36166D01*
X47475Y-36128D01*
X47491Y-36109D01*
X47525Y-36090D01*
X47591Y-36071D01*
X47625Y-36052D01*
X47641Y-36033D01*
X47658Y-35995D01*
X47658Y-35957D01*
X47641Y-35919D01*
X47625Y-35900D01*
X47591Y-35880D01*
X47508Y-35880D01*
X47458Y-35900D01*
X47358Y-35880D02*
X47158Y-35880D01*
X47258Y-36280D02*
X47258Y-35880D01*
%LPC*%
G54D18*
X16768Y-28263D03*
X16768Y-37436D03*
G54D19*
X18050Y-29011D03*
X18050Y-29208D03*
X18050Y-29405D03*
X18050Y-29601D03*
X18050Y-29798D03*
X18050Y-29995D03*
X18050Y-30192D03*
X18050Y-30389D03*
X18050Y-30586D03*
X18050Y-30783D03*
X18050Y-30979D03*
X18050Y-31176D03*
X18050Y-31373D03*
X18050Y-31570D03*
X18050Y-31767D03*
X18050Y-31964D03*
X18050Y-32161D03*
X18050Y-32357D03*
X18050Y-32554D03*
X18050Y-32751D03*
X18050Y-32948D03*
X18050Y-33145D03*
X18050Y-33342D03*
X18050Y-33538D03*
X18050Y-33735D03*
X18050Y-33932D03*
X18050Y-34129D03*
X18050Y-34326D03*
X18050Y-34523D03*
X18050Y-34720D03*
X18050Y-34916D03*
X18050Y-35113D03*
X18050Y-35310D03*
X18050Y-35507D03*
X18050Y-35704D03*
X18050Y-35901D03*
X18050Y-36098D03*
X18050Y-36294D03*
X18050Y-36491D03*
X18050Y-36688D03*
G54D20*
X23924Y-38156D03*
X23924Y-37644D03*
X23176Y-37900D03*
X14649Y-26581D03*
X14649Y-26069D03*
X13901Y-26325D03*
X23924Y-35656D03*
X23924Y-35144D03*
X23176Y-35400D03*
X20324Y-40006D03*
X20324Y-39494D03*
X19576Y-39750D03*
X23176Y-36344D03*
X23176Y-36856D03*
X23924Y-36600D03*
X23999Y-40006D03*
X23999Y-39494D03*
X23251Y-39750D03*
X14649Y-25381D03*
X14649Y-24869D03*
X13901Y-25125D03*
G54D21*
X13792Y-23875D03*
X14658Y-24250D03*
X14658Y-23500D03*
G54D22*
X41275Y-25425D03*
X40475Y-25425D03*
X29200Y-34850D03*
X30000Y-34850D03*
X19750Y-34225D03*
X20550Y-34225D03*
X21550Y-30950D03*
X22350Y-30950D03*
X19750Y-33000D03*
X20550Y-33000D03*
X21550Y-32175D03*
X22350Y-32175D03*
G54D23*
X16220Y-26780D03*
X16220Y-25980D03*
G54D22*
X21550Y-29750D03*
X22350Y-29750D03*
X19750Y-30600D03*
X20550Y-30600D03*
G54D23*
X17700Y-26775D03*
X17700Y-25975D03*
G54D22*
X21550Y-33350D03*
X22350Y-33350D03*
X21550Y-37200D03*
X22350Y-37200D03*
X19750Y-31800D03*
X20550Y-31800D03*
X21550Y-36000D03*
X22350Y-36000D03*
X34875Y-28150D03*
X35675Y-28150D03*
X22350Y-34500D03*
X21550Y-34500D03*
X19750Y-36600D03*
X20550Y-36600D03*
X19750Y-37800D03*
X20550Y-37800D03*
X19750Y-29400D03*
X20550Y-29400D03*
G54D23*
X26375Y-36800D03*
X26375Y-36000D03*
G54D24*
X12900Y-26325D03*
X12900Y-25575D03*
X22400Y-39375D03*
X22400Y-40125D03*
X18600Y-40125D03*
X18600Y-39375D03*
G54D25*
X19775Y-35400D03*
X20525Y-35400D03*
G54D24*
X17500Y-39375D03*
X17500Y-40125D03*
X21350Y-39375D03*
X21350Y-40125D03*
G54D25*
X39900Y-27800D03*
X39150Y-27800D03*
G54D24*
X11775Y-24325D03*
X11775Y-23575D03*
G54D23*
X24975Y-36800D03*
X24975Y-36000D03*
G54D22*
X39150Y-28800D03*
X39950Y-28800D03*
X37900Y-36500D03*
X38700Y-36500D03*
G54D23*
X12900Y-23575D03*
X12900Y-24375D03*
G54D22*
X35675Y-30875D03*
X34875Y-30875D03*
G54D23*
X27175Y-31775D03*
X27175Y-32575D03*
X10650Y-23575D03*
X10650Y-24375D03*
X33700Y-29900D03*
X33700Y-29100D03*
G54D26*
X35675Y-29125D03*
X34725Y-29500D03*
X35675Y-29875D03*
G54D25*
X34640Y-41100D03*
X33890Y-41100D03*
X38640Y-41100D03*
X37890Y-41100D03*
X30640Y-41100D03*
X29890Y-41100D03*
X40960Y-41100D03*
X41710Y-41100D03*
G54D27*
X40610Y-30900D03*
X37400Y-32375D03*
G54D28*
X16500Y-41500D03*
X17500Y-41500D03*
G54D29*
X18500Y-41500D03*
X19500Y-41500D03*
X20500Y-41500D03*
X21500Y-41500D03*
G54D23*
X22700Y-41450D03*
X22700Y-42250D03*
G54D30*
X28366Y-28398D03*
X28366Y-28713D03*
X28366Y-29028D03*
X28366Y-29343D03*
X28366Y-29657D03*
X28366Y-29972D03*
X28366Y-30287D03*
X28366Y-30602D03*
X31634Y-30602D03*
X31634Y-28398D03*
X31634Y-28713D03*
X31634Y-29028D03*
X31634Y-29343D03*
X31634Y-29657D03*
X31634Y-29972D03*
X31634Y-30287D03*
G54D31*
X28898Y-31134D03*
X29213Y-31134D03*
X29528Y-31134D03*
X29843Y-31134D03*
X30157Y-31134D03*
X30472Y-31134D03*
X30787Y-31134D03*
X31102Y-31134D03*
X28898Y-27866D03*
X29213Y-27866D03*
X29528Y-27866D03*
X29843Y-27866D03*
X30157Y-27866D03*
X30472Y-27866D03*
X30787Y-27866D03*
X31102Y-27866D03*
G54D32*
X12500Y-16500D03*
G54D33*
X46500Y-29700D03*
X46500Y-30700D03*
X46500Y-31700D03*
G54D34*
X46500Y-32700D03*
G54D27*
X37400Y-31375D03*
X39800Y-36800D03*
X40800Y-36800D03*
G54D32*
X47500Y-16500D03*
G54D21*
X27342Y-36425D03*
X28208Y-36800D03*
X28208Y-36050D03*
G54D24*
X36775Y-21850D03*
X36775Y-21100D03*
G54D22*
X40750Y-23425D03*
X41550Y-23425D03*
G54D25*
X26640Y-41100D03*
X25890Y-41100D03*
G54D22*
X39525Y-23425D03*
X38725Y-23425D03*
G54D23*
X45475Y-30800D03*
X45475Y-31600D03*
G54D35*
X11650Y-34075D03*
X11650Y-33819D03*
X11650Y-33563D03*
X11650Y-34331D03*
X11650Y-34587D03*
G54D36*
X11550Y-35325D03*
X11550Y-32825D03*
G54D37*
X10600Y-34550D03*
X10600Y-33600D03*
G54D38*
X10600Y-35375D03*
X10600Y-32775D03*
G54D21*
X27342Y-34850D03*
X28208Y-35225D03*
X28208Y-34475D03*
G54D22*
X29200Y-36425D03*
X30000Y-36425D03*
G54D39*
X39000Y-21100D03*
X40900Y-21100D03*
X39000Y-21600D03*
X39000Y-22100D03*
X39000Y-22600D03*
X40900Y-21600D03*
X40900Y-22100D03*
X40900Y-22600D03*
G54D40*
X26125Y-32146D03*
X26125Y-31554D03*
X24450Y-32146D03*
X24450Y-31554D03*
G54D41*
X23775Y-30325D03*
X26325Y-30325D03*
G54D29*
X45575Y-20975D03*
X45575Y-21975D03*
G54D42*
X47675Y-21475D03*
G54D43*
X10819Y-31318D03*
G54D44*
X13004Y-30393D03*
X13004Y-29607D03*
G54D43*
X10819Y-28682D03*
G54D27*
X37675Y-21850D03*
G54D45*
X11100Y-26000D03*
X11100Y-37000D03*
G54D10*
G36*
X32825Y-24100D02*
X32825Y-24000D01*
X33425Y-23800D01*
X33425Y-24300D01*
X32825Y-24100D01*
X32825Y-24100D01*
G37*
G36*
X33475Y-24300D02*
X33475Y-23800D01*
X34075Y-24000D01*
X34075Y-24100D01*
X33475Y-24300D01*
X33475Y-24300D01*
G37*
G54D46*
X13125Y-20925D03*
G54D47*
X15487Y-20925D03*
G54D48*
X14306Y-18995D03*
G54D49*
X40872Y-32298D03*
X41128Y-32298D03*
X41384Y-32298D03*
X41640Y-32298D03*
X40104Y-34502D03*
X40104Y-32298D03*
X40360Y-32298D03*
X40616Y-32298D03*
X41896Y-34502D03*
X41640Y-34502D03*
X41384Y-34502D03*
X41128Y-34502D03*
X40872Y-34502D03*
X40616Y-34502D03*
X41896Y-32298D03*
X40360Y-34502D03*
X39848Y-32298D03*
X42152Y-32298D03*
X42152Y-34502D03*
X39848Y-34502D03*
G54D50*
X44230Y-24700D03*
X44230Y-24267D03*
X44230Y-23834D03*
X44230Y-23401D03*
X44230Y-22968D03*
X44230Y-25133D03*
X44230Y-25566D03*
X44230Y-25999D03*
X44230Y-26432D03*
G54D51*
X44466Y-22495D03*
G54D52*
X48206Y-22495D03*
X48206Y-28597D03*
G54D53*
X44426Y-28243D03*
G54D54*
X48363Y-23597D03*
X48363Y-26747D03*
G54D25*
X39200Y-30150D03*
X39950Y-30150D03*
G54D55*
X33675Y-23150D03*
X33200Y-23150D03*
G54D56*
X35284Y-21077D03*
X32115Y-21077D03*
X35284Y-21943D03*
X32115Y-21943D03*
G54D57*
X34585Y-22327D03*
X33995Y-22327D03*
X32814Y-22327D03*
G54D58*
X34290Y-21510D03*
X33109Y-21510D03*
G54D27*
X42900Y-39750D03*
X43900Y-39750D03*
X44900Y-39750D03*
X46400Y-20500D03*
X44400Y-20600D03*
X43400Y-20600D03*
X42400Y-20600D03*
X41400Y-20500D03*
X40000Y-20380D03*
X37800Y-20570D03*
X37300Y-23000D03*
X36300Y-23000D03*
X35300Y-23000D03*
X40900Y-39750D03*
X36900Y-39750D03*
X45900Y-39750D03*
X31300Y-21000D03*
G54D29*
X47900Y-39000D03*
X46900Y-39000D03*
X45900Y-39000D03*
X42900Y-39000D03*
X43900Y-39000D03*
X44900Y-39000D03*
X40900Y-39000D03*
X39900Y-39000D03*
X38900Y-39000D03*
X36900Y-39000D03*
X35900Y-39000D03*
X47900Y-20000D03*
X46900Y-20000D03*
X45900Y-20000D03*
X44900Y-20000D03*
X43900Y-20000D03*
X42900Y-20000D03*
X41900Y-20000D03*
X40900Y-20000D03*
X39300Y-20000D03*
X38300Y-20000D03*
X37300Y-20000D03*
X36300Y-20000D03*
X35300Y-20000D03*
X34300Y-20000D03*
X33300Y-20000D03*
X32300Y-20000D03*
X37900Y-39000D03*
G54D45*
X48900Y-37000D03*
X28900Y-20000D03*
X28400Y-39000D03*
G54D29*
X34900Y-39000D03*
X31300Y-20000D03*
X30300Y-20000D03*
X33900Y-39000D03*
G54D59*
X29875Y-23675D03*
X17425Y-23675D03*
G54D60*
X23650Y-23675D03*
G54D28*
X45500Y-36100D03*
G54D29*
X46500Y-36100D03*
X45500Y-35100D03*
X46500Y-35100D03*
X45500Y-34100D03*
X46500Y-34100D03*
M02*
